<?xml version="1.0" encoding="utf-8" standalone="no"?>
<!DOCTYPE svg PUBLIC "-//W3C//DTD SVG 1.1//EN"
  "http://www.w3.org/Graphics/SVG/1.1/DTD/svg11.dtd">
<!-- Created with matplotlib (https://matplotlib.org/) -->
<svg height="345.6pt" version="1.1" viewBox="0 0 460.8 345.6" width="460.8pt" xmlns="http://www.w3.org/2000/svg" xmlns:xlink="http://www.w3.org/1999/xlink">
 <defs>
  <style type="text/css">
*{stroke-linecap:butt;stroke-linejoin:round;}
  </style>
 </defs>
 <g id="figure_1">
  <g id="patch_1">
   <path d="M 0 345.6 
L 460.8 345.6 
L 460.8 0 
L 0 0 
z
" style="fill:#ffffff;"/>
  </g>
  <g id="axes_1">
   <g id="patch_2">
    <path d="M 57.6 307.584 
L 414.72 307.584 
L 414.72 41.472 
L 57.6 41.472 
z
" style="fill:#ffffff;"/>
   </g>
   <g id="matplotlib.axis_1">
    <g id="xtick_1">
     <g id="line2d_1">
      <defs>
       <path d="M 0 0 
L 0 3.5 
" id="m4ebc5c014a" style="stroke:#000000;stroke-width:0.8;"/>
      </defs>
      <g>
       <use style="stroke:#000000;stroke-width:0.8;" x="57.6" xlink:href="#m4ebc5c014a" y="307.584"/>
      </g>
     </g>
     <g id="text_1">
      <!-- 0 -->
      <defs>
       <path d="M 31.78125 66.40625 
Q 24.171875 66.40625 20.328125 58.90625 
Q 16.5 51.421875 16.5 36.375 
Q 16.5 21.390625 20.328125 13.890625 
Q 24.171875 6.390625 31.78125 6.390625 
Q 39.453125 6.390625 43.28125 13.890625 
Q 47.125 21.390625 47.125 36.375 
Q 47.125 51.421875 43.28125 58.90625 
Q 39.453125 66.40625 31.78125 66.40625 
z
M 31.78125 74.21875 
Q 44.046875 74.21875 50.515625 64.515625 
Q 56.984375 54.828125 56.984375 36.375 
Q 56.984375 17.96875 50.515625 8.265625 
Q 44.046875 -1.421875 31.78125 -1.421875 
Q 19.53125 -1.421875 13.0625 8.265625 
Q 6.59375 17.96875 6.59375 36.375 
Q 6.59375 54.828125 13.0625 64.515625 
Q 19.53125 74.21875 31.78125 74.21875 
z
" id="DejaVuSans-48"/>
      </defs>
      <g transform="translate(54.41875 322.182437)scale(0.1 -0.1)">
       <use xlink:href="#DejaVuSans-48"/>
      </g>
     </g>
    </g>
    <g id="xtick_2">
     <g id="line2d_2">
      <g>
       <use style="stroke:#000000;stroke-width:0.8;" x="103.68" xlink:href="#m4ebc5c014a" y="307.584"/>
      </g>
     </g>
     <g id="text_2">
      <!-- 20 -->
      <defs>
       <path d="M 19.1875 8.296875 
L 53.609375 8.296875 
L 53.609375 0 
L 7.328125 0 
L 7.328125 8.296875 
Q 12.9375 14.109375 22.625 23.890625 
Q 32.328125 33.6875 34.8125 36.53125 
Q 39.546875 41.84375 41.421875 45.53125 
Q 43.3125 49.21875 43.3125 52.78125 
Q 43.3125 58.59375 39.234375 62.25 
Q 35.15625 65.921875 28.609375 65.921875 
Q 23.96875 65.921875 18.8125 64.3125 
Q 13.671875 62.703125 7.8125 59.421875 
L 7.8125 69.390625 
Q 13.765625 71.78125 18.9375 73 
Q 24.125 74.21875 28.421875 74.21875 
Q 39.75 74.21875 46.484375 68.546875 
Q 53.21875 62.890625 53.21875 53.421875 
Q 53.21875 48.921875 51.53125 44.890625 
Q 49.859375 40.875 45.40625 35.40625 
Q 44.1875 33.984375 37.640625 27.21875 
Q 31.109375 20.453125 19.1875 8.296875 
z
" id="DejaVuSans-50"/>
      </defs>
      <g transform="translate(97.3175 322.182437)scale(0.1 -0.1)">
       <use xlink:href="#DejaVuSans-50"/>
       <use x="63.623047" xlink:href="#DejaVuSans-48"/>
      </g>
     </g>
    </g>
    <g id="xtick_3">
     <g id="line2d_3">
      <g>
       <use style="stroke:#000000;stroke-width:0.8;" x="149.76" xlink:href="#m4ebc5c014a" y="307.584"/>
      </g>
     </g>
     <g id="text_3">
      <!-- 40 -->
      <defs>
       <path d="M 37.796875 64.3125 
L 12.890625 25.390625 
L 37.796875 25.390625 
z
M 35.203125 72.90625 
L 47.609375 72.90625 
L 47.609375 25.390625 
L 58.015625 25.390625 
L 58.015625 17.1875 
L 47.609375 17.1875 
L 47.609375 0 
L 37.796875 0 
L 37.796875 17.1875 
L 4.890625 17.1875 
L 4.890625 26.703125 
z
" id="DejaVuSans-52"/>
      </defs>
      <g transform="translate(143.3975 322.182437)scale(0.1 -0.1)">
       <use xlink:href="#DejaVuSans-52"/>
       <use x="63.623047" xlink:href="#DejaVuSans-48"/>
      </g>
     </g>
    </g>
    <g id="xtick_4">
     <g id="line2d_4">
      <g>
       <use style="stroke:#000000;stroke-width:0.8;" x="195.84" xlink:href="#m4ebc5c014a" y="307.584"/>
      </g>
     </g>
     <g id="text_4">
      <!-- 60 -->
      <defs>
       <path d="M 33.015625 40.375 
Q 26.375 40.375 22.484375 35.828125 
Q 18.609375 31.296875 18.609375 23.390625 
Q 18.609375 15.53125 22.484375 10.953125 
Q 26.375 6.390625 33.015625 6.390625 
Q 39.65625 6.390625 43.53125 10.953125 
Q 47.40625 15.53125 47.40625 23.390625 
Q 47.40625 31.296875 43.53125 35.828125 
Q 39.65625 40.375 33.015625 40.375 
z
M 52.59375 71.296875 
L 52.59375 62.3125 
Q 48.875 64.0625 45.09375 64.984375 
Q 41.3125 65.921875 37.59375 65.921875 
Q 27.828125 65.921875 22.671875 59.328125 
Q 17.53125 52.734375 16.796875 39.40625 
Q 19.671875 43.65625 24.015625 45.921875 
Q 28.375 48.1875 33.59375 48.1875 
Q 44.578125 48.1875 50.953125 41.515625 
Q 57.328125 34.859375 57.328125 23.390625 
Q 57.328125 12.15625 50.6875 5.359375 
Q 44.046875 -1.421875 33.015625 -1.421875 
Q 20.359375 -1.421875 13.671875 8.265625 
Q 6.984375 17.96875 6.984375 36.375 
Q 6.984375 53.65625 15.1875 63.9375 
Q 23.390625 74.21875 37.203125 74.21875 
Q 40.921875 74.21875 44.703125 73.484375 
Q 48.484375 72.75 52.59375 71.296875 
z
" id="DejaVuSans-54"/>
      </defs>
      <g transform="translate(189.4775 322.182437)scale(0.1 -0.1)">
       <use xlink:href="#DejaVuSans-54"/>
       <use x="63.623047" xlink:href="#DejaVuSans-48"/>
      </g>
     </g>
    </g>
    <g id="xtick_5">
     <g id="line2d_5">
      <g>
       <use style="stroke:#000000;stroke-width:0.8;" x="241.92" xlink:href="#m4ebc5c014a" y="307.584"/>
      </g>
     </g>
     <g id="text_5">
      <!-- 80 -->
      <defs>
       <path d="M 31.78125 34.625 
Q 24.75 34.625 20.71875 30.859375 
Q 16.703125 27.09375 16.703125 20.515625 
Q 16.703125 13.921875 20.71875 10.15625 
Q 24.75 6.390625 31.78125 6.390625 
Q 38.8125 6.390625 42.859375 10.171875 
Q 46.921875 13.96875 46.921875 20.515625 
Q 46.921875 27.09375 42.890625 30.859375 
Q 38.875 34.625 31.78125 34.625 
z
M 21.921875 38.8125 
Q 15.578125 40.375 12.03125 44.71875 
Q 8.5 49.078125 8.5 55.328125 
Q 8.5 64.0625 14.71875 69.140625 
Q 20.953125 74.21875 31.78125 74.21875 
Q 42.671875 74.21875 48.875 69.140625 
Q 55.078125 64.0625 55.078125 55.328125 
Q 55.078125 49.078125 51.53125 44.71875 
Q 48 40.375 41.703125 38.8125 
Q 48.828125 37.15625 52.796875 32.3125 
Q 56.78125 27.484375 56.78125 20.515625 
Q 56.78125 9.90625 50.3125 4.234375 
Q 43.84375 -1.421875 31.78125 -1.421875 
Q 19.734375 -1.421875 13.25 4.234375 
Q 6.78125 9.90625 6.78125 20.515625 
Q 6.78125 27.484375 10.78125 32.3125 
Q 14.796875 37.15625 21.921875 38.8125 
z
M 18.3125 54.390625 
Q 18.3125 48.734375 21.84375 45.5625 
Q 25.390625 42.390625 31.78125 42.390625 
Q 38.140625 42.390625 41.71875 45.5625 
Q 45.3125 48.734375 45.3125 54.390625 
Q 45.3125 60.0625 41.71875 63.234375 
Q 38.140625 66.40625 31.78125 66.40625 
Q 25.390625 66.40625 21.84375 63.234375 
Q 18.3125 60.0625 18.3125 54.390625 
z
" id="DejaVuSans-56"/>
      </defs>
      <g transform="translate(235.5575 322.182437)scale(0.1 -0.1)">
       <use xlink:href="#DejaVuSans-56"/>
       <use x="63.623047" xlink:href="#DejaVuSans-48"/>
      </g>
     </g>
    </g>
    <g id="xtick_6">
     <g id="line2d_6">
      <g>
       <use style="stroke:#000000;stroke-width:0.8;" x="288" xlink:href="#m4ebc5c014a" y="307.584"/>
      </g>
     </g>
     <g id="text_6">
      <!-- 100 -->
      <defs>
       <path d="M 12.40625 8.296875 
L 28.515625 8.296875 
L 28.515625 63.921875 
L 10.984375 60.40625 
L 10.984375 69.390625 
L 28.421875 72.90625 
L 38.28125 72.90625 
L 38.28125 8.296875 
L 54.390625 8.296875 
L 54.390625 0 
L 12.40625 0 
z
" id="DejaVuSans-49"/>
      </defs>
      <g transform="translate(278.45625 322.182437)scale(0.1 -0.1)">
       <use xlink:href="#DejaVuSans-49"/>
       <use x="63.623047" xlink:href="#DejaVuSans-48"/>
       <use x="127.246094" xlink:href="#DejaVuSans-48"/>
      </g>
     </g>
    </g>
    <g id="xtick_7">
     <g id="line2d_7">
      <g>
       <use style="stroke:#000000;stroke-width:0.8;" x="334.08" xlink:href="#m4ebc5c014a" y="307.584"/>
      </g>
     </g>
     <g id="text_7">
      <!-- 120 -->
      <g transform="translate(324.53625 322.182437)scale(0.1 -0.1)">
       <use xlink:href="#DejaVuSans-49"/>
       <use x="63.623047" xlink:href="#DejaVuSans-50"/>
       <use x="127.246094" xlink:href="#DejaVuSans-48"/>
      </g>
     </g>
    </g>
    <g id="xtick_8">
     <g id="line2d_8">
      <g>
       <use style="stroke:#000000;stroke-width:0.8;" x="380.16" xlink:href="#m4ebc5c014a" y="307.584"/>
      </g>
     </g>
     <g id="text_8">
      <!-- 140 -->
      <g transform="translate(370.61625 322.182437)scale(0.1 -0.1)">
       <use xlink:href="#DejaVuSans-49"/>
       <use x="63.623047" xlink:href="#DejaVuSans-52"/>
       <use x="127.246094" xlink:href="#DejaVuSans-48"/>
      </g>
     </g>
    </g>
   </g>
   <g id="matplotlib.axis_2">
    <g id="ytick_1">
     <g id="line2d_9">
      <defs>
       <path d="M 0 0 
L -3.5 0 
" id="m21281d5b0b" style="stroke:#000000;stroke-width:0.8;"/>
      </defs>
      <g>
       <use style="stroke:#000000;stroke-width:0.8;" x="57.6" xlink:href="#m21281d5b0b" y="306.006261"/>
      </g>
     </g>
     <g id="text_9">
      <!-- 50 -->
      <defs>
       <path d="M 10.796875 72.90625 
L 49.515625 72.90625 
L 49.515625 64.59375 
L 19.828125 64.59375 
L 19.828125 46.734375 
Q 21.96875 47.46875 24.109375 47.828125 
Q 26.265625 48.1875 28.421875 48.1875 
Q 40.625 48.1875 47.75 41.5 
Q 54.890625 34.8125 54.890625 23.390625 
Q 54.890625 11.625 47.5625 5.09375 
Q 40.234375 -1.421875 26.90625 -1.421875 
Q 22.3125 -1.421875 17.546875 -0.640625 
Q 12.796875 0.140625 7.71875 1.703125 
L 7.71875 11.625 
Q 12.109375 9.234375 16.796875 8.0625 
Q 21.484375 6.890625 26.703125 6.890625 
Q 35.15625 6.890625 40.078125 11.328125 
Q 45.015625 15.765625 45.015625 23.390625 
Q 45.015625 31 40.078125 35.4375 
Q 35.15625 39.890625 26.703125 39.890625 
Q 22.75 39.890625 18.8125 39.015625 
Q 14.890625 38.140625 10.796875 36.28125 
z
" id="DejaVuSans-53"/>
      </defs>
      <g transform="translate(37.875 309.80548)scale(0.1 -0.1)">
       <use xlink:href="#DejaVuSans-53"/>
       <use x="63.623047" xlink:href="#DejaVuSans-48"/>
      </g>
     </g>
    </g>
    <g id="ytick_2">
     <g id="line2d_10">
      <g>
       <use style="stroke:#000000;stroke-width:0.8;" x="57.6" xlink:href="#m21281d5b0b" y="262.180174"/>
      </g>
     </g>
     <g id="text_10">
      <!-- 55 -->
      <g transform="translate(37.875 265.979393)scale(0.1 -0.1)">
       <use xlink:href="#DejaVuSans-53"/>
       <use x="63.623047" xlink:href="#DejaVuSans-53"/>
      </g>
     </g>
    </g>
    <g id="ytick_3">
     <g id="line2d_11">
      <g>
       <use style="stroke:#000000;stroke-width:0.8;" x="57.6" xlink:href="#m21281d5b0b" y="218.354087"/>
      </g>
     </g>
     <g id="text_11">
      <!-- 60 -->
      <g transform="translate(37.875 222.153306)scale(0.1 -0.1)">
       <use xlink:href="#DejaVuSans-54"/>
       <use x="63.623047" xlink:href="#DejaVuSans-48"/>
      </g>
     </g>
    </g>
    <g id="ytick_4">
     <g id="line2d_12">
      <g>
       <use style="stroke:#000000;stroke-width:0.8;" x="57.6" xlink:href="#m21281d5b0b" y="174.528"/>
      </g>
     </g>
     <g id="text_12">
      <!-- 65 -->
      <g transform="translate(37.875 178.327219)scale(0.1 -0.1)">
       <use xlink:href="#DejaVuSans-54"/>
       <use x="63.623047" xlink:href="#DejaVuSans-53"/>
      </g>
     </g>
    </g>
    <g id="ytick_5">
     <g id="line2d_13">
      <g>
       <use style="stroke:#000000;stroke-width:0.8;" x="57.6" xlink:href="#m21281d5b0b" y="130.701913"/>
      </g>
     </g>
     <g id="text_13">
      <!-- 70 -->
      <defs>
       <path d="M 8.203125 72.90625 
L 55.078125 72.90625 
L 55.078125 68.703125 
L 28.609375 0 
L 18.3125 0 
L 43.21875 64.59375 
L 8.203125 64.59375 
z
" id="DejaVuSans-55"/>
      </defs>
      <g transform="translate(37.875 134.501132)scale(0.1 -0.1)">
       <use xlink:href="#DejaVuSans-55"/>
       <use x="63.623047" xlink:href="#DejaVuSans-48"/>
      </g>
     </g>
    </g>
    <g id="ytick_6">
     <g id="line2d_14">
      <g>
       <use style="stroke:#000000;stroke-width:0.8;" x="57.6" xlink:href="#m21281d5b0b" y="86.875826"/>
      </g>
     </g>
     <g id="text_14">
      <!-- 75 -->
      <g transform="translate(37.875 90.675045)scale(0.1 -0.1)">
       <use xlink:href="#DejaVuSans-55"/>
       <use x="63.623047" xlink:href="#DejaVuSans-53"/>
      </g>
     </g>
    </g>
    <g id="ytick_7">
     <g id="line2d_15">
      <g>
       <use style="stroke:#000000;stroke-width:0.8;" x="57.6" xlink:href="#m21281d5b0b" y="43.049739"/>
      </g>
     </g>
     <g id="text_15">
      <!-- 80 -->
      <g transform="translate(37.875 46.848958)scale(0.1 -0.1)">
       <use xlink:href="#DejaVuSans-56"/>
       <use x="63.623047" xlink:href="#DejaVuSans-48"/>
      </g>
     </g>
    </g>
   </g>
   <g id="line2d_16">
    <path clip-path="url(#p52ede4a437)" d="M 66.816 276.204522 
L 69.12 253.414957 
L 71.424 237.637565 
L 73.728 227.119304 
L 78.336 223.613217 
L 80.64 228.872348 
L 82.944 232.378435 
L 85.248 223.613217 
L 87.552 209.58887 
L 89.856 202.576696 
L 92.16 202.576696 
L 94.464 199.070609 
L 96.768 209.58887 
L 99.072 206.082783 
L 101.376 193.811478 
L 103.68 179.78713 
L 105.984 176.281043 
L 108.288 164.009739 
L 110.592 172.774957 
L 112.896 183.293217 
L 115.2 179.78713 
L 117.504 169.26887 
L 122.112 162.256696 
L 126.72 158.750609 
L 129.024 155.244522 
L 131.328 155.244522 
L 133.632 153.491478 
L 135.936 148.232348 
L 138.24 156.997565 
L 140.544 164.009739 
L 142.848 169.26887 
L 145.152 162.256696 
L 152.064 156.997565 
L 154.368 156.997565 
L 156.672 149.985391 
L 158.976 149.985391 
L 161.28 142.973217 
L 163.584 132.454957 
L 165.888 118.430609 
L 168.192 127.195826 
L 170.496 114.924522 
L 172.8 118.430609 
L 175.104 125.442783 
L 177.408 135.961043 
L 179.712 125.442783 
L 182.016 125.442783 
L 184.32 114.924522 
L 186.624 114.924522 
L 188.928 104.406261 
L 191.232 104.406261 
L 195.84 121.936696 
L 198.144 120.183652 
L 200.448 128.94887 
L 202.752 135.961043 
L 205.056 127.195826 
L 207.36 125.442783 
L 209.664 130.701913 
L 211.968 128.94887 
L 214.272 118.430609 
L 218.88 118.430609 
L 223.488 97.394087 
L 225.792 100.900174 
L 228.096 97.394087 
L 230.4 90.381913 
L 232.704 85.122783 
L 235.008 83.369739 
L 237.312 79.863652 
L 239.616 79.863652 
L 241.92 76.357565 
L 246.528 76.357565 
L 248.832 72.851478 
L 253.44 69.345391 
L 255.744 78.110609 
L 258.048 78.110609 
L 260.352 81.616696 
L 262.656 83.369739 
L 264.96 83.369739 
L 267.264 71.098435 
L 269.568 69.345391 
L 274.176 86.875826 
L 276.48 92.134957 
L 281.088 92.134957 
L 285.696 88.62887 
L 288 92.134957 
L 290.304 102.653217 
L 292.608 114.924522 
L 294.912 102.653217 
L 297.216 92.134957 
L 299.52 79.863652 
L 301.824 79.863652 
L 304.128 67.592348 
L 306.432 67.592348 
L 308.736 78.110609 
L 311.04 78.110609 
L 313.344 76.357565 
L 315.648 85.122783 
L 317.952 90.381913 
L 320.256 78.110609 
L 322.56 88.62887 
L 324.864 78.110609 
L 327.168 78.110609 
L 329.472 72.851478 
L 334.08 72.851478 
L 336.384 85.122783 
L 338.688 86.875826 
L 340.992 86.875826 
L 343.296 97.394087 
L 345.6 95.641043 
L 347.904 85.122783 
L 350.208 78.110609 
L 352.512 88.62887 
L 354.816 76.357565 
L 357.12 78.110609 
L 359.424 76.357565 
L 361.728 69.345391 
L 364.032 58.82713 
L 366.336 69.345391 
L 368.64 65.839304 
L 370.944 72.851478 
L 380.16 72.851478 
L 382.464 62.333217 
L 384.768 62.333217 
L 387.072 71.098435 
L 391.68 53.568 
L 393.984 64.086261 
L 398.592 60.580174 
L 400.896 57.074087 
L 403.2 65.839304 
L 405.504 69.345391 
L 407.808 79.863652 
L 410.112 69.345391 
L 412.416 79.863652 
L 414.72 69.345391 
L 414.72 69.345391 
" style="fill:none;stroke:#1f77b4;stroke-linecap:square;stroke-width:1.5;"/>
   </g>
   <g id="line2d_17">
    <path clip-path="url(#p52ede4a437)" d="M 66.816 270.945391 
L 69.12 267.439304 
L 71.424 267.439304 
L 73.728 263.933217 
L 78.336 253.414957 
L 80.64 246.402783 
L 82.944 246.402783 
L 85.248 244.649739 
L 87.552 244.649739 
L 89.856 249.90887 
L 92.16 249.90887 
L 94.464 242.896696 
L 96.768 242.896696 
L 101.376 235.884522 
L 103.68 234.131478 
L 105.984 237.637565 
L 108.288 234.131478 
L 110.592 235.884522 
L 112.896 228.872348 
L 115.2 227.119304 
L 117.504 221.860174 
L 119.808 223.613217 
L 129.024 223.613217 
L 131.328 221.860174 
L 135.936 221.860174 
L 138.24 223.613217 
L 140.544 227.119304 
L 142.848 228.872348 
L 145.152 227.119304 
L 147.456 228.872348 
L 149.76 228.872348 
L 152.064 227.119304 
L 154.368 227.119304 
L 158.976 216.601043 
L 161.28 214.848 
L 163.584 211.341913 
L 165.888 206.082783 
L 170.496 213.094957 
L 175.104 216.601043 
L 182.016 216.601043 
L 184.32 214.848 
L 186.624 216.601043 
L 188.928 220.10713 
L 195.84 220.10713 
L 198.144 216.601043 
L 202.752 206.082783 
L 205.056 199.070609 
L 207.36 197.317565 
L 209.664 193.811478 
L 214.272 193.811478 
L 216.576 199.070609 
L 223.488 199.070609 
L 230.4 193.811478 
L 232.704 193.811478 
L 235.008 197.317565 
L 237.312 199.070609 
L 241.92 192.058435 
L 244.224 190.305391 
L 246.528 185.046261 
L 248.832 188.552348 
L 253.44 199.070609 
L 258.048 213.094957 
L 260.352 211.341913 
L 267.264 195.564522 
L 271.872 188.552348 
L 274.176 192.058435 
L 276.48 197.317565 
L 278.784 199.070609 
L 281.088 197.317565 
L 283.392 200.823652 
L 285.696 197.317565 
L 288 192.058435 
L 290.304 192.058435 
L 292.608 190.305391 
L 299.52 190.305391 
L 301.824 186.799304 
L 304.128 190.305391 
L 311.04 190.305391 
L 313.344 188.552348 
L 317.952 181.540174 
L 320.256 185.046261 
L 324.864 185.046261 
L 329.472 192.058435 
L 331.776 186.799304 
L 334.08 185.046261 
L 336.384 190.305391 
L 338.688 188.552348 
L 340.992 188.552348 
L 345.6 199.070609 
L 347.904 199.070609 
L 350.208 200.823652 
L 352.512 197.317565 
L 354.816 197.317565 
L 357.12 195.564522 
L 359.424 192.058435 
L 361.728 190.305391 
L 364.032 195.564522 
L 366.336 195.564522 
L 368.64 197.317565 
L 370.944 195.564522 
L 373.248 197.317565 
L 375.552 193.811478 
L 380.16 183.293217 
L 382.464 183.293217 
L 384.768 176.281043 
L 387.072 172.774957 
L 389.376 176.281043 
L 391.68 176.281043 
L 393.984 181.540174 
L 396.288 188.552348 
L 398.592 193.811478 
L 400.896 193.811478 
L 403.2 199.070609 
L 405.504 195.564522 
L 407.808 195.564522 
L 410.112 190.305391 
L 412.416 186.799304 
L 414.72 181.540174 
L 414.72 181.540174 
" style="fill:none;stroke:#ff7f0e;stroke-linecap:square;stroke-width:1.5;"/>
   </g>
   <g id="line2d_18">
    <path clip-path="url(#p52ede4a437)" d="M 66.816 253.414957 
L 71.424 211.341913 
L 73.728 209.58887 
L 78.336 230.625391 
L 80.64 227.119304 
L 82.944 220.10713 
L 85.248 207.835826 
L 87.552 204.329739 
L 94.464 199.070609 
L 96.768 206.082783 
L 99.072 206.082783 
L 101.376 190.305391 
L 103.68 183.293217 
L 105.984 192.058435 
L 108.288 181.540174 
L 110.592 167.515826 
L 112.896 169.26887 
L 115.2 174.528 
L 117.504 172.774957 
L 122.112 165.762783 
L 124.416 167.515826 
L 126.72 158.750609 
L 129.024 151.738435 
L 131.328 146.479304 
L 133.632 155.244522 
L 135.936 156.997565 
L 138.24 155.244522 
L 140.544 158.750609 
L 142.848 158.750609 
L 145.152 142.973217 
L 147.456 142.973217 
L 149.76 153.491478 
L 152.064 153.491478 
L 154.368 160.503652 
L 156.672 162.256696 
L 158.976 151.738435 
L 161.28 149.985391 
L 163.584 134.208 
L 165.888 123.689739 
L 168.192 134.208 
L 170.496 139.46713 
L 172.8 127.195826 
L 175.104 130.701913 
L 177.408 130.701913 
L 179.712 118.430609 
L 182.016 109.665391 
L 184.32 109.665391 
L 186.624 106.159304 
L 188.928 116.677565 
L 191.232 116.677565 
L 193.536 113.171478 
L 198.144 130.701913 
L 202.752 127.195826 
L 205.056 137.714087 
L 207.36 135.961043 
L 209.664 139.46713 
L 211.968 127.195826 
L 214.272 125.442783 
L 216.576 114.924522 
L 218.88 114.924522 
L 221.184 102.653217 
L 223.488 113.171478 
L 225.792 114.924522 
L 228.096 125.442783 
L 230.4 125.442783 
L 232.704 121.936696 
L 235.008 109.665391 
L 237.312 107.912348 
L 239.616 93.888 
L 241.92 85.122783 
L 244.224 83.369739 
L 246.528 83.369739 
L 248.832 81.616696 
L 251.136 81.616696 
L 253.44 78.110609 
L 255.744 81.616696 
L 260.352 81.616696 
L 262.656 79.863652 
L 264.96 81.616696 
L 267.264 88.62887 
L 269.568 93.888 
L 271.872 104.406261 
L 274.176 106.159304 
L 276.48 102.653217 
L 278.784 90.381913 
L 283.392 86.875826 
L 285.696 86.875826 
L 288 85.122783 
L 290.304 93.888 
L 292.608 100.900174 
L 294.912 95.641043 
L 297.216 106.159304 
L 299.52 118.430609 
L 301.824 111.418435 
L 304.128 109.665391 
L 306.432 114.924522 
L 308.736 113.171478 
L 313.344 113.171478 
L 315.648 104.406261 
L 320.256 104.406261 
L 322.56 95.641043 
L 327.168 113.171478 
L 329.472 102.653217 
L 331.776 102.653217 
L 336.384 92.134957 
L 338.688 85.122783 
L 340.992 83.369739 
L 343.296 69.345391 
L 345.6 71.098435 
L 347.904 76.357565 
L 350.208 72.851478 
L 352.512 72.851478 
L 357.12 97.394087 
L 359.424 95.641043 
L 361.728 106.159304 
L 364.032 104.406261 
L 366.336 106.159304 
L 368.64 104.406261 
L 370.944 92.134957 
L 373.248 90.381913 
L 375.552 104.406261 
L 377.856 90.381913 
L 380.16 90.381913 
L 382.464 102.653217 
L 384.768 92.134957 
L 387.072 78.110609 
L 389.376 88.62887 
L 391.68 76.357565 
L 393.984 62.333217 
L 396.288 72.851478 
L 398.592 72.851478 
L 400.896 74.604522 
L 407.808 74.604522 
L 410.112 76.357565 
L 412.416 74.604522 
L 414.72 86.875826 
L 414.72 86.875826 
" style="fill:none;stroke:#2ca02c;stroke-linecap:square;stroke-width:1.5;"/>
   </g>
   <g id="line2d_19">
    <path clip-path="url(#p52ede4a437)" d="M 66.816 295.488 
L 69.12 288.475826 
L 71.424 283.216696 
L 73.728 281.463652 
L 78.336 274.451478 
L 80.64 274.451478 
L 82.944 272.698435 
L 85.248 269.192348 
L 87.552 270.945391 
L 89.856 269.192348 
L 92.16 270.945391 
L 94.464 270.945391 
L 96.768 272.698435 
L 99.072 270.945391 
L 101.376 272.698435 
L 103.68 270.945391 
L 105.984 270.945391 
L 112.896 260.42713 
L 117.504 260.42713 
L 119.808 263.933217 
L 124.416 267.439304 
L 126.72 265.686261 
L 131.328 258.674087 
L 135.936 262.180174 
L 138.24 260.42713 
L 142.848 263.933217 
L 145.152 262.180174 
L 147.456 262.180174 
L 149.76 260.42713 
L 152.064 260.42713 
L 154.368 258.674087 
L 156.672 255.168 
L 158.976 253.414957 
L 161.28 253.414957 
L 165.888 246.402783 
L 168.192 244.649739 
L 170.496 239.390609 
L 172.8 241.143652 
L 175.104 241.143652 
L 179.712 248.155826 
L 182.016 248.155826 
L 184.32 244.649739 
L 186.624 246.402783 
L 188.928 242.896696 
L 193.536 242.896696 
L 195.84 246.402783 
L 198.144 246.402783 
L 200.448 249.90887 
L 207.36 244.649739 
L 209.664 241.143652 
L 214.272 237.637565 
L 216.576 239.390609 
L 218.88 239.390609 
L 221.184 237.637565 
L 225.792 237.637565 
L 228.096 239.390609 
L 230.4 239.390609 
L 232.704 242.896696 
L 235.008 239.390609 
L 237.312 237.637565 
L 239.616 237.637565 
L 241.92 234.131478 
L 244.224 234.131478 
L 248.832 241.143652 
L 251.136 241.143652 
L 253.44 242.896696 
L 255.744 241.143652 
L 258.048 241.143652 
L 260.352 239.390609 
L 262.656 234.131478 
L 267.264 234.131478 
L 269.568 230.625391 
L 271.872 230.625391 
L 274.176 234.131478 
L 276.48 232.378435 
L 278.784 228.872348 
L 281.088 232.378435 
L 283.392 232.378435 
L 288 228.872348 
L 290.304 228.872348 
L 292.608 223.613217 
L 297.216 220.10713 
L 299.52 223.613217 
L 301.824 223.613217 
L 308.736 234.131478 
L 311.04 234.131478 
L 313.344 237.637565 
L 315.648 237.637565 
L 317.952 235.884522 
L 329.472 235.884522 
L 334.08 228.872348 
L 336.384 227.119304 
L 338.688 227.119304 
L 340.992 225.366261 
L 343.296 225.366261 
L 345.6 228.872348 
L 347.904 227.119304 
L 350.208 223.613217 
L 352.512 225.366261 
L 354.816 228.872348 
L 357.12 225.366261 
L 361.728 225.366261 
L 364.032 221.860174 
L 366.336 221.860174 
L 368.64 225.366261 
L 382.464 225.366261 
L 384.768 227.119304 
L 387.072 227.119304 
L 391.68 220.10713 
L 393.984 220.10713 
L 396.288 221.860174 
L 398.592 225.366261 
L 414.72 225.366261 
L 414.72 225.366261 
" style="fill:none;stroke:#d62728;stroke-linecap:square;stroke-width:1.5;"/>
   </g>
   <g id="patch_3">
    <path d="M 57.6 307.584 
L 57.6 41.472 
" style="fill:none;stroke:#000000;stroke-linecap:square;stroke-linejoin:miter;stroke-width:0.8;"/>
   </g>
   <g id="patch_4">
    <path d="M 414.72 307.584 
L 414.72 41.472 
" style="fill:none;stroke:#000000;stroke-linecap:square;stroke-linejoin:miter;stroke-width:0.8;"/>
   </g>
   <g id="patch_5">
    <path d="M 57.6 307.584 
L 414.72 307.584 
" style="fill:none;stroke:#000000;stroke-linecap:square;stroke-linejoin:miter;stroke-width:0.8;"/>
   </g>
   <g id="patch_6">
    <path d="M 57.6 41.472 
L 414.72 41.472 
" style="fill:none;stroke:#000000;stroke-linecap:square;stroke-linejoin:miter;stroke-width:0.8;"/>
   </g>
   <g id="legend_1">
    <g id="patch_7">
     <path d="M 64.6 302.584 
L 484.075 302.584 
Q 486.075 302.584 486.075 300.584 
L 486.075 242.8715 
Q 486.075 240.8715 484.075 240.8715 
L 64.6 240.8715 
Q 62.6 240.8715 62.6 242.8715 
L 62.6 300.584 
Q 62.6 302.584 64.6 302.584 
z
" style="fill:#ffffff;opacity:0.8;stroke:#cccccc;stroke-linejoin:miter;"/>
    </g>
    <g id="line2d_20">
     <path d="M 66.6 248.969937 
L 86.6 248.969937 
" style="fill:none;stroke:#1f77b4;stroke-linecap:square;stroke-width:1.5;"/>
    </g>
    <g id="line2d_21"/>
    <g id="text_16">
     <!-- 5.2.17.ipstate-active-hwp.gnome-shell-classic.verifyxattr-data.warmup+main -->
     <defs>
      <path d="M 10.6875 12.40625 
L 21 12.40625 
L 21 0 
L 10.6875 0 
z
" id="DejaVuSans-46"/>
      <path d="M 9.421875 54.6875 
L 18.40625 54.6875 
L 18.40625 0 
L 9.421875 0 
z
M 9.421875 75.984375 
L 18.40625 75.984375 
L 18.40625 64.59375 
L 9.421875 64.59375 
z
" id="DejaVuSans-105"/>
      <path d="M 18.109375 8.203125 
L 18.109375 -20.796875 
L 9.078125 -20.796875 
L 9.078125 54.6875 
L 18.109375 54.6875 
L 18.109375 46.390625 
Q 20.953125 51.265625 25.265625 53.625 
Q 29.59375 56 35.59375 56 
Q 45.5625 56 51.78125 48.09375 
Q 58.015625 40.1875 58.015625 27.296875 
Q 58.015625 14.40625 51.78125 6.484375 
Q 45.5625 -1.421875 35.59375 -1.421875 
Q 29.59375 -1.421875 25.265625 0.953125 
Q 20.953125 3.328125 18.109375 8.203125 
z
M 48.6875 27.296875 
Q 48.6875 37.203125 44.609375 42.84375 
Q 40.53125 48.484375 33.40625 48.484375 
Q 26.265625 48.484375 22.1875 42.84375 
Q 18.109375 37.203125 18.109375 27.296875 
Q 18.109375 17.390625 22.1875 11.75 
Q 26.265625 6.109375 33.40625 6.109375 
Q 40.53125 6.109375 44.609375 11.75 
Q 48.6875 17.390625 48.6875 27.296875 
z
" id="DejaVuSans-112"/>
      <path d="M 44.28125 53.078125 
L 44.28125 44.578125 
Q 40.484375 46.53125 36.375 47.5 
Q 32.28125 48.484375 27.875 48.484375 
Q 21.1875 48.484375 17.84375 46.4375 
Q 14.5 44.390625 14.5 40.28125 
Q 14.5 37.15625 16.890625 35.375 
Q 19.28125 33.59375 26.515625 31.984375 
L 29.59375 31.296875 
Q 39.15625 29.25 43.1875 25.515625 
Q 47.21875 21.78125 47.21875 15.09375 
Q 47.21875 7.46875 41.1875 3.015625 
Q 35.15625 -1.421875 24.609375 -1.421875 
Q 20.21875 -1.421875 15.453125 -0.5625 
Q 10.6875 0.296875 5.421875 2 
L 5.421875 11.28125 
Q 10.40625 8.6875 15.234375 7.390625 
Q 20.0625 6.109375 24.8125 6.109375 
Q 31.15625 6.109375 34.5625 8.28125 
Q 37.984375 10.453125 37.984375 14.40625 
Q 37.984375 18.0625 35.515625 20.015625 
Q 33.0625 21.96875 24.703125 23.78125 
L 21.578125 24.515625 
Q 13.234375 26.265625 9.515625 29.90625 
Q 5.8125 33.546875 5.8125 39.890625 
Q 5.8125 47.609375 11.28125 51.796875 
Q 16.75 56 26.8125 56 
Q 31.78125 56 36.171875 55.265625 
Q 40.578125 54.546875 44.28125 53.078125 
z
" id="DejaVuSans-115"/>
      <path d="M 18.3125 70.21875 
L 18.3125 54.6875 
L 36.8125 54.6875 
L 36.8125 47.703125 
L 18.3125 47.703125 
L 18.3125 18.015625 
Q 18.3125 11.328125 20.140625 9.421875 
Q 21.96875 7.515625 27.59375 7.515625 
L 36.8125 7.515625 
L 36.8125 0 
L 27.59375 0 
Q 17.1875 0 13.234375 3.875 
Q 9.28125 7.765625 9.28125 18.015625 
L 9.28125 47.703125 
L 2.6875 47.703125 
L 2.6875 54.6875 
L 9.28125 54.6875 
L 9.28125 70.21875 
z
" id="DejaVuSans-116"/>
      <path d="M 34.28125 27.484375 
Q 23.390625 27.484375 19.1875 25 
Q 14.984375 22.515625 14.984375 16.5 
Q 14.984375 11.71875 18.140625 8.90625 
Q 21.296875 6.109375 26.703125 6.109375 
Q 34.1875 6.109375 38.703125 11.40625 
Q 43.21875 16.703125 43.21875 25.484375 
L 43.21875 27.484375 
z
M 52.203125 31.203125 
L 52.203125 0 
L 43.21875 0 
L 43.21875 8.296875 
Q 40.140625 3.328125 35.546875 0.953125 
Q 30.953125 -1.421875 24.3125 -1.421875 
Q 15.921875 -1.421875 10.953125 3.296875 
Q 6 8.015625 6 15.921875 
Q 6 25.140625 12.171875 29.828125 
Q 18.359375 34.515625 30.609375 34.515625 
L 43.21875 34.515625 
L 43.21875 35.40625 
Q 43.21875 41.609375 39.140625 45 
Q 35.0625 48.390625 27.6875 48.390625 
Q 23 48.390625 18.546875 47.265625 
Q 14.109375 46.140625 10.015625 43.890625 
L 10.015625 52.203125 
Q 14.9375 54.109375 19.578125 55.046875 
Q 24.21875 56 28.609375 56 
Q 40.484375 56 46.34375 49.84375 
Q 52.203125 43.703125 52.203125 31.203125 
z
" id="DejaVuSans-97"/>
      <path d="M 56.203125 29.59375 
L 56.203125 25.203125 
L 14.890625 25.203125 
Q 15.484375 15.921875 20.484375 11.0625 
Q 25.484375 6.203125 34.421875 6.203125 
Q 39.59375 6.203125 44.453125 7.46875 
Q 49.3125 8.734375 54.109375 11.28125 
L 54.109375 2.78125 
Q 49.265625 0.734375 44.1875 -0.34375 
Q 39.109375 -1.421875 33.890625 -1.421875 
Q 20.796875 -1.421875 13.15625 6.1875 
Q 5.515625 13.8125 5.515625 26.8125 
Q 5.515625 40.234375 12.765625 48.109375 
Q 20.015625 56 32.328125 56 
Q 43.359375 56 49.78125 48.890625 
Q 56.203125 41.796875 56.203125 29.59375 
z
M 47.21875 32.234375 
Q 47.125 39.59375 43.09375 43.984375 
Q 39.0625 48.390625 32.421875 48.390625 
Q 24.90625 48.390625 20.390625 44.140625 
Q 15.875 39.890625 15.1875 32.171875 
z
" id="DejaVuSans-101"/>
      <path d="M 4.890625 31.390625 
L 31.203125 31.390625 
L 31.203125 23.390625 
L 4.890625 23.390625 
z
" id="DejaVuSans-45"/>
      <path d="M 48.78125 52.59375 
L 48.78125 44.1875 
Q 44.96875 46.296875 41.140625 47.34375 
Q 37.3125 48.390625 33.40625 48.390625 
Q 24.65625 48.390625 19.8125 42.84375 
Q 14.984375 37.3125 14.984375 27.296875 
Q 14.984375 17.28125 19.8125 11.734375 
Q 24.65625 6.203125 33.40625 6.203125 
Q 37.3125 6.203125 41.140625 7.25 
Q 44.96875 8.296875 48.78125 10.40625 
L 48.78125 2.09375 
Q 45.015625 0.34375 40.984375 -0.53125 
Q 36.96875 -1.421875 32.421875 -1.421875 
Q 20.0625 -1.421875 12.78125 6.34375 
Q 5.515625 14.109375 5.515625 27.296875 
Q 5.515625 40.671875 12.859375 48.328125 
Q 20.21875 56 33.015625 56 
Q 37.15625 56 41.109375 55.140625 
Q 45.0625 54.296875 48.78125 52.59375 
z
" id="DejaVuSans-99"/>
      <path d="M 2.984375 54.6875 
L 12.5 54.6875 
L 29.59375 8.796875 
L 46.6875 54.6875 
L 56.203125 54.6875 
L 35.6875 0 
L 23.484375 0 
z
" id="DejaVuSans-118"/>
      <path d="M 54.890625 33.015625 
L 54.890625 0 
L 45.90625 0 
L 45.90625 32.71875 
Q 45.90625 40.484375 42.875 44.328125 
Q 39.84375 48.1875 33.796875 48.1875 
Q 26.515625 48.1875 22.3125 43.546875 
Q 18.109375 38.921875 18.109375 30.90625 
L 18.109375 0 
L 9.078125 0 
L 9.078125 75.984375 
L 18.109375 75.984375 
L 18.109375 46.1875 
Q 21.34375 51.125 25.703125 53.5625 
Q 30.078125 56 35.796875 56 
Q 45.21875 56 50.046875 50.171875 
Q 54.890625 44.34375 54.890625 33.015625 
z
" id="DejaVuSans-104"/>
      <path d="M 4.203125 54.6875 
L 13.1875 54.6875 
L 24.421875 12.015625 
L 35.59375 54.6875 
L 46.1875 54.6875 
L 57.421875 12.015625 
L 68.609375 54.6875 
L 77.59375 54.6875 
L 63.28125 0 
L 52.6875 0 
L 40.921875 44.828125 
L 29.109375 0 
L 18.5 0 
z
" id="DejaVuSans-119"/>
      <path d="M 45.40625 27.984375 
Q 45.40625 37.75 41.375 43.109375 
Q 37.359375 48.484375 30.078125 48.484375 
Q 22.859375 48.484375 18.828125 43.109375 
Q 14.796875 37.75 14.796875 27.984375 
Q 14.796875 18.265625 18.828125 12.890625 
Q 22.859375 7.515625 30.078125 7.515625 
Q 37.359375 7.515625 41.375 12.890625 
Q 45.40625 18.265625 45.40625 27.984375 
z
M 54.390625 6.78125 
Q 54.390625 -7.171875 48.1875 -13.984375 
Q 42 -20.796875 29.203125 -20.796875 
Q 24.46875 -20.796875 20.265625 -20.09375 
Q 16.0625 -19.390625 12.109375 -17.921875 
L 12.109375 -9.1875 
Q 16.0625 -11.328125 19.921875 -12.34375 
Q 23.78125 -13.375 27.78125 -13.375 
Q 36.625 -13.375 41.015625 -8.765625 
Q 45.40625 -4.15625 45.40625 5.171875 
L 45.40625 9.625 
Q 42.625 4.78125 38.28125 2.390625 
Q 33.9375 0 27.875 0 
Q 17.828125 0 11.671875 7.65625 
Q 5.515625 15.328125 5.515625 27.984375 
Q 5.515625 40.671875 11.671875 48.328125 
Q 17.828125 56 27.875 56 
Q 33.9375 56 38.28125 53.609375 
Q 42.625 51.21875 45.40625 46.390625 
L 45.40625 54.6875 
L 54.390625 54.6875 
z
" id="DejaVuSans-103"/>
      <path d="M 54.890625 33.015625 
L 54.890625 0 
L 45.90625 0 
L 45.90625 32.71875 
Q 45.90625 40.484375 42.875 44.328125 
Q 39.84375 48.1875 33.796875 48.1875 
Q 26.515625 48.1875 22.3125 43.546875 
Q 18.109375 38.921875 18.109375 30.90625 
L 18.109375 0 
L 9.078125 0 
L 9.078125 54.6875 
L 18.109375 54.6875 
L 18.109375 46.1875 
Q 21.34375 51.125 25.703125 53.5625 
Q 30.078125 56 35.796875 56 
Q 45.21875 56 50.046875 50.171875 
Q 54.890625 44.34375 54.890625 33.015625 
z
" id="DejaVuSans-110"/>
      <path d="M 30.609375 48.390625 
Q 23.390625 48.390625 19.1875 42.75 
Q 14.984375 37.109375 14.984375 27.296875 
Q 14.984375 17.484375 19.15625 11.84375 
Q 23.34375 6.203125 30.609375 6.203125 
Q 37.796875 6.203125 41.984375 11.859375 
Q 46.1875 17.53125 46.1875 27.296875 
Q 46.1875 37.015625 41.984375 42.703125 
Q 37.796875 48.390625 30.609375 48.390625 
z
M 30.609375 56 
Q 42.328125 56 49.015625 48.375 
Q 55.71875 40.765625 55.71875 27.296875 
Q 55.71875 13.875 49.015625 6.21875 
Q 42.328125 -1.421875 30.609375 -1.421875 
Q 18.84375 -1.421875 12.171875 6.21875 
Q 5.515625 13.875 5.515625 27.296875 
Q 5.515625 40.765625 12.171875 48.375 
Q 18.84375 56 30.609375 56 
z
" id="DejaVuSans-111"/>
      <path d="M 52 44.1875 
Q 55.375 50.25 60.0625 53.125 
Q 64.75 56 71.09375 56 
Q 79.640625 56 84.28125 50.015625 
Q 88.921875 44.046875 88.921875 33.015625 
L 88.921875 0 
L 79.890625 0 
L 79.890625 32.71875 
Q 79.890625 40.578125 77.09375 44.375 
Q 74.3125 48.1875 68.609375 48.1875 
Q 61.625 48.1875 57.5625 43.546875 
Q 53.515625 38.921875 53.515625 30.90625 
L 53.515625 0 
L 44.484375 0 
L 44.484375 32.71875 
Q 44.484375 40.625 41.703125 44.40625 
Q 38.921875 48.1875 33.109375 48.1875 
Q 26.21875 48.1875 22.15625 43.53125 
Q 18.109375 38.875 18.109375 30.90625 
L 18.109375 0 
L 9.078125 0 
L 9.078125 54.6875 
L 18.109375 54.6875 
L 18.109375 46.1875 
Q 21.1875 51.21875 25.484375 53.609375 
Q 29.78125 56 35.6875 56 
Q 41.65625 56 45.828125 52.96875 
Q 50 49.953125 52 44.1875 
z
" id="DejaVuSans-109"/>
      <path d="M 9.421875 75.984375 
L 18.40625 75.984375 
L 18.40625 0 
L 9.421875 0 
z
" id="DejaVuSans-108"/>
      <path d="M 41.109375 46.296875 
Q 39.59375 47.171875 37.8125 47.578125 
Q 36.03125 48 33.890625 48 
Q 26.265625 48 22.1875 43.046875 
Q 18.109375 38.09375 18.109375 28.8125 
L 18.109375 0 
L 9.078125 0 
L 9.078125 54.6875 
L 18.109375 54.6875 
L 18.109375 46.1875 
Q 20.953125 51.171875 25.484375 53.578125 
Q 30.03125 56 36.53125 56 
Q 37.453125 56 38.578125 55.875 
Q 39.703125 55.765625 41.0625 55.515625 
z
" id="DejaVuSans-114"/>
      <path d="M 37.109375 75.984375 
L 37.109375 68.5 
L 28.515625 68.5 
Q 23.6875 68.5 21.796875 66.546875 
Q 19.921875 64.59375 19.921875 59.515625 
L 19.921875 54.6875 
L 34.71875 54.6875 
L 34.71875 47.703125 
L 19.921875 47.703125 
L 19.921875 0 
L 10.890625 0 
L 10.890625 47.703125 
L 2.296875 47.703125 
L 2.296875 54.6875 
L 10.890625 54.6875 
L 10.890625 58.5 
Q 10.890625 67.625 15.140625 71.796875 
Q 19.390625 75.984375 28.609375 75.984375 
z
" id="DejaVuSans-102"/>
      <path d="M 32.171875 -5.078125 
Q 28.375 -14.84375 24.75 -17.8125 
Q 21.140625 -20.796875 15.09375 -20.796875 
L 7.90625 -20.796875 
L 7.90625 -13.28125 
L 13.1875 -13.28125 
Q 16.890625 -13.28125 18.9375 -11.515625 
Q 21 -9.765625 23.484375 -3.21875 
L 25.09375 0.875 
L 2.984375 54.6875 
L 12.5 54.6875 
L 29.59375 11.921875 
L 46.6875 54.6875 
L 56.203125 54.6875 
z
" id="DejaVuSans-121"/>
      <path d="M 54.890625 54.6875 
L 35.109375 28.078125 
L 55.90625 0 
L 45.3125 0 
L 29.390625 21.484375 
L 13.484375 0 
L 2.875 0 
L 24.125 28.609375 
L 4.6875 54.6875 
L 15.28125 54.6875 
L 29.78125 35.203125 
L 44.28125 54.6875 
z
" id="DejaVuSans-120"/>
      <path d="M 45.40625 46.390625 
L 45.40625 75.984375 
L 54.390625 75.984375 
L 54.390625 0 
L 45.40625 0 
L 45.40625 8.203125 
Q 42.578125 3.328125 38.25 0.953125 
Q 33.9375 -1.421875 27.875 -1.421875 
Q 17.96875 -1.421875 11.734375 6.484375 
Q 5.515625 14.40625 5.515625 27.296875 
Q 5.515625 40.1875 11.734375 48.09375 
Q 17.96875 56 27.875 56 
Q 33.9375 56 38.25 53.625 
Q 42.578125 51.265625 45.40625 46.390625 
z
M 14.796875 27.296875 
Q 14.796875 17.390625 18.875 11.75 
Q 22.953125 6.109375 30.078125 6.109375 
Q 37.203125 6.109375 41.296875 11.75 
Q 45.40625 17.390625 45.40625 27.296875 
Q 45.40625 37.203125 41.296875 42.84375 
Q 37.203125 48.484375 30.078125 48.484375 
Q 22.953125 48.484375 18.875 42.84375 
Q 14.796875 37.203125 14.796875 27.296875 
z
" id="DejaVuSans-100"/>
      <path d="M 8.5 21.578125 
L 8.5 54.6875 
L 17.484375 54.6875 
L 17.484375 21.921875 
Q 17.484375 14.15625 20.5 10.265625 
Q 23.53125 6.390625 29.59375 6.390625 
Q 36.859375 6.390625 41.078125 11.03125 
Q 45.3125 15.671875 45.3125 23.6875 
L 45.3125 54.6875 
L 54.296875 54.6875 
L 54.296875 0 
L 45.3125 0 
L 45.3125 8.40625 
Q 42.046875 3.421875 37.71875 1 
Q 33.40625 -1.421875 27.6875 -1.421875 
Q 18.265625 -1.421875 13.375 4.4375 
Q 8.5 10.296875 8.5 21.578125 
z
M 31.109375 56 
z
" id="DejaVuSans-117"/>
      <path d="M 46 62.703125 
L 46 35.5 
L 73.1875 35.5 
L 73.1875 27.203125 
L 46 27.203125 
L 46 0 
L 37.796875 0 
L 37.796875 27.203125 
L 10.59375 27.203125 
L 10.59375 35.5 
L 37.796875 35.5 
L 37.796875 62.703125 
z
" id="DejaVuSans-43"/>
     </defs>
     <g transform="translate(94.6 252.469937)scale(0.1 -0.1)">
      <use xlink:href="#DejaVuSans-53"/>
      <use x="63.623047" xlink:href="#DejaVuSans-46"/>
      <use x="95.410156" xlink:href="#DejaVuSans-50"/>
      <use x="159.033203" xlink:href="#DejaVuSans-46"/>
      <use x="190.820312" xlink:href="#DejaVuSans-49"/>
      <use x="254.443359" xlink:href="#DejaVuSans-55"/>
      <use x="318.066406" xlink:href="#DejaVuSans-46"/>
      <use x="349.853516" xlink:href="#DejaVuSans-105"/>
      <use x="377.636719" xlink:href="#DejaVuSans-112"/>
      <use x="441.113281" xlink:href="#DejaVuSans-115"/>
      <use x="493.212891" xlink:href="#DejaVuSans-116"/>
      <use x="532.421875" xlink:href="#DejaVuSans-97"/>
      <use x="593.701172" xlink:href="#DejaVuSans-116"/>
      <use x="632.910156" xlink:href="#DejaVuSans-101"/>
      <use x="694.433594" xlink:href="#DejaVuSans-45"/>
      <use x="730.517578" xlink:href="#DejaVuSans-97"/>
      <use x="791.796875" xlink:href="#DejaVuSans-99"/>
      <use x="846.777344" xlink:href="#DejaVuSans-116"/>
      <use x="885.986328" xlink:href="#DejaVuSans-105"/>
      <use x="913.769531" xlink:href="#DejaVuSans-118"/>
      <use x="972.949219" xlink:href="#DejaVuSans-101"/>
      <use x="1034.472656" xlink:href="#DejaVuSans-45"/>
      <use x="1070.556641" xlink:href="#DejaVuSans-104"/>
      <use x="1133.935547" xlink:href="#DejaVuSans-119"/>
      <use x="1215.722656" xlink:href="#DejaVuSans-112"/>
      <use x="1279.199219" xlink:href="#DejaVuSans-46"/>
      <use x="1310.986328" xlink:href="#DejaVuSans-103"/>
      <use x="1374.462891" xlink:href="#DejaVuSans-110"/>
      <use x="1437.841797" xlink:href="#DejaVuSans-111"/>
      <use x="1499.023438" xlink:href="#DejaVuSans-109"/>
      <use x="1596.435547" xlink:href="#DejaVuSans-101"/>
      <use x="1657.958984" xlink:href="#DejaVuSans-45"/>
      <use x="1694.042969" xlink:href="#DejaVuSans-115"/>
      <use x="1746.142578" xlink:href="#DejaVuSans-104"/>
      <use x="1809.521484" xlink:href="#DejaVuSans-101"/>
      <use x="1871.044922" xlink:href="#DejaVuSans-108"/>
      <use x="1898.828125" xlink:href="#DejaVuSans-108"/>
      <use x="1926.611328" xlink:href="#DejaVuSans-45"/>
      <use x="1962.695312" xlink:href="#DejaVuSans-99"/>
      <use x="2017.675781" xlink:href="#DejaVuSans-108"/>
      <use x="2045.458984" xlink:href="#DejaVuSans-97"/>
      <use x="2106.738281" xlink:href="#DejaVuSans-115"/>
      <use x="2158.837891" xlink:href="#DejaVuSans-115"/>
      <use x="2210.9375" xlink:href="#DejaVuSans-105"/>
      <use x="2238.720703" xlink:href="#DejaVuSans-99"/>
      <use x="2293.701172" xlink:href="#DejaVuSans-46"/>
      <use x="2325.488281" xlink:href="#DejaVuSans-118"/>
      <use x="2384.667969" xlink:href="#DejaVuSans-101"/>
      <use x="2446.191406" xlink:href="#DejaVuSans-114"/>
      <use x="2487.304688" xlink:href="#DejaVuSans-105"/>
      <use x="2515.087891" xlink:href="#DejaVuSans-102"/>
      <use x="2548.542969" xlink:href="#DejaVuSans-121"/>
      <use x="2607.722656" xlink:href="#DejaVuSans-120"/>
      <use x="2666.902344" xlink:href="#DejaVuSans-97"/>
      <use x="2728.181641" xlink:href="#DejaVuSans-116"/>
      <use x="2767.390625" xlink:href="#DejaVuSans-116"/>
      <use x="2806.599609" xlink:href="#DejaVuSans-114"/>
      <use x="2841.337891" xlink:href="#DejaVuSans-45"/>
      <use x="2877.421875" xlink:href="#DejaVuSans-100"/>
      <use x="2940.898438" xlink:href="#DejaVuSans-97"/>
      <use x="3002.177734" xlink:href="#DejaVuSans-116"/>
      <use x="3041.386719" xlink:href="#DejaVuSans-97"/>
      <use x="3102.666016" xlink:href="#DejaVuSans-46"/>
      <use x="3134.453125" xlink:href="#DejaVuSans-119"/>
      <use x="3216.240234" xlink:href="#DejaVuSans-97"/>
      <use x="3277.519531" xlink:href="#DejaVuSans-114"/>
      <use x="3316.882812" xlink:href="#DejaVuSans-109"/>
      <use x="3414.294922" xlink:href="#DejaVuSans-117"/>
      <use x="3477.673828" xlink:href="#DejaVuSans-112"/>
      <use x="3541.150391" xlink:href="#DejaVuSans-43"/>
      <use x="3624.939453" xlink:href="#DejaVuSans-109"/>
      <use x="3722.351562" xlink:href="#DejaVuSans-97"/>
      <use x="3783.630859" xlink:href="#DejaVuSans-105"/>
      <use x="3811.414062" xlink:href="#DejaVuSans-110"/>
     </g>
    </g>
    <g id="line2d_22">
     <path d="M 66.6 263.648062 
L 86.6 263.648062 
" style="fill:none;stroke:#ff7f0e;stroke-linecap:square;stroke-width:1.5;"/>
    </g>
    <g id="line2d_23"/>
    <g id="text_17">
     <!-- 5.2.17.ipstate-disable.gnome-shell-classic.verifyxattr-data.warmup+main -->
     <defs>
      <path d="M 48.6875 27.296875 
Q 48.6875 37.203125 44.609375 42.84375 
Q 40.53125 48.484375 33.40625 48.484375 
Q 26.265625 48.484375 22.1875 42.84375 
Q 18.109375 37.203125 18.109375 27.296875 
Q 18.109375 17.390625 22.1875 11.75 
Q 26.265625 6.109375 33.40625 6.109375 
Q 40.53125 6.109375 44.609375 11.75 
Q 48.6875 17.390625 48.6875 27.296875 
z
M 18.109375 46.390625 
Q 20.953125 51.265625 25.265625 53.625 
Q 29.59375 56 35.59375 56 
Q 45.5625 56 51.78125 48.09375 
Q 58.015625 40.1875 58.015625 27.296875 
Q 58.015625 14.40625 51.78125 6.484375 
Q 45.5625 -1.421875 35.59375 -1.421875 
Q 29.59375 -1.421875 25.265625 0.953125 
Q 20.953125 3.328125 18.109375 8.203125 
L 18.109375 0 
L 9.078125 0 
L 9.078125 75.984375 
L 18.109375 75.984375 
z
" id="DejaVuSans-98"/>
     </defs>
     <g transform="translate(94.6 267.148062)scale(0.1 -0.1)">
      <use xlink:href="#DejaVuSans-53"/>
      <use x="63.623047" xlink:href="#DejaVuSans-46"/>
      <use x="95.410156" xlink:href="#DejaVuSans-50"/>
      <use x="159.033203" xlink:href="#DejaVuSans-46"/>
      <use x="190.820312" xlink:href="#DejaVuSans-49"/>
      <use x="254.443359" xlink:href="#DejaVuSans-55"/>
      <use x="318.066406" xlink:href="#DejaVuSans-46"/>
      <use x="349.853516" xlink:href="#DejaVuSans-105"/>
      <use x="377.636719" xlink:href="#DejaVuSans-112"/>
      <use x="441.113281" xlink:href="#DejaVuSans-115"/>
      <use x="493.212891" xlink:href="#DejaVuSans-116"/>
      <use x="532.421875" xlink:href="#DejaVuSans-97"/>
      <use x="593.701172" xlink:href="#DejaVuSans-116"/>
      <use x="632.910156" xlink:href="#DejaVuSans-101"/>
      <use x="694.433594" xlink:href="#DejaVuSans-45"/>
      <use x="730.517578" xlink:href="#DejaVuSans-100"/>
      <use x="793.994141" xlink:href="#DejaVuSans-105"/>
      <use x="821.777344" xlink:href="#DejaVuSans-115"/>
      <use x="873.876953" xlink:href="#DejaVuSans-97"/>
      <use x="935.15625" xlink:href="#DejaVuSans-98"/>
      <use x="998.632812" xlink:href="#DejaVuSans-108"/>
      <use x="1026.416016" xlink:href="#DejaVuSans-101"/>
      <use x="1087.939453" xlink:href="#DejaVuSans-46"/>
      <use x="1119.726562" xlink:href="#DejaVuSans-103"/>
      <use x="1183.203125" xlink:href="#DejaVuSans-110"/>
      <use x="1246.582031" xlink:href="#DejaVuSans-111"/>
      <use x="1307.763672" xlink:href="#DejaVuSans-109"/>
      <use x="1405.175781" xlink:href="#DejaVuSans-101"/>
      <use x="1466.699219" xlink:href="#DejaVuSans-45"/>
      <use x="1502.783203" xlink:href="#DejaVuSans-115"/>
      <use x="1554.882812" xlink:href="#DejaVuSans-104"/>
      <use x="1618.261719" xlink:href="#DejaVuSans-101"/>
      <use x="1679.785156" xlink:href="#DejaVuSans-108"/>
      <use x="1707.568359" xlink:href="#DejaVuSans-108"/>
      <use x="1735.351562" xlink:href="#DejaVuSans-45"/>
      <use x="1771.435547" xlink:href="#DejaVuSans-99"/>
      <use x="1826.416016" xlink:href="#DejaVuSans-108"/>
      <use x="1854.199219" xlink:href="#DejaVuSans-97"/>
      <use x="1915.478516" xlink:href="#DejaVuSans-115"/>
      <use x="1967.578125" xlink:href="#DejaVuSans-115"/>
      <use x="2019.677734" xlink:href="#DejaVuSans-105"/>
      <use x="2047.460938" xlink:href="#DejaVuSans-99"/>
      <use x="2102.441406" xlink:href="#DejaVuSans-46"/>
      <use x="2134.228516" xlink:href="#DejaVuSans-118"/>
      <use x="2193.408203" xlink:href="#DejaVuSans-101"/>
      <use x="2254.931641" xlink:href="#DejaVuSans-114"/>
      <use x="2296.044922" xlink:href="#DejaVuSans-105"/>
      <use x="2323.828125" xlink:href="#DejaVuSans-102"/>
      <use x="2357.283203" xlink:href="#DejaVuSans-121"/>
      <use x="2416.462891" xlink:href="#DejaVuSans-120"/>
      <use x="2475.642578" xlink:href="#DejaVuSans-97"/>
      <use x="2536.921875" xlink:href="#DejaVuSans-116"/>
      <use x="2576.130859" xlink:href="#DejaVuSans-116"/>
      <use x="2615.339844" xlink:href="#DejaVuSans-114"/>
      <use x="2650.078125" xlink:href="#DejaVuSans-45"/>
      <use x="2686.162109" xlink:href="#DejaVuSans-100"/>
      <use x="2749.638672" xlink:href="#DejaVuSans-97"/>
      <use x="2810.917969" xlink:href="#DejaVuSans-116"/>
      <use x="2850.126953" xlink:href="#DejaVuSans-97"/>
      <use x="2911.40625" xlink:href="#DejaVuSans-46"/>
      <use x="2943.193359" xlink:href="#DejaVuSans-119"/>
      <use x="3024.980469" xlink:href="#DejaVuSans-97"/>
      <use x="3086.259766" xlink:href="#DejaVuSans-114"/>
      <use x="3125.623047" xlink:href="#DejaVuSans-109"/>
      <use x="3223.035156" xlink:href="#DejaVuSans-117"/>
      <use x="3286.414062" xlink:href="#DejaVuSans-112"/>
      <use x="3349.890625" xlink:href="#DejaVuSans-43"/>
      <use x="3433.679688" xlink:href="#DejaVuSans-109"/>
      <use x="3531.091797" xlink:href="#DejaVuSans-97"/>
      <use x="3592.371094" xlink:href="#DejaVuSans-105"/>
      <use x="3620.154297" xlink:href="#DejaVuSans-110"/>
     </g>
    </g>
    <g id="line2d_24">
     <path d="M 66.6 278.326187 
L 86.6 278.326187 
" style="fill:none;stroke:#2ca02c;stroke-linecap:square;stroke-width:1.5;"/>
    </g>
    <g id="line2d_25"/>
    <g id="text_18">
     <!-- 5.5.13.ipstate-active-hwp.gnome-shell-classic.verifyxattr-data.warmup+main -->
     <defs>
      <path d="M 40.578125 39.3125 
Q 47.65625 37.796875 51.625 33 
Q 55.609375 28.21875 55.609375 21.1875 
Q 55.609375 10.40625 48.1875 4.484375 
Q 40.765625 -1.421875 27.09375 -1.421875 
Q 22.515625 -1.421875 17.65625 -0.515625 
Q 12.796875 0.390625 7.625 2.203125 
L 7.625 11.71875 
Q 11.71875 9.328125 16.59375 8.109375 
Q 21.484375 6.890625 26.8125 6.890625 
Q 36.078125 6.890625 40.9375 10.546875 
Q 45.796875 14.203125 45.796875 21.1875 
Q 45.796875 27.640625 41.28125 31.265625 
Q 36.765625 34.90625 28.71875 34.90625 
L 20.21875 34.90625 
L 20.21875 43.015625 
L 29.109375 43.015625 
Q 36.375 43.015625 40.234375 45.921875 
Q 44.09375 48.828125 44.09375 54.296875 
Q 44.09375 59.90625 40.109375 62.90625 
Q 36.140625 65.921875 28.71875 65.921875 
Q 24.65625 65.921875 20.015625 65.03125 
Q 15.375 64.15625 9.8125 62.3125 
L 9.8125 71.09375 
Q 15.4375 72.65625 20.34375 73.4375 
Q 25.25 74.21875 29.59375 74.21875 
Q 40.828125 74.21875 47.359375 69.109375 
Q 53.90625 64.015625 53.90625 55.328125 
Q 53.90625 49.265625 50.4375 45.09375 
Q 46.96875 40.921875 40.578125 39.3125 
z
" id="DejaVuSans-51"/>
     </defs>
     <g transform="translate(94.6 281.826187)scale(0.1 -0.1)">
      <use xlink:href="#DejaVuSans-53"/>
      <use x="63.623047" xlink:href="#DejaVuSans-46"/>
      <use x="95.410156" xlink:href="#DejaVuSans-53"/>
      <use x="159.033203" xlink:href="#DejaVuSans-46"/>
      <use x="190.820312" xlink:href="#DejaVuSans-49"/>
      <use x="254.443359" xlink:href="#DejaVuSans-51"/>
      <use x="318.066406" xlink:href="#DejaVuSans-46"/>
      <use x="349.853516" xlink:href="#DejaVuSans-105"/>
      <use x="377.636719" xlink:href="#DejaVuSans-112"/>
      <use x="441.113281" xlink:href="#DejaVuSans-115"/>
      <use x="493.212891" xlink:href="#DejaVuSans-116"/>
      <use x="532.421875" xlink:href="#DejaVuSans-97"/>
      <use x="593.701172" xlink:href="#DejaVuSans-116"/>
      <use x="632.910156" xlink:href="#DejaVuSans-101"/>
      <use x="694.433594" xlink:href="#DejaVuSans-45"/>
      <use x="730.517578" xlink:href="#DejaVuSans-97"/>
      <use x="791.796875" xlink:href="#DejaVuSans-99"/>
      <use x="846.777344" xlink:href="#DejaVuSans-116"/>
      <use x="885.986328" xlink:href="#DejaVuSans-105"/>
      <use x="913.769531" xlink:href="#DejaVuSans-118"/>
      <use x="972.949219" xlink:href="#DejaVuSans-101"/>
      <use x="1034.472656" xlink:href="#DejaVuSans-45"/>
      <use x="1070.556641" xlink:href="#DejaVuSans-104"/>
      <use x="1133.935547" xlink:href="#DejaVuSans-119"/>
      <use x="1215.722656" xlink:href="#DejaVuSans-112"/>
      <use x="1279.199219" xlink:href="#DejaVuSans-46"/>
      <use x="1310.986328" xlink:href="#DejaVuSans-103"/>
      <use x="1374.462891" xlink:href="#DejaVuSans-110"/>
      <use x="1437.841797" xlink:href="#DejaVuSans-111"/>
      <use x="1499.023438" xlink:href="#DejaVuSans-109"/>
      <use x="1596.435547" xlink:href="#DejaVuSans-101"/>
      <use x="1657.958984" xlink:href="#DejaVuSans-45"/>
      <use x="1694.042969" xlink:href="#DejaVuSans-115"/>
      <use x="1746.142578" xlink:href="#DejaVuSans-104"/>
      <use x="1809.521484" xlink:href="#DejaVuSans-101"/>
      <use x="1871.044922" xlink:href="#DejaVuSans-108"/>
      <use x="1898.828125" xlink:href="#DejaVuSans-108"/>
      <use x="1926.611328" xlink:href="#DejaVuSans-45"/>
      <use x="1962.695312" xlink:href="#DejaVuSans-99"/>
      <use x="2017.675781" xlink:href="#DejaVuSans-108"/>
      <use x="2045.458984" xlink:href="#DejaVuSans-97"/>
      <use x="2106.738281" xlink:href="#DejaVuSans-115"/>
      <use x="2158.837891" xlink:href="#DejaVuSans-115"/>
      <use x="2210.9375" xlink:href="#DejaVuSans-105"/>
      <use x="2238.720703" xlink:href="#DejaVuSans-99"/>
      <use x="2293.701172" xlink:href="#DejaVuSans-46"/>
      <use x="2325.488281" xlink:href="#DejaVuSans-118"/>
      <use x="2384.667969" xlink:href="#DejaVuSans-101"/>
      <use x="2446.191406" xlink:href="#DejaVuSans-114"/>
      <use x="2487.304688" xlink:href="#DejaVuSans-105"/>
      <use x="2515.087891" xlink:href="#DejaVuSans-102"/>
      <use x="2548.542969" xlink:href="#DejaVuSans-121"/>
      <use x="2607.722656" xlink:href="#DejaVuSans-120"/>
      <use x="2666.902344" xlink:href="#DejaVuSans-97"/>
      <use x="2728.181641" xlink:href="#DejaVuSans-116"/>
      <use x="2767.390625" xlink:href="#DejaVuSans-116"/>
      <use x="2806.599609" xlink:href="#DejaVuSans-114"/>
      <use x="2841.337891" xlink:href="#DejaVuSans-45"/>
      <use x="2877.421875" xlink:href="#DejaVuSans-100"/>
      <use x="2940.898438" xlink:href="#DejaVuSans-97"/>
      <use x="3002.177734" xlink:href="#DejaVuSans-116"/>
      <use x="3041.386719" xlink:href="#DejaVuSans-97"/>
      <use x="3102.666016" xlink:href="#DejaVuSans-46"/>
      <use x="3134.453125" xlink:href="#DejaVuSans-119"/>
      <use x="3216.240234" xlink:href="#DejaVuSans-97"/>
      <use x="3277.519531" xlink:href="#DejaVuSans-114"/>
      <use x="3316.882812" xlink:href="#DejaVuSans-109"/>
      <use x="3414.294922" xlink:href="#DejaVuSans-117"/>
      <use x="3477.673828" xlink:href="#DejaVuSans-112"/>
      <use x="3541.150391" xlink:href="#DejaVuSans-43"/>
      <use x="3624.939453" xlink:href="#DejaVuSans-109"/>
      <use x="3722.351562" xlink:href="#DejaVuSans-97"/>
      <use x="3783.630859" xlink:href="#DejaVuSans-105"/>
      <use x="3811.414062" xlink:href="#DejaVuSans-110"/>
     </g>
    </g>
    <g id="line2d_26">
     <path d="M 66.6 293.004312 
L 86.6 293.004312 
" style="fill:none;stroke:#d62728;stroke-linecap:square;stroke-width:1.5;"/>
    </g>
    <g id="line2d_27"/>
    <g id="text_19">
     <!-- 5.5.13.ipstate-disable.gnome-shell-classic.verifyxattr-data.warmup+main -->
     <g transform="translate(94.6 296.504312)scale(0.1 -0.1)">
      <use xlink:href="#DejaVuSans-53"/>
      <use x="63.623047" xlink:href="#DejaVuSans-46"/>
      <use x="95.410156" xlink:href="#DejaVuSans-53"/>
      <use x="159.033203" xlink:href="#DejaVuSans-46"/>
      <use x="190.820312" xlink:href="#DejaVuSans-49"/>
      <use x="254.443359" xlink:href="#DejaVuSans-51"/>
      <use x="318.066406" xlink:href="#DejaVuSans-46"/>
      <use x="349.853516" xlink:href="#DejaVuSans-105"/>
      <use x="377.636719" xlink:href="#DejaVuSans-112"/>
      <use x="441.113281" xlink:href="#DejaVuSans-115"/>
      <use x="493.212891" xlink:href="#DejaVuSans-116"/>
      <use x="532.421875" xlink:href="#DejaVuSans-97"/>
      <use x="593.701172" xlink:href="#DejaVuSans-116"/>
      <use x="632.910156" xlink:href="#DejaVuSans-101"/>
      <use x="694.433594" xlink:href="#DejaVuSans-45"/>
      <use x="730.517578" xlink:href="#DejaVuSans-100"/>
      <use x="793.994141" xlink:href="#DejaVuSans-105"/>
      <use x="821.777344" xlink:href="#DejaVuSans-115"/>
      <use x="873.876953" xlink:href="#DejaVuSans-97"/>
      <use x="935.15625" xlink:href="#DejaVuSans-98"/>
      <use x="998.632812" xlink:href="#DejaVuSans-108"/>
      <use x="1026.416016" xlink:href="#DejaVuSans-101"/>
      <use x="1087.939453" xlink:href="#DejaVuSans-46"/>
      <use x="1119.726562" xlink:href="#DejaVuSans-103"/>
      <use x="1183.203125" xlink:href="#DejaVuSans-110"/>
      <use x="1246.582031" xlink:href="#DejaVuSans-111"/>
      <use x="1307.763672" xlink:href="#DejaVuSans-109"/>
      <use x="1405.175781" xlink:href="#DejaVuSans-101"/>
      <use x="1466.699219" xlink:href="#DejaVuSans-45"/>
      <use x="1502.783203" xlink:href="#DejaVuSans-115"/>
      <use x="1554.882812" xlink:href="#DejaVuSans-104"/>
      <use x="1618.261719" xlink:href="#DejaVuSans-101"/>
      <use x="1679.785156" xlink:href="#DejaVuSans-108"/>
      <use x="1707.568359" xlink:href="#DejaVuSans-108"/>
      <use x="1735.351562" xlink:href="#DejaVuSans-45"/>
      <use x="1771.435547" xlink:href="#DejaVuSans-99"/>
      <use x="1826.416016" xlink:href="#DejaVuSans-108"/>
      <use x="1854.199219" xlink:href="#DejaVuSans-97"/>
      <use x="1915.478516" xlink:href="#DejaVuSans-115"/>
      <use x="1967.578125" xlink:href="#DejaVuSans-115"/>
      <use x="2019.677734" xlink:href="#DejaVuSans-105"/>
      <use x="2047.460938" xlink:href="#DejaVuSans-99"/>
      <use x="2102.441406" xlink:href="#DejaVuSans-46"/>
      <use x="2134.228516" xlink:href="#DejaVuSans-118"/>
      <use x="2193.408203" xlink:href="#DejaVuSans-101"/>
      <use x="2254.931641" xlink:href="#DejaVuSans-114"/>
      <use x="2296.044922" xlink:href="#DejaVuSans-105"/>
      <use x="2323.828125" xlink:href="#DejaVuSans-102"/>
      <use x="2357.283203" xlink:href="#DejaVuSans-121"/>
      <use x="2416.462891" xlink:href="#DejaVuSans-120"/>
      <use x="2475.642578" xlink:href="#DejaVuSans-97"/>
      <use x="2536.921875" xlink:href="#DejaVuSans-116"/>
      <use x="2576.130859" xlink:href="#DejaVuSans-116"/>
      <use x="2615.339844" xlink:href="#DejaVuSans-114"/>
      <use x="2650.078125" xlink:href="#DejaVuSans-45"/>
      <use x="2686.162109" xlink:href="#DejaVuSans-100"/>
      <use x="2749.638672" xlink:href="#DejaVuSans-97"/>
      <use x="2810.917969" xlink:href="#DejaVuSans-116"/>
      <use x="2850.126953" xlink:href="#DejaVuSans-97"/>
      <use x="2911.40625" xlink:href="#DejaVuSans-46"/>
      <use x="2943.193359" xlink:href="#DejaVuSans-119"/>
      <use x="3024.980469" xlink:href="#DejaVuSans-97"/>
      <use x="3086.259766" xlink:href="#DejaVuSans-114"/>
      <use x="3125.623047" xlink:href="#DejaVuSans-109"/>
      <use x="3223.035156" xlink:href="#DejaVuSans-117"/>
      <use x="3286.414062" xlink:href="#DejaVuSans-112"/>
      <use x="3349.890625" xlink:href="#DejaVuSans-43"/>
      <use x="3433.679688" xlink:href="#DejaVuSans-109"/>
      <use x="3531.091797" xlink:href="#DejaVuSans-97"/>
      <use x="3592.371094" xlink:href="#DejaVuSans-105"/>
      <use x="3620.154297" xlink:href="#DejaVuSans-110"/>
     </g>
    </g>
   </g>
  </g>
 </g>
 <defs>
  <clipPath id="p52ede4a437">
   <rect height="266.112" width="357.12" x="57.6" y="41.472"/>
  </clipPath>
 </defs>
</svg>
