<?xml version="1.0" encoding="utf-8" standalone="no"?>
<!DOCTYPE svg PUBLIC "-//W3C//DTD SVG 1.1//EN"
  "http://www.w3.org/Graphics/SVG/1.1/DTD/svg11.dtd">
<!-- Created with matplotlib (https://matplotlib.org/) -->
<svg height="345.6pt" version="1.1" viewBox="0 0 460.8 345.6" width="460.8pt" xmlns="http://www.w3.org/2000/svg" xmlns:xlink="http://www.w3.org/1999/xlink">
 <defs>
  <style type="text/css">
*{stroke-linecap:butt;stroke-linejoin:round;}
  </style>
 </defs>
 <g id="figure_1">
  <g id="patch_1">
   <path d="M 0 345.6 
L 460.8 345.6 
L 460.8 0 
L 0 0 
z
" style="fill:#ffffff;"/>
  </g>
  <g id="axes_1">
   <g id="patch_2">
    <path d="M 57.6 307.584 
L 414.72 307.584 
L 414.72 41.472 
L 57.6 41.472 
z
" style="fill:#ffffff;"/>
   </g>
   <g id="matplotlib.axis_1">
    <g id="xtick_1">
     <g id="line2d_1">
      <defs>
       <path d="M 0 0 
L 0 3.5 
" id="md34963b70c" style="stroke:#000000;stroke-width:0.8;"/>
      </defs>
      <g>
       <use style="stroke:#000000;stroke-width:0.8;" x="57.6" xlink:href="#md34963b70c" y="307.584"/>
      </g>
     </g>
     <g id="text_1">
      <!-- 0 -->
      <defs>
       <path d="M 31.78125 66.40625 
Q 24.171875 66.40625 20.328125 58.90625 
Q 16.5 51.421875 16.5 36.375 
Q 16.5 21.390625 20.328125 13.890625 
Q 24.171875 6.390625 31.78125 6.390625 
Q 39.453125 6.390625 43.28125 13.890625 
Q 47.125 21.390625 47.125 36.375 
Q 47.125 51.421875 43.28125 58.90625 
Q 39.453125 66.40625 31.78125 66.40625 
z
M 31.78125 74.21875 
Q 44.046875 74.21875 50.515625 64.515625 
Q 56.984375 54.828125 56.984375 36.375 
Q 56.984375 17.96875 50.515625 8.265625 
Q 44.046875 -1.421875 31.78125 -1.421875 
Q 19.53125 -1.421875 13.0625 8.265625 
Q 6.59375 17.96875 6.59375 36.375 
Q 6.59375 54.828125 13.0625 64.515625 
Q 19.53125 74.21875 31.78125 74.21875 
z
" id="DejaVuSans-48"/>
      </defs>
      <g transform="translate(54.41875 322.182437)scale(0.1 -0.1)">
       <use xlink:href="#DejaVuSans-48"/>
      </g>
     </g>
    </g>
    <g id="xtick_2">
     <g id="line2d_2">
      <g>
       <use style="stroke:#000000;stroke-width:0.8;" x="134.565517" xlink:href="#md34963b70c" y="307.584"/>
      </g>
     </g>
     <g id="text_2">
      <!-- 50 -->
      <defs>
       <path d="M 10.796875 72.90625 
L 49.515625 72.90625 
L 49.515625 64.59375 
L 19.828125 64.59375 
L 19.828125 46.734375 
Q 21.96875 47.46875 24.109375 47.828125 
Q 26.265625 48.1875 28.421875 48.1875 
Q 40.625 48.1875 47.75 41.5 
Q 54.890625 34.8125 54.890625 23.390625 
Q 54.890625 11.625 47.5625 5.09375 
Q 40.234375 -1.421875 26.90625 -1.421875 
Q 22.3125 -1.421875 17.546875 -0.640625 
Q 12.796875 0.140625 7.71875 1.703125 
L 7.71875 11.625 
Q 12.109375 9.234375 16.796875 8.0625 
Q 21.484375 6.890625 26.703125 6.890625 
Q 35.15625 6.890625 40.078125 11.328125 
Q 45.015625 15.765625 45.015625 23.390625 
Q 45.015625 31 40.078125 35.4375 
Q 35.15625 39.890625 26.703125 39.890625 
Q 22.75 39.890625 18.8125 39.015625 
Q 14.890625 38.140625 10.796875 36.28125 
z
" id="DejaVuSans-53"/>
      </defs>
      <g transform="translate(128.203017 322.182437)scale(0.1 -0.1)">
       <use xlink:href="#DejaVuSans-53"/>
       <use x="63.623047" xlink:href="#DejaVuSans-48"/>
      </g>
     </g>
    </g>
    <g id="xtick_3">
     <g id="line2d_3">
      <g>
       <use style="stroke:#000000;stroke-width:0.8;" x="211.531034" xlink:href="#md34963b70c" y="307.584"/>
      </g>
     </g>
     <g id="text_3">
      <!-- 100 -->
      <defs>
       <path d="M 12.40625 8.296875 
L 28.515625 8.296875 
L 28.515625 63.921875 
L 10.984375 60.40625 
L 10.984375 69.390625 
L 28.421875 72.90625 
L 38.28125 72.90625 
L 38.28125 8.296875 
L 54.390625 8.296875 
L 54.390625 0 
L 12.40625 0 
z
" id="DejaVuSans-49"/>
      </defs>
      <g transform="translate(201.987284 322.182437)scale(0.1 -0.1)">
       <use xlink:href="#DejaVuSans-49"/>
       <use x="63.623047" xlink:href="#DejaVuSans-48"/>
       <use x="127.246094" xlink:href="#DejaVuSans-48"/>
      </g>
     </g>
    </g>
    <g id="xtick_4">
     <g id="line2d_4">
      <g>
       <use style="stroke:#000000;stroke-width:0.8;" x="288.496552" xlink:href="#md34963b70c" y="307.584"/>
      </g>
     </g>
     <g id="text_4">
      <!-- 150 -->
      <g transform="translate(278.952802 322.182437)scale(0.1 -0.1)">
       <use xlink:href="#DejaVuSans-49"/>
       <use x="63.623047" xlink:href="#DejaVuSans-53"/>
       <use x="127.246094" xlink:href="#DejaVuSans-48"/>
      </g>
     </g>
    </g>
    <g id="xtick_5">
     <g id="line2d_5">
      <g>
       <use style="stroke:#000000;stroke-width:0.8;" x="365.462069" xlink:href="#md34963b70c" y="307.584"/>
      </g>
     </g>
     <g id="text_5">
      <!-- 200 -->
      <defs>
       <path d="M 19.1875 8.296875 
L 53.609375 8.296875 
L 53.609375 0 
L 7.328125 0 
L 7.328125 8.296875 
Q 12.9375 14.109375 22.625 23.890625 
Q 32.328125 33.6875 34.8125 36.53125 
Q 39.546875 41.84375 41.421875 45.53125 
Q 43.3125 49.21875 43.3125 52.78125 
Q 43.3125 58.59375 39.234375 62.25 
Q 35.15625 65.921875 28.609375 65.921875 
Q 23.96875 65.921875 18.8125 64.3125 
Q 13.671875 62.703125 7.8125 59.421875 
L 7.8125 69.390625 
Q 13.765625 71.78125 18.9375 73 
Q 24.125 74.21875 28.421875 74.21875 
Q 39.75 74.21875 46.484375 68.546875 
Q 53.21875 62.890625 53.21875 53.421875 
Q 53.21875 48.921875 51.53125 44.890625 
Q 49.859375 40.875 45.40625 35.40625 
Q 44.1875 33.984375 37.640625 27.21875 
Q 31.109375 20.453125 19.1875 8.296875 
z
" id="DejaVuSans-50"/>
      </defs>
      <g transform="translate(355.918319 322.182437)scale(0.1 -0.1)">
       <use xlink:href="#DejaVuSans-50"/>
       <use x="63.623047" xlink:href="#DejaVuSans-48"/>
       <use x="127.246094" xlink:href="#DejaVuSans-48"/>
      </g>
     </g>
    </g>
   </g>
   <g id="matplotlib.axis_2">
    <g id="ytick_1">
     <g id="line2d_6">
      <defs>
       <path d="M 0 0 
L -3.5 0 
" id="m28b8af3453" style="stroke:#000000;stroke-width:0.8;"/>
      </defs>
      <g>
       <use style="stroke:#000000;stroke-width:0.8;" x="57.6" xlink:href="#m28b8af3453" y="277.677939"/>
      </g>
     </g>
     <g id="text_6">
      <!-- 55 -->
      <g transform="translate(37.875 281.477157)scale(0.1 -0.1)">
       <use xlink:href="#DejaVuSans-53"/>
       <use x="63.623047" xlink:href="#DejaVuSans-53"/>
      </g>
     </g>
    </g>
    <g id="ytick_2">
     <g id="line2d_7">
      <g>
       <use style="stroke:#000000;stroke-width:0.8;" x="57.6" xlink:href="#m28b8af3453" y="240.573644"/>
      </g>
     </g>
     <g id="text_7">
      <!-- 60 -->
      <defs>
       <path d="M 33.015625 40.375 
Q 26.375 40.375 22.484375 35.828125 
Q 18.609375 31.296875 18.609375 23.390625 
Q 18.609375 15.53125 22.484375 10.953125 
Q 26.375 6.390625 33.015625 6.390625 
Q 39.65625 6.390625 43.53125 10.953125 
Q 47.40625 15.53125 47.40625 23.390625 
Q 47.40625 31.296875 43.53125 35.828125 
Q 39.65625 40.375 33.015625 40.375 
z
M 52.59375 71.296875 
L 52.59375 62.3125 
Q 48.875 64.0625 45.09375 64.984375 
Q 41.3125 65.921875 37.59375 65.921875 
Q 27.828125 65.921875 22.671875 59.328125 
Q 17.53125 52.734375 16.796875 39.40625 
Q 19.671875 43.65625 24.015625 45.921875 
Q 28.375 48.1875 33.59375 48.1875 
Q 44.578125 48.1875 50.953125 41.515625 
Q 57.328125 34.859375 57.328125 23.390625 
Q 57.328125 12.15625 50.6875 5.359375 
Q 44.046875 -1.421875 33.015625 -1.421875 
Q 20.359375 -1.421875 13.671875 8.265625 
Q 6.984375 17.96875 6.984375 36.375 
Q 6.984375 53.65625 15.1875 63.9375 
Q 23.390625 74.21875 37.203125 74.21875 
Q 40.921875 74.21875 44.703125 73.484375 
Q 48.484375 72.75 52.59375 71.296875 
z
" id="DejaVuSans-54"/>
      </defs>
      <g transform="translate(37.875 244.372863)scale(0.1 -0.1)">
       <use xlink:href="#DejaVuSans-54"/>
       <use x="63.623047" xlink:href="#DejaVuSans-48"/>
      </g>
     </g>
    </g>
    <g id="ytick_3">
     <g id="line2d_8">
      <g>
       <use style="stroke:#000000;stroke-width:0.8;" x="57.6" xlink:href="#m28b8af3453" y="203.46935"/>
      </g>
     </g>
     <g id="text_8">
      <!-- 65 -->
      <g transform="translate(37.875 207.268568)scale(0.1 -0.1)">
       <use xlink:href="#DejaVuSans-54"/>
       <use x="63.623047" xlink:href="#DejaVuSans-53"/>
      </g>
     </g>
    </g>
    <g id="ytick_4">
     <g id="line2d_9">
      <g>
       <use style="stroke:#000000;stroke-width:0.8;" x="57.6" xlink:href="#m28b8af3453" y="166.365055"/>
      </g>
     </g>
     <g id="text_9">
      <!-- 70 -->
      <defs>
       <path d="M 8.203125 72.90625 
L 55.078125 72.90625 
L 55.078125 68.703125 
L 28.609375 0 
L 18.3125 0 
L 43.21875 64.59375 
L 8.203125 64.59375 
z
" id="DejaVuSans-55"/>
      </defs>
      <g transform="translate(37.875 170.164274)scale(0.1 -0.1)">
       <use xlink:href="#DejaVuSans-55"/>
       <use x="63.623047" xlink:href="#DejaVuSans-48"/>
      </g>
     </g>
    </g>
    <g id="ytick_5">
     <g id="line2d_10">
      <g>
       <use style="stroke:#000000;stroke-width:0.8;" x="57.6" xlink:href="#m28b8af3453" y="129.260761"/>
      </g>
     </g>
     <g id="text_10">
      <!-- 75 -->
      <g transform="translate(37.875 133.059979)scale(0.1 -0.1)">
       <use xlink:href="#DejaVuSans-55"/>
       <use x="63.623047" xlink:href="#DejaVuSans-53"/>
      </g>
     </g>
    </g>
    <g id="ytick_6">
     <g id="line2d_11">
      <g>
       <use style="stroke:#000000;stroke-width:0.8;" x="57.6" xlink:href="#m28b8af3453" y="92.156466"/>
      </g>
     </g>
     <g id="text_11">
      <!-- 80 -->
      <defs>
       <path d="M 31.78125 34.625 
Q 24.75 34.625 20.71875 30.859375 
Q 16.703125 27.09375 16.703125 20.515625 
Q 16.703125 13.921875 20.71875 10.15625 
Q 24.75 6.390625 31.78125 6.390625 
Q 38.8125 6.390625 42.859375 10.171875 
Q 46.921875 13.96875 46.921875 20.515625 
Q 46.921875 27.09375 42.890625 30.859375 
Q 38.875 34.625 31.78125 34.625 
z
M 21.921875 38.8125 
Q 15.578125 40.375 12.03125 44.71875 
Q 8.5 49.078125 8.5 55.328125 
Q 8.5 64.0625 14.71875 69.140625 
Q 20.953125 74.21875 31.78125 74.21875 
Q 42.671875 74.21875 48.875 69.140625 
Q 55.078125 64.0625 55.078125 55.328125 
Q 55.078125 49.078125 51.53125 44.71875 
Q 48 40.375 41.703125 38.8125 
Q 48.828125 37.15625 52.796875 32.3125 
Q 56.78125 27.484375 56.78125 20.515625 
Q 56.78125 9.90625 50.3125 4.234375 
Q 43.84375 -1.421875 31.78125 -1.421875 
Q 19.734375 -1.421875 13.25 4.234375 
Q 6.78125 9.90625 6.78125 20.515625 
Q 6.78125 27.484375 10.78125 32.3125 
Q 14.796875 37.15625 21.921875 38.8125 
z
M 18.3125 54.390625 
Q 18.3125 48.734375 21.84375 45.5625 
Q 25.390625 42.390625 31.78125 42.390625 
Q 38.140625 42.390625 41.71875 45.5625 
Q 45.3125 48.734375 45.3125 54.390625 
Q 45.3125 60.0625 41.71875 63.234375 
Q 38.140625 66.40625 31.78125 66.40625 
Q 25.390625 66.40625 21.84375 63.234375 
Q 18.3125 60.0625 18.3125 54.390625 
z
" id="DejaVuSans-56"/>
      </defs>
      <g transform="translate(37.875 95.955685)scale(0.1 -0.1)">
       <use xlink:href="#DejaVuSans-56"/>
       <use x="63.623047" xlink:href="#DejaVuSans-48"/>
      </g>
     </g>
    </g>
    <g id="ytick_7">
     <g id="line2d_12">
      <g>
       <use style="stroke:#000000;stroke-width:0.8;" x="57.6" xlink:href="#m28b8af3453" y="55.052172"/>
      </g>
     </g>
     <g id="text_12">
      <!-- 85 -->
      <g transform="translate(37.875 58.851391)scale(0.1 -0.1)">
       <use xlink:href="#DejaVuSans-56"/>
       <use x="63.623047" xlink:href="#DejaVuSans-53"/>
      </g>
     </g>
    </g>
   </g>
   <g id="line2d_13">
    <path clip-path="url(#p6fa9ec9ade)" d="M 63.757241 274.709595 
L 65.296552 262.836221 
L 66.835862 255.415362 
L 68.375172 252.447018 
L 71.453793 243.541988 
L 72.993103 240.573644 
L 74.532414 240.573644 
L 76.071724 239.089472 
L 77.611034 231.668613 
L 79.150345 231.668613 
L 82.228966 225.731926 
L 83.768276 221.279411 
L 85.307586 221.279411 
L 86.846897 219.795239 
L 88.386207 215.342724 
L 89.925517 212.37438 
L 91.464828 206.437693 
L 93.004138 206.437693 
L 94.543448 201.985178 
L 96.082759 201.985178 
L 97.622069 196.048491 
L 99.161379 199.016834 
L 100.70069 196.048491 
L 102.24 190.111804 
L 103.77931 185.659288 
L 105.318621 187.14346 
L 106.857931 184.175117 
L 108.397241 178.238429 
L 109.936552 179.722601 
L 111.475862 179.722601 
L 114.554483 167.849227 
L 116.093793 166.365055 
L 117.633103 161.91254 
L 119.172414 155.975853 
L 120.711724 154.491681 
L 122.251034 155.975853 
L 123.790345 151.523337 
L 128.408276 151.523337 
L 129.947586 150.039166 
L 131.486897 153.007509 
L 133.026207 151.523337 
L 136.104828 145.58665 
L 137.644138 144.102479 
L 139.183448 144.102479 
L 140.722759 142.618307 
L 142.262069 142.618307 
L 143.801379 144.102479 
L 145.34069 144.102479 
L 146.88 141.134135 
L 148.41931 141.134135 
L 149.958621 138.165791 
L 151.497931 138.165791 
L 153.037241 135.197448 
L 154.576552 136.68162 
L 156.115862 136.68162 
L 157.655172 139.649963 
L 162.273103 135.197448 
L 166.891034 126.292417 
L 168.430345 127.776589 
L 169.969655 126.292417 
L 171.508966 127.776589 
L 173.048276 126.292417 
L 174.587586 127.776589 
L 176.126897 127.776589 
L 177.666207 123.324074 
L 179.205517 121.839902 
L 180.744828 126.292417 
L 182.284138 124.808245 
L 183.823448 121.839902 
L 185.362759 124.808245 
L 186.902069 121.839902 
L 188.441379 114.419043 
L 189.98069 109.966528 
L 191.52 112.934871 
L 193.05931 114.419043 
L 194.598621 114.419043 
L 197.677241 126.292417 
L 199.216552 120.35573 
L 200.755862 123.324074 
L 202.295172 129.260761 
L 203.834483 123.324074 
L 205.373793 118.871558 
L 206.913103 118.871558 
L 208.452414 111.450699 
L 209.991724 106.998184 
L 213.070345 124.808245 
L 216.148966 124.808245 
L 217.688276 123.324074 
L 219.227586 115.903215 
L 220.766897 114.419043 
L 222.306207 121.839902 
L 223.845517 121.839902 
L 225.384828 126.292417 
L 226.924138 127.776589 
L 230.002759 115.903215 
L 231.542069 118.871558 
L 233.081379 117.387387 
L 236.16 117.387387 
L 237.69931 115.903215 
L 239.238621 111.450699 
L 243.856552 102.545669 
L 245.395862 102.545669 
L 246.935172 104.02984 
L 250.013793 101.061497 
L 251.553103 98.093153 
L 253.092414 93.640638 
L 254.631724 92.156466 
L 256.171034 92.156466 
L 260.788966 101.061497 
L 262.328276 101.061497 
L 263.867586 98.093153 
L 265.406897 96.608982 
L 266.946207 93.640638 
L 268.485517 92.156466 
L 270.024828 89.188123 
L 271.564138 89.188123 
L 273.103448 86.219779 
L 274.642759 87.703951 
L 276.182069 86.219779 
L 277.721379 86.219779 
L 279.26069 84.735607 
L 282.33931 84.735607 
L 283.878621 81.767264 
L 288.496552 81.767264 
L 290.035862 78.79892 
L 291.575172 81.767264 
L 293.114483 80.283092 
L 296.193103 80.283092 
L 297.732414 81.767264 
L 299.271724 78.79892 
L 302.350345 78.79892 
L 305.428966 75.830577 
L 306.968276 75.830577 
L 310.046897 72.862233 
L 313.125517 72.862233 
L 317.743448 77.314748 
L 319.282759 77.314748 
L 325.44 71.378061 
L 326.97931 71.378061 
L 328.518621 69.89389 
L 333.136552 69.89389 
L 334.675862 66.925546 
L 340.833103 60.988859 
L 342.372414 60.988859 
L 343.911724 66.925546 
L 346.990345 75.830577 
L 350.068966 75.830577 
L 354.686897 62.473031 
L 359.304828 66.925546 
L 360.844138 74.346405 
L 362.383448 75.830577 
L 363.922759 81.767264 
L 365.462069 90.672294 
L 368.54069 90.672294 
L 370.08 92.156466 
L 371.61931 89.188123 
L 373.158621 81.767264 
L 377.776552 81.767264 
L 379.315862 80.283092 
L 380.855172 80.283092 
L 382.394483 84.735607 
L 383.933793 81.767264 
L 385.473103 84.735607 
L 387.012414 86.219779 
L 388.551724 86.219779 
L 390.091034 81.767264 
L 393.169655 78.79892 
L 394.708966 75.830577 
L 397.787586 75.830577 
L 399.326897 74.346405 
L 400.866207 74.346405 
L 403.944828 77.314748 
L 405.484138 77.314748 
L 407.023448 78.79892 
L 408.562759 77.314748 
L 410.102069 78.79892 
L 411.641379 77.314748 
L 413.18069 78.79892 
L 414.72 75.830577 
L 414.72 75.830577 
" style="fill:none;stroke:#1f77b4;stroke-linecap:square;stroke-width:1.5;"/>
   </g>
   <g id="line2d_14">
    <path clip-path="url(#p6fa9ec9ade)" d="M 63.757241 295.488 
L 69.914483 283.614626 
L 71.453793 282.130454 
L 72.993103 279.16211 
L 77.611034 279.16211 
L 80.689655 273.225423 
L 85.307586 268.772908 
L 88.386207 268.772908 
L 91.464828 265.804564 
L 93.004138 259.867877 
L 94.543448 258.383706 
L 97.622069 258.383706 
L 99.161379 256.899534 
L 100.70069 259.867877 
L 105.318621 255.415362 
L 108.397241 255.415362 
L 111.475862 252.447018 
L 116.093793 243.541988 
L 117.633103 242.057816 
L 119.172414 242.057816 
L 120.711724 243.541988 
L 125.329655 243.541988 
L 128.408276 240.573644 
L 129.947586 240.573644 
L 131.486897 242.057816 
L 136.104828 242.057816 
L 140.722759 237.605301 
L 142.262069 237.605301 
L 143.801379 236.121129 
L 145.34069 237.605301 
L 146.88 236.121129 
L 148.41931 237.605301 
L 149.958621 237.605301 
L 151.497931 239.089472 
L 154.576552 236.121129 
L 156.115862 230.184442 
L 157.655172 227.216098 
L 159.194483 225.731926 
L 160.733793 225.731926 
L 162.273103 227.216098 
L 163.812414 231.668613 
L 165.351724 233.152785 
L 166.891034 231.668613 
L 168.430345 231.668613 
L 171.508966 228.70027 
L 179.205517 228.70027 
L 183.823448 224.247755 
L 186.902069 224.247755 
L 188.441379 222.763583 
L 191.52 222.763583 
L 193.05931 219.795239 
L 194.598621 218.311067 
L 197.677241 218.311067 
L 199.216552 216.826896 
L 203.834483 221.279411 
L 208.452414 221.279411 
L 211.531034 218.311067 
L 214.609655 218.311067 
L 216.148966 216.826896 
L 222.306207 216.826896 
L 223.845517 218.311067 
L 225.384828 218.311067 
L 226.924138 216.826896 
L 239.238621 216.826896 
L 242.317241 219.795239 
L 243.856552 218.311067 
L 246.935172 218.311067 
L 248.474483 216.826896 
L 250.013793 216.826896 
L 251.553103 218.311067 
L 253.092414 218.311067 
L 254.631724 216.826896 
L 257.710345 216.826896 
L 259.249655 213.858552 
L 260.788966 212.37438 
L 262.328276 215.342724 
L 266.946207 219.795239 
L 268.485517 219.795239 
L 270.024828 216.826896 
L 273.103448 216.826896 
L 274.642759 219.795239 
L 276.182069 219.795239 
L 277.721379 221.279411 
L 279.26069 218.311067 
L 280.8 218.311067 
L 282.33931 216.826896 
L 283.878621 216.826896 
L 285.417931 218.311067 
L 286.957241 218.311067 
L 288.496552 215.342724 
L 290.035862 216.826896 
L 291.575172 221.279411 
L 293.114483 221.279411 
L 294.653793 224.247755 
L 296.193103 225.731926 
L 302.350345 213.858552 
L 305.428966 213.858552 
L 306.968276 212.37438 
L 308.507586 216.826896 
L 310.046897 219.795239 
L 311.586207 218.311067 
L 313.125517 221.279411 
L 314.664828 222.763583 
L 316.204138 219.795239 
L 317.743448 218.311067 
L 319.282759 218.311067 
L 320.822069 215.342724 
L 322.361379 218.311067 
L 323.90069 218.311067 
L 325.44 219.795239 
L 326.97931 222.763583 
L 328.518621 227.216098 
L 330.057931 225.731926 
L 331.597241 227.216098 
L 334.675862 224.247755 
L 336.215172 221.279411 
L 337.754483 219.795239 
L 342.372414 219.795239 
L 343.911724 221.279411 
L 345.451034 221.279411 
L 346.990345 219.795239 
L 357.765517 219.795239 
L 359.304828 218.311067 
L 371.61931 218.311067 
L 373.158621 216.826896 
L 376.237241 216.826896 
L 377.776552 215.342724 
L 379.315862 215.342724 
L 380.855172 213.858552 
L 387.012414 213.858552 
L 388.551724 216.826896 
L 390.091034 215.342724 
L 391.630345 215.342724 
L 393.169655 216.826896 
L 396.248276 216.826896 
L 397.787586 218.311067 
L 399.326897 216.826896 
L 402.405517 216.826896 
L 403.944828 215.342724 
L 405.484138 215.342724 
L 407.023448 216.826896 
L 411.641379 216.826896 
L 413.18069 213.858552 
L 414.72 213.858552 
L 414.72 213.858552 
" style="fill:none;stroke:#ff7f0e;stroke-linecap:square;stroke-width:1.5;"/>
   </g>
   <g id="line2d_15">
    <path clip-path="url(#p6fa9ec9ade)" d="M 63.757241 243.541988 
L 65.296552 230.184442 
L 66.835862 227.216098 
L 68.375172 222.763583 
L 69.914483 219.795239 
L 71.453793 218.311067 
L 74.532414 206.437693 
L 77.611034 200.501006 
L 79.150345 199.016834 
L 83.768276 190.111804 
L 85.307586 188.627632 
L 86.846897 182.690945 
L 88.386207 179.722601 
L 89.925517 182.690945 
L 91.464828 179.722601 
L 93.004138 178.238429 
L 94.543448 179.722601 
L 96.082759 178.238429 
L 97.622069 170.817571 
L 99.161379 170.817571 
L 102.24 164.880883 
L 103.77931 164.880883 
L 105.318621 166.365055 
L 106.857931 163.396712 
L 108.397241 158.944196 
L 113.015172 150.039166 
L 114.554483 148.554994 
L 116.093793 150.039166 
L 122.251034 144.102479 
L 123.790345 141.134135 
L 125.329655 141.134135 
L 129.947586 132.229104 
L 131.486897 135.197448 
L 136.104828 130.744933 
L 137.644138 133.713276 
L 139.183448 127.776589 
L 140.722759 127.776589 
L 143.801379 124.808245 
L 145.34069 120.35573 
L 148.41931 114.419043 
L 149.958621 115.903215 
L 153.037241 112.934871 
L 154.576552 109.966528 
L 156.115862 109.966528 
L 157.655172 105.514012 
L 160.733793 102.545669 
L 162.273103 108.482356 
L 163.812414 106.998184 
L 165.351724 109.966528 
L 168.430345 109.966528 
L 169.969655 106.998184 
L 171.508966 105.514012 
L 173.048276 102.545669 
L 174.587586 101.061497 
L 176.126897 104.02984 
L 177.666207 101.061497 
L 179.205517 101.061497 
L 180.744828 98.093153 
L 182.284138 98.093153 
L 183.823448 93.640638 
L 185.362759 95.12481 
L 186.902069 93.640638 
L 188.441379 104.02984 
L 189.98069 104.02984 
L 191.52 112.934871 
L 193.05931 117.387387 
L 194.598621 123.324074 
L 196.137931 121.839902 
L 197.677241 121.839902 
L 199.216552 120.35573 
L 200.755862 115.903215 
L 203.834483 115.903215 
L 205.373793 118.871558 
L 206.913103 112.934871 
L 209.991724 112.934871 
L 211.531034 114.419043 
L 213.070345 118.871558 
L 214.609655 124.808245 
L 216.148966 123.324074 
L 217.688276 124.808245 
L 219.227586 118.871558 
L 220.766897 114.419043 
L 222.306207 108.482356 
L 223.845517 109.966528 
L 225.384828 104.02984 
L 228.463448 98.093153 
L 230.002759 96.608982 
L 231.542069 96.608982 
L 233.081379 95.12481 
L 234.62069 95.12481 
L 237.69931 92.156466 
L 240.777931 86.219779 
L 242.317241 84.735607 
L 253.092414 84.735607 
L 254.631724 83.251436 
L 256.171034 83.251436 
L 257.710345 81.767264 
L 260.788966 75.830577 
L 262.328276 75.830577 
L 265.406897 72.862233 
L 266.946207 74.346405 
L 268.485517 74.346405 
L 270.024828 72.862233 
L 273.103448 72.862233 
L 274.642759 71.378061 
L 277.721379 71.378061 
L 279.26069 69.89389 
L 288.496552 69.89389 
L 293.114483 65.441374 
L 299.271724 65.441374 
L 300.811034 66.925546 
L 302.350345 65.441374 
L 306.968276 65.441374 
L 308.507586 63.957202 
L 310.046897 63.957202 
L 311.586207 62.473031 
L 313.125517 63.957202 
L 320.822069 56.536344 
L 326.97931 56.536344 
L 328.518621 55.052172 
L 331.597241 55.052172 
L 333.136552 53.568 
L 339.293793 71.378061 
L 340.833103 72.862233 
L 342.372414 66.925546 
L 343.911724 68.409718 
L 345.451034 63.957202 
L 350.068966 68.409718 
L 351.608276 68.409718 
L 353.147586 75.830577 
L 354.686897 77.314748 
L 356.226207 75.830577 
L 357.765517 83.251436 
L 359.304828 77.314748 
L 360.844138 80.283092 
L 362.383448 81.767264 
L 363.922759 84.735607 
L 365.462069 80.283092 
L 367.001379 81.767264 
L 368.54069 74.346405 
L 370.08 69.89389 
L 373.158621 72.862233 
L 374.697931 77.314748 
L 376.237241 77.314748 
L 377.776552 69.89389 
L 380.855172 63.957202 
L 382.394483 59.504687 
L 383.933793 59.504687 
L 385.473103 65.441374 
L 388.551724 68.409718 
L 391.630345 68.409718 
L 393.169655 65.441374 
L 396.248276 65.441374 
L 397.787586 66.925546 
L 399.326897 63.957202 
L 400.866207 63.957202 
L 405.484138 55.052172 
L 408.562759 55.052172 
L 410.102069 56.536344 
L 413.18069 56.536344 
L 414.72 58.020515 
L 414.72 58.020515 
" style="fill:none;stroke:#2ca02c;stroke-linecap:square;stroke-width:1.5;"/>
   </g>
   <g id="line2d_16">
    <path clip-path="url(#p6fa9ec9ade)" d="M 63.757241 295.488 
L 65.296552 286.582969 
L 66.835862 280.646282 
L 68.375172 279.16211 
L 69.914483 276.193767 
L 71.453793 274.709595 
L 72.993103 276.193767 
L 74.532414 276.193767 
L 77.611034 270.25708 
L 79.150345 265.804564 
L 80.689655 264.320393 
L 83.768276 258.383706 
L 85.307586 258.383706 
L 86.846897 259.867877 
L 89.925517 250.962847 
L 91.464828 249.478675 
L 94.543448 243.541988 
L 96.082759 242.057816 
L 99.161379 245.02616 
L 100.70069 243.541988 
L 103.77931 243.541988 
L 105.318621 240.573644 
L 108.397241 237.605301 
L 109.936552 237.605301 
L 111.475862 234.636957 
L 113.015172 234.636957 
L 114.554483 233.152785 
L 116.093793 233.152785 
L 117.633103 231.668613 
L 119.172414 233.152785 
L 123.790345 228.70027 
L 126.868966 222.763583 
L 128.408276 222.763583 
L 129.947586 221.279411 
L 134.565517 221.279411 
L 136.104828 219.795239 
L 137.644138 221.279411 
L 139.183448 219.795239 
L 142.262069 219.795239 
L 145.34069 216.826896 
L 146.88 216.826896 
L 148.41931 215.342724 
L 149.958621 215.342724 
L 151.497931 216.826896 
L 153.037241 216.826896 
L 154.576552 215.342724 
L 156.115862 216.826896 
L 157.655172 216.826896 
L 159.194483 213.858552 
L 160.733793 212.37438 
L 162.273103 212.37438 
L 163.812414 209.406037 
L 165.351724 207.921865 
L 168.430345 210.890209 
L 169.969655 209.406037 
L 171.508966 212.37438 
L 173.048276 212.37438 
L 176.126897 209.406037 
L 177.666207 209.406037 
L 179.205517 206.437693 
L 182.284138 209.406037 
L 183.823448 207.921865 
L 185.362759 209.406037 
L 186.902069 207.921865 
L 188.441379 203.46935 
L 189.98069 200.501006 
L 191.52 199.016834 
L 205.373793 199.016834 
L 206.913103 200.501006 
L 208.452414 199.016834 
L 209.991724 200.501006 
L 214.609655 200.501006 
L 216.148966 199.016834 
L 217.688276 194.564319 
L 220.766897 194.564319 
L 222.306207 193.080147 
L 223.845517 194.564319 
L 225.384828 197.532663 
L 230.002759 197.532663 
L 231.542069 196.048491 
L 240.777931 196.048491 
L 242.317241 181.206773 
L 245.395862 178.238429 
L 246.935172 167.849227 
L 248.474483 164.880883 
L 250.013793 172.301742 
L 251.553103 170.817571 
L 253.092414 167.849227 
L 254.631724 167.849227 
L 256.171034 155.975853 
L 257.710345 153.007509 
L 259.249655 144.102479 
L 262.328276 144.102479 
L 263.867586 148.554994 
L 265.406897 157.460025 
L 266.946207 163.396712 
L 268.485517 157.460025 
L 270.024828 163.396712 
L 271.564138 164.880883 
L 273.103448 161.91254 
L 274.642759 166.365055 
L 276.182069 173.785914 
L 277.721379 172.301742 
L 279.26069 175.270086 
L 280.8 169.333399 
L 282.33931 160.428368 
L 283.878621 158.944196 
L 286.957241 161.91254 
L 290.035862 176.754258 
L 294.653793 181.206773 
L 305.428966 181.206773 
L 306.968276 182.690945 
L 308.507586 182.690945 
L 311.586207 179.722601 
L 313.125517 173.785914 
L 314.664828 169.333399 
L 316.204138 166.365055 
L 319.282759 169.333399 
L 320.822069 175.270086 
L 322.361379 176.754258 
L 323.90069 176.754258 
L 325.44 173.785914 
L 326.97931 172.301742 
L 328.518621 169.333399 
L 330.057931 169.333399 
L 333.136552 175.270086 
L 334.675862 175.270086 
L 336.215172 176.754258 
L 340.833103 172.301742 
L 342.372414 172.301742 
L 343.911724 160.428368 
L 345.451034 160.428368 
L 346.990345 158.944196 
L 348.529655 158.944196 
L 350.068966 157.460025 
L 351.608276 169.333399 
L 353.147586 170.817571 
L 356.226207 170.817571 
L 359.304828 173.785914 
L 360.844138 172.301742 
L 362.383448 173.785914 
L 363.922759 172.301742 
L 365.462069 173.785914 
L 367.001379 173.785914 
L 368.54069 176.754258 
L 370.08 176.754258 
L 371.61931 178.238429 
L 373.158621 178.238429 
L 374.697931 176.754258 
L 376.237241 173.785914 
L 379.315862 170.817571 
L 380.855172 167.849227 
L 382.394483 166.365055 
L 383.933793 166.365055 
L 385.473103 169.333399 
L 387.012414 169.333399 
L 388.551724 170.817571 
L 391.630345 170.817571 
L 393.169655 167.849227 
L 397.787586 167.849227 
L 402.405517 172.301742 
L 403.944828 170.817571 
L 405.484138 172.301742 
L 407.023448 172.301742 
L 408.562759 169.333399 
L 411.641379 169.333399 
L 413.18069 167.849227 
L 414.72 167.849227 
L 414.72 167.849227 
" style="fill:none;stroke:#d62728;stroke-linecap:square;stroke-width:1.5;"/>
   </g>
   <g id="patch_3">
    <path d="M 57.6 307.584 
L 57.6 41.472 
" style="fill:none;stroke:#000000;stroke-linecap:square;stroke-linejoin:miter;stroke-width:0.8;"/>
   </g>
   <g id="patch_4">
    <path d="M 414.72 307.584 
L 414.72 41.472 
" style="fill:none;stroke:#000000;stroke-linecap:square;stroke-linejoin:miter;stroke-width:0.8;"/>
   </g>
   <g id="patch_5">
    <path d="M 57.6 307.584 
L 414.72 307.584 
" style="fill:none;stroke:#000000;stroke-linecap:square;stroke-linejoin:miter;stroke-width:0.8;"/>
   </g>
   <g id="patch_6">
    <path d="M 57.6 41.472 
L 414.72 41.472 
" style="fill:none;stroke:#000000;stroke-linecap:square;stroke-linejoin:miter;stroke-width:0.8;"/>
   </g>
   <g id="legend_1">
    <g id="patch_7">
     <path d="M 64.6 302.584 
L 471.126562 302.584 
Q 473.126562 302.584 473.126562 300.584 
L 473.126562 242.8715 
Q 473.126562 240.8715 471.126562 240.8715 
L 64.6 240.8715 
Q 62.6 240.8715 62.6 242.8715 
L 62.6 300.584 
Q 62.6 302.584 64.6 302.584 
z
" style="fill:#ffffff;opacity:0.8;stroke:#cccccc;stroke-linejoin:miter;"/>
    </g>
    <g id="line2d_17">
     <path d="M 66.6 248.969937 
L 86.6 248.969937 
" style="fill:none;stroke:#1f77b4;stroke-linecap:square;stroke-width:1.5;"/>
    </g>
    <g id="line2d_18"/>
    <g id="text_13">
     <!-- 5.2.17.ipstate-active-hwp.gnome-shell-classic.unhide-brute.warmup+main -->
     <defs>
      <path d="M 10.6875 12.40625 
L 21 12.40625 
L 21 0 
L 10.6875 0 
z
" id="DejaVuSans-46"/>
      <path d="M 9.421875 54.6875 
L 18.40625 54.6875 
L 18.40625 0 
L 9.421875 0 
z
M 9.421875 75.984375 
L 18.40625 75.984375 
L 18.40625 64.59375 
L 9.421875 64.59375 
z
" id="DejaVuSans-105"/>
      <path d="M 18.109375 8.203125 
L 18.109375 -20.796875 
L 9.078125 -20.796875 
L 9.078125 54.6875 
L 18.109375 54.6875 
L 18.109375 46.390625 
Q 20.953125 51.265625 25.265625 53.625 
Q 29.59375 56 35.59375 56 
Q 45.5625 56 51.78125 48.09375 
Q 58.015625 40.1875 58.015625 27.296875 
Q 58.015625 14.40625 51.78125 6.484375 
Q 45.5625 -1.421875 35.59375 -1.421875 
Q 29.59375 -1.421875 25.265625 0.953125 
Q 20.953125 3.328125 18.109375 8.203125 
z
M 48.6875 27.296875 
Q 48.6875 37.203125 44.609375 42.84375 
Q 40.53125 48.484375 33.40625 48.484375 
Q 26.265625 48.484375 22.1875 42.84375 
Q 18.109375 37.203125 18.109375 27.296875 
Q 18.109375 17.390625 22.1875 11.75 
Q 26.265625 6.109375 33.40625 6.109375 
Q 40.53125 6.109375 44.609375 11.75 
Q 48.6875 17.390625 48.6875 27.296875 
z
" id="DejaVuSans-112"/>
      <path d="M 44.28125 53.078125 
L 44.28125 44.578125 
Q 40.484375 46.53125 36.375 47.5 
Q 32.28125 48.484375 27.875 48.484375 
Q 21.1875 48.484375 17.84375 46.4375 
Q 14.5 44.390625 14.5 40.28125 
Q 14.5 37.15625 16.890625 35.375 
Q 19.28125 33.59375 26.515625 31.984375 
L 29.59375 31.296875 
Q 39.15625 29.25 43.1875 25.515625 
Q 47.21875 21.78125 47.21875 15.09375 
Q 47.21875 7.46875 41.1875 3.015625 
Q 35.15625 -1.421875 24.609375 -1.421875 
Q 20.21875 -1.421875 15.453125 -0.5625 
Q 10.6875 0.296875 5.421875 2 
L 5.421875 11.28125 
Q 10.40625 8.6875 15.234375 7.390625 
Q 20.0625 6.109375 24.8125 6.109375 
Q 31.15625 6.109375 34.5625 8.28125 
Q 37.984375 10.453125 37.984375 14.40625 
Q 37.984375 18.0625 35.515625 20.015625 
Q 33.0625 21.96875 24.703125 23.78125 
L 21.578125 24.515625 
Q 13.234375 26.265625 9.515625 29.90625 
Q 5.8125 33.546875 5.8125 39.890625 
Q 5.8125 47.609375 11.28125 51.796875 
Q 16.75 56 26.8125 56 
Q 31.78125 56 36.171875 55.265625 
Q 40.578125 54.546875 44.28125 53.078125 
z
" id="DejaVuSans-115"/>
      <path d="M 18.3125 70.21875 
L 18.3125 54.6875 
L 36.8125 54.6875 
L 36.8125 47.703125 
L 18.3125 47.703125 
L 18.3125 18.015625 
Q 18.3125 11.328125 20.140625 9.421875 
Q 21.96875 7.515625 27.59375 7.515625 
L 36.8125 7.515625 
L 36.8125 0 
L 27.59375 0 
Q 17.1875 0 13.234375 3.875 
Q 9.28125 7.765625 9.28125 18.015625 
L 9.28125 47.703125 
L 2.6875 47.703125 
L 2.6875 54.6875 
L 9.28125 54.6875 
L 9.28125 70.21875 
z
" id="DejaVuSans-116"/>
      <path d="M 34.28125 27.484375 
Q 23.390625 27.484375 19.1875 25 
Q 14.984375 22.515625 14.984375 16.5 
Q 14.984375 11.71875 18.140625 8.90625 
Q 21.296875 6.109375 26.703125 6.109375 
Q 34.1875 6.109375 38.703125 11.40625 
Q 43.21875 16.703125 43.21875 25.484375 
L 43.21875 27.484375 
z
M 52.203125 31.203125 
L 52.203125 0 
L 43.21875 0 
L 43.21875 8.296875 
Q 40.140625 3.328125 35.546875 0.953125 
Q 30.953125 -1.421875 24.3125 -1.421875 
Q 15.921875 -1.421875 10.953125 3.296875 
Q 6 8.015625 6 15.921875 
Q 6 25.140625 12.171875 29.828125 
Q 18.359375 34.515625 30.609375 34.515625 
L 43.21875 34.515625 
L 43.21875 35.40625 
Q 43.21875 41.609375 39.140625 45 
Q 35.0625 48.390625 27.6875 48.390625 
Q 23 48.390625 18.546875 47.265625 
Q 14.109375 46.140625 10.015625 43.890625 
L 10.015625 52.203125 
Q 14.9375 54.109375 19.578125 55.046875 
Q 24.21875 56 28.609375 56 
Q 40.484375 56 46.34375 49.84375 
Q 52.203125 43.703125 52.203125 31.203125 
z
" id="DejaVuSans-97"/>
      <path d="M 56.203125 29.59375 
L 56.203125 25.203125 
L 14.890625 25.203125 
Q 15.484375 15.921875 20.484375 11.0625 
Q 25.484375 6.203125 34.421875 6.203125 
Q 39.59375 6.203125 44.453125 7.46875 
Q 49.3125 8.734375 54.109375 11.28125 
L 54.109375 2.78125 
Q 49.265625 0.734375 44.1875 -0.34375 
Q 39.109375 -1.421875 33.890625 -1.421875 
Q 20.796875 -1.421875 13.15625 6.1875 
Q 5.515625 13.8125 5.515625 26.8125 
Q 5.515625 40.234375 12.765625 48.109375 
Q 20.015625 56 32.328125 56 
Q 43.359375 56 49.78125 48.890625 
Q 56.203125 41.796875 56.203125 29.59375 
z
M 47.21875 32.234375 
Q 47.125 39.59375 43.09375 43.984375 
Q 39.0625 48.390625 32.421875 48.390625 
Q 24.90625 48.390625 20.390625 44.140625 
Q 15.875 39.890625 15.1875 32.171875 
z
" id="DejaVuSans-101"/>
      <path d="M 4.890625 31.390625 
L 31.203125 31.390625 
L 31.203125 23.390625 
L 4.890625 23.390625 
z
" id="DejaVuSans-45"/>
      <path d="M 48.78125 52.59375 
L 48.78125 44.1875 
Q 44.96875 46.296875 41.140625 47.34375 
Q 37.3125 48.390625 33.40625 48.390625 
Q 24.65625 48.390625 19.8125 42.84375 
Q 14.984375 37.3125 14.984375 27.296875 
Q 14.984375 17.28125 19.8125 11.734375 
Q 24.65625 6.203125 33.40625 6.203125 
Q 37.3125 6.203125 41.140625 7.25 
Q 44.96875 8.296875 48.78125 10.40625 
L 48.78125 2.09375 
Q 45.015625 0.34375 40.984375 -0.53125 
Q 36.96875 -1.421875 32.421875 -1.421875 
Q 20.0625 -1.421875 12.78125 6.34375 
Q 5.515625 14.109375 5.515625 27.296875 
Q 5.515625 40.671875 12.859375 48.328125 
Q 20.21875 56 33.015625 56 
Q 37.15625 56 41.109375 55.140625 
Q 45.0625 54.296875 48.78125 52.59375 
z
" id="DejaVuSans-99"/>
      <path d="M 2.984375 54.6875 
L 12.5 54.6875 
L 29.59375 8.796875 
L 46.6875 54.6875 
L 56.203125 54.6875 
L 35.6875 0 
L 23.484375 0 
z
" id="DejaVuSans-118"/>
      <path d="M 54.890625 33.015625 
L 54.890625 0 
L 45.90625 0 
L 45.90625 32.71875 
Q 45.90625 40.484375 42.875 44.328125 
Q 39.84375 48.1875 33.796875 48.1875 
Q 26.515625 48.1875 22.3125 43.546875 
Q 18.109375 38.921875 18.109375 30.90625 
L 18.109375 0 
L 9.078125 0 
L 9.078125 75.984375 
L 18.109375 75.984375 
L 18.109375 46.1875 
Q 21.34375 51.125 25.703125 53.5625 
Q 30.078125 56 35.796875 56 
Q 45.21875 56 50.046875 50.171875 
Q 54.890625 44.34375 54.890625 33.015625 
z
" id="DejaVuSans-104"/>
      <path d="M 4.203125 54.6875 
L 13.1875 54.6875 
L 24.421875 12.015625 
L 35.59375 54.6875 
L 46.1875 54.6875 
L 57.421875 12.015625 
L 68.609375 54.6875 
L 77.59375 54.6875 
L 63.28125 0 
L 52.6875 0 
L 40.921875 44.828125 
L 29.109375 0 
L 18.5 0 
z
" id="DejaVuSans-119"/>
      <path d="M 45.40625 27.984375 
Q 45.40625 37.75 41.375 43.109375 
Q 37.359375 48.484375 30.078125 48.484375 
Q 22.859375 48.484375 18.828125 43.109375 
Q 14.796875 37.75 14.796875 27.984375 
Q 14.796875 18.265625 18.828125 12.890625 
Q 22.859375 7.515625 30.078125 7.515625 
Q 37.359375 7.515625 41.375 12.890625 
Q 45.40625 18.265625 45.40625 27.984375 
z
M 54.390625 6.78125 
Q 54.390625 -7.171875 48.1875 -13.984375 
Q 42 -20.796875 29.203125 -20.796875 
Q 24.46875 -20.796875 20.265625 -20.09375 
Q 16.0625 -19.390625 12.109375 -17.921875 
L 12.109375 -9.1875 
Q 16.0625 -11.328125 19.921875 -12.34375 
Q 23.78125 -13.375 27.78125 -13.375 
Q 36.625 -13.375 41.015625 -8.765625 
Q 45.40625 -4.15625 45.40625 5.171875 
L 45.40625 9.625 
Q 42.625 4.78125 38.28125 2.390625 
Q 33.9375 0 27.875 0 
Q 17.828125 0 11.671875 7.65625 
Q 5.515625 15.328125 5.515625 27.984375 
Q 5.515625 40.671875 11.671875 48.328125 
Q 17.828125 56 27.875 56 
Q 33.9375 56 38.28125 53.609375 
Q 42.625 51.21875 45.40625 46.390625 
L 45.40625 54.6875 
L 54.390625 54.6875 
z
" id="DejaVuSans-103"/>
      <path d="M 54.890625 33.015625 
L 54.890625 0 
L 45.90625 0 
L 45.90625 32.71875 
Q 45.90625 40.484375 42.875 44.328125 
Q 39.84375 48.1875 33.796875 48.1875 
Q 26.515625 48.1875 22.3125 43.546875 
Q 18.109375 38.921875 18.109375 30.90625 
L 18.109375 0 
L 9.078125 0 
L 9.078125 54.6875 
L 18.109375 54.6875 
L 18.109375 46.1875 
Q 21.34375 51.125 25.703125 53.5625 
Q 30.078125 56 35.796875 56 
Q 45.21875 56 50.046875 50.171875 
Q 54.890625 44.34375 54.890625 33.015625 
z
" id="DejaVuSans-110"/>
      <path d="M 30.609375 48.390625 
Q 23.390625 48.390625 19.1875 42.75 
Q 14.984375 37.109375 14.984375 27.296875 
Q 14.984375 17.484375 19.15625 11.84375 
Q 23.34375 6.203125 30.609375 6.203125 
Q 37.796875 6.203125 41.984375 11.859375 
Q 46.1875 17.53125 46.1875 27.296875 
Q 46.1875 37.015625 41.984375 42.703125 
Q 37.796875 48.390625 30.609375 48.390625 
z
M 30.609375 56 
Q 42.328125 56 49.015625 48.375 
Q 55.71875 40.765625 55.71875 27.296875 
Q 55.71875 13.875 49.015625 6.21875 
Q 42.328125 -1.421875 30.609375 -1.421875 
Q 18.84375 -1.421875 12.171875 6.21875 
Q 5.515625 13.875 5.515625 27.296875 
Q 5.515625 40.765625 12.171875 48.375 
Q 18.84375 56 30.609375 56 
z
" id="DejaVuSans-111"/>
      <path d="M 52 44.1875 
Q 55.375 50.25 60.0625 53.125 
Q 64.75 56 71.09375 56 
Q 79.640625 56 84.28125 50.015625 
Q 88.921875 44.046875 88.921875 33.015625 
L 88.921875 0 
L 79.890625 0 
L 79.890625 32.71875 
Q 79.890625 40.578125 77.09375 44.375 
Q 74.3125 48.1875 68.609375 48.1875 
Q 61.625 48.1875 57.5625 43.546875 
Q 53.515625 38.921875 53.515625 30.90625 
L 53.515625 0 
L 44.484375 0 
L 44.484375 32.71875 
Q 44.484375 40.625 41.703125 44.40625 
Q 38.921875 48.1875 33.109375 48.1875 
Q 26.21875 48.1875 22.15625 43.53125 
Q 18.109375 38.875 18.109375 30.90625 
L 18.109375 0 
L 9.078125 0 
L 9.078125 54.6875 
L 18.109375 54.6875 
L 18.109375 46.1875 
Q 21.1875 51.21875 25.484375 53.609375 
Q 29.78125 56 35.6875 56 
Q 41.65625 56 45.828125 52.96875 
Q 50 49.953125 52 44.1875 
z
" id="DejaVuSans-109"/>
      <path d="M 9.421875 75.984375 
L 18.40625 75.984375 
L 18.40625 0 
L 9.421875 0 
z
" id="DejaVuSans-108"/>
      <path d="M 8.5 21.578125 
L 8.5 54.6875 
L 17.484375 54.6875 
L 17.484375 21.921875 
Q 17.484375 14.15625 20.5 10.265625 
Q 23.53125 6.390625 29.59375 6.390625 
Q 36.859375 6.390625 41.078125 11.03125 
Q 45.3125 15.671875 45.3125 23.6875 
L 45.3125 54.6875 
L 54.296875 54.6875 
L 54.296875 0 
L 45.3125 0 
L 45.3125 8.40625 
Q 42.046875 3.421875 37.71875 1 
Q 33.40625 -1.421875 27.6875 -1.421875 
Q 18.265625 -1.421875 13.375 4.4375 
Q 8.5 10.296875 8.5 21.578125 
z
M 31.109375 56 
z
" id="DejaVuSans-117"/>
      <path d="M 45.40625 46.390625 
L 45.40625 75.984375 
L 54.390625 75.984375 
L 54.390625 0 
L 45.40625 0 
L 45.40625 8.203125 
Q 42.578125 3.328125 38.25 0.953125 
Q 33.9375 -1.421875 27.875 -1.421875 
Q 17.96875 -1.421875 11.734375 6.484375 
Q 5.515625 14.40625 5.515625 27.296875 
Q 5.515625 40.1875 11.734375 48.09375 
Q 17.96875 56 27.875 56 
Q 33.9375 56 38.25 53.625 
Q 42.578125 51.265625 45.40625 46.390625 
z
M 14.796875 27.296875 
Q 14.796875 17.390625 18.875 11.75 
Q 22.953125 6.109375 30.078125 6.109375 
Q 37.203125 6.109375 41.296875 11.75 
Q 45.40625 17.390625 45.40625 27.296875 
Q 45.40625 37.203125 41.296875 42.84375 
Q 37.203125 48.484375 30.078125 48.484375 
Q 22.953125 48.484375 18.875 42.84375 
Q 14.796875 37.203125 14.796875 27.296875 
z
" id="DejaVuSans-100"/>
      <path d="M 48.6875 27.296875 
Q 48.6875 37.203125 44.609375 42.84375 
Q 40.53125 48.484375 33.40625 48.484375 
Q 26.265625 48.484375 22.1875 42.84375 
Q 18.109375 37.203125 18.109375 27.296875 
Q 18.109375 17.390625 22.1875 11.75 
Q 26.265625 6.109375 33.40625 6.109375 
Q 40.53125 6.109375 44.609375 11.75 
Q 48.6875 17.390625 48.6875 27.296875 
z
M 18.109375 46.390625 
Q 20.953125 51.265625 25.265625 53.625 
Q 29.59375 56 35.59375 56 
Q 45.5625 56 51.78125 48.09375 
Q 58.015625 40.1875 58.015625 27.296875 
Q 58.015625 14.40625 51.78125 6.484375 
Q 45.5625 -1.421875 35.59375 -1.421875 
Q 29.59375 -1.421875 25.265625 0.953125 
Q 20.953125 3.328125 18.109375 8.203125 
L 18.109375 0 
L 9.078125 0 
L 9.078125 75.984375 
L 18.109375 75.984375 
z
" id="DejaVuSans-98"/>
      <path d="M 41.109375 46.296875 
Q 39.59375 47.171875 37.8125 47.578125 
Q 36.03125 48 33.890625 48 
Q 26.265625 48 22.1875 43.046875 
Q 18.109375 38.09375 18.109375 28.8125 
L 18.109375 0 
L 9.078125 0 
L 9.078125 54.6875 
L 18.109375 54.6875 
L 18.109375 46.1875 
Q 20.953125 51.171875 25.484375 53.578125 
Q 30.03125 56 36.53125 56 
Q 37.453125 56 38.578125 55.875 
Q 39.703125 55.765625 41.0625 55.515625 
z
" id="DejaVuSans-114"/>
      <path d="M 46 62.703125 
L 46 35.5 
L 73.1875 35.5 
L 73.1875 27.203125 
L 46 27.203125 
L 46 0 
L 37.796875 0 
L 37.796875 27.203125 
L 10.59375 27.203125 
L 10.59375 35.5 
L 37.796875 35.5 
L 37.796875 62.703125 
z
" id="DejaVuSans-43"/>
     </defs>
     <g transform="translate(94.6 252.469937)scale(0.1 -0.1)">
      <use xlink:href="#DejaVuSans-53"/>
      <use x="63.623047" xlink:href="#DejaVuSans-46"/>
      <use x="95.410156" xlink:href="#DejaVuSans-50"/>
      <use x="159.033203" xlink:href="#DejaVuSans-46"/>
      <use x="190.820312" xlink:href="#DejaVuSans-49"/>
      <use x="254.443359" xlink:href="#DejaVuSans-55"/>
      <use x="318.066406" xlink:href="#DejaVuSans-46"/>
      <use x="349.853516" xlink:href="#DejaVuSans-105"/>
      <use x="377.636719" xlink:href="#DejaVuSans-112"/>
      <use x="441.113281" xlink:href="#DejaVuSans-115"/>
      <use x="493.212891" xlink:href="#DejaVuSans-116"/>
      <use x="532.421875" xlink:href="#DejaVuSans-97"/>
      <use x="593.701172" xlink:href="#DejaVuSans-116"/>
      <use x="632.910156" xlink:href="#DejaVuSans-101"/>
      <use x="694.433594" xlink:href="#DejaVuSans-45"/>
      <use x="730.517578" xlink:href="#DejaVuSans-97"/>
      <use x="791.796875" xlink:href="#DejaVuSans-99"/>
      <use x="846.777344" xlink:href="#DejaVuSans-116"/>
      <use x="885.986328" xlink:href="#DejaVuSans-105"/>
      <use x="913.769531" xlink:href="#DejaVuSans-118"/>
      <use x="972.949219" xlink:href="#DejaVuSans-101"/>
      <use x="1034.472656" xlink:href="#DejaVuSans-45"/>
      <use x="1070.556641" xlink:href="#DejaVuSans-104"/>
      <use x="1133.935547" xlink:href="#DejaVuSans-119"/>
      <use x="1215.722656" xlink:href="#DejaVuSans-112"/>
      <use x="1279.199219" xlink:href="#DejaVuSans-46"/>
      <use x="1310.986328" xlink:href="#DejaVuSans-103"/>
      <use x="1374.462891" xlink:href="#DejaVuSans-110"/>
      <use x="1437.841797" xlink:href="#DejaVuSans-111"/>
      <use x="1499.023438" xlink:href="#DejaVuSans-109"/>
      <use x="1596.435547" xlink:href="#DejaVuSans-101"/>
      <use x="1657.958984" xlink:href="#DejaVuSans-45"/>
      <use x="1694.042969" xlink:href="#DejaVuSans-115"/>
      <use x="1746.142578" xlink:href="#DejaVuSans-104"/>
      <use x="1809.521484" xlink:href="#DejaVuSans-101"/>
      <use x="1871.044922" xlink:href="#DejaVuSans-108"/>
      <use x="1898.828125" xlink:href="#DejaVuSans-108"/>
      <use x="1926.611328" xlink:href="#DejaVuSans-45"/>
      <use x="1962.695312" xlink:href="#DejaVuSans-99"/>
      <use x="2017.675781" xlink:href="#DejaVuSans-108"/>
      <use x="2045.458984" xlink:href="#DejaVuSans-97"/>
      <use x="2106.738281" xlink:href="#DejaVuSans-115"/>
      <use x="2158.837891" xlink:href="#DejaVuSans-115"/>
      <use x="2210.9375" xlink:href="#DejaVuSans-105"/>
      <use x="2238.720703" xlink:href="#DejaVuSans-99"/>
      <use x="2293.701172" xlink:href="#DejaVuSans-46"/>
      <use x="2325.488281" xlink:href="#DejaVuSans-117"/>
      <use x="2388.867188" xlink:href="#DejaVuSans-110"/>
      <use x="2452.246094" xlink:href="#DejaVuSans-104"/>
      <use x="2515.625" xlink:href="#DejaVuSans-105"/>
      <use x="2543.408203" xlink:href="#DejaVuSans-100"/>
      <use x="2606.884766" xlink:href="#DejaVuSans-101"/>
      <use x="2668.408203" xlink:href="#DejaVuSans-45"/>
      <use x="2704.492188" xlink:href="#DejaVuSans-98"/>
      <use x="2767.96875" xlink:href="#DejaVuSans-114"/>
      <use x="2809.082031" xlink:href="#DejaVuSans-117"/>
      <use x="2872.460938" xlink:href="#DejaVuSans-116"/>
      <use x="2911.669922" xlink:href="#DejaVuSans-101"/>
      <use x="2973.193359" xlink:href="#DejaVuSans-46"/>
      <use x="3004.980469" xlink:href="#DejaVuSans-119"/>
      <use x="3086.767578" xlink:href="#DejaVuSans-97"/>
      <use x="3148.046875" xlink:href="#DejaVuSans-114"/>
      <use x="3187.410156" xlink:href="#DejaVuSans-109"/>
      <use x="3284.822266" xlink:href="#DejaVuSans-117"/>
      <use x="3348.201172" xlink:href="#DejaVuSans-112"/>
      <use x="3411.677734" xlink:href="#DejaVuSans-43"/>
      <use x="3495.466797" xlink:href="#DejaVuSans-109"/>
      <use x="3592.878906" xlink:href="#DejaVuSans-97"/>
      <use x="3654.158203" xlink:href="#DejaVuSans-105"/>
      <use x="3681.941406" xlink:href="#DejaVuSans-110"/>
     </g>
    </g>
    <g id="line2d_19">
     <path d="M 66.6 263.648062 
L 86.6 263.648062 
" style="fill:none;stroke:#ff7f0e;stroke-linecap:square;stroke-width:1.5;"/>
    </g>
    <g id="line2d_20"/>
    <g id="text_14">
     <!-- 5.2.17.ipstate-disable.gnome-shell-classic.unhide-brute.warmup+main -->
     <g transform="translate(94.6 267.148062)scale(0.1 -0.1)">
      <use xlink:href="#DejaVuSans-53"/>
      <use x="63.623047" xlink:href="#DejaVuSans-46"/>
      <use x="95.410156" xlink:href="#DejaVuSans-50"/>
      <use x="159.033203" xlink:href="#DejaVuSans-46"/>
      <use x="190.820312" xlink:href="#DejaVuSans-49"/>
      <use x="254.443359" xlink:href="#DejaVuSans-55"/>
      <use x="318.066406" xlink:href="#DejaVuSans-46"/>
      <use x="349.853516" xlink:href="#DejaVuSans-105"/>
      <use x="377.636719" xlink:href="#DejaVuSans-112"/>
      <use x="441.113281" xlink:href="#DejaVuSans-115"/>
      <use x="493.212891" xlink:href="#DejaVuSans-116"/>
      <use x="532.421875" xlink:href="#DejaVuSans-97"/>
      <use x="593.701172" xlink:href="#DejaVuSans-116"/>
      <use x="632.910156" xlink:href="#DejaVuSans-101"/>
      <use x="694.433594" xlink:href="#DejaVuSans-45"/>
      <use x="730.517578" xlink:href="#DejaVuSans-100"/>
      <use x="793.994141" xlink:href="#DejaVuSans-105"/>
      <use x="821.777344" xlink:href="#DejaVuSans-115"/>
      <use x="873.876953" xlink:href="#DejaVuSans-97"/>
      <use x="935.15625" xlink:href="#DejaVuSans-98"/>
      <use x="998.632812" xlink:href="#DejaVuSans-108"/>
      <use x="1026.416016" xlink:href="#DejaVuSans-101"/>
      <use x="1087.939453" xlink:href="#DejaVuSans-46"/>
      <use x="1119.726562" xlink:href="#DejaVuSans-103"/>
      <use x="1183.203125" xlink:href="#DejaVuSans-110"/>
      <use x="1246.582031" xlink:href="#DejaVuSans-111"/>
      <use x="1307.763672" xlink:href="#DejaVuSans-109"/>
      <use x="1405.175781" xlink:href="#DejaVuSans-101"/>
      <use x="1466.699219" xlink:href="#DejaVuSans-45"/>
      <use x="1502.783203" xlink:href="#DejaVuSans-115"/>
      <use x="1554.882812" xlink:href="#DejaVuSans-104"/>
      <use x="1618.261719" xlink:href="#DejaVuSans-101"/>
      <use x="1679.785156" xlink:href="#DejaVuSans-108"/>
      <use x="1707.568359" xlink:href="#DejaVuSans-108"/>
      <use x="1735.351562" xlink:href="#DejaVuSans-45"/>
      <use x="1771.435547" xlink:href="#DejaVuSans-99"/>
      <use x="1826.416016" xlink:href="#DejaVuSans-108"/>
      <use x="1854.199219" xlink:href="#DejaVuSans-97"/>
      <use x="1915.478516" xlink:href="#DejaVuSans-115"/>
      <use x="1967.578125" xlink:href="#DejaVuSans-115"/>
      <use x="2019.677734" xlink:href="#DejaVuSans-105"/>
      <use x="2047.460938" xlink:href="#DejaVuSans-99"/>
      <use x="2102.441406" xlink:href="#DejaVuSans-46"/>
      <use x="2134.228516" xlink:href="#DejaVuSans-117"/>
      <use x="2197.607422" xlink:href="#DejaVuSans-110"/>
      <use x="2260.986328" xlink:href="#DejaVuSans-104"/>
      <use x="2324.365234" xlink:href="#DejaVuSans-105"/>
      <use x="2352.148438" xlink:href="#DejaVuSans-100"/>
      <use x="2415.625" xlink:href="#DejaVuSans-101"/>
      <use x="2477.148438" xlink:href="#DejaVuSans-45"/>
      <use x="2513.232422" xlink:href="#DejaVuSans-98"/>
      <use x="2576.708984" xlink:href="#DejaVuSans-114"/>
      <use x="2617.822266" xlink:href="#DejaVuSans-117"/>
      <use x="2681.201172" xlink:href="#DejaVuSans-116"/>
      <use x="2720.410156" xlink:href="#DejaVuSans-101"/>
      <use x="2781.933594" xlink:href="#DejaVuSans-46"/>
      <use x="2813.720703" xlink:href="#DejaVuSans-119"/>
      <use x="2895.507812" xlink:href="#DejaVuSans-97"/>
      <use x="2956.787109" xlink:href="#DejaVuSans-114"/>
      <use x="2996.150391" xlink:href="#DejaVuSans-109"/>
      <use x="3093.5625" xlink:href="#DejaVuSans-117"/>
      <use x="3156.941406" xlink:href="#DejaVuSans-112"/>
      <use x="3220.417969" xlink:href="#DejaVuSans-43"/>
      <use x="3304.207031" xlink:href="#DejaVuSans-109"/>
      <use x="3401.619141" xlink:href="#DejaVuSans-97"/>
      <use x="3462.898438" xlink:href="#DejaVuSans-105"/>
      <use x="3490.681641" xlink:href="#DejaVuSans-110"/>
     </g>
    </g>
    <g id="line2d_21">
     <path d="M 66.6 278.326187 
L 86.6 278.326187 
" style="fill:none;stroke:#2ca02c;stroke-linecap:square;stroke-width:1.5;"/>
    </g>
    <g id="line2d_22"/>
    <g id="text_15">
     <!-- 5.5.13.ipstate-active-hwp.gnome-shell-classic.unhide-brute.warmup+main -->
     <defs>
      <path d="M 40.578125 39.3125 
Q 47.65625 37.796875 51.625 33 
Q 55.609375 28.21875 55.609375 21.1875 
Q 55.609375 10.40625 48.1875 4.484375 
Q 40.765625 -1.421875 27.09375 -1.421875 
Q 22.515625 -1.421875 17.65625 -0.515625 
Q 12.796875 0.390625 7.625 2.203125 
L 7.625 11.71875 
Q 11.71875 9.328125 16.59375 8.109375 
Q 21.484375 6.890625 26.8125 6.890625 
Q 36.078125 6.890625 40.9375 10.546875 
Q 45.796875 14.203125 45.796875 21.1875 
Q 45.796875 27.640625 41.28125 31.265625 
Q 36.765625 34.90625 28.71875 34.90625 
L 20.21875 34.90625 
L 20.21875 43.015625 
L 29.109375 43.015625 
Q 36.375 43.015625 40.234375 45.921875 
Q 44.09375 48.828125 44.09375 54.296875 
Q 44.09375 59.90625 40.109375 62.90625 
Q 36.140625 65.921875 28.71875 65.921875 
Q 24.65625 65.921875 20.015625 65.03125 
Q 15.375 64.15625 9.8125 62.3125 
L 9.8125 71.09375 
Q 15.4375 72.65625 20.34375 73.4375 
Q 25.25 74.21875 29.59375 74.21875 
Q 40.828125 74.21875 47.359375 69.109375 
Q 53.90625 64.015625 53.90625 55.328125 
Q 53.90625 49.265625 50.4375 45.09375 
Q 46.96875 40.921875 40.578125 39.3125 
z
" id="DejaVuSans-51"/>
     </defs>
     <g transform="translate(94.6 281.826187)scale(0.1 -0.1)">
      <use xlink:href="#DejaVuSans-53"/>
      <use x="63.623047" xlink:href="#DejaVuSans-46"/>
      <use x="95.410156" xlink:href="#DejaVuSans-53"/>
      <use x="159.033203" xlink:href="#DejaVuSans-46"/>
      <use x="190.820312" xlink:href="#DejaVuSans-49"/>
      <use x="254.443359" xlink:href="#DejaVuSans-51"/>
      <use x="318.066406" xlink:href="#DejaVuSans-46"/>
      <use x="349.853516" xlink:href="#DejaVuSans-105"/>
      <use x="377.636719" xlink:href="#DejaVuSans-112"/>
      <use x="441.113281" xlink:href="#DejaVuSans-115"/>
      <use x="493.212891" xlink:href="#DejaVuSans-116"/>
      <use x="532.421875" xlink:href="#DejaVuSans-97"/>
      <use x="593.701172" xlink:href="#DejaVuSans-116"/>
      <use x="632.910156" xlink:href="#DejaVuSans-101"/>
      <use x="694.433594" xlink:href="#DejaVuSans-45"/>
      <use x="730.517578" xlink:href="#DejaVuSans-97"/>
      <use x="791.796875" xlink:href="#DejaVuSans-99"/>
      <use x="846.777344" xlink:href="#DejaVuSans-116"/>
      <use x="885.986328" xlink:href="#DejaVuSans-105"/>
      <use x="913.769531" xlink:href="#DejaVuSans-118"/>
      <use x="972.949219" xlink:href="#DejaVuSans-101"/>
      <use x="1034.472656" xlink:href="#DejaVuSans-45"/>
      <use x="1070.556641" xlink:href="#DejaVuSans-104"/>
      <use x="1133.935547" xlink:href="#DejaVuSans-119"/>
      <use x="1215.722656" xlink:href="#DejaVuSans-112"/>
      <use x="1279.199219" xlink:href="#DejaVuSans-46"/>
      <use x="1310.986328" xlink:href="#DejaVuSans-103"/>
      <use x="1374.462891" xlink:href="#DejaVuSans-110"/>
      <use x="1437.841797" xlink:href="#DejaVuSans-111"/>
      <use x="1499.023438" xlink:href="#DejaVuSans-109"/>
      <use x="1596.435547" xlink:href="#DejaVuSans-101"/>
      <use x="1657.958984" xlink:href="#DejaVuSans-45"/>
      <use x="1694.042969" xlink:href="#DejaVuSans-115"/>
      <use x="1746.142578" xlink:href="#DejaVuSans-104"/>
      <use x="1809.521484" xlink:href="#DejaVuSans-101"/>
      <use x="1871.044922" xlink:href="#DejaVuSans-108"/>
      <use x="1898.828125" xlink:href="#DejaVuSans-108"/>
      <use x="1926.611328" xlink:href="#DejaVuSans-45"/>
      <use x="1962.695312" xlink:href="#DejaVuSans-99"/>
      <use x="2017.675781" xlink:href="#DejaVuSans-108"/>
      <use x="2045.458984" xlink:href="#DejaVuSans-97"/>
      <use x="2106.738281" xlink:href="#DejaVuSans-115"/>
      <use x="2158.837891" xlink:href="#DejaVuSans-115"/>
      <use x="2210.9375" xlink:href="#DejaVuSans-105"/>
      <use x="2238.720703" xlink:href="#DejaVuSans-99"/>
      <use x="2293.701172" xlink:href="#DejaVuSans-46"/>
      <use x="2325.488281" xlink:href="#DejaVuSans-117"/>
      <use x="2388.867188" xlink:href="#DejaVuSans-110"/>
      <use x="2452.246094" xlink:href="#DejaVuSans-104"/>
      <use x="2515.625" xlink:href="#DejaVuSans-105"/>
      <use x="2543.408203" xlink:href="#DejaVuSans-100"/>
      <use x="2606.884766" xlink:href="#DejaVuSans-101"/>
      <use x="2668.408203" xlink:href="#DejaVuSans-45"/>
      <use x="2704.492188" xlink:href="#DejaVuSans-98"/>
      <use x="2767.96875" xlink:href="#DejaVuSans-114"/>
      <use x="2809.082031" xlink:href="#DejaVuSans-117"/>
      <use x="2872.460938" xlink:href="#DejaVuSans-116"/>
      <use x="2911.669922" xlink:href="#DejaVuSans-101"/>
      <use x="2973.193359" xlink:href="#DejaVuSans-46"/>
      <use x="3004.980469" xlink:href="#DejaVuSans-119"/>
      <use x="3086.767578" xlink:href="#DejaVuSans-97"/>
      <use x="3148.046875" xlink:href="#DejaVuSans-114"/>
      <use x="3187.410156" xlink:href="#DejaVuSans-109"/>
      <use x="3284.822266" xlink:href="#DejaVuSans-117"/>
      <use x="3348.201172" xlink:href="#DejaVuSans-112"/>
      <use x="3411.677734" xlink:href="#DejaVuSans-43"/>
      <use x="3495.466797" xlink:href="#DejaVuSans-109"/>
      <use x="3592.878906" xlink:href="#DejaVuSans-97"/>
      <use x="3654.158203" xlink:href="#DejaVuSans-105"/>
      <use x="3681.941406" xlink:href="#DejaVuSans-110"/>
     </g>
    </g>
    <g id="line2d_23">
     <path d="M 66.6 293.004312 
L 86.6 293.004312 
" style="fill:none;stroke:#d62728;stroke-linecap:square;stroke-width:1.5;"/>
    </g>
    <g id="line2d_24"/>
    <g id="text_16">
     <!-- 5.5.13.ipstate-disable.gnome-shell-classic.unhide-brute.warmup+main -->
     <g transform="translate(94.6 296.504312)scale(0.1 -0.1)">
      <use xlink:href="#DejaVuSans-53"/>
      <use x="63.623047" xlink:href="#DejaVuSans-46"/>
      <use x="95.410156" xlink:href="#DejaVuSans-53"/>
      <use x="159.033203" xlink:href="#DejaVuSans-46"/>
      <use x="190.820312" xlink:href="#DejaVuSans-49"/>
      <use x="254.443359" xlink:href="#DejaVuSans-51"/>
      <use x="318.066406" xlink:href="#DejaVuSans-46"/>
      <use x="349.853516" xlink:href="#DejaVuSans-105"/>
      <use x="377.636719" xlink:href="#DejaVuSans-112"/>
      <use x="441.113281" xlink:href="#DejaVuSans-115"/>
      <use x="493.212891" xlink:href="#DejaVuSans-116"/>
      <use x="532.421875" xlink:href="#DejaVuSans-97"/>
      <use x="593.701172" xlink:href="#DejaVuSans-116"/>
      <use x="632.910156" xlink:href="#DejaVuSans-101"/>
      <use x="694.433594" xlink:href="#DejaVuSans-45"/>
      <use x="730.517578" xlink:href="#DejaVuSans-100"/>
      <use x="793.994141" xlink:href="#DejaVuSans-105"/>
      <use x="821.777344" xlink:href="#DejaVuSans-115"/>
      <use x="873.876953" xlink:href="#DejaVuSans-97"/>
      <use x="935.15625" xlink:href="#DejaVuSans-98"/>
      <use x="998.632812" xlink:href="#DejaVuSans-108"/>
      <use x="1026.416016" xlink:href="#DejaVuSans-101"/>
      <use x="1087.939453" xlink:href="#DejaVuSans-46"/>
      <use x="1119.726562" xlink:href="#DejaVuSans-103"/>
      <use x="1183.203125" xlink:href="#DejaVuSans-110"/>
      <use x="1246.582031" xlink:href="#DejaVuSans-111"/>
      <use x="1307.763672" xlink:href="#DejaVuSans-109"/>
      <use x="1405.175781" xlink:href="#DejaVuSans-101"/>
      <use x="1466.699219" xlink:href="#DejaVuSans-45"/>
      <use x="1502.783203" xlink:href="#DejaVuSans-115"/>
      <use x="1554.882812" xlink:href="#DejaVuSans-104"/>
      <use x="1618.261719" xlink:href="#DejaVuSans-101"/>
      <use x="1679.785156" xlink:href="#DejaVuSans-108"/>
      <use x="1707.568359" xlink:href="#DejaVuSans-108"/>
      <use x="1735.351562" xlink:href="#DejaVuSans-45"/>
      <use x="1771.435547" xlink:href="#DejaVuSans-99"/>
      <use x="1826.416016" xlink:href="#DejaVuSans-108"/>
      <use x="1854.199219" xlink:href="#DejaVuSans-97"/>
      <use x="1915.478516" xlink:href="#DejaVuSans-115"/>
      <use x="1967.578125" xlink:href="#DejaVuSans-115"/>
      <use x="2019.677734" xlink:href="#DejaVuSans-105"/>
      <use x="2047.460938" xlink:href="#DejaVuSans-99"/>
      <use x="2102.441406" xlink:href="#DejaVuSans-46"/>
      <use x="2134.228516" xlink:href="#DejaVuSans-117"/>
      <use x="2197.607422" xlink:href="#DejaVuSans-110"/>
      <use x="2260.986328" xlink:href="#DejaVuSans-104"/>
      <use x="2324.365234" xlink:href="#DejaVuSans-105"/>
      <use x="2352.148438" xlink:href="#DejaVuSans-100"/>
      <use x="2415.625" xlink:href="#DejaVuSans-101"/>
      <use x="2477.148438" xlink:href="#DejaVuSans-45"/>
      <use x="2513.232422" xlink:href="#DejaVuSans-98"/>
      <use x="2576.708984" xlink:href="#DejaVuSans-114"/>
      <use x="2617.822266" xlink:href="#DejaVuSans-117"/>
      <use x="2681.201172" xlink:href="#DejaVuSans-116"/>
      <use x="2720.410156" xlink:href="#DejaVuSans-101"/>
      <use x="2781.933594" xlink:href="#DejaVuSans-46"/>
      <use x="2813.720703" xlink:href="#DejaVuSans-119"/>
      <use x="2895.507812" xlink:href="#DejaVuSans-97"/>
      <use x="2956.787109" xlink:href="#DejaVuSans-114"/>
      <use x="2996.150391" xlink:href="#DejaVuSans-109"/>
      <use x="3093.5625" xlink:href="#DejaVuSans-117"/>
      <use x="3156.941406" xlink:href="#DejaVuSans-112"/>
      <use x="3220.417969" xlink:href="#DejaVuSans-43"/>
      <use x="3304.207031" xlink:href="#DejaVuSans-109"/>
      <use x="3401.619141" xlink:href="#DejaVuSans-97"/>
      <use x="3462.898438" xlink:href="#DejaVuSans-105"/>
      <use x="3490.681641" xlink:href="#DejaVuSans-110"/>
     </g>
    </g>
   </g>
  </g>
 </g>
 <defs>
  <clipPath id="p6fa9ec9ade">
   <rect height="266.112" width="357.12" x="57.6" y="41.472"/>
  </clipPath>
 </defs>
</svg>
