<?xml version="1.0" encoding="utf-8" standalone="no"?>
<!DOCTYPE svg PUBLIC "-//W3C//DTD SVG 1.1//EN"
  "http://www.w3.org/Graphics/SVG/1.1/DTD/svg11.dtd">
<!-- Created with matplotlib (https://matplotlib.org/) -->
<svg height="345.6pt" version="1.1" viewBox="0 0 460.8 345.6" width="460.8pt" xmlns="http://www.w3.org/2000/svg" xmlns:xlink="http://www.w3.org/1999/xlink">
 <defs>
  <style type="text/css">
*{stroke-linecap:butt;stroke-linejoin:round;}
  </style>
 </defs>
 <g id="figure_1">
  <g id="patch_1">
   <path d="M 0 345.6 
L 460.8 345.6 
L 460.8 0 
L 0 0 
z
" style="fill:#ffffff;"/>
  </g>
  <g id="axes_1">
   <g id="patch_2">
    <path d="M 57.6 307.584 
L 414.72 307.584 
L 414.72 41.472 
L 57.6 41.472 
z
" style="fill:#ffffff;"/>
   </g>
   <g id="matplotlib.axis_1">
    <g id="xtick_1">
     <g id="line2d_1">
      <defs>
       <path d="M 0 0 
L 0 3.5 
" id="m97a50c5dd0" style="stroke:#000000;stroke-width:0.8;"/>
      </defs>
      <g>
       <use style="stroke:#000000;stroke-width:0.8;" x="57.6" xlink:href="#m97a50c5dd0" y="307.584"/>
      </g>
     </g>
     <g id="text_1">
      <!-- 0 -->
      <defs>
       <path d="M 31.78125 66.40625 
Q 24.171875 66.40625 20.328125 58.90625 
Q 16.5 51.421875 16.5 36.375 
Q 16.5 21.390625 20.328125 13.890625 
Q 24.171875 6.390625 31.78125 6.390625 
Q 39.453125 6.390625 43.28125 13.890625 
Q 47.125 21.390625 47.125 36.375 
Q 47.125 51.421875 43.28125 58.90625 
Q 39.453125 66.40625 31.78125 66.40625 
z
M 31.78125 74.21875 
Q 44.046875 74.21875 50.515625 64.515625 
Q 56.984375 54.828125 56.984375 36.375 
Q 56.984375 17.96875 50.515625 8.265625 
Q 44.046875 -1.421875 31.78125 -1.421875 
Q 19.53125 -1.421875 13.0625 8.265625 
Q 6.59375 17.96875 6.59375 36.375 
Q 6.59375 54.828125 13.0625 64.515625 
Q 19.53125 74.21875 31.78125 74.21875 
z
" id="DejaVuSans-48"/>
      </defs>
      <g transform="translate(54.41875 322.182437)scale(0.1 -0.1)">
       <use xlink:href="#DejaVuSans-48"/>
      </g>
     </g>
    </g>
    <g id="xtick_2">
     <g id="line2d_2">
      <g>
       <use style="stroke:#000000;stroke-width:0.8;" x="134.565517" xlink:href="#m97a50c5dd0" y="307.584"/>
      </g>
     </g>
     <g id="text_2">
      <!-- 50 -->
      <defs>
       <path d="M 10.796875 72.90625 
L 49.515625 72.90625 
L 49.515625 64.59375 
L 19.828125 64.59375 
L 19.828125 46.734375 
Q 21.96875 47.46875 24.109375 47.828125 
Q 26.265625 48.1875 28.421875 48.1875 
Q 40.625 48.1875 47.75 41.5 
Q 54.890625 34.8125 54.890625 23.390625 
Q 54.890625 11.625 47.5625 5.09375 
Q 40.234375 -1.421875 26.90625 -1.421875 
Q 22.3125 -1.421875 17.546875 -0.640625 
Q 12.796875 0.140625 7.71875 1.703125 
L 7.71875 11.625 
Q 12.109375 9.234375 16.796875 8.0625 
Q 21.484375 6.890625 26.703125 6.890625 
Q 35.15625 6.890625 40.078125 11.328125 
Q 45.015625 15.765625 45.015625 23.390625 
Q 45.015625 31 40.078125 35.4375 
Q 35.15625 39.890625 26.703125 39.890625 
Q 22.75 39.890625 18.8125 39.015625 
Q 14.890625 38.140625 10.796875 36.28125 
z
" id="DejaVuSans-53"/>
      </defs>
      <g transform="translate(128.203017 322.182437)scale(0.1 -0.1)">
       <use xlink:href="#DejaVuSans-53"/>
       <use x="63.623047" xlink:href="#DejaVuSans-48"/>
      </g>
     </g>
    </g>
    <g id="xtick_3">
     <g id="line2d_3">
      <g>
       <use style="stroke:#000000;stroke-width:0.8;" x="211.531034" xlink:href="#m97a50c5dd0" y="307.584"/>
      </g>
     </g>
     <g id="text_3">
      <!-- 100 -->
      <defs>
       <path d="M 12.40625 8.296875 
L 28.515625 8.296875 
L 28.515625 63.921875 
L 10.984375 60.40625 
L 10.984375 69.390625 
L 28.421875 72.90625 
L 38.28125 72.90625 
L 38.28125 8.296875 
L 54.390625 8.296875 
L 54.390625 0 
L 12.40625 0 
z
" id="DejaVuSans-49"/>
      </defs>
      <g transform="translate(201.987284 322.182437)scale(0.1 -0.1)">
       <use xlink:href="#DejaVuSans-49"/>
       <use x="63.623047" xlink:href="#DejaVuSans-48"/>
       <use x="127.246094" xlink:href="#DejaVuSans-48"/>
      </g>
     </g>
    </g>
    <g id="xtick_4">
     <g id="line2d_4">
      <g>
       <use style="stroke:#000000;stroke-width:0.8;" x="288.496552" xlink:href="#m97a50c5dd0" y="307.584"/>
      </g>
     </g>
     <g id="text_4">
      <!-- 150 -->
      <g transform="translate(278.952802 322.182437)scale(0.1 -0.1)">
       <use xlink:href="#DejaVuSans-49"/>
       <use x="63.623047" xlink:href="#DejaVuSans-53"/>
       <use x="127.246094" xlink:href="#DejaVuSans-48"/>
      </g>
     </g>
    </g>
    <g id="xtick_5">
     <g id="line2d_5">
      <g>
       <use style="stroke:#000000;stroke-width:0.8;" x="365.462069" xlink:href="#m97a50c5dd0" y="307.584"/>
      </g>
     </g>
     <g id="text_5">
      <!-- 200 -->
      <defs>
       <path d="M 19.1875 8.296875 
L 53.609375 8.296875 
L 53.609375 0 
L 7.328125 0 
L 7.328125 8.296875 
Q 12.9375 14.109375 22.625 23.890625 
Q 32.328125 33.6875 34.8125 36.53125 
Q 39.546875 41.84375 41.421875 45.53125 
Q 43.3125 49.21875 43.3125 52.78125 
Q 43.3125 58.59375 39.234375 62.25 
Q 35.15625 65.921875 28.609375 65.921875 
Q 23.96875 65.921875 18.8125 64.3125 
Q 13.671875 62.703125 7.8125 59.421875 
L 7.8125 69.390625 
Q 13.765625 71.78125 18.9375 73 
Q 24.125 74.21875 28.421875 74.21875 
Q 39.75 74.21875 46.484375 68.546875 
Q 53.21875 62.890625 53.21875 53.421875 
Q 53.21875 48.921875 51.53125 44.890625 
Q 49.859375 40.875 45.40625 35.40625 
Q 44.1875 33.984375 37.640625 27.21875 
Q 31.109375 20.453125 19.1875 8.296875 
z
" id="DejaVuSans-50"/>
      </defs>
      <g transform="translate(355.918319 322.182437)scale(0.1 -0.1)">
       <use xlink:href="#DejaVuSans-50"/>
       <use x="63.623047" xlink:href="#DejaVuSans-48"/>
       <use x="127.246094" xlink:href="#DejaVuSans-48"/>
      </g>
     </g>
    </g>
   </g>
   <g id="matplotlib.axis_2">
    <g id="ytick_1">
     <g id="line2d_6">
      <defs>
       <path d="M 0 0 
L -3.5 0 
" id="m779d1a01dc" style="stroke:#000000;stroke-width:0.8;"/>
      </defs>
      <g>
       <use style="stroke:#000000;stroke-width:0.8;" x="57.6" xlink:href="#m779d1a01dc" y="295.488"/>
      </g>
     </g>
     <g id="text_6">
      <!-- 55 -->
      <g transform="translate(37.875 299.287219)scale(0.1 -0.1)">
       <use xlink:href="#DejaVuSans-53"/>
       <use x="63.623047" xlink:href="#DejaVuSans-53"/>
      </g>
     </g>
    </g>
    <g id="ytick_2">
     <g id="line2d_7">
      <g>
       <use style="stroke:#000000;stroke-width:0.8;" x="57.6" xlink:href="#m779d1a01dc" y="257.688"/>
      </g>
     </g>
     <g id="text_7">
      <!-- 60 -->
      <defs>
       <path d="M 33.015625 40.375 
Q 26.375 40.375 22.484375 35.828125 
Q 18.609375 31.296875 18.609375 23.390625 
Q 18.609375 15.53125 22.484375 10.953125 
Q 26.375 6.390625 33.015625 6.390625 
Q 39.65625 6.390625 43.53125 10.953125 
Q 47.40625 15.53125 47.40625 23.390625 
Q 47.40625 31.296875 43.53125 35.828125 
Q 39.65625 40.375 33.015625 40.375 
z
M 52.59375 71.296875 
L 52.59375 62.3125 
Q 48.875 64.0625 45.09375 64.984375 
Q 41.3125 65.921875 37.59375 65.921875 
Q 27.828125 65.921875 22.671875 59.328125 
Q 17.53125 52.734375 16.796875 39.40625 
Q 19.671875 43.65625 24.015625 45.921875 
Q 28.375 48.1875 33.59375 48.1875 
Q 44.578125 48.1875 50.953125 41.515625 
Q 57.328125 34.859375 57.328125 23.390625 
Q 57.328125 12.15625 50.6875 5.359375 
Q 44.046875 -1.421875 33.015625 -1.421875 
Q 20.359375 -1.421875 13.671875 8.265625 
Q 6.984375 17.96875 6.984375 36.375 
Q 6.984375 53.65625 15.1875 63.9375 
Q 23.390625 74.21875 37.203125 74.21875 
Q 40.921875 74.21875 44.703125 73.484375 
Q 48.484375 72.75 52.59375 71.296875 
z
" id="DejaVuSans-54"/>
      </defs>
      <g transform="translate(37.875 261.487219)scale(0.1 -0.1)">
       <use xlink:href="#DejaVuSans-54"/>
       <use x="63.623047" xlink:href="#DejaVuSans-48"/>
      </g>
     </g>
    </g>
    <g id="ytick_3">
     <g id="line2d_8">
      <g>
       <use style="stroke:#000000;stroke-width:0.8;" x="57.6" xlink:href="#m779d1a01dc" y="219.888"/>
      </g>
     </g>
     <g id="text_8">
      <!-- 65 -->
      <g transform="translate(37.875 223.687219)scale(0.1 -0.1)">
       <use xlink:href="#DejaVuSans-54"/>
       <use x="63.623047" xlink:href="#DejaVuSans-53"/>
      </g>
     </g>
    </g>
    <g id="ytick_4">
     <g id="line2d_9">
      <g>
       <use style="stroke:#000000;stroke-width:0.8;" x="57.6" xlink:href="#m779d1a01dc" y="182.088"/>
      </g>
     </g>
     <g id="text_9">
      <!-- 70 -->
      <defs>
       <path d="M 8.203125 72.90625 
L 55.078125 72.90625 
L 55.078125 68.703125 
L 28.609375 0 
L 18.3125 0 
L 43.21875 64.59375 
L 8.203125 64.59375 
z
" id="DejaVuSans-55"/>
      </defs>
      <g transform="translate(37.875 185.887219)scale(0.1 -0.1)">
       <use xlink:href="#DejaVuSans-55"/>
       <use x="63.623047" xlink:href="#DejaVuSans-48"/>
      </g>
     </g>
    </g>
    <g id="ytick_5">
     <g id="line2d_10">
      <g>
       <use style="stroke:#000000;stroke-width:0.8;" x="57.6" xlink:href="#m779d1a01dc" y="144.288"/>
      </g>
     </g>
     <g id="text_10">
      <!-- 75 -->
      <g transform="translate(37.875 148.087219)scale(0.1 -0.1)">
       <use xlink:href="#DejaVuSans-55"/>
       <use x="63.623047" xlink:href="#DejaVuSans-53"/>
      </g>
     </g>
    </g>
    <g id="ytick_6">
     <g id="line2d_11">
      <g>
       <use style="stroke:#000000;stroke-width:0.8;" x="57.6" xlink:href="#m779d1a01dc" y="106.488"/>
      </g>
     </g>
     <g id="text_11">
      <!-- 80 -->
      <defs>
       <path d="M 31.78125 34.625 
Q 24.75 34.625 20.71875 30.859375 
Q 16.703125 27.09375 16.703125 20.515625 
Q 16.703125 13.921875 20.71875 10.15625 
Q 24.75 6.390625 31.78125 6.390625 
Q 38.8125 6.390625 42.859375 10.171875 
Q 46.921875 13.96875 46.921875 20.515625 
Q 46.921875 27.09375 42.890625 30.859375 
Q 38.875 34.625 31.78125 34.625 
z
M 21.921875 38.8125 
Q 15.578125 40.375 12.03125 44.71875 
Q 8.5 49.078125 8.5 55.328125 
Q 8.5 64.0625 14.71875 69.140625 
Q 20.953125 74.21875 31.78125 74.21875 
Q 42.671875 74.21875 48.875 69.140625 
Q 55.078125 64.0625 55.078125 55.328125 
Q 55.078125 49.078125 51.53125 44.71875 
Q 48 40.375 41.703125 38.8125 
Q 48.828125 37.15625 52.796875 32.3125 
Q 56.78125 27.484375 56.78125 20.515625 
Q 56.78125 9.90625 50.3125 4.234375 
Q 43.84375 -1.421875 31.78125 -1.421875 
Q 19.734375 -1.421875 13.25 4.234375 
Q 6.78125 9.90625 6.78125 20.515625 
Q 6.78125 27.484375 10.78125 32.3125 
Q 14.796875 37.15625 21.921875 38.8125 
z
M 18.3125 54.390625 
Q 18.3125 48.734375 21.84375 45.5625 
Q 25.390625 42.390625 31.78125 42.390625 
Q 38.140625 42.390625 41.71875 45.5625 
Q 45.3125 48.734375 45.3125 54.390625 
Q 45.3125 60.0625 41.71875 63.234375 
Q 38.140625 66.40625 31.78125 66.40625 
Q 25.390625 66.40625 21.84375 63.234375 
Q 18.3125 60.0625 18.3125 54.390625 
z
" id="DejaVuSans-56"/>
      </defs>
      <g transform="translate(37.875 110.287219)scale(0.1 -0.1)">
       <use xlink:href="#DejaVuSans-56"/>
       <use x="63.623047" xlink:href="#DejaVuSans-48"/>
      </g>
     </g>
    </g>
    <g id="ytick_7">
     <g id="line2d_12">
      <g>
       <use style="stroke:#000000;stroke-width:0.8;" x="57.6" xlink:href="#m779d1a01dc" y="68.688"/>
      </g>
     </g>
     <g id="text_12">
      <!-- 85 -->
      <g transform="translate(37.875 72.487219)scale(0.1 -0.1)">
       <use xlink:href="#DejaVuSans-56"/>
       <use x="63.623047" xlink:href="#DejaVuSans-53"/>
      </g>
     </g>
    </g>
   </g>
   <g id="line2d_13">
    <path clip-path="url(#p6e74d06292)" d="M 63.757241 254.664 
L 65.296552 241.056 
L 66.835862 238.032 
L 68.375172 242.568 
L 69.914483 238.032 
L 71.453793 231.984 
L 72.993103 228.96 
L 74.532414 224.424 
L 76.071724 221.4 
L 77.611034 216.864 
L 79.150345 216.864 
L 82.228966 204.768 
L 83.768276 200.232 
L 85.307586 194.184 
L 86.846897 191.16 
L 88.386207 191.16 
L 89.925517 188.136 
L 91.464828 188.136 
L 93.004138 185.112 
L 96.082759 173.016 
L 97.622069 171.504 
L 99.161379 166.968 
L 100.70069 166.968 
L 102.24 165.456 
L 106.857931 169.992 
L 108.397241 169.992 
L 113.015172 165.456 
L 116.093793 156.384 
L 117.633103 159.408 
L 119.172414 154.872 
L 120.711724 151.848 
L 122.251034 154.872 
L 123.790345 148.824 
L 125.329655 145.8 
L 126.868966 144.288 
L 128.408276 144.288 
L 129.947586 141.264 
L 131.486897 144.288 
L 133.026207 142.776 
L 134.565517 144.288 
L 136.104828 138.24 
L 137.644138 136.728 
L 139.183448 139.752 
L 140.722759 139.752 
L 142.262069 135.216 
L 143.801379 138.24 
L 146.88 135.216 
L 148.41931 135.216 
L 149.958621 136.728 
L 151.497931 132.192 
L 153.037241 130.68 
L 157.655172 121.608 
L 159.194483 124.632 
L 160.733793 120.096 
L 162.273103 121.608 
L 163.812414 121.608 
L 165.351724 124.632 
L 166.891034 120.096 
L 168.430345 120.096 
L 169.969655 118.584 
L 171.508966 112.536 
L 173.048276 111.024 
L 174.587586 111.024 
L 176.126897 114.048 
L 179.205517 114.048 
L 180.744828 112.536 
L 182.284138 114.048 
L 185.362759 111.024 
L 186.902069 111.024 
L 189.98069 104.976 
L 191.52 100.44 
L 193.05931 103.464 
L 194.598621 109.512 
L 197.677241 124.632 
L 200.755862 127.656 
L 202.295172 130.68 
L 203.834483 129.168 
L 205.373793 129.168 
L 206.913103 136.728 
L 208.452414 136.728 
L 209.991724 127.656 
L 213.070345 115.56 
L 214.609655 117.072 
L 216.148966 109.512 
L 217.688276 109.512 
L 219.227586 111.024 
L 220.766897 118.584 
L 222.306207 118.584 
L 225.384828 124.632 
L 226.924138 124.632 
L 228.463448 117.072 
L 230.002759 111.024 
L 233.081379 111.024 
L 234.62069 109.512 
L 236.16 109.512 
L 237.69931 111.024 
L 240.777931 101.952 
L 242.317241 101.952 
L 243.856552 98.928 
L 245.395862 92.88 
L 246.935172 94.392 
L 250.013793 94.392 
L 251.553103 97.416 
L 253.092414 97.416 
L 254.631724 94.392 
L 256.171034 95.904 
L 260.788966 91.368 
L 262.328276 92.88 
L 263.867586 89.856 
L 266.946207 86.832 
L 268.485517 86.832 
L 270.024828 83.808 
L 273.103448 83.808 
L 276.182069 80.784 
L 277.721379 82.296 
L 279.26069 82.296 
L 280.8 80.784 
L 282.33931 80.784 
L 283.878621 82.296 
L 285.417931 79.272 
L 288.496552 79.272 
L 291.575172 76.248 
L 293.114483 79.272 
L 294.653793 77.76 
L 297.732414 77.76 
L 299.271724 79.272 
L 300.811034 77.76 
L 303.889655 77.76 
L 305.428966 79.272 
L 306.968276 76.248 
L 308.507586 74.736 
L 310.046897 74.736 
L 311.586207 73.224 
L 313.125517 70.2 
L 314.664828 70.2 
L 316.204138 61.128 
L 317.743448 59.616 
L 319.282759 61.128 
L 320.822069 61.128 
L 322.361379 62.64 
L 323.90069 68.688 
L 326.97931 65.664 
L 328.518621 65.664 
L 330.057931 64.152 
L 331.597241 67.176 
L 333.136552 68.688 
L 336.215172 68.688 
L 337.754483 67.176 
L 339.293793 67.176 
L 340.833103 64.152 
L 342.372414 64.152 
L 343.911724 61.128 
L 346.990345 58.104 
L 348.529655 53.568 
L 350.068966 59.616 
L 353.147586 74.736 
L 354.686897 73.224 
L 356.226207 79.272 
L 357.765517 73.224 
L 359.304828 74.736 
L 360.844138 74.736 
L 362.383448 77.76 
L 365.462069 80.784 
L 367.001379 80.784 
L 368.54069 76.248 
L 370.08 77.76 
L 371.61931 77.76 
L 373.158621 76.248 
L 374.697931 71.712 
L 376.237241 73.224 
L 377.776552 77.76 
L 380.855172 83.808 
L 382.394483 83.808 
L 383.933793 85.32 
L 385.473103 82.296 
L 387.012414 82.296 
L 388.551724 83.808 
L 390.091034 86.832 
L 391.630345 85.32 
L 393.169655 86.832 
L 394.708966 83.808 
L 396.248276 82.296 
L 397.787586 79.272 
L 399.326897 79.272 
L 400.866207 77.76 
L 402.405517 82.296 
L 403.944828 82.296 
L 405.484138 83.808 
L 407.023448 83.808 
L 408.562759 80.784 
L 410.102069 76.248 
L 411.641379 76.248 
L 413.18069 73.224 
L 414.72 71.712 
L 414.72 71.712 
" style="fill:none;stroke:#1f77b4;stroke-linecap:square;stroke-width:1.5;"/>
   </g>
   <g id="line2d_14">
    <path clip-path="url(#p6e74d06292)" d="M 63.757241 295.488 
L 65.296552 290.952 
L 66.835862 289.44 
L 68.375172 289.44 
L 71.453793 286.416 
L 72.993103 283.392 
L 74.532414 281.88 
L 76.071724 278.856 
L 82.228966 272.808 
L 83.768276 272.808 
L 86.846897 269.784 
L 88.386207 266.76 
L 89.925517 265.248 
L 91.464828 259.2 
L 93.004138 256.176 
L 94.543448 254.664 
L 96.082759 254.664 
L 97.622069 253.152 
L 99.161379 256.176 
L 100.70069 257.688 
L 105.318621 257.688 
L 108.397241 254.664 
L 109.936552 251.64 
L 111.475862 250.128 
L 113.015172 250.128 
L 114.554483 251.64 
L 116.093793 250.128 
L 117.633103 253.152 
L 119.172414 253.152 
L 120.711724 250.128 
L 122.251034 248.616 
L 123.790345 248.616 
L 125.329655 244.08 
L 126.868966 242.568 
L 128.408276 244.08 
L 129.947586 242.568 
L 131.486897 242.568 
L 133.026207 245.592 
L 134.565517 245.592 
L 136.104828 242.568 
L 137.644138 242.568 
L 139.183448 241.056 
L 140.722759 238.032 
L 142.262069 236.52 
L 148.41931 236.52 
L 149.958621 238.032 
L 156.115862 238.032 
L 157.655172 236.52 
L 159.194483 236.52 
L 160.733793 235.008 
L 162.273103 235.008 
L 163.812414 233.496 
L 169.969655 233.496 
L 171.508966 235.008 
L 183.823448 235.008 
L 188.441379 230.472 
L 191.52 230.472 
L 193.05931 231.984 
L 194.598621 230.472 
L 196.137931 230.472 
L 197.677241 228.96 
L 199.216552 225.936 
L 200.755862 225.936 
L 202.295172 228.96 
L 203.834483 228.96 
L 205.373793 227.448 
L 206.913103 228.96 
L 209.991724 225.936 
L 214.609655 230.472 
L 216.148966 228.96 
L 217.688276 230.472 
L 219.227586 228.96 
L 220.766897 228.96 
L 222.306207 227.448 
L 223.845517 227.448 
L 225.384828 224.424 
L 230.002759 224.424 
L 231.542069 227.448 
L 233.081379 228.96 
L 234.62069 227.448 
L 237.69931 227.448 
L 240.777931 224.424 
L 242.317241 224.424 
L 246.935172 219.888 
L 248.474483 219.888 
L 251.553103 222.912 
L 253.092414 219.888 
L 254.631724 219.888 
L 256.171034 221.4 
L 257.710345 221.4 
L 259.249655 219.888 
L 260.788966 221.4 
L 262.328276 221.4 
L 266.946207 216.864 
L 268.485517 216.864 
L 273.103448 212.328 
L 276.182069 215.352 
L 277.721379 215.352 
L 280.8 221.4 
L 282.33931 225.936 
L 283.878621 227.448 
L 285.417931 230.472 
L 286.957241 231.984 
L 288.496552 235.008 
L 290.035862 230.472 
L 291.575172 231.984 
L 294.653793 231.984 
L 296.193103 230.472 
L 297.732414 233.496 
L 300.811034 236.52 
L 302.350345 236.52 
L 305.428966 239.544 
L 306.968276 235.008 
L 310.046897 238.032 
L 313.125517 238.032 
L 314.664828 242.568 
L 316.204138 238.032 
L 317.743448 238.032 
L 319.282759 235.008 
L 322.361379 235.008 
L 323.90069 239.544 
L 325.44 239.544 
L 326.97931 242.568 
L 328.518621 242.568 
L 330.057931 241.056 
L 331.597241 241.056 
L 333.136552 238.032 
L 339.293793 231.984 
L 340.833103 233.496 
L 342.372414 231.984 
L 343.911724 231.984 
L 345.451034 233.496 
L 350.068966 233.496 
L 356.226207 227.448 
L 360.844138 227.448 
L 362.383448 225.936 
L 373.158621 225.936 
L 376.237241 222.912 
L 377.776552 224.424 
L 379.315862 222.912 
L 380.855172 219.888 
L 383.933793 219.888 
L 385.473103 218.376 
L 387.012414 218.376 
L 388.551724 219.888 
L 391.630345 219.888 
L 393.169655 221.4 
L 399.326897 221.4 
L 400.866207 219.888 
L 402.405517 221.4 
L 408.562759 221.4 
L 410.102069 218.376 
L 414.72 218.376 
L 414.72 218.376 
" style="fill:none;stroke:#ff7f0e;stroke-linecap:square;stroke-width:1.5;"/>
   </g>
   <g id="line2d_15">
    <path clip-path="url(#p6e74d06292)" d="M 63.757241 256.176 
L 65.296552 241.056 
L 66.835862 239.544 
L 68.375172 235.008 
L 69.914483 231.984 
L 71.453793 227.448 
L 72.993103 225.936 
L 74.532414 219.888 
L 77.611034 216.864 
L 79.150345 213.84 
L 82.228966 210.816 
L 83.768276 204.768 
L 86.846897 204.768 
L 88.386207 197.208 
L 89.925517 192.672 
L 91.464828 189.648 
L 93.004138 183.6 
L 94.543448 180.576 
L 96.082759 179.064 
L 97.622069 174.528 
L 100.70069 174.528 
L 102.24 169.992 
L 103.77931 169.992 
L 105.318621 173.016 
L 106.857931 169.992 
L 111.475862 165.456 
L 113.015172 162.432 
L 114.554483 162.432 
L 116.093793 157.896 
L 119.172414 157.896 
L 120.711724 156.384 
L 122.251034 156.384 
L 123.790345 153.36 
L 125.329655 153.36 
L 126.868966 147.312 
L 128.408276 145.8 
L 129.947586 142.776 
L 131.486897 145.8 
L 136.104828 141.264 
L 137.644138 142.776 
L 139.183448 136.728 
L 140.722759 132.192 
L 142.262069 135.216 
L 145.34069 126.144 
L 146.88 126.144 
L 148.41931 129.168 
L 149.958621 123.12 
L 151.497931 123.12 
L 154.576552 126.144 
L 156.115862 124.632 
L 159.194483 124.632 
L 162.273103 115.56 
L 163.812414 114.048 
L 165.351724 115.56 
L 168.430345 115.56 
L 169.969655 118.584 
L 171.508966 115.56 
L 173.048276 114.048 
L 174.587586 109.512 
L 176.126897 111.024 
L 177.666207 109.512 
L 179.205517 111.024 
L 180.744828 108 
L 182.284138 109.512 
L 183.823448 108 
L 185.362759 104.976 
L 186.902069 95.904 
L 188.441379 95.904 
L 189.98069 97.416 
L 191.52 95.904 
L 193.05931 100.44 
L 194.598621 112.536 
L 196.137931 112.536 
L 197.677241 115.56 
L 199.216552 123.12 
L 200.755862 126.144 
L 202.295172 127.656 
L 203.834483 135.216 
L 205.373793 136.728 
L 206.913103 129.168 
L 208.452414 124.632 
L 209.991724 117.072 
L 213.070345 104.976 
L 214.609655 112.536 
L 216.148966 118.584 
L 217.688276 127.656 
L 219.227586 130.68 
L 220.766897 138.24 
L 222.306207 141.264 
L 223.845517 133.704 
L 225.384828 127.656 
L 226.924138 126.144 
L 230.002759 111.024 
L 231.542069 112.536 
L 233.081379 111.024 
L 234.62069 108 
L 236.16 108 
L 237.69931 106.488 
L 239.238621 103.464 
L 240.777931 101.952 
L 242.317241 101.952 
L 245.395862 98.928 
L 253.092414 98.928 
L 254.631724 97.416 
L 256.171034 97.416 
L 260.788966 92.88 
L 262.328276 92.88 
L 263.867586 89.856 
L 265.406897 91.368 
L 270.024828 86.832 
L 271.564138 88.344 
L 273.103448 85.32 
L 274.642759 86.832 
L 277.721379 86.832 
L 279.26069 85.32 
L 280.8 85.32 
L 282.33931 83.808 
L 286.957241 83.808 
L 288.496552 82.296 
L 290.035862 82.296 
L 293.114483 79.272 
L 300.811034 79.272 
L 302.350345 76.248 
L 303.889655 77.76 
L 305.428966 76.248 
L 306.968276 76.248 
L 308.507586 74.736 
L 310.046897 76.248 
L 311.586207 73.224 
L 313.125517 68.688 
L 314.664828 67.176 
L 316.204138 67.176 
L 317.743448 65.664 
L 319.282759 65.664 
L 320.822069 67.176 
L 323.90069 67.176 
L 325.44 65.664 
L 326.97931 65.664 
L 328.518621 67.176 
L 330.057931 67.176 
L 331.597241 65.664 
L 333.136552 67.176 
L 334.675862 65.664 
L 336.215172 62.64 
L 337.754483 61.128 
L 339.293793 61.128 
L 342.372414 58.104 
L 343.911724 65.664 
L 345.451034 64.152 
L 346.990345 68.688 
L 348.529655 68.688 
L 350.068966 76.248 
L 351.608276 70.2 
L 353.147586 77.76 
L 354.686897 71.712 
L 356.226207 77.76 
L 357.765517 73.224 
L 359.304828 73.224 
L 360.844138 68.688 
L 362.383448 77.76 
L 363.922759 79.272 
L 365.462069 85.32 
L 367.001379 88.344 
L 368.54069 94.392 
L 370.08 88.344 
L 371.61931 83.808 
L 374.697931 83.808 
L 376.237241 79.272 
L 377.776552 85.32 
L 379.315862 88.344 
L 380.855172 83.808 
L 382.394483 83.808 
L 383.933793 86.832 
L 385.473103 82.296 
L 387.012414 79.272 
L 390.091034 82.296 
L 391.630345 79.272 
L 393.169655 80.784 
L 396.248276 77.76 
L 397.787586 77.76 
L 399.326897 76.248 
L 400.866207 73.224 
L 402.405517 76.248 
L 403.944828 73.224 
L 405.484138 71.712 
L 407.023448 71.712 
L 410.102069 65.664 
L 411.641379 67.176 
L 413.18069 67.176 
L 414.72 68.688 
L 414.72 68.688 
" style="fill:none;stroke:#2ca02c;stroke-linecap:square;stroke-width:1.5;"/>
   </g>
   <g id="line2d_16">
    <path clip-path="url(#p6e74d06292)" d="M 63.757241 259.2 
L 65.296552 251.64 
L 66.835862 268.272 
L 68.375172 265.248 
L 69.914483 268.272 
L 71.453793 265.248 
L 74.532414 262.224 
L 76.071724 262.224 
L 77.611034 260.712 
L 85.307586 260.712 
L 86.846897 259.2 
L 88.386207 256.176 
L 89.925517 254.664 
L 91.464828 242.568 
L 93.004138 236.52 
L 94.543448 235.008 
L 96.082759 231.984 
L 97.622069 230.472 
L 99.161379 241.056 
L 100.70069 242.568 
L 102.24 242.568 
L 103.77931 245.592 
L 105.318621 244.08 
L 106.857931 241.056 
L 109.936552 238.032 
L 111.475862 235.008 
L 113.015172 233.496 
L 114.554483 233.496 
L 116.093793 231.984 
L 117.633103 231.984 
L 120.711724 228.96 
L 122.251034 203.256 
L 123.790345 204.768 
L 125.329655 203.256 
L 128.408276 206.28 
L 129.947586 230.472 
L 131.486897 227.448 
L 133.026207 228.96 
L 134.565517 227.448 
L 136.104828 227.448 
L 137.644138 224.424 
L 139.183448 224.424 
L 140.722759 221.4 
L 143.801379 218.376 
L 145.34069 180.576 
L 151.497931 180.576 
L 153.037241 221.4 
L 154.576552 201.744 
L 157.655172 198.72 
L 160.733793 192.672 
L 162.273103 210.816 
L 163.812414 207.792 
L 165.351724 209.304 
L 169.969655 209.304 
L 171.508966 212.328 
L 173.048276 210.816 
L 174.587586 212.328 
L 176.126897 212.328 
L 177.666207 209.304 
L 191.52 209.304 
L 193.05931 210.816 
L 194.598621 210.816 
L 196.137931 207.792 
L 199.216552 207.792 
L 202.295172 204.768 
L 203.834483 207.792 
L 205.373793 204.768 
L 206.913103 203.256 
L 209.991724 206.28 
L 211.531034 203.256 
L 213.070345 204.768 
L 214.609655 203.256 
L 216.148966 204.768 
L 217.688276 204.768 
L 219.227586 206.28 
L 220.766897 206.28 
L 222.306207 209.304 
L 223.845517 206.28 
L 225.384828 201.744 
L 226.924138 200.232 
L 228.463448 197.208 
L 230.002759 192.672 
L 231.542069 192.672 
L 234.62069 195.696 
L 236.16 198.72 
L 237.69931 200.232 
L 239.238621 198.72 
L 245.395862 186.624 
L 246.935172 186.624 
L 248.474483 168.48 
L 250.013793 162.432 
L 251.553103 160.92 
L 253.092414 156.384 
L 254.631724 156.384 
L 256.171034 165.456 
L 257.710345 159.408 
L 260.788966 159.408 
L 262.328276 153.36 
L 263.867586 163.944 
L 265.406897 173.016 
L 266.946207 156.384 
L 268.485517 153.36 
L 270.024828 153.36 
L 271.564138 142.776 
L 273.103448 127.656 
L 274.642759 138.24 
L 276.182069 139.752 
L 277.721379 147.312 
L 279.26069 150.336 
L 280.8 159.408 
L 282.33931 163.944 
L 283.878621 169.992 
L 285.417931 163.944 
L 286.957241 171.504 
L 288.496552 182.088 
L 291.575172 182.088 
L 293.114483 185.112 
L 294.653793 183.6 
L 296.193103 179.064 
L 297.732414 180.576 
L 299.271724 179.064 
L 302.350345 179.064 
L 303.889655 180.576 
L 305.428966 180.576 
L 306.968276 182.088 
L 308.507586 180.576 
L 310.046897 180.576 
L 311.586207 176.04 
L 313.125517 168.48 
L 316.204138 168.48 
L 317.743448 163.944 
L 319.282759 166.968 
L 320.822069 174.528 
L 322.361379 174.528 
L 323.90069 176.04 
L 325.44 180.576 
L 326.97931 182.088 
L 328.518621 182.088 
L 331.597241 179.064 
L 337.754483 179.064 
L 339.293793 182.088 
L 342.372414 182.088 
L 343.911724 176.04 
L 345.451034 176.04 
L 350.068966 171.504 
L 351.608276 177.552 
L 353.147586 179.064 
L 354.686897 177.552 
L 362.383448 177.552 
L 363.922759 179.064 
L 365.462069 179.064 
L 367.001379 177.552 
L 368.54069 177.552 
L 370.08 179.064 
L 371.61931 179.064 
L 374.697931 182.088 
L 376.237241 157.896 
L 379.315862 154.872 
L 380.855172 154.872 
L 382.394483 153.36 
L 383.933793 177.552 
L 387.012414 180.576 
L 388.551724 180.576 
L 390.091034 182.088 
L 391.630345 180.576 
L 393.169655 177.552 
L 394.708966 177.552 
L 396.248276 176.04 
L 397.787586 177.552 
L 399.326897 176.04 
L 400.866207 177.552 
L 402.405517 176.04 
L 403.944828 176.04 
L 405.484138 171.504 
L 407.023448 168.48 
L 408.562759 166.968 
L 411.641379 166.968 
L 413.18069 169.992 
L 414.72 174.528 
L 414.72 174.528 
" style="fill:none;stroke:#d62728;stroke-linecap:square;stroke-width:1.5;"/>
   </g>
   <g id="patch_3">
    <path d="M 57.6 307.584 
L 57.6 41.472 
" style="fill:none;stroke:#000000;stroke-linecap:square;stroke-linejoin:miter;stroke-width:0.8;"/>
   </g>
   <g id="patch_4">
    <path d="M 414.72 307.584 
L 414.72 41.472 
" style="fill:none;stroke:#000000;stroke-linecap:square;stroke-linejoin:miter;stroke-width:0.8;"/>
   </g>
   <g id="patch_5">
    <path d="M 57.6 307.584 
L 414.72 307.584 
" style="fill:none;stroke:#000000;stroke-linecap:square;stroke-linejoin:miter;stroke-width:0.8;"/>
   </g>
   <g id="patch_6">
    <path d="M 57.6 41.472 
L 414.72 41.472 
" style="fill:none;stroke:#000000;stroke-linecap:square;stroke-linejoin:miter;stroke-width:0.8;"/>
   </g>
   <g id="legend_1">
    <g id="patch_7">
     <path d="M 64.6 302.584 
L 422.132812 302.584 
Q 424.132812 302.584 424.132812 300.584 
L 424.132812 242.8715 
Q 424.132812 240.8715 422.132812 240.8715 
L 64.6 240.8715 
Q 62.6 240.8715 62.6 242.8715 
L 62.6 300.584 
Q 62.6 302.584 64.6 302.584 
z
" style="fill:#ffffff;opacity:0.8;stroke:#cccccc;stroke-linejoin:miter;"/>
    </g>
    <g id="line2d_17">
     <path d="M 66.6 248.969937 
L 86.6 248.969937 
" style="fill:none;stroke:#1f77b4;stroke-linecap:square;stroke-width:1.5;"/>
    </g>
    <g id="line2d_18"/>
    <g id="text_13">
     <!-- 5.2.17.ipstate-active-hwp.cinnamon.unhide-brute.warmup+main -->
     <defs>
      <path d="M 10.6875 12.40625 
L 21 12.40625 
L 21 0 
L 10.6875 0 
z
" id="DejaVuSans-46"/>
      <path d="M 9.421875 54.6875 
L 18.40625 54.6875 
L 18.40625 0 
L 9.421875 0 
z
M 9.421875 75.984375 
L 18.40625 75.984375 
L 18.40625 64.59375 
L 9.421875 64.59375 
z
" id="DejaVuSans-105"/>
      <path d="M 18.109375 8.203125 
L 18.109375 -20.796875 
L 9.078125 -20.796875 
L 9.078125 54.6875 
L 18.109375 54.6875 
L 18.109375 46.390625 
Q 20.953125 51.265625 25.265625 53.625 
Q 29.59375 56 35.59375 56 
Q 45.5625 56 51.78125 48.09375 
Q 58.015625 40.1875 58.015625 27.296875 
Q 58.015625 14.40625 51.78125 6.484375 
Q 45.5625 -1.421875 35.59375 -1.421875 
Q 29.59375 -1.421875 25.265625 0.953125 
Q 20.953125 3.328125 18.109375 8.203125 
z
M 48.6875 27.296875 
Q 48.6875 37.203125 44.609375 42.84375 
Q 40.53125 48.484375 33.40625 48.484375 
Q 26.265625 48.484375 22.1875 42.84375 
Q 18.109375 37.203125 18.109375 27.296875 
Q 18.109375 17.390625 22.1875 11.75 
Q 26.265625 6.109375 33.40625 6.109375 
Q 40.53125 6.109375 44.609375 11.75 
Q 48.6875 17.390625 48.6875 27.296875 
z
" id="DejaVuSans-112"/>
      <path d="M 44.28125 53.078125 
L 44.28125 44.578125 
Q 40.484375 46.53125 36.375 47.5 
Q 32.28125 48.484375 27.875 48.484375 
Q 21.1875 48.484375 17.84375 46.4375 
Q 14.5 44.390625 14.5 40.28125 
Q 14.5 37.15625 16.890625 35.375 
Q 19.28125 33.59375 26.515625 31.984375 
L 29.59375 31.296875 
Q 39.15625 29.25 43.1875 25.515625 
Q 47.21875 21.78125 47.21875 15.09375 
Q 47.21875 7.46875 41.1875 3.015625 
Q 35.15625 -1.421875 24.609375 -1.421875 
Q 20.21875 -1.421875 15.453125 -0.5625 
Q 10.6875 0.296875 5.421875 2 
L 5.421875 11.28125 
Q 10.40625 8.6875 15.234375 7.390625 
Q 20.0625 6.109375 24.8125 6.109375 
Q 31.15625 6.109375 34.5625 8.28125 
Q 37.984375 10.453125 37.984375 14.40625 
Q 37.984375 18.0625 35.515625 20.015625 
Q 33.0625 21.96875 24.703125 23.78125 
L 21.578125 24.515625 
Q 13.234375 26.265625 9.515625 29.90625 
Q 5.8125 33.546875 5.8125 39.890625 
Q 5.8125 47.609375 11.28125 51.796875 
Q 16.75 56 26.8125 56 
Q 31.78125 56 36.171875 55.265625 
Q 40.578125 54.546875 44.28125 53.078125 
z
" id="DejaVuSans-115"/>
      <path d="M 18.3125 70.21875 
L 18.3125 54.6875 
L 36.8125 54.6875 
L 36.8125 47.703125 
L 18.3125 47.703125 
L 18.3125 18.015625 
Q 18.3125 11.328125 20.140625 9.421875 
Q 21.96875 7.515625 27.59375 7.515625 
L 36.8125 7.515625 
L 36.8125 0 
L 27.59375 0 
Q 17.1875 0 13.234375 3.875 
Q 9.28125 7.765625 9.28125 18.015625 
L 9.28125 47.703125 
L 2.6875 47.703125 
L 2.6875 54.6875 
L 9.28125 54.6875 
L 9.28125 70.21875 
z
" id="DejaVuSans-116"/>
      <path d="M 34.28125 27.484375 
Q 23.390625 27.484375 19.1875 25 
Q 14.984375 22.515625 14.984375 16.5 
Q 14.984375 11.71875 18.140625 8.90625 
Q 21.296875 6.109375 26.703125 6.109375 
Q 34.1875 6.109375 38.703125 11.40625 
Q 43.21875 16.703125 43.21875 25.484375 
L 43.21875 27.484375 
z
M 52.203125 31.203125 
L 52.203125 0 
L 43.21875 0 
L 43.21875 8.296875 
Q 40.140625 3.328125 35.546875 0.953125 
Q 30.953125 -1.421875 24.3125 -1.421875 
Q 15.921875 -1.421875 10.953125 3.296875 
Q 6 8.015625 6 15.921875 
Q 6 25.140625 12.171875 29.828125 
Q 18.359375 34.515625 30.609375 34.515625 
L 43.21875 34.515625 
L 43.21875 35.40625 
Q 43.21875 41.609375 39.140625 45 
Q 35.0625 48.390625 27.6875 48.390625 
Q 23 48.390625 18.546875 47.265625 
Q 14.109375 46.140625 10.015625 43.890625 
L 10.015625 52.203125 
Q 14.9375 54.109375 19.578125 55.046875 
Q 24.21875 56 28.609375 56 
Q 40.484375 56 46.34375 49.84375 
Q 52.203125 43.703125 52.203125 31.203125 
z
" id="DejaVuSans-97"/>
      <path d="M 56.203125 29.59375 
L 56.203125 25.203125 
L 14.890625 25.203125 
Q 15.484375 15.921875 20.484375 11.0625 
Q 25.484375 6.203125 34.421875 6.203125 
Q 39.59375 6.203125 44.453125 7.46875 
Q 49.3125 8.734375 54.109375 11.28125 
L 54.109375 2.78125 
Q 49.265625 0.734375 44.1875 -0.34375 
Q 39.109375 -1.421875 33.890625 -1.421875 
Q 20.796875 -1.421875 13.15625 6.1875 
Q 5.515625 13.8125 5.515625 26.8125 
Q 5.515625 40.234375 12.765625 48.109375 
Q 20.015625 56 32.328125 56 
Q 43.359375 56 49.78125 48.890625 
Q 56.203125 41.796875 56.203125 29.59375 
z
M 47.21875 32.234375 
Q 47.125 39.59375 43.09375 43.984375 
Q 39.0625 48.390625 32.421875 48.390625 
Q 24.90625 48.390625 20.390625 44.140625 
Q 15.875 39.890625 15.1875 32.171875 
z
" id="DejaVuSans-101"/>
      <path d="M 4.890625 31.390625 
L 31.203125 31.390625 
L 31.203125 23.390625 
L 4.890625 23.390625 
z
" id="DejaVuSans-45"/>
      <path d="M 48.78125 52.59375 
L 48.78125 44.1875 
Q 44.96875 46.296875 41.140625 47.34375 
Q 37.3125 48.390625 33.40625 48.390625 
Q 24.65625 48.390625 19.8125 42.84375 
Q 14.984375 37.3125 14.984375 27.296875 
Q 14.984375 17.28125 19.8125 11.734375 
Q 24.65625 6.203125 33.40625 6.203125 
Q 37.3125 6.203125 41.140625 7.25 
Q 44.96875 8.296875 48.78125 10.40625 
L 48.78125 2.09375 
Q 45.015625 0.34375 40.984375 -0.53125 
Q 36.96875 -1.421875 32.421875 -1.421875 
Q 20.0625 -1.421875 12.78125 6.34375 
Q 5.515625 14.109375 5.515625 27.296875 
Q 5.515625 40.671875 12.859375 48.328125 
Q 20.21875 56 33.015625 56 
Q 37.15625 56 41.109375 55.140625 
Q 45.0625 54.296875 48.78125 52.59375 
z
" id="DejaVuSans-99"/>
      <path d="M 2.984375 54.6875 
L 12.5 54.6875 
L 29.59375 8.796875 
L 46.6875 54.6875 
L 56.203125 54.6875 
L 35.6875 0 
L 23.484375 0 
z
" id="DejaVuSans-118"/>
      <path d="M 54.890625 33.015625 
L 54.890625 0 
L 45.90625 0 
L 45.90625 32.71875 
Q 45.90625 40.484375 42.875 44.328125 
Q 39.84375 48.1875 33.796875 48.1875 
Q 26.515625 48.1875 22.3125 43.546875 
Q 18.109375 38.921875 18.109375 30.90625 
L 18.109375 0 
L 9.078125 0 
L 9.078125 75.984375 
L 18.109375 75.984375 
L 18.109375 46.1875 
Q 21.34375 51.125 25.703125 53.5625 
Q 30.078125 56 35.796875 56 
Q 45.21875 56 50.046875 50.171875 
Q 54.890625 44.34375 54.890625 33.015625 
z
" id="DejaVuSans-104"/>
      <path d="M 4.203125 54.6875 
L 13.1875 54.6875 
L 24.421875 12.015625 
L 35.59375 54.6875 
L 46.1875 54.6875 
L 57.421875 12.015625 
L 68.609375 54.6875 
L 77.59375 54.6875 
L 63.28125 0 
L 52.6875 0 
L 40.921875 44.828125 
L 29.109375 0 
L 18.5 0 
z
" id="DejaVuSans-119"/>
      <path d="M 54.890625 33.015625 
L 54.890625 0 
L 45.90625 0 
L 45.90625 32.71875 
Q 45.90625 40.484375 42.875 44.328125 
Q 39.84375 48.1875 33.796875 48.1875 
Q 26.515625 48.1875 22.3125 43.546875 
Q 18.109375 38.921875 18.109375 30.90625 
L 18.109375 0 
L 9.078125 0 
L 9.078125 54.6875 
L 18.109375 54.6875 
L 18.109375 46.1875 
Q 21.34375 51.125 25.703125 53.5625 
Q 30.078125 56 35.796875 56 
Q 45.21875 56 50.046875 50.171875 
Q 54.890625 44.34375 54.890625 33.015625 
z
" id="DejaVuSans-110"/>
      <path d="M 52 44.1875 
Q 55.375 50.25 60.0625 53.125 
Q 64.75 56 71.09375 56 
Q 79.640625 56 84.28125 50.015625 
Q 88.921875 44.046875 88.921875 33.015625 
L 88.921875 0 
L 79.890625 0 
L 79.890625 32.71875 
Q 79.890625 40.578125 77.09375 44.375 
Q 74.3125 48.1875 68.609375 48.1875 
Q 61.625 48.1875 57.5625 43.546875 
Q 53.515625 38.921875 53.515625 30.90625 
L 53.515625 0 
L 44.484375 0 
L 44.484375 32.71875 
Q 44.484375 40.625 41.703125 44.40625 
Q 38.921875 48.1875 33.109375 48.1875 
Q 26.21875 48.1875 22.15625 43.53125 
Q 18.109375 38.875 18.109375 30.90625 
L 18.109375 0 
L 9.078125 0 
L 9.078125 54.6875 
L 18.109375 54.6875 
L 18.109375 46.1875 
Q 21.1875 51.21875 25.484375 53.609375 
Q 29.78125 56 35.6875 56 
Q 41.65625 56 45.828125 52.96875 
Q 50 49.953125 52 44.1875 
z
" id="DejaVuSans-109"/>
      <path d="M 30.609375 48.390625 
Q 23.390625 48.390625 19.1875 42.75 
Q 14.984375 37.109375 14.984375 27.296875 
Q 14.984375 17.484375 19.15625 11.84375 
Q 23.34375 6.203125 30.609375 6.203125 
Q 37.796875 6.203125 41.984375 11.859375 
Q 46.1875 17.53125 46.1875 27.296875 
Q 46.1875 37.015625 41.984375 42.703125 
Q 37.796875 48.390625 30.609375 48.390625 
z
M 30.609375 56 
Q 42.328125 56 49.015625 48.375 
Q 55.71875 40.765625 55.71875 27.296875 
Q 55.71875 13.875 49.015625 6.21875 
Q 42.328125 -1.421875 30.609375 -1.421875 
Q 18.84375 -1.421875 12.171875 6.21875 
Q 5.515625 13.875 5.515625 27.296875 
Q 5.515625 40.765625 12.171875 48.375 
Q 18.84375 56 30.609375 56 
z
" id="DejaVuSans-111"/>
      <path d="M 8.5 21.578125 
L 8.5 54.6875 
L 17.484375 54.6875 
L 17.484375 21.921875 
Q 17.484375 14.15625 20.5 10.265625 
Q 23.53125 6.390625 29.59375 6.390625 
Q 36.859375 6.390625 41.078125 11.03125 
Q 45.3125 15.671875 45.3125 23.6875 
L 45.3125 54.6875 
L 54.296875 54.6875 
L 54.296875 0 
L 45.3125 0 
L 45.3125 8.40625 
Q 42.046875 3.421875 37.71875 1 
Q 33.40625 -1.421875 27.6875 -1.421875 
Q 18.265625 -1.421875 13.375 4.4375 
Q 8.5 10.296875 8.5 21.578125 
z
M 31.109375 56 
z
" id="DejaVuSans-117"/>
      <path d="M 45.40625 46.390625 
L 45.40625 75.984375 
L 54.390625 75.984375 
L 54.390625 0 
L 45.40625 0 
L 45.40625 8.203125 
Q 42.578125 3.328125 38.25 0.953125 
Q 33.9375 -1.421875 27.875 -1.421875 
Q 17.96875 -1.421875 11.734375 6.484375 
Q 5.515625 14.40625 5.515625 27.296875 
Q 5.515625 40.1875 11.734375 48.09375 
Q 17.96875 56 27.875 56 
Q 33.9375 56 38.25 53.625 
Q 42.578125 51.265625 45.40625 46.390625 
z
M 14.796875 27.296875 
Q 14.796875 17.390625 18.875 11.75 
Q 22.953125 6.109375 30.078125 6.109375 
Q 37.203125 6.109375 41.296875 11.75 
Q 45.40625 17.390625 45.40625 27.296875 
Q 45.40625 37.203125 41.296875 42.84375 
Q 37.203125 48.484375 30.078125 48.484375 
Q 22.953125 48.484375 18.875 42.84375 
Q 14.796875 37.203125 14.796875 27.296875 
z
" id="DejaVuSans-100"/>
      <path d="M 48.6875 27.296875 
Q 48.6875 37.203125 44.609375 42.84375 
Q 40.53125 48.484375 33.40625 48.484375 
Q 26.265625 48.484375 22.1875 42.84375 
Q 18.109375 37.203125 18.109375 27.296875 
Q 18.109375 17.390625 22.1875 11.75 
Q 26.265625 6.109375 33.40625 6.109375 
Q 40.53125 6.109375 44.609375 11.75 
Q 48.6875 17.390625 48.6875 27.296875 
z
M 18.109375 46.390625 
Q 20.953125 51.265625 25.265625 53.625 
Q 29.59375 56 35.59375 56 
Q 45.5625 56 51.78125 48.09375 
Q 58.015625 40.1875 58.015625 27.296875 
Q 58.015625 14.40625 51.78125 6.484375 
Q 45.5625 -1.421875 35.59375 -1.421875 
Q 29.59375 -1.421875 25.265625 0.953125 
Q 20.953125 3.328125 18.109375 8.203125 
L 18.109375 0 
L 9.078125 0 
L 9.078125 75.984375 
L 18.109375 75.984375 
z
" id="DejaVuSans-98"/>
      <path d="M 41.109375 46.296875 
Q 39.59375 47.171875 37.8125 47.578125 
Q 36.03125 48 33.890625 48 
Q 26.265625 48 22.1875 43.046875 
Q 18.109375 38.09375 18.109375 28.8125 
L 18.109375 0 
L 9.078125 0 
L 9.078125 54.6875 
L 18.109375 54.6875 
L 18.109375 46.1875 
Q 20.953125 51.171875 25.484375 53.578125 
Q 30.03125 56 36.53125 56 
Q 37.453125 56 38.578125 55.875 
Q 39.703125 55.765625 41.0625 55.515625 
z
" id="DejaVuSans-114"/>
      <path d="M 46 62.703125 
L 46 35.5 
L 73.1875 35.5 
L 73.1875 27.203125 
L 46 27.203125 
L 46 0 
L 37.796875 0 
L 37.796875 27.203125 
L 10.59375 27.203125 
L 10.59375 35.5 
L 37.796875 35.5 
L 37.796875 62.703125 
z
" id="DejaVuSans-43"/>
     </defs>
     <g transform="translate(94.6 252.469937)scale(0.1 -0.1)">
      <use xlink:href="#DejaVuSans-53"/>
      <use x="63.623047" xlink:href="#DejaVuSans-46"/>
      <use x="95.410156" xlink:href="#DejaVuSans-50"/>
      <use x="159.033203" xlink:href="#DejaVuSans-46"/>
      <use x="190.820312" xlink:href="#DejaVuSans-49"/>
      <use x="254.443359" xlink:href="#DejaVuSans-55"/>
      <use x="318.066406" xlink:href="#DejaVuSans-46"/>
      <use x="349.853516" xlink:href="#DejaVuSans-105"/>
      <use x="377.636719" xlink:href="#DejaVuSans-112"/>
      <use x="441.113281" xlink:href="#DejaVuSans-115"/>
      <use x="493.212891" xlink:href="#DejaVuSans-116"/>
      <use x="532.421875" xlink:href="#DejaVuSans-97"/>
      <use x="593.701172" xlink:href="#DejaVuSans-116"/>
      <use x="632.910156" xlink:href="#DejaVuSans-101"/>
      <use x="694.433594" xlink:href="#DejaVuSans-45"/>
      <use x="730.517578" xlink:href="#DejaVuSans-97"/>
      <use x="791.796875" xlink:href="#DejaVuSans-99"/>
      <use x="846.777344" xlink:href="#DejaVuSans-116"/>
      <use x="885.986328" xlink:href="#DejaVuSans-105"/>
      <use x="913.769531" xlink:href="#DejaVuSans-118"/>
      <use x="972.949219" xlink:href="#DejaVuSans-101"/>
      <use x="1034.472656" xlink:href="#DejaVuSans-45"/>
      <use x="1070.556641" xlink:href="#DejaVuSans-104"/>
      <use x="1133.935547" xlink:href="#DejaVuSans-119"/>
      <use x="1215.722656" xlink:href="#DejaVuSans-112"/>
      <use x="1279.199219" xlink:href="#DejaVuSans-46"/>
      <use x="1310.986328" xlink:href="#DejaVuSans-99"/>
      <use x="1365.966797" xlink:href="#DejaVuSans-105"/>
      <use x="1393.75" xlink:href="#DejaVuSans-110"/>
      <use x="1457.128906" xlink:href="#DejaVuSans-110"/>
      <use x="1520.507812" xlink:href="#DejaVuSans-97"/>
      <use x="1581.787109" xlink:href="#DejaVuSans-109"/>
      <use x="1679.199219" xlink:href="#DejaVuSans-111"/>
      <use x="1740.380859" xlink:href="#DejaVuSans-110"/>
      <use x="1803.759766" xlink:href="#DejaVuSans-46"/>
      <use x="1835.546875" xlink:href="#DejaVuSans-117"/>
      <use x="1898.925781" xlink:href="#DejaVuSans-110"/>
      <use x="1962.304688" xlink:href="#DejaVuSans-104"/>
      <use x="2025.683594" xlink:href="#DejaVuSans-105"/>
      <use x="2053.466797" xlink:href="#DejaVuSans-100"/>
      <use x="2116.943359" xlink:href="#DejaVuSans-101"/>
      <use x="2178.466797" xlink:href="#DejaVuSans-45"/>
      <use x="2214.550781" xlink:href="#DejaVuSans-98"/>
      <use x="2278.027344" xlink:href="#DejaVuSans-114"/>
      <use x="2319.140625" xlink:href="#DejaVuSans-117"/>
      <use x="2382.519531" xlink:href="#DejaVuSans-116"/>
      <use x="2421.728516" xlink:href="#DejaVuSans-101"/>
      <use x="2483.251953" xlink:href="#DejaVuSans-46"/>
      <use x="2515.039062" xlink:href="#DejaVuSans-119"/>
      <use x="2596.826172" xlink:href="#DejaVuSans-97"/>
      <use x="2658.105469" xlink:href="#DejaVuSans-114"/>
      <use x="2697.46875" xlink:href="#DejaVuSans-109"/>
      <use x="2794.880859" xlink:href="#DejaVuSans-117"/>
      <use x="2858.259766" xlink:href="#DejaVuSans-112"/>
      <use x="2921.736328" xlink:href="#DejaVuSans-43"/>
      <use x="3005.525391" xlink:href="#DejaVuSans-109"/>
      <use x="3102.9375" xlink:href="#DejaVuSans-97"/>
      <use x="3164.216797" xlink:href="#DejaVuSans-105"/>
      <use x="3192" xlink:href="#DejaVuSans-110"/>
     </g>
    </g>
    <g id="line2d_19">
     <path d="M 66.6 263.648062 
L 86.6 263.648062 
" style="fill:none;stroke:#ff7f0e;stroke-linecap:square;stroke-width:1.5;"/>
    </g>
    <g id="line2d_20"/>
    <g id="text_14">
     <!-- 5.2.17.ipstate-disable.cinnamon.unhide-brute.warmup+main -->
     <defs>
      <path d="M 9.421875 75.984375 
L 18.40625 75.984375 
L 18.40625 0 
L 9.421875 0 
z
" id="DejaVuSans-108"/>
     </defs>
     <g transform="translate(94.6 267.148062)scale(0.1 -0.1)">
      <use xlink:href="#DejaVuSans-53"/>
      <use x="63.623047" xlink:href="#DejaVuSans-46"/>
      <use x="95.410156" xlink:href="#DejaVuSans-50"/>
      <use x="159.033203" xlink:href="#DejaVuSans-46"/>
      <use x="190.820312" xlink:href="#DejaVuSans-49"/>
      <use x="254.443359" xlink:href="#DejaVuSans-55"/>
      <use x="318.066406" xlink:href="#DejaVuSans-46"/>
      <use x="349.853516" xlink:href="#DejaVuSans-105"/>
      <use x="377.636719" xlink:href="#DejaVuSans-112"/>
      <use x="441.113281" xlink:href="#DejaVuSans-115"/>
      <use x="493.212891" xlink:href="#DejaVuSans-116"/>
      <use x="532.421875" xlink:href="#DejaVuSans-97"/>
      <use x="593.701172" xlink:href="#DejaVuSans-116"/>
      <use x="632.910156" xlink:href="#DejaVuSans-101"/>
      <use x="694.433594" xlink:href="#DejaVuSans-45"/>
      <use x="730.517578" xlink:href="#DejaVuSans-100"/>
      <use x="793.994141" xlink:href="#DejaVuSans-105"/>
      <use x="821.777344" xlink:href="#DejaVuSans-115"/>
      <use x="873.876953" xlink:href="#DejaVuSans-97"/>
      <use x="935.15625" xlink:href="#DejaVuSans-98"/>
      <use x="998.632812" xlink:href="#DejaVuSans-108"/>
      <use x="1026.416016" xlink:href="#DejaVuSans-101"/>
      <use x="1087.939453" xlink:href="#DejaVuSans-46"/>
      <use x="1119.726562" xlink:href="#DejaVuSans-99"/>
      <use x="1174.707031" xlink:href="#DejaVuSans-105"/>
      <use x="1202.490234" xlink:href="#DejaVuSans-110"/>
      <use x="1265.869141" xlink:href="#DejaVuSans-110"/>
      <use x="1329.248047" xlink:href="#DejaVuSans-97"/>
      <use x="1390.527344" xlink:href="#DejaVuSans-109"/>
      <use x="1487.939453" xlink:href="#DejaVuSans-111"/>
      <use x="1549.121094" xlink:href="#DejaVuSans-110"/>
      <use x="1612.5" xlink:href="#DejaVuSans-46"/>
      <use x="1644.287109" xlink:href="#DejaVuSans-117"/>
      <use x="1707.666016" xlink:href="#DejaVuSans-110"/>
      <use x="1771.044922" xlink:href="#DejaVuSans-104"/>
      <use x="1834.423828" xlink:href="#DejaVuSans-105"/>
      <use x="1862.207031" xlink:href="#DejaVuSans-100"/>
      <use x="1925.683594" xlink:href="#DejaVuSans-101"/>
      <use x="1987.207031" xlink:href="#DejaVuSans-45"/>
      <use x="2023.291016" xlink:href="#DejaVuSans-98"/>
      <use x="2086.767578" xlink:href="#DejaVuSans-114"/>
      <use x="2127.880859" xlink:href="#DejaVuSans-117"/>
      <use x="2191.259766" xlink:href="#DejaVuSans-116"/>
      <use x="2230.46875" xlink:href="#DejaVuSans-101"/>
      <use x="2291.992188" xlink:href="#DejaVuSans-46"/>
      <use x="2323.779297" xlink:href="#DejaVuSans-119"/>
      <use x="2405.566406" xlink:href="#DejaVuSans-97"/>
      <use x="2466.845703" xlink:href="#DejaVuSans-114"/>
      <use x="2506.208984" xlink:href="#DejaVuSans-109"/>
      <use x="2603.621094" xlink:href="#DejaVuSans-117"/>
      <use x="2667" xlink:href="#DejaVuSans-112"/>
      <use x="2730.476562" xlink:href="#DejaVuSans-43"/>
      <use x="2814.265625" xlink:href="#DejaVuSans-109"/>
      <use x="2911.677734" xlink:href="#DejaVuSans-97"/>
      <use x="2972.957031" xlink:href="#DejaVuSans-105"/>
      <use x="3000.740234" xlink:href="#DejaVuSans-110"/>
     </g>
    </g>
    <g id="line2d_21">
     <path d="M 66.6 278.326187 
L 86.6 278.326187 
" style="fill:none;stroke:#2ca02c;stroke-linecap:square;stroke-width:1.5;"/>
    </g>
    <g id="line2d_22"/>
    <g id="text_15">
     <!-- 5.5.13.ipstate-active-hwp.cinnamon.unhide-brute.warmup+main -->
     <defs>
      <path d="M 40.578125 39.3125 
Q 47.65625 37.796875 51.625 33 
Q 55.609375 28.21875 55.609375 21.1875 
Q 55.609375 10.40625 48.1875 4.484375 
Q 40.765625 -1.421875 27.09375 -1.421875 
Q 22.515625 -1.421875 17.65625 -0.515625 
Q 12.796875 0.390625 7.625 2.203125 
L 7.625 11.71875 
Q 11.71875 9.328125 16.59375 8.109375 
Q 21.484375 6.890625 26.8125 6.890625 
Q 36.078125 6.890625 40.9375 10.546875 
Q 45.796875 14.203125 45.796875 21.1875 
Q 45.796875 27.640625 41.28125 31.265625 
Q 36.765625 34.90625 28.71875 34.90625 
L 20.21875 34.90625 
L 20.21875 43.015625 
L 29.109375 43.015625 
Q 36.375 43.015625 40.234375 45.921875 
Q 44.09375 48.828125 44.09375 54.296875 
Q 44.09375 59.90625 40.109375 62.90625 
Q 36.140625 65.921875 28.71875 65.921875 
Q 24.65625 65.921875 20.015625 65.03125 
Q 15.375 64.15625 9.8125 62.3125 
L 9.8125 71.09375 
Q 15.4375 72.65625 20.34375 73.4375 
Q 25.25 74.21875 29.59375 74.21875 
Q 40.828125 74.21875 47.359375 69.109375 
Q 53.90625 64.015625 53.90625 55.328125 
Q 53.90625 49.265625 50.4375 45.09375 
Q 46.96875 40.921875 40.578125 39.3125 
z
" id="DejaVuSans-51"/>
     </defs>
     <g transform="translate(94.6 281.826187)scale(0.1 -0.1)">
      <use xlink:href="#DejaVuSans-53"/>
      <use x="63.623047" xlink:href="#DejaVuSans-46"/>
      <use x="95.410156" xlink:href="#DejaVuSans-53"/>
      <use x="159.033203" xlink:href="#DejaVuSans-46"/>
      <use x="190.820312" xlink:href="#DejaVuSans-49"/>
      <use x="254.443359" xlink:href="#DejaVuSans-51"/>
      <use x="318.066406" xlink:href="#DejaVuSans-46"/>
      <use x="349.853516" xlink:href="#DejaVuSans-105"/>
      <use x="377.636719" xlink:href="#DejaVuSans-112"/>
      <use x="441.113281" xlink:href="#DejaVuSans-115"/>
      <use x="493.212891" xlink:href="#DejaVuSans-116"/>
      <use x="532.421875" xlink:href="#DejaVuSans-97"/>
      <use x="593.701172" xlink:href="#DejaVuSans-116"/>
      <use x="632.910156" xlink:href="#DejaVuSans-101"/>
      <use x="694.433594" xlink:href="#DejaVuSans-45"/>
      <use x="730.517578" xlink:href="#DejaVuSans-97"/>
      <use x="791.796875" xlink:href="#DejaVuSans-99"/>
      <use x="846.777344" xlink:href="#DejaVuSans-116"/>
      <use x="885.986328" xlink:href="#DejaVuSans-105"/>
      <use x="913.769531" xlink:href="#DejaVuSans-118"/>
      <use x="972.949219" xlink:href="#DejaVuSans-101"/>
      <use x="1034.472656" xlink:href="#DejaVuSans-45"/>
      <use x="1070.556641" xlink:href="#DejaVuSans-104"/>
      <use x="1133.935547" xlink:href="#DejaVuSans-119"/>
      <use x="1215.722656" xlink:href="#DejaVuSans-112"/>
      <use x="1279.199219" xlink:href="#DejaVuSans-46"/>
      <use x="1310.986328" xlink:href="#DejaVuSans-99"/>
      <use x="1365.966797" xlink:href="#DejaVuSans-105"/>
      <use x="1393.75" xlink:href="#DejaVuSans-110"/>
      <use x="1457.128906" xlink:href="#DejaVuSans-110"/>
      <use x="1520.507812" xlink:href="#DejaVuSans-97"/>
      <use x="1581.787109" xlink:href="#DejaVuSans-109"/>
      <use x="1679.199219" xlink:href="#DejaVuSans-111"/>
      <use x="1740.380859" xlink:href="#DejaVuSans-110"/>
      <use x="1803.759766" xlink:href="#DejaVuSans-46"/>
      <use x="1835.546875" xlink:href="#DejaVuSans-117"/>
      <use x="1898.925781" xlink:href="#DejaVuSans-110"/>
      <use x="1962.304688" xlink:href="#DejaVuSans-104"/>
      <use x="2025.683594" xlink:href="#DejaVuSans-105"/>
      <use x="2053.466797" xlink:href="#DejaVuSans-100"/>
      <use x="2116.943359" xlink:href="#DejaVuSans-101"/>
      <use x="2178.466797" xlink:href="#DejaVuSans-45"/>
      <use x="2214.550781" xlink:href="#DejaVuSans-98"/>
      <use x="2278.027344" xlink:href="#DejaVuSans-114"/>
      <use x="2319.140625" xlink:href="#DejaVuSans-117"/>
      <use x="2382.519531" xlink:href="#DejaVuSans-116"/>
      <use x="2421.728516" xlink:href="#DejaVuSans-101"/>
      <use x="2483.251953" xlink:href="#DejaVuSans-46"/>
      <use x="2515.039062" xlink:href="#DejaVuSans-119"/>
      <use x="2596.826172" xlink:href="#DejaVuSans-97"/>
      <use x="2658.105469" xlink:href="#DejaVuSans-114"/>
      <use x="2697.46875" xlink:href="#DejaVuSans-109"/>
      <use x="2794.880859" xlink:href="#DejaVuSans-117"/>
      <use x="2858.259766" xlink:href="#DejaVuSans-112"/>
      <use x="2921.736328" xlink:href="#DejaVuSans-43"/>
      <use x="3005.525391" xlink:href="#DejaVuSans-109"/>
      <use x="3102.9375" xlink:href="#DejaVuSans-97"/>
      <use x="3164.216797" xlink:href="#DejaVuSans-105"/>
      <use x="3192" xlink:href="#DejaVuSans-110"/>
     </g>
    </g>
    <g id="line2d_23">
     <path d="M 66.6 293.004312 
L 86.6 293.004312 
" style="fill:none;stroke:#d62728;stroke-linecap:square;stroke-width:1.5;"/>
    </g>
    <g id="line2d_24"/>
    <g id="text_16">
     <!-- 5.5.13.ipstate-disable.cinnamon.unhide-brute.warmup+main -->
     <g transform="translate(94.6 296.504312)scale(0.1 -0.1)">
      <use xlink:href="#DejaVuSans-53"/>
      <use x="63.623047" xlink:href="#DejaVuSans-46"/>
      <use x="95.410156" xlink:href="#DejaVuSans-53"/>
      <use x="159.033203" xlink:href="#DejaVuSans-46"/>
      <use x="190.820312" xlink:href="#DejaVuSans-49"/>
      <use x="254.443359" xlink:href="#DejaVuSans-51"/>
      <use x="318.066406" xlink:href="#DejaVuSans-46"/>
      <use x="349.853516" xlink:href="#DejaVuSans-105"/>
      <use x="377.636719" xlink:href="#DejaVuSans-112"/>
      <use x="441.113281" xlink:href="#DejaVuSans-115"/>
      <use x="493.212891" xlink:href="#DejaVuSans-116"/>
      <use x="532.421875" xlink:href="#DejaVuSans-97"/>
      <use x="593.701172" xlink:href="#DejaVuSans-116"/>
      <use x="632.910156" xlink:href="#DejaVuSans-101"/>
      <use x="694.433594" xlink:href="#DejaVuSans-45"/>
      <use x="730.517578" xlink:href="#DejaVuSans-100"/>
      <use x="793.994141" xlink:href="#DejaVuSans-105"/>
      <use x="821.777344" xlink:href="#DejaVuSans-115"/>
      <use x="873.876953" xlink:href="#DejaVuSans-97"/>
      <use x="935.15625" xlink:href="#DejaVuSans-98"/>
      <use x="998.632812" xlink:href="#DejaVuSans-108"/>
      <use x="1026.416016" xlink:href="#DejaVuSans-101"/>
      <use x="1087.939453" xlink:href="#DejaVuSans-46"/>
      <use x="1119.726562" xlink:href="#DejaVuSans-99"/>
      <use x="1174.707031" xlink:href="#DejaVuSans-105"/>
      <use x="1202.490234" xlink:href="#DejaVuSans-110"/>
      <use x="1265.869141" xlink:href="#DejaVuSans-110"/>
      <use x="1329.248047" xlink:href="#DejaVuSans-97"/>
      <use x="1390.527344" xlink:href="#DejaVuSans-109"/>
      <use x="1487.939453" xlink:href="#DejaVuSans-111"/>
      <use x="1549.121094" xlink:href="#DejaVuSans-110"/>
      <use x="1612.5" xlink:href="#DejaVuSans-46"/>
      <use x="1644.287109" xlink:href="#DejaVuSans-117"/>
      <use x="1707.666016" xlink:href="#DejaVuSans-110"/>
      <use x="1771.044922" xlink:href="#DejaVuSans-104"/>
      <use x="1834.423828" xlink:href="#DejaVuSans-105"/>
      <use x="1862.207031" xlink:href="#DejaVuSans-100"/>
      <use x="1925.683594" xlink:href="#DejaVuSans-101"/>
      <use x="1987.207031" xlink:href="#DejaVuSans-45"/>
      <use x="2023.291016" xlink:href="#DejaVuSans-98"/>
      <use x="2086.767578" xlink:href="#DejaVuSans-114"/>
      <use x="2127.880859" xlink:href="#DejaVuSans-117"/>
      <use x="2191.259766" xlink:href="#DejaVuSans-116"/>
      <use x="2230.46875" xlink:href="#DejaVuSans-101"/>
      <use x="2291.992188" xlink:href="#DejaVuSans-46"/>
      <use x="2323.779297" xlink:href="#DejaVuSans-119"/>
      <use x="2405.566406" xlink:href="#DejaVuSans-97"/>
      <use x="2466.845703" xlink:href="#DejaVuSans-114"/>
      <use x="2506.208984" xlink:href="#DejaVuSans-109"/>
      <use x="2603.621094" xlink:href="#DejaVuSans-117"/>
      <use x="2667" xlink:href="#DejaVuSans-112"/>
      <use x="2730.476562" xlink:href="#DejaVuSans-43"/>
      <use x="2814.265625" xlink:href="#DejaVuSans-109"/>
      <use x="2911.677734" xlink:href="#DejaVuSans-97"/>
      <use x="2972.957031" xlink:href="#DejaVuSans-105"/>
      <use x="3000.740234" xlink:href="#DejaVuSans-110"/>
     </g>
    </g>
   </g>
  </g>
 </g>
 <defs>
  <clipPath id="p6e74d06292">
   <rect height="266.112" width="357.12" x="57.6" y="41.472"/>
  </clipPath>
 </defs>
</svg>
