<?xml version="1.0" encoding="utf-8" standalone="no"?>
<!DOCTYPE svg PUBLIC "-//W3C//DTD SVG 1.1//EN"
  "http://www.w3.org/Graphics/SVG/1.1/DTD/svg11.dtd">
<!-- Created with matplotlib (https://matplotlib.org/) -->
<svg height="345.6pt" version="1.1" viewBox="0 0 460.8 345.6" width="460.8pt" xmlns="http://www.w3.org/2000/svg" xmlns:xlink="http://www.w3.org/1999/xlink">
 <defs>
  <style type="text/css">
*{stroke-linecap:butt;stroke-linejoin:round;}
  </style>
 </defs>
 <g id="figure_1">
  <g id="patch_1">
   <path d="M 0 345.6 
L 460.8 345.6 
L 460.8 0 
L 0 0 
z
" style="fill:#ffffff;"/>
  </g>
  <g id="axes_1">
   <g id="patch_2">
    <path d="M 57.6 307.584 
L 414.72 307.584 
L 414.72 41.472 
L 57.6 41.472 
z
" style="fill:#ffffff;"/>
   </g>
   <g id="matplotlib.axis_1">
    <g id="xtick_1">
     <g id="line2d_1">
      <defs>
       <path d="M 0 0 
L 0 3.5 
" id="m2ebf60fc98" style="stroke:#000000;stroke-width:0.8;"/>
      </defs>
      <g>
       <use style="stroke:#000000;stroke-width:0.8;" x="57.6" xlink:href="#m2ebf60fc98" y="307.584"/>
      </g>
     </g>
     <g id="text_1">
      <!-- 0 -->
      <defs>
       <path d="M 31.78125 66.40625 
Q 24.171875 66.40625 20.328125 58.90625 
Q 16.5 51.421875 16.5 36.375 
Q 16.5 21.390625 20.328125 13.890625 
Q 24.171875 6.390625 31.78125 6.390625 
Q 39.453125 6.390625 43.28125 13.890625 
Q 47.125 21.390625 47.125 36.375 
Q 47.125 51.421875 43.28125 58.90625 
Q 39.453125 66.40625 31.78125 66.40625 
z
M 31.78125 74.21875 
Q 44.046875 74.21875 50.515625 64.515625 
Q 56.984375 54.828125 56.984375 36.375 
Q 56.984375 17.96875 50.515625 8.265625 
Q 44.046875 -1.421875 31.78125 -1.421875 
Q 19.53125 -1.421875 13.0625 8.265625 
Q 6.59375 17.96875 6.59375 36.375 
Q 6.59375 54.828125 13.0625 64.515625 
Q 19.53125 74.21875 31.78125 74.21875 
z
" id="DejaVuSans-48"/>
      </defs>
      <g transform="translate(54.41875 322.182437)scale(0.1 -0.1)">
       <use xlink:href="#DejaVuSans-48"/>
      </g>
     </g>
    </g>
    <g id="xtick_2">
     <g id="line2d_2">
      <g>
       <use style="stroke:#000000;stroke-width:0.8;" x="103.68" xlink:href="#m2ebf60fc98" y="307.584"/>
      </g>
     </g>
     <g id="text_2">
      <!-- 20 -->
      <defs>
       <path d="M 19.1875 8.296875 
L 53.609375 8.296875 
L 53.609375 0 
L 7.328125 0 
L 7.328125 8.296875 
Q 12.9375 14.109375 22.625 23.890625 
Q 32.328125 33.6875 34.8125 36.53125 
Q 39.546875 41.84375 41.421875 45.53125 
Q 43.3125 49.21875 43.3125 52.78125 
Q 43.3125 58.59375 39.234375 62.25 
Q 35.15625 65.921875 28.609375 65.921875 
Q 23.96875 65.921875 18.8125 64.3125 
Q 13.671875 62.703125 7.8125 59.421875 
L 7.8125 69.390625 
Q 13.765625 71.78125 18.9375 73 
Q 24.125 74.21875 28.421875 74.21875 
Q 39.75 74.21875 46.484375 68.546875 
Q 53.21875 62.890625 53.21875 53.421875 
Q 53.21875 48.921875 51.53125 44.890625 
Q 49.859375 40.875 45.40625 35.40625 
Q 44.1875 33.984375 37.640625 27.21875 
Q 31.109375 20.453125 19.1875 8.296875 
z
" id="DejaVuSans-50"/>
      </defs>
      <g transform="translate(97.3175 322.182437)scale(0.1 -0.1)">
       <use xlink:href="#DejaVuSans-50"/>
       <use x="63.623047" xlink:href="#DejaVuSans-48"/>
      </g>
     </g>
    </g>
    <g id="xtick_3">
     <g id="line2d_3">
      <g>
       <use style="stroke:#000000;stroke-width:0.8;" x="149.76" xlink:href="#m2ebf60fc98" y="307.584"/>
      </g>
     </g>
     <g id="text_3">
      <!-- 40 -->
      <defs>
       <path d="M 37.796875 64.3125 
L 12.890625 25.390625 
L 37.796875 25.390625 
z
M 35.203125 72.90625 
L 47.609375 72.90625 
L 47.609375 25.390625 
L 58.015625 25.390625 
L 58.015625 17.1875 
L 47.609375 17.1875 
L 47.609375 0 
L 37.796875 0 
L 37.796875 17.1875 
L 4.890625 17.1875 
L 4.890625 26.703125 
z
" id="DejaVuSans-52"/>
      </defs>
      <g transform="translate(143.3975 322.182437)scale(0.1 -0.1)">
       <use xlink:href="#DejaVuSans-52"/>
       <use x="63.623047" xlink:href="#DejaVuSans-48"/>
      </g>
     </g>
    </g>
    <g id="xtick_4">
     <g id="line2d_4">
      <g>
       <use style="stroke:#000000;stroke-width:0.8;" x="195.84" xlink:href="#m2ebf60fc98" y="307.584"/>
      </g>
     </g>
     <g id="text_4">
      <!-- 60 -->
      <defs>
       <path d="M 33.015625 40.375 
Q 26.375 40.375 22.484375 35.828125 
Q 18.609375 31.296875 18.609375 23.390625 
Q 18.609375 15.53125 22.484375 10.953125 
Q 26.375 6.390625 33.015625 6.390625 
Q 39.65625 6.390625 43.53125 10.953125 
Q 47.40625 15.53125 47.40625 23.390625 
Q 47.40625 31.296875 43.53125 35.828125 
Q 39.65625 40.375 33.015625 40.375 
z
M 52.59375 71.296875 
L 52.59375 62.3125 
Q 48.875 64.0625 45.09375 64.984375 
Q 41.3125 65.921875 37.59375 65.921875 
Q 27.828125 65.921875 22.671875 59.328125 
Q 17.53125 52.734375 16.796875 39.40625 
Q 19.671875 43.65625 24.015625 45.921875 
Q 28.375 48.1875 33.59375 48.1875 
Q 44.578125 48.1875 50.953125 41.515625 
Q 57.328125 34.859375 57.328125 23.390625 
Q 57.328125 12.15625 50.6875 5.359375 
Q 44.046875 -1.421875 33.015625 -1.421875 
Q 20.359375 -1.421875 13.671875 8.265625 
Q 6.984375 17.96875 6.984375 36.375 
Q 6.984375 53.65625 15.1875 63.9375 
Q 23.390625 74.21875 37.203125 74.21875 
Q 40.921875 74.21875 44.703125 73.484375 
Q 48.484375 72.75 52.59375 71.296875 
z
" id="DejaVuSans-54"/>
      </defs>
      <g transform="translate(189.4775 322.182437)scale(0.1 -0.1)">
       <use xlink:href="#DejaVuSans-54"/>
       <use x="63.623047" xlink:href="#DejaVuSans-48"/>
      </g>
     </g>
    </g>
    <g id="xtick_5">
     <g id="line2d_5">
      <g>
       <use style="stroke:#000000;stroke-width:0.8;" x="241.92" xlink:href="#m2ebf60fc98" y="307.584"/>
      </g>
     </g>
     <g id="text_5">
      <!-- 80 -->
      <defs>
       <path d="M 31.78125 34.625 
Q 24.75 34.625 20.71875 30.859375 
Q 16.703125 27.09375 16.703125 20.515625 
Q 16.703125 13.921875 20.71875 10.15625 
Q 24.75 6.390625 31.78125 6.390625 
Q 38.8125 6.390625 42.859375 10.171875 
Q 46.921875 13.96875 46.921875 20.515625 
Q 46.921875 27.09375 42.890625 30.859375 
Q 38.875 34.625 31.78125 34.625 
z
M 21.921875 38.8125 
Q 15.578125 40.375 12.03125 44.71875 
Q 8.5 49.078125 8.5 55.328125 
Q 8.5 64.0625 14.71875 69.140625 
Q 20.953125 74.21875 31.78125 74.21875 
Q 42.671875 74.21875 48.875 69.140625 
Q 55.078125 64.0625 55.078125 55.328125 
Q 55.078125 49.078125 51.53125 44.71875 
Q 48 40.375 41.703125 38.8125 
Q 48.828125 37.15625 52.796875 32.3125 
Q 56.78125 27.484375 56.78125 20.515625 
Q 56.78125 9.90625 50.3125 4.234375 
Q 43.84375 -1.421875 31.78125 -1.421875 
Q 19.734375 -1.421875 13.25 4.234375 
Q 6.78125 9.90625 6.78125 20.515625 
Q 6.78125 27.484375 10.78125 32.3125 
Q 14.796875 37.15625 21.921875 38.8125 
z
M 18.3125 54.390625 
Q 18.3125 48.734375 21.84375 45.5625 
Q 25.390625 42.390625 31.78125 42.390625 
Q 38.140625 42.390625 41.71875 45.5625 
Q 45.3125 48.734375 45.3125 54.390625 
Q 45.3125 60.0625 41.71875 63.234375 
Q 38.140625 66.40625 31.78125 66.40625 
Q 25.390625 66.40625 21.84375 63.234375 
Q 18.3125 60.0625 18.3125 54.390625 
z
" id="DejaVuSans-56"/>
      </defs>
      <g transform="translate(235.5575 322.182437)scale(0.1 -0.1)">
       <use xlink:href="#DejaVuSans-56"/>
       <use x="63.623047" xlink:href="#DejaVuSans-48"/>
      </g>
     </g>
    </g>
    <g id="xtick_6">
     <g id="line2d_6">
      <g>
       <use style="stroke:#000000;stroke-width:0.8;" x="288" xlink:href="#m2ebf60fc98" y="307.584"/>
      </g>
     </g>
     <g id="text_6">
      <!-- 100 -->
      <defs>
       <path d="M 12.40625 8.296875 
L 28.515625 8.296875 
L 28.515625 63.921875 
L 10.984375 60.40625 
L 10.984375 69.390625 
L 28.421875 72.90625 
L 38.28125 72.90625 
L 38.28125 8.296875 
L 54.390625 8.296875 
L 54.390625 0 
L 12.40625 0 
z
" id="DejaVuSans-49"/>
      </defs>
      <g transform="translate(278.45625 322.182437)scale(0.1 -0.1)">
       <use xlink:href="#DejaVuSans-49"/>
       <use x="63.623047" xlink:href="#DejaVuSans-48"/>
       <use x="127.246094" xlink:href="#DejaVuSans-48"/>
      </g>
     </g>
    </g>
    <g id="xtick_7">
     <g id="line2d_7">
      <g>
       <use style="stroke:#000000;stroke-width:0.8;" x="334.08" xlink:href="#m2ebf60fc98" y="307.584"/>
      </g>
     </g>
     <g id="text_7">
      <!-- 120 -->
      <g transform="translate(324.53625 322.182437)scale(0.1 -0.1)">
       <use xlink:href="#DejaVuSans-49"/>
       <use x="63.623047" xlink:href="#DejaVuSans-50"/>
       <use x="127.246094" xlink:href="#DejaVuSans-48"/>
      </g>
     </g>
    </g>
    <g id="xtick_8">
     <g id="line2d_8">
      <g>
       <use style="stroke:#000000;stroke-width:0.8;" x="380.16" xlink:href="#m2ebf60fc98" y="307.584"/>
      </g>
     </g>
     <g id="text_8">
      <!-- 140 -->
      <g transform="translate(370.61625 322.182437)scale(0.1 -0.1)">
       <use xlink:href="#DejaVuSans-49"/>
       <use x="63.623047" xlink:href="#DejaVuSans-52"/>
       <use x="127.246094" xlink:href="#DejaVuSans-48"/>
      </g>
     </g>
    </g>
   </g>
   <g id="matplotlib.axis_2">
    <g id="ytick_1">
     <g id="line2d_9">
      <defs>
       <path d="M 0 0 
L -3.5 0 
" id="m49a580cc82" style="stroke:#000000;stroke-width:0.8;"/>
      </defs>
      <g>
       <use style="stroke:#000000;stroke-width:0.8;" x="57.6" xlink:href="#m49a580cc82" y="293.092752"/>
      </g>
     </g>
     <g id="text_9">
      <!-- 55.0 -->
      <defs>
       <path d="M 10.796875 72.90625 
L 49.515625 72.90625 
L 49.515625 64.59375 
L 19.828125 64.59375 
L 19.828125 46.734375 
Q 21.96875 47.46875 24.109375 47.828125 
Q 26.265625 48.1875 28.421875 48.1875 
Q 40.625 48.1875 47.75 41.5 
Q 54.890625 34.8125 54.890625 23.390625 
Q 54.890625 11.625 47.5625 5.09375 
Q 40.234375 -1.421875 26.90625 -1.421875 
Q 22.3125 -1.421875 17.546875 -0.640625 
Q 12.796875 0.140625 7.71875 1.703125 
L 7.71875 11.625 
Q 12.109375 9.234375 16.796875 8.0625 
Q 21.484375 6.890625 26.703125 6.890625 
Q 35.15625 6.890625 40.078125 11.328125 
Q 45.015625 15.765625 45.015625 23.390625 
Q 45.015625 31 40.078125 35.4375 
Q 35.15625 39.890625 26.703125 39.890625 
Q 22.75 39.890625 18.8125 39.015625 
Q 14.890625 38.140625 10.796875 36.28125 
z
" id="DejaVuSans-53"/>
       <path d="M 10.6875 12.40625 
L 21 12.40625 
L 21 0 
L 10.6875 0 
z
" id="DejaVuSans-46"/>
      </defs>
      <g transform="translate(28.334375 296.891971)scale(0.1 -0.1)">
       <use xlink:href="#DejaVuSans-53"/>
       <use x="63.623047" xlink:href="#DejaVuSans-53"/>
       <use x="127.246094" xlink:href="#DejaVuSans-46"/>
       <use x="159.033203" xlink:href="#DejaVuSans-48"/>
      </g>
     </g>
    </g>
    <g id="ytick_2">
     <g id="line2d_10">
      <g>
       <use style="stroke:#000000;stroke-width:0.8;" x="57.6" xlink:href="#m49a580cc82" y="263.152158"/>
      </g>
     </g>
     <g id="text_10">
      <!-- 57.5 -->
      <defs>
       <path d="M 8.203125 72.90625 
L 55.078125 72.90625 
L 55.078125 68.703125 
L 28.609375 0 
L 18.3125 0 
L 43.21875 64.59375 
L 8.203125 64.59375 
z
" id="DejaVuSans-55"/>
      </defs>
      <g transform="translate(28.334375 266.951377)scale(0.1 -0.1)">
       <use xlink:href="#DejaVuSans-53"/>
       <use x="63.623047" xlink:href="#DejaVuSans-55"/>
       <use x="127.246094" xlink:href="#DejaVuSans-46"/>
       <use x="159.033203" xlink:href="#DejaVuSans-53"/>
      </g>
     </g>
    </g>
    <g id="ytick_3">
     <g id="line2d_11">
      <g>
       <use style="stroke:#000000;stroke-width:0.8;" x="57.6" xlink:href="#m49a580cc82" y="233.211564"/>
      </g>
     </g>
     <g id="text_11">
      <!-- 60.0 -->
      <g transform="translate(28.334375 237.010783)scale(0.1 -0.1)">
       <use xlink:href="#DejaVuSans-54"/>
       <use x="63.623047" xlink:href="#DejaVuSans-48"/>
       <use x="127.246094" xlink:href="#DejaVuSans-46"/>
       <use x="159.033203" xlink:href="#DejaVuSans-48"/>
      </g>
     </g>
    </g>
    <g id="ytick_4">
     <g id="line2d_12">
      <g>
       <use style="stroke:#000000;stroke-width:0.8;" x="57.6" xlink:href="#m49a580cc82" y="203.27097"/>
      </g>
     </g>
     <g id="text_12">
      <!-- 62.5 -->
      <g transform="translate(28.334375 207.070189)scale(0.1 -0.1)">
       <use xlink:href="#DejaVuSans-54"/>
       <use x="63.623047" xlink:href="#DejaVuSans-50"/>
       <use x="127.246094" xlink:href="#DejaVuSans-46"/>
       <use x="159.033203" xlink:href="#DejaVuSans-53"/>
      </g>
     </g>
    </g>
    <g id="ytick_5">
     <g id="line2d_13">
      <g>
       <use style="stroke:#000000;stroke-width:0.8;" x="57.6" xlink:href="#m49a580cc82" y="173.330376"/>
      </g>
     </g>
     <g id="text_13">
      <!-- 65.0 -->
      <g transform="translate(28.334375 177.129595)scale(0.1 -0.1)">
       <use xlink:href="#DejaVuSans-54"/>
       <use x="63.623047" xlink:href="#DejaVuSans-53"/>
       <use x="127.246094" xlink:href="#DejaVuSans-46"/>
       <use x="159.033203" xlink:href="#DejaVuSans-48"/>
      </g>
     </g>
    </g>
    <g id="ytick_6">
     <g id="line2d_14">
      <g>
       <use style="stroke:#000000;stroke-width:0.8;" x="57.6" xlink:href="#m49a580cc82" y="143.389782"/>
      </g>
     </g>
     <g id="text_14">
      <!-- 67.5 -->
      <g transform="translate(28.334375 147.189001)scale(0.1 -0.1)">
       <use xlink:href="#DejaVuSans-54"/>
       <use x="63.623047" xlink:href="#DejaVuSans-55"/>
       <use x="127.246094" xlink:href="#DejaVuSans-46"/>
       <use x="159.033203" xlink:href="#DejaVuSans-53"/>
      </g>
     </g>
    </g>
    <g id="ytick_7">
     <g id="line2d_15">
      <g>
       <use style="stroke:#000000;stroke-width:0.8;" x="57.6" xlink:href="#m49a580cc82" y="113.449188"/>
      </g>
     </g>
     <g id="text_15">
      <!-- 70.0 -->
      <g transform="translate(28.334375 117.248407)scale(0.1 -0.1)">
       <use xlink:href="#DejaVuSans-55"/>
       <use x="63.623047" xlink:href="#DejaVuSans-48"/>
       <use x="127.246094" xlink:href="#DejaVuSans-46"/>
       <use x="159.033203" xlink:href="#DejaVuSans-48"/>
      </g>
     </g>
    </g>
    <g id="ytick_8">
     <g id="line2d_16">
      <g>
       <use style="stroke:#000000;stroke-width:0.8;" x="57.6" xlink:href="#m49a580cc82" y="83.508594"/>
      </g>
     </g>
     <g id="text_16">
      <!-- 72.5 -->
      <g transform="translate(28.334375 87.307813)scale(0.1 -0.1)">
       <use xlink:href="#DejaVuSans-55"/>
       <use x="63.623047" xlink:href="#DejaVuSans-50"/>
       <use x="127.246094" xlink:href="#DejaVuSans-46"/>
       <use x="159.033203" xlink:href="#DejaVuSans-53"/>
      </g>
     </g>
    </g>
    <g id="ytick_9">
     <g id="line2d_17">
      <g>
       <use style="stroke:#000000;stroke-width:0.8;" x="57.6" xlink:href="#m49a580cc82" y="53.568"/>
      </g>
     </g>
     <g id="text_17">
      <!-- 75.0 -->
      <g transform="translate(28.334375 57.367219)scale(0.1 -0.1)">
       <use xlink:href="#DejaVuSans-55"/>
       <use x="63.623047" xlink:href="#DejaVuSans-53"/>
       <use x="127.246094" xlink:href="#DejaVuSans-46"/>
       <use x="159.033203" xlink:href="#DejaVuSans-48"/>
      </g>
     </g>
    </g>
   </g>
   <g id="line2d_18">
    <path clip-path="url(#p99adb6d92c)" d="M 66.816 235.606812 
L 69.12 221.235327 
L 71.424 223.630574 
L 73.728 218.840079 
L 76.032 221.235327 
L 78.336 235.606812 
L 80.64 233.211564 
L 82.944 233.211564 
L 85.248 228.421069 
L 87.552 226.025822 
L 89.856 228.421069 
L 92.16 233.211564 
L 99.072 233.211564 
L 101.376 223.630574 
L 103.68 211.654337 
L 105.984 211.654337 
L 108.288 199.678099 
L 110.592 192.492356 
L 112.896 199.678099 
L 115.2 199.678099 
L 117.504 197.282851 
L 119.808 202.073347 
L 122.112 199.678099 
L 124.416 190.097109 
L 126.72 190.097109 
L 129.024 185.306614 
L 131.328 185.306614 
L 133.632 182.911366 
L 135.936 178.120871 
L 138.24 170.935129 
L 140.544 168.539881 
L 142.848 163.749386 
L 145.152 161.354139 
L 147.456 166.144634 
L 149.76 163.749386 
L 154.368 163.749386 
L 156.672 161.354139 
L 158.976 151.773149 
L 161.28 151.773149 
L 163.584 149.377901 
L 168.192 139.796911 
L 170.496 151.773149 
L 175.104 146.982653 
L 177.408 151.773149 
L 179.712 154.168396 
L 182.016 146.982653 
L 186.624 146.982653 
L 188.928 142.192158 
L 191.232 139.796911 
L 193.536 132.611168 
L 195.84 130.215921 
L 200.448 120.634931 
L 207.36 113.449188 
L 209.664 113.449188 
L 211.968 123.030178 
L 216.576 123.030178 
L 218.88 132.611168 
L 221.184 130.215921 
L 223.488 120.634931 
L 225.792 120.634931 
L 228.096 130.215921 
L 230.4 118.239683 
L 232.704 130.215921 
L 237.312 130.215921 
L 239.616 120.634931 
L 241.92 123.030178 
L 244.224 113.449188 
L 246.528 118.239683 
L 248.832 118.239683 
L 251.136 101.47295 
L 253.44 101.47295 
L 255.744 99.077703 
L 258.048 91.89196 
L 260.352 89.496713 
L 262.656 103.868198 
L 267.264 103.868198 
L 269.568 106.263446 
L 274.176 106.263446 
L 276.48 103.868198 
L 278.784 103.868198 
L 281.088 96.682455 
L 285.696 96.682455 
L 288 89.496713 
L 292.608 89.496713 
L 294.912 96.682455 
L 299.52 115.844436 
L 301.824 120.634931 
L 304.128 132.611168 
L 306.432 127.820673 
L 308.736 127.820673 
L 311.04 123.030178 
L 313.344 115.844436 
L 315.648 111.053941 
L 317.952 118.239683 
L 320.256 111.053941 
L 322.56 120.634931 
L 324.864 132.611168 
L 327.168 130.215921 
L 329.472 123.030178 
L 331.776 118.239683 
L 334.08 120.634931 
L 336.384 111.053941 
L 338.688 123.030178 
L 340.992 130.215921 
L 343.296 142.192158 
L 345.6 144.587406 
L 347.904 142.192158 
L 350.208 137.401663 
L 352.512 125.425426 
L 357.12 106.263446 
L 359.424 103.868198 
L 361.728 96.682455 
L 364.032 96.682455 
L 366.336 94.287208 
L 368.64 94.287208 
L 370.944 108.658693 
L 373.248 111.053941 
L 375.552 118.239683 
L 380.16 127.820673 
L 384.768 132.611168 
L 387.072 139.796911 
L 389.376 142.192158 
L 391.68 146.982653 
L 393.984 146.982653 
L 396.288 139.796911 
L 405.504 139.796911 
L 407.808 146.982653 
L 410.112 137.401663 
L 414.72 132.611168 
L 414.72 132.611168 
" style="fill:none;stroke:#1f77b4;stroke-linecap:square;stroke-width:1.5;"/>
   </g>
   <g id="line2d_19">
    <path clip-path="url(#p99adb6d92c)" d="M 66.816 285.90701 
L 69.12 281.116515 
L 71.424 290.697505 
L 73.728 288.302257 
L 76.032 295.488 
L 78.336 293.092752 
L 108.288 293.092752 
L 110.592 281.116515 
L 117.504 281.116515 
L 119.808 278.721267 
L 122.112 288.302257 
L 126.72 288.302257 
L 129.024 285.90701 
L 133.632 290.697505 
L 138.24 290.697505 
L 140.544 293.092752 
L 152.064 293.092752 
L 154.368 290.697505 
L 156.672 281.116515 
L 163.584 273.930772 
L 165.888 276.32602 
L 168.192 283.511762 
L 170.496 285.90701 
L 172.8 285.90701 
L 175.104 288.302257 
L 177.408 285.90701 
L 179.712 285.90701 
L 182.016 283.511762 
L 195.84 283.511762 
L 200.448 278.721267 
L 202.752 278.721267 
L 209.664 271.535525 
L 211.968 273.930772 
L 214.272 273.930772 
L 221.184 281.116515 
L 248.832 281.116515 
L 251.136 278.721267 
L 253.44 273.930772 
L 255.744 271.535525 
L 258.048 271.535525 
L 260.352 269.140277 
L 262.656 271.535525 
L 264.96 276.32602 
L 269.568 276.32602 
L 271.872 278.721267 
L 274.176 276.32602 
L 276.48 276.32602 
L 278.784 278.721267 
L 283.392 278.721267 
L 285.696 281.116515 
L 297.216 281.116515 
L 299.52 273.930772 
L 301.824 271.535525 
L 308.736 271.535525 
L 311.04 278.721267 
L 313.344 281.116515 
L 315.648 278.721267 
L 317.952 278.721267 
L 320.256 276.32602 
L 324.864 276.32602 
L 327.168 278.721267 
L 329.472 276.32602 
L 331.776 278.721267 
L 334.08 276.32602 
L 336.384 276.32602 
L 338.688 273.930772 
L 340.992 276.32602 
L 343.296 273.930772 
L 345.6 273.930772 
L 347.904 271.535525 
L 352.512 271.535525 
L 354.816 273.930772 
L 361.728 273.930772 
L 366.336 269.140277 
L 368.64 269.140277 
L 373.248 273.930772 
L 375.552 273.930772 
L 380.16 278.721267 
L 382.464 276.32602 
L 387.072 276.32602 
L 389.376 273.930772 
L 391.68 269.140277 
L 393.984 269.140277 
L 396.288 257.16404 
L 400.896 257.16404 
L 403.2 261.954535 
L 405.504 261.954535 
L 407.808 271.535525 
L 412.416 271.535525 
L 414.72 269.140277 
L 414.72 269.140277 
" style="fill:none;stroke:#ff7f0e;stroke-linecap:square;stroke-width:1.5;"/>
   </g>
   <g id="line2d_20">
    <path clip-path="url(#p99adb6d92c)" d="M 66.816 293.092752 
L 69.12 264.349782 
L 71.424 240.397307 
L 73.728 235.606812 
L 76.032 228.421069 
L 78.336 233.211564 
L 80.64 245.187802 
L 82.944 247.58305 
L 87.552 223.630574 
L 89.856 214.049584 
L 92.16 206.863842 
L 94.464 202.073347 
L 96.768 209.259089 
L 101.376 204.468594 
L 103.68 197.282851 
L 105.984 199.678099 
L 108.288 185.306614 
L 110.592 187.701861 
L 112.896 178.120871 
L 115.2 182.911366 
L 119.808 173.330376 
L 122.112 166.144634 
L 124.416 173.330376 
L 126.72 170.935129 
L 129.024 170.935129 
L 131.328 175.725624 
L 133.632 170.935129 
L 135.936 168.539881 
L 138.24 158.958891 
L 140.544 156.563644 
L 142.848 151.773149 
L 145.152 158.958891 
L 147.456 158.958891 
L 149.76 166.144634 
L 152.064 158.958891 
L 154.368 154.168396 
L 156.672 142.192158 
L 161.28 137.401663 
L 163.584 142.192158 
L 165.888 142.192158 
L 168.192 146.982653 
L 170.496 146.982653 
L 175.104 123.030178 
L 177.408 127.820673 
L 179.712 120.634931 
L 182.016 106.263446 
L 184.32 113.449188 
L 186.624 115.844436 
L 188.928 115.844436 
L 191.232 123.030178 
L 193.536 132.611168 
L 195.84 123.030178 
L 198.144 123.030178 
L 200.448 118.239683 
L 205.056 99.077703 
L 207.36 103.868198 
L 209.664 96.682455 
L 211.968 94.287208 
L 214.272 99.077703 
L 216.576 96.682455 
L 218.88 99.077703 
L 221.184 99.077703 
L 228.096 106.263446 
L 230.4 96.682455 
L 235.008 101.47295 
L 237.312 91.89196 
L 239.616 91.89196 
L 241.92 99.077703 
L 244.224 99.077703 
L 246.528 91.89196 
L 248.832 94.287208 
L 251.136 101.47295 
L 253.44 91.89196 
L 255.744 91.89196 
L 258.048 94.287208 
L 260.352 94.287208 
L 262.656 89.496713 
L 264.96 96.682455 
L 267.264 94.287208 
L 269.568 87.101465 
L 271.872 89.496713 
L 274.176 89.496713 
L 276.48 82.31097 
L 278.784 89.496713 
L 281.088 89.496713 
L 283.392 84.706218 
L 285.696 77.520475 
L 288 84.706218 
L 290.304 79.915723 
L 292.608 84.706218 
L 294.912 79.915723 
L 297.216 82.31097 
L 299.52 75.125228 
L 304.128 84.706218 
L 306.432 91.89196 
L 308.736 96.682455 
L 311.04 103.868198 
L 313.344 101.47295 
L 315.648 91.89196 
L 317.952 99.077703 
L 320.256 91.89196 
L 324.864 87.101465 
L 327.168 96.682455 
L 329.472 91.89196 
L 336.384 84.706218 
L 338.688 70.334733 
L 340.992 63.14899 
L 343.296 65.544238 
L 345.6 63.14899 
L 347.904 67.939485 
L 350.208 79.915723 
L 357.12 101.47295 
L 359.424 101.47295 
L 361.728 91.89196 
L 364.032 89.496713 
L 366.336 82.31097 
L 370.944 82.31097 
L 373.248 91.89196 
L 375.552 87.101465 
L 377.856 89.496713 
L 380.16 82.31097 
L 382.464 77.520475 
L 384.768 70.334733 
L 387.072 72.72998 
L 389.376 77.520475 
L 391.68 75.125228 
L 393.984 55.963248 
L 396.288 63.14899 
L 398.592 55.963248 
L 400.896 53.568 
L 403.2 63.14899 
L 405.504 84.706218 
L 407.808 82.31097 
L 410.112 82.31097 
L 412.416 84.706218 
L 414.72 79.915723 
L 414.72 79.915723 
" style="fill:none;stroke:#2ca02c;stroke-linecap:square;stroke-width:1.5;"/>
   </g>
   <g id="line2d_21">
    <path clip-path="url(#p99adb6d92c)" d="M 66.816 271.535525 
L 71.424 257.16404 
L 73.728 254.768792 
L 78.336 254.768792 
L 80.64 252.373545 
L 82.944 252.373545 
L 85.248 254.768792 
L 89.856 254.768792 
L 92.16 257.16404 
L 103.68 257.16404 
L 105.984 254.768792 
L 108.288 249.978297 
L 115.2 242.792554 
L 117.504 242.792554 
L 119.808 247.58305 
L 122.112 247.58305 
L 124.416 249.978297 
L 129.024 249.978297 
L 131.328 247.58305 
L 133.632 249.978297 
L 135.936 247.58305 
L 142.848 254.768792 
L 145.152 252.373545 
L 147.456 254.768792 
L 152.064 249.978297 
L 154.368 245.187802 
L 156.672 245.187802 
L 158.976 240.397307 
L 163.584 240.397307 
L 165.888 242.792554 
L 168.192 242.792554 
L 170.496 245.187802 
L 202.752 245.187802 
L 205.056 242.792554 
L 207.36 242.792554 
L 209.664 240.397307 
L 214.272 240.397307 
L 216.576 242.792554 
L 218.88 242.792554 
L 221.184 245.187802 
L 225.792 240.397307 
L 232.704 240.397307 
L 237.312 245.187802 
L 241.92 245.187802 
L 248.832 238.002059 
L 251.136 238.002059 
L 253.44 235.606812 
L 255.744 238.002059 
L 260.352 238.002059 
L 262.656 235.606812 
L 264.96 238.002059 
L 267.264 238.002059 
L 269.568 240.397307 
L 274.176 240.397307 
L 276.48 238.002059 
L 278.784 238.002059 
L 281.088 235.606812 
L 285.696 235.606812 
L 288 238.002059 
L 290.304 238.002059 
L 292.608 240.397307 
L 294.912 240.397307 
L 297.216 242.792554 
L 299.52 240.397307 
L 301.824 240.397307 
L 304.128 238.002059 
L 311.04 238.002059 
L 313.344 235.606812 
L 315.648 235.606812 
L 317.952 238.002059 
L 320.256 235.606812 
L 322.56 235.606812 
L 324.864 238.002059 
L 334.08 238.002059 
L 336.384 235.606812 
L 338.688 238.002059 
L 347.904 238.002059 
L 352.512 233.211564 
L 366.336 233.211564 
L 368.64 235.606812 
L 370.944 235.606812 
L 375.552 240.397307 
L 377.856 240.397307 
L 380.16 238.002059 
L 382.464 240.397307 
L 384.768 240.397307 
L 387.072 238.002059 
L 391.68 238.002059 
L 393.984 235.606812 
L 396.288 228.421069 
L 398.592 228.421069 
L 400.896 230.816317 
L 405.504 230.816317 
L 407.808 235.606812 
L 410.112 235.606812 
L 412.416 233.211564 
L 414.72 233.211564 
L 414.72 233.211564 
" style="fill:none;stroke:#d62728;stroke-linecap:square;stroke-width:1.5;"/>
   </g>
   <g id="patch_3">
    <path d="M 57.6 307.584 
L 57.6 41.472 
" style="fill:none;stroke:#000000;stroke-linecap:square;stroke-linejoin:miter;stroke-width:0.8;"/>
   </g>
   <g id="patch_4">
    <path d="M 414.72 307.584 
L 414.72 41.472 
" style="fill:none;stroke:#000000;stroke-linecap:square;stroke-linejoin:miter;stroke-width:0.8;"/>
   </g>
   <g id="patch_5">
    <path d="M 57.6 307.584 
L 414.72 307.584 
" style="fill:none;stroke:#000000;stroke-linecap:square;stroke-linejoin:miter;stroke-width:0.8;"/>
   </g>
   <g id="patch_6">
    <path d="M 57.6 41.472 
L 414.72 41.472 
" style="fill:none;stroke:#000000;stroke-linecap:square;stroke-linejoin:miter;stroke-width:0.8;"/>
   </g>
   <g id="legend_1">
    <g id="patch_7">
     <path d="M 63.646562 205.38425 
L 407.72 205.38425 
Q 409.72 205.38425 409.72 203.38425 
L 409.72 145.67175 
Q 409.72 143.67175 407.72 143.67175 
L 63.646562 143.67175 
Q 61.646562 143.67175 61.646562 145.67175 
L 61.646562 203.38425 
Q 61.646562 205.38425 63.646562 205.38425 
z
" style="fill:#ffffff;opacity:0.8;stroke:#cccccc;stroke-linejoin:miter;"/>
    </g>
    <g id="line2d_22">
     <path d="M 65.646562 151.770188 
L 85.646562 151.770188 
" style="fill:none;stroke:#1f77b4;stroke-linecap:square;stroke-width:1.5;"/>
    </g>
    <g id="line2d_23"/>
    <g id="text_18">
     <!-- 5.2.17.ipstate-active-hwp.cinnamon.verifyxattr.warmup+main -->
     <defs>
      <path d="M 9.421875 54.6875 
L 18.40625 54.6875 
L 18.40625 0 
L 9.421875 0 
z
M 9.421875 75.984375 
L 18.40625 75.984375 
L 18.40625 64.59375 
L 9.421875 64.59375 
z
" id="DejaVuSans-105"/>
      <path d="M 18.109375 8.203125 
L 18.109375 -20.796875 
L 9.078125 -20.796875 
L 9.078125 54.6875 
L 18.109375 54.6875 
L 18.109375 46.390625 
Q 20.953125 51.265625 25.265625 53.625 
Q 29.59375 56 35.59375 56 
Q 45.5625 56 51.78125 48.09375 
Q 58.015625 40.1875 58.015625 27.296875 
Q 58.015625 14.40625 51.78125 6.484375 
Q 45.5625 -1.421875 35.59375 -1.421875 
Q 29.59375 -1.421875 25.265625 0.953125 
Q 20.953125 3.328125 18.109375 8.203125 
z
M 48.6875 27.296875 
Q 48.6875 37.203125 44.609375 42.84375 
Q 40.53125 48.484375 33.40625 48.484375 
Q 26.265625 48.484375 22.1875 42.84375 
Q 18.109375 37.203125 18.109375 27.296875 
Q 18.109375 17.390625 22.1875 11.75 
Q 26.265625 6.109375 33.40625 6.109375 
Q 40.53125 6.109375 44.609375 11.75 
Q 48.6875 17.390625 48.6875 27.296875 
z
" id="DejaVuSans-112"/>
      <path d="M 44.28125 53.078125 
L 44.28125 44.578125 
Q 40.484375 46.53125 36.375 47.5 
Q 32.28125 48.484375 27.875 48.484375 
Q 21.1875 48.484375 17.84375 46.4375 
Q 14.5 44.390625 14.5 40.28125 
Q 14.5 37.15625 16.890625 35.375 
Q 19.28125 33.59375 26.515625 31.984375 
L 29.59375 31.296875 
Q 39.15625 29.25 43.1875 25.515625 
Q 47.21875 21.78125 47.21875 15.09375 
Q 47.21875 7.46875 41.1875 3.015625 
Q 35.15625 -1.421875 24.609375 -1.421875 
Q 20.21875 -1.421875 15.453125 -0.5625 
Q 10.6875 0.296875 5.421875 2 
L 5.421875 11.28125 
Q 10.40625 8.6875 15.234375 7.390625 
Q 20.0625 6.109375 24.8125 6.109375 
Q 31.15625 6.109375 34.5625 8.28125 
Q 37.984375 10.453125 37.984375 14.40625 
Q 37.984375 18.0625 35.515625 20.015625 
Q 33.0625 21.96875 24.703125 23.78125 
L 21.578125 24.515625 
Q 13.234375 26.265625 9.515625 29.90625 
Q 5.8125 33.546875 5.8125 39.890625 
Q 5.8125 47.609375 11.28125 51.796875 
Q 16.75 56 26.8125 56 
Q 31.78125 56 36.171875 55.265625 
Q 40.578125 54.546875 44.28125 53.078125 
z
" id="DejaVuSans-115"/>
      <path d="M 18.3125 70.21875 
L 18.3125 54.6875 
L 36.8125 54.6875 
L 36.8125 47.703125 
L 18.3125 47.703125 
L 18.3125 18.015625 
Q 18.3125 11.328125 20.140625 9.421875 
Q 21.96875 7.515625 27.59375 7.515625 
L 36.8125 7.515625 
L 36.8125 0 
L 27.59375 0 
Q 17.1875 0 13.234375 3.875 
Q 9.28125 7.765625 9.28125 18.015625 
L 9.28125 47.703125 
L 2.6875 47.703125 
L 2.6875 54.6875 
L 9.28125 54.6875 
L 9.28125 70.21875 
z
" id="DejaVuSans-116"/>
      <path d="M 34.28125 27.484375 
Q 23.390625 27.484375 19.1875 25 
Q 14.984375 22.515625 14.984375 16.5 
Q 14.984375 11.71875 18.140625 8.90625 
Q 21.296875 6.109375 26.703125 6.109375 
Q 34.1875 6.109375 38.703125 11.40625 
Q 43.21875 16.703125 43.21875 25.484375 
L 43.21875 27.484375 
z
M 52.203125 31.203125 
L 52.203125 0 
L 43.21875 0 
L 43.21875 8.296875 
Q 40.140625 3.328125 35.546875 0.953125 
Q 30.953125 -1.421875 24.3125 -1.421875 
Q 15.921875 -1.421875 10.953125 3.296875 
Q 6 8.015625 6 15.921875 
Q 6 25.140625 12.171875 29.828125 
Q 18.359375 34.515625 30.609375 34.515625 
L 43.21875 34.515625 
L 43.21875 35.40625 
Q 43.21875 41.609375 39.140625 45 
Q 35.0625 48.390625 27.6875 48.390625 
Q 23 48.390625 18.546875 47.265625 
Q 14.109375 46.140625 10.015625 43.890625 
L 10.015625 52.203125 
Q 14.9375 54.109375 19.578125 55.046875 
Q 24.21875 56 28.609375 56 
Q 40.484375 56 46.34375 49.84375 
Q 52.203125 43.703125 52.203125 31.203125 
z
" id="DejaVuSans-97"/>
      <path d="M 56.203125 29.59375 
L 56.203125 25.203125 
L 14.890625 25.203125 
Q 15.484375 15.921875 20.484375 11.0625 
Q 25.484375 6.203125 34.421875 6.203125 
Q 39.59375 6.203125 44.453125 7.46875 
Q 49.3125 8.734375 54.109375 11.28125 
L 54.109375 2.78125 
Q 49.265625 0.734375 44.1875 -0.34375 
Q 39.109375 -1.421875 33.890625 -1.421875 
Q 20.796875 -1.421875 13.15625 6.1875 
Q 5.515625 13.8125 5.515625 26.8125 
Q 5.515625 40.234375 12.765625 48.109375 
Q 20.015625 56 32.328125 56 
Q 43.359375 56 49.78125 48.890625 
Q 56.203125 41.796875 56.203125 29.59375 
z
M 47.21875 32.234375 
Q 47.125 39.59375 43.09375 43.984375 
Q 39.0625 48.390625 32.421875 48.390625 
Q 24.90625 48.390625 20.390625 44.140625 
Q 15.875 39.890625 15.1875 32.171875 
z
" id="DejaVuSans-101"/>
      <path d="M 4.890625 31.390625 
L 31.203125 31.390625 
L 31.203125 23.390625 
L 4.890625 23.390625 
z
" id="DejaVuSans-45"/>
      <path d="M 48.78125 52.59375 
L 48.78125 44.1875 
Q 44.96875 46.296875 41.140625 47.34375 
Q 37.3125 48.390625 33.40625 48.390625 
Q 24.65625 48.390625 19.8125 42.84375 
Q 14.984375 37.3125 14.984375 27.296875 
Q 14.984375 17.28125 19.8125 11.734375 
Q 24.65625 6.203125 33.40625 6.203125 
Q 37.3125 6.203125 41.140625 7.25 
Q 44.96875 8.296875 48.78125 10.40625 
L 48.78125 2.09375 
Q 45.015625 0.34375 40.984375 -0.53125 
Q 36.96875 -1.421875 32.421875 -1.421875 
Q 20.0625 -1.421875 12.78125 6.34375 
Q 5.515625 14.109375 5.515625 27.296875 
Q 5.515625 40.671875 12.859375 48.328125 
Q 20.21875 56 33.015625 56 
Q 37.15625 56 41.109375 55.140625 
Q 45.0625 54.296875 48.78125 52.59375 
z
" id="DejaVuSans-99"/>
      <path d="M 2.984375 54.6875 
L 12.5 54.6875 
L 29.59375 8.796875 
L 46.6875 54.6875 
L 56.203125 54.6875 
L 35.6875 0 
L 23.484375 0 
z
" id="DejaVuSans-118"/>
      <path d="M 54.890625 33.015625 
L 54.890625 0 
L 45.90625 0 
L 45.90625 32.71875 
Q 45.90625 40.484375 42.875 44.328125 
Q 39.84375 48.1875 33.796875 48.1875 
Q 26.515625 48.1875 22.3125 43.546875 
Q 18.109375 38.921875 18.109375 30.90625 
L 18.109375 0 
L 9.078125 0 
L 9.078125 75.984375 
L 18.109375 75.984375 
L 18.109375 46.1875 
Q 21.34375 51.125 25.703125 53.5625 
Q 30.078125 56 35.796875 56 
Q 45.21875 56 50.046875 50.171875 
Q 54.890625 44.34375 54.890625 33.015625 
z
" id="DejaVuSans-104"/>
      <path d="M 4.203125 54.6875 
L 13.1875 54.6875 
L 24.421875 12.015625 
L 35.59375 54.6875 
L 46.1875 54.6875 
L 57.421875 12.015625 
L 68.609375 54.6875 
L 77.59375 54.6875 
L 63.28125 0 
L 52.6875 0 
L 40.921875 44.828125 
L 29.109375 0 
L 18.5 0 
z
" id="DejaVuSans-119"/>
      <path d="M 54.890625 33.015625 
L 54.890625 0 
L 45.90625 0 
L 45.90625 32.71875 
Q 45.90625 40.484375 42.875 44.328125 
Q 39.84375 48.1875 33.796875 48.1875 
Q 26.515625 48.1875 22.3125 43.546875 
Q 18.109375 38.921875 18.109375 30.90625 
L 18.109375 0 
L 9.078125 0 
L 9.078125 54.6875 
L 18.109375 54.6875 
L 18.109375 46.1875 
Q 21.34375 51.125 25.703125 53.5625 
Q 30.078125 56 35.796875 56 
Q 45.21875 56 50.046875 50.171875 
Q 54.890625 44.34375 54.890625 33.015625 
z
" id="DejaVuSans-110"/>
      <path d="M 52 44.1875 
Q 55.375 50.25 60.0625 53.125 
Q 64.75 56 71.09375 56 
Q 79.640625 56 84.28125 50.015625 
Q 88.921875 44.046875 88.921875 33.015625 
L 88.921875 0 
L 79.890625 0 
L 79.890625 32.71875 
Q 79.890625 40.578125 77.09375 44.375 
Q 74.3125 48.1875 68.609375 48.1875 
Q 61.625 48.1875 57.5625 43.546875 
Q 53.515625 38.921875 53.515625 30.90625 
L 53.515625 0 
L 44.484375 0 
L 44.484375 32.71875 
Q 44.484375 40.625 41.703125 44.40625 
Q 38.921875 48.1875 33.109375 48.1875 
Q 26.21875 48.1875 22.15625 43.53125 
Q 18.109375 38.875 18.109375 30.90625 
L 18.109375 0 
L 9.078125 0 
L 9.078125 54.6875 
L 18.109375 54.6875 
L 18.109375 46.1875 
Q 21.1875 51.21875 25.484375 53.609375 
Q 29.78125 56 35.6875 56 
Q 41.65625 56 45.828125 52.96875 
Q 50 49.953125 52 44.1875 
z
" id="DejaVuSans-109"/>
      <path d="M 30.609375 48.390625 
Q 23.390625 48.390625 19.1875 42.75 
Q 14.984375 37.109375 14.984375 27.296875 
Q 14.984375 17.484375 19.15625 11.84375 
Q 23.34375 6.203125 30.609375 6.203125 
Q 37.796875 6.203125 41.984375 11.859375 
Q 46.1875 17.53125 46.1875 27.296875 
Q 46.1875 37.015625 41.984375 42.703125 
Q 37.796875 48.390625 30.609375 48.390625 
z
M 30.609375 56 
Q 42.328125 56 49.015625 48.375 
Q 55.71875 40.765625 55.71875 27.296875 
Q 55.71875 13.875 49.015625 6.21875 
Q 42.328125 -1.421875 30.609375 -1.421875 
Q 18.84375 -1.421875 12.171875 6.21875 
Q 5.515625 13.875 5.515625 27.296875 
Q 5.515625 40.765625 12.171875 48.375 
Q 18.84375 56 30.609375 56 
z
" id="DejaVuSans-111"/>
      <path d="M 41.109375 46.296875 
Q 39.59375 47.171875 37.8125 47.578125 
Q 36.03125 48 33.890625 48 
Q 26.265625 48 22.1875 43.046875 
Q 18.109375 38.09375 18.109375 28.8125 
L 18.109375 0 
L 9.078125 0 
L 9.078125 54.6875 
L 18.109375 54.6875 
L 18.109375 46.1875 
Q 20.953125 51.171875 25.484375 53.578125 
Q 30.03125 56 36.53125 56 
Q 37.453125 56 38.578125 55.875 
Q 39.703125 55.765625 41.0625 55.515625 
z
" id="DejaVuSans-114"/>
      <path d="M 37.109375 75.984375 
L 37.109375 68.5 
L 28.515625 68.5 
Q 23.6875 68.5 21.796875 66.546875 
Q 19.921875 64.59375 19.921875 59.515625 
L 19.921875 54.6875 
L 34.71875 54.6875 
L 34.71875 47.703125 
L 19.921875 47.703125 
L 19.921875 0 
L 10.890625 0 
L 10.890625 47.703125 
L 2.296875 47.703125 
L 2.296875 54.6875 
L 10.890625 54.6875 
L 10.890625 58.5 
Q 10.890625 67.625 15.140625 71.796875 
Q 19.390625 75.984375 28.609375 75.984375 
z
" id="DejaVuSans-102"/>
      <path d="M 32.171875 -5.078125 
Q 28.375 -14.84375 24.75 -17.8125 
Q 21.140625 -20.796875 15.09375 -20.796875 
L 7.90625 -20.796875 
L 7.90625 -13.28125 
L 13.1875 -13.28125 
Q 16.890625 -13.28125 18.9375 -11.515625 
Q 21 -9.765625 23.484375 -3.21875 
L 25.09375 0.875 
L 2.984375 54.6875 
L 12.5 54.6875 
L 29.59375 11.921875 
L 46.6875 54.6875 
L 56.203125 54.6875 
z
" id="DejaVuSans-121"/>
      <path d="M 54.890625 54.6875 
L 35.109375 28.078125 
L 55.90625 0 
L 45.3125 0 
L 29.390625 21.484375 
L 13.484375 0 
L 2.875 0 
L 24.125 28.609375 
L 4.6875 54.6875 
L 15.28125 54.6875 
L 29.78125 35.203125 
L 44.28125 54.6875 
z
" id="DejaVuSans-120"/>
      <path d="M 8.5 21.578125 
L 8.5 54.6875 
L 17.484375 54.6875 
L 17.484375 21.921875 
Q 17.484375 14.15625 20.5 10.265625 
Q 23.53125 6.390625 29.59375 6.390625 
Q 36.859375 6.390625 41.078125 11.03125 
Q 45.3125 15.671875 45.3125 23.6875 
L 45.3125 54.6875 
L 54.296875 54.6875 
L 54.296875 0 
L 45.3125 0 
L 45.3125 8.40625 
Q 42.046875 3.421875 37.71875 1 
Q 33.40625 -1.421875 27.6875 -1.421875 
Q 18.265625 -1.421875 13.375 4.4375 
Q 8.5 10.296875 8.5 21.578125 
z
M 31.109375 56 
z
" id="DejaVuSans-117"/>
      <path d="M 46 62.703125 
L 46 35.5 
L 73.1875 35.5 
L 73.1875 27.203125 
L 46 27.203125 
L 46 0 
L 37.796875 0 
L 37.796875 27.203125 
L 10.59375 27.203125 
L 10.59375 35.5 
L 37.796875 35.5 
L 37.796875 62.703125 
z
" id="DejaVuSans-43"/>
     </defs>
     <g transform="translate(93.646562 155.270188)scale(0.1 -0.1)">
      <use xlink:href="#DejaVuSans-53"/>
      <use x="63.623047" xlink:href="#DejaVuSans-46"/>
      <use x="95.410156" xlink:href="#DejaVuSans-50"/>
      <use x="159.033203" xlink:href="#DejaVuSans-46"/>
      <use x="190.820312" xlink:href="#DejaVuSans-49"/>
      <use x="254.443359" xlink:href="#DejaVuSans-55"/>
      <use x="318.066406" xlink:href="#DejaVuSans-46"/>
      <use x="349.853516" xlink:href="#DejaVuSans-105"/>
      <use x="377.636719" xlink:href="#DejaVuSans-112"/>
      <use x="441.113281" xlink:href="#DejaVuSans-115"/>
      <use x="493.212891" xlink:href="#DejaVuSans-116"/>
      <use x="532.421875" xlink:href="#DejaVuSans-97"/>
      <use x="593.701172" xlink:href="#DejaVuSans-116"/>
      <use x="632.910156" xlink:href="#DejaVuSans-101"/>
      <use x="694.433594" xlink:href="#DejaVuSans-45"/>
      <use x="730.517578" xlink:href="#DejaVuSans-97"/>
      <use x="791.796875" xlink:href="#DejaVuSans-99"/>
      <use x="846.777344" xlink:href="#DejaVuSans-116"/>
      <use x="885.986328" xlink:href="#DejaVuSans-105"/>
      <use x="913.769531" xlink:href="#DejaVuSans-118"/>
      <use x="972.949219" xlink:href="#DejaVuSans-101"/>
      <use x="1034.472656" xlink:href="#DejaVuSans-45"/>
      <use x="1070.556641" xlink:href="#DejaVuSans-104"/>
      <use x="1133.935547" xlink:href="#DejaVuSans-119"/>
      <use x="1215.722656" xlink:href="#DejaVuSans-112"/>
      <use x="1279.199219" xlink:href="#DejaVuSans-46"/>
      <use x="1310.986328" xlink:href="#DejaVuSans-99"/>
      <use x="1365.966797" xlink:href="#DejaVuSans-105"/>
      <use x="1393.75" xlink:href="#DejaVuSans-110"/>
      <use x="1457.128906" xlink:href="#DejaVuSans-110"/>
      <use x="1520.507812" xlink:href="#DejaVuSans-97"/>
      <use x="1581.787109" xlink:href="#DejaVuSans-109"/>
      <use x="1679.199219" xlink:href="#DejaVuSans-111"/>
      <use x="1740.380859" xlink:href="#DejaVuSans-110"/>
      <use x="1803.759766" xlink:href="#DejaVuSans-46"/>
      <use x="1835.546875" xlink:href="#DejaVuSans-118"/>
      <use x="1894.726562" xlink:href="#DejaVuSans-101"/>
      <use x="1956.25" xlink:href="#DejaVuSans-114"/>
      <use x="1997.363281" xlink:href="#DejaVuSans-105"/>
      <use x="2025.146484" xlink:href="#DejaVuSans-102"/>
      <use x="2058.601562" xlink:href="#DejaVuSans-121"/>
      <use x="2117.78125" xlink:href="#DejaVuSans-120"/>
      <use x="2176.960938" xlink:href="#DejaVuSans-97"/>
      <use x="2238.240234" xlink:href="#DejaVuSans-116"/>
      <use x="2277.449219" xlink:href="#DejaVuSans-116"/>
      <use x="2316.658203" xlink:href="#DejaVuSans-114"/>
      <use x="2348.646484" xlink:href="#DejaVuSans-46"/>
      <use x="2380.433594" xlink:href="#DejaVuSans-119"/>
      <use x="2462.220703" xlink:href="#DejaVuSans-97"/>
      <use x="2523.5" xlink:href="#DejaVuSans-114"/>
      <use x="2562.863281" xlink:href="#DejaVuSans-109"/>
      <use x="2660.275391" xlink:href="#DejaVuSans-117"/>
      <use x="2723.654297" xlink:href="#DejaVuSans-112"/>
      <use x="2787.130859" xlink:href="#DejaVuSans-43"/>
      <use x="2870.919922" xlink:href="#DejaVuSans-109"/>
      <use x="2968.332031" xlink:href="#DejaVuSans-97"/>
      <use x="3029.611328" xlink:href="#DejaVuSans-105"/>
      <use x="3057.394531" xlink:href="#DejaVuSans-110"/>
     </g>
    </g>
    <g id="line2d_24">
     <path d="M 65.646562 166.448313 
L 85.646562 166.448313 
" style="fill:none;stroke:#ff7f0e;stroke-linecap:square;stroke-width:1.5;"/>
    </g>
    <g id="line2d_25"/>
    <g id="text_19">
     <!-- 5.2.17.ipstate-disable.cinnamon.verifyxattr.warmup+main -->
     <defs>
      <path d="M 45.40625 46.390625 
L 45.40625 75.984375 
L 54.390625 75.984375 
L 54.390625 0 
L 45.40625 0 
L 45.40625 8.203125 
Q 42.578125 3.328125 38.25 0.953125 
Q 33.9375 -1.421875 27.875 -1.421875 
Q 17.96875 -1.421875 11.734375 6.484375 
Q 5.515625 14.40625 5.515625 27.296875 
Q 5.515625 40.1875 11.734375 48.09375 
Q 17.96875 56 27.875 56 
Q 33.9375 56 38.25 53.625 
Q 42.578125 51.265625 45.40625 46.390625 
z
M 14.796875 27.296875 
Q 14.796875 17.390625 18.875 11.75 
Q 22.953125 6.109375 30.078125 6.109375 
Q 37.203125 6.109375 41.296875 11.75 
Q 45.40625 17.390625 45.40625 27.296875 
Q 45.40625 37.203125 41.296875 42.84375 
Q 37.203125 48.484375 30.078125 48.484375 
Q 22.953125 48.484375 18.875 42.84375 
Q 14.796875 37.203125 14.796875 27.296875 
z
" id="DejaVuSans-100"/>
      <path d="M 48.6875 27.296875 
Q 48.6875 37.203125 44.609375 42.84375 
Q 40.53125 48.484375 33.40625 48.484375 
Q 26.265625 48.484375 22.1875 42.84375 
Q 18.109375 37.203125 18.109375 27.296875 
Q 18.109375 17.390625 22.1875 11.75 
Q 26.265625 6.109375 33.40625 6.109375 
Q 40.53125 6.109375 44.609375 11.75 
Q 48.6875 17.390625 48.6875 27.296875 
z
M 18.109375 46.390625 
Q 20.953125 51.265625 25.265625 53.625 
Q 29.59375 56 35.59375 56 
Q 45.5625 56 51.78125 48.09375 
Q 58.015625 40.1875 58.015625 27.296875 
Q 58.015625 14.40625 51.78125 6.484375 
Q 45.5625 -1.421875 35.59375 -1.421875 
Q 29.59375 -1.421875 25.265625 0.953125 
Q 20.953125 3.328125 18.109375 8.203125 
L 18.109375 0 
L 9.078125 0 
L 9.078125 75.984375 
L 18.109375 75.984375 
z
" id="DejaVuSans-98"/>
      <path d="M 9.421875 75.984375 
L 18.40625 75.984375 
L 18.40625 0 
L 9.421875 0 
z
" id="DejaVuSans-108"/>
     </defs>
     <g transform="translate(93.646562 169.948313)scale(0.1 -0.1)">
      <use xlink:href="#DejaVuSans-53"/>
      <use x="63.623047" xlink:href="#DejaVuSans-46"/>
      <use x="95.410156" xlink:href="#DejaVuSans-50"/>
      <use x="159.033203" xlink:href="#DejaVuSans-46"/>
      <use x="190.820312" xlink:href="#DejaVuSans-49"/>
      <use x="254.443359" xlink:href="#DejaVuSans-55"/>
      <use x="318.066406" xlink:href="#DejaVuSans-46"/>
      <use x="349.853516" xlink:href="#DejaVuSans-105"/>
      <use x="377.636719" xlink:href="#DejaVuSans-112"/>
      <use x="441.113281" xlink:href="#DejaVuSans-115"/>
      <use x="493.212891" xlink:href="#DejaVuSans-116"/>
      <use x="532.421875" xlink:href="#DejaVuSans-97"/>
      <use x="593.701172" xlink:href="#DejaVuSans-116"/>
      <use x="632.910156" xlink:href="#DejaVuSans-101"/>
      <use x="694.433594" xlink:href="#DejaVuSans-45"/>
      <use x="730.517578" xlink:href="#DejaVuSans-100"/>
      <use x="793.994141" xlink:href="#DejaVuSans-105"/>
      <use x="821.777344" xlink:href="#DejaVuSans-115"/>
      <use x="873.876953" xlink:href="#DejaVuSans-97"/>
      <use x="935.15625" xlink:href="#DejaVuSans-98"/>
      <use x="998.632812" xlink:href="#DejaVuSans-108"/>
      <use x="1026.416016" xlink:href="#DejaVuSans-101"/>
      <use x="1087.939453" xlink:href="#DejaVuSans-46"/>
      <use x="1119.726562" xlink:href="#DejaVuSans-99"/>
      <use x="1174.707031" xlink:href="#DejaVuSans-105"/>
      <use x="1202.490234" xlink:href="#DejaVuSans-110"/>
      <use x="1265.869141" xlink:href="#DejaVuSans-110"/>
      <use x="1329.248047" xlink:href="#DejaVuSans-97"/>
      <use x="1390.527344" xlink:href="#DejaVuSans-109"/>
      <use x="1487.939453" xlink:href="#DejaVuSans-111"/>
      <use x="1549.121094" xlink:href="#DejaVuSans-110"/>
      <use x="1612.5" xlink:href="#DejaVuSans-46"/>
      <use x="1644.287109" xlink:href="#DejaVuSans-118"/>
      <use x="1703.466797" xlink:href="#DejaVuSans-101"/>
      <use x="1764.990234" xlink:href="#DejaVuSans-114"/>
      <use x="1806.103516" xlink:href="#DejaVuSans-105"/>
      <use x="1833.886719" xlink:href="#DejaVuSans-102"/>
      <use x="1867.341797" xlink:href="#DejaVuSans-121"/>
      <use x="1926.521484" xlink:href="#DejaVuSans-120"/>
      <use x="1985.701172" xlink:href="#DejaVuSans-97"/>
      <use x="2046.980469" xlink:href="#DejaVuSans-116"/>
      <use x="2086.189453" xlink:href="#DejaVuSans-116"/>
      <use x="2125.398438" xlink:href="#DejaVuSans-114"/>
      <use x="2157.386719" xlink:href="#DejaVuSans-46"/>
      <use x="2189.173828" xlink:href="#DejaVuSans-119"/>
      <use x="2270.960938" xlink:href="#DejaVuSans-97"/>
      <use x="2332.240234" xlink:href="#DejaVuSans-114"/>
      <use x="2371.603516" xlink:href="#DejaVuSans-109"/>
      <use x="2469.015625" xlink:href="#DejaVuSans-117"/>
      <use x="2532.394531" xlink:href="#DejaVuSans-112"/>
      <use x="2595.871094" xlink:href="#DejaVuSans-43"/>
      <use x="2679.660156" xlink:href="#DejaVuSans-109"/>
      <use x="2777.072266" xlink:href="#DejaVuSans-97"/>
      <use x="2838.351562" xlink:href="#DejaVuSans-105"/>
      <use x="2866.134766" xlink:href="#DejaVuSans-110"/>
     </g>
    </g>
    <g id="line2d_26">
     <path d="M 65.646562 181.126438 
L 85.646562 181.126438 
" style="fill:none;stroke:#2ca02c;stroke-linecap:square;stroke-width:1.5;"/>
    </g>
    <g id="line2d_27"/>
    <g id="text_20">
     <!-- 5.5.13.ipstate-active-hwp.cinnamon.verifyxattr.warmup+main -->
     <defs>
      <path d="M 40.578125 39.3125 
Q 47.65625 37.796875 51.625 33 
Q 55.609375 28.21875 55.609375 21.1875 
Q 55.609375 10.40625 48.1875 4.484375 
Q 40.765625 -1.421875 27.09375 -1.421875 
Q 22.515625 -1.421875 17.65625 -0.515625 
Q 12.796875 0.390625 7.625 2.203125 
L 7.625 11.71875 
Q 11.71875 9.328125 16.59375 8.109375 
Q 21.484375 6.890625 26.8125 6.890625 
Q 36.078125 6.890625 40.9375 10.546875 
Q 45.796875 14.203125 45.796875 21.1875 
Q 45.796875 27.640625 41.28125 31.265625 
Q 36.765625 34.90625 28.71875 34.90625 
L 20.21875 34.90625 
L 20.21875 43.015625 
L 29.109375 43.015625 
Q 36.375 43.015625 40.234375 45.921875 
Q 44.09375 48.828125 44.09375 54.296875 
Q 44.09375 59.90625 40.109375 62.90625 
Q 36.140625 65.921875 28.71875 65.921875 
Q 24.65625 65.921875 20.015625 65.03125 
Q 15.375 64.15625 9.8125 62.3125 
L 9.8125 71.09375 
Q 15.4375 72.65625 20.34375 73.4375 
Q 25.25 74.21875 29.59375 74.21875 
Q 40.828125 74.21875 47.359375 69.109375 
Q 53.90625 64.015625 53.90625 55.328125 
Q 53.90625 49.265625 50.4375 45.09375 
Q 46.96875 40.921875 40.578125 39.3125 
z
" id="DejaVuSans-51"/>
     </defs>
     <g transform="translate(93.646562 184.626438)scale(0.1 -0.1)">
      <use xlink:href="#DejaVuSans-53"/>
      <use x="63.623047" xlink:href="#DejaVuSans-46"/>
      <use x="95.410156" xlink:href="#DejaVuSans-53"/>
      <use x="159.033203" xlink:href="#DejaVuSans-46"/>
      <use x="190.820312" xlink:href="#DejaVuSans-49"/>
      <use x="254.443359" xlink:href="#DejaVuSans-51"/>
      <use x="318.066406" xlink:href="#DejaVuSans-46"/>
      <use x="349.853516" xlink:href="#DejaVuSans-105"/>
      <use x="377.636719" xlink:href="#DejaVuSans-112"/>
      <use x="441.113281" xlink:href="#DejaVuSans-115"/>
      <use x="493.212891" xlink:href="#DejaVuSans-116"/>
      <use x="532.421875" xlink:href="#DejaVuSans-97"/>
      <use x="593.701172" xlink:href="#DejaVuSans-116"/>
      <use x="632.910156" xlink:href="#DejaVuSans-101"/>
      <use x="694.433594" xlink:href="#DejaVuSans-45"/>
      <use x="730.517578" xlink:href="#DejaVuSans-97"/>
      <use x="791.796875" xlink:href="#DejaVuSans-99"/>
      <use x="846.777344" xlink:href="#DejaVuSans-116"/>
      <use x="885.986328" xlink:href="#DejaVuSans-105"/>
      <use x="913.769531" xlink:href="#DejaVuSans-118"/>
      <use x="972.949219" xlink:href="#DejaVuSans-101"/>
      <use x="1034.472656" xlink:href="#DejaVuSans-45"/>
      <use x="1070.556641" xlink:href="#DejaVuSans-104"/>
      <use x="1133.935547" xlink:href="#DejaVuSans-119"/>
      <use x="1215.722656" xlink:href="#DejaVuSans-112"/>
      <use x="1279.199219" xlink:href="#DejaVuSans-46"/>
      <use x="1310.986328" xlink:href="#DejaVuSans-99"/>
      <use x="1365.966797" xlink:href="#DejaVuSans-105"/>
      <use x="1393.75" xlink:href="#DejaVuSans-110"/>
      <use x="1457.128906" xlink:href="#DejaVuSans-110"/>
      <use x="1520.507812" xlink:href="#DejaVuSans-97"/>
      <use x="1581.787109" xlink:href="#DejaVuSans-109"/>
      <use x="1679.199219" xlink:href="#DejaVuSans-111"/>
      <use x="1740.380859" xlink:href="#DejaVuSans-110"/>
      <use x="1803.759766" xlink:href="#DejaVuSans-46"/>
      <use x="1835.546875" xlink:href="#DejaVuSans-118"/>
      <use x="1894.726562" xlink:href="#DejaVuSans-101"/>
      <use x="1956.25" xlink:href="#DejaVuSans-114"/>
      <use x="1997.363281" xlink:href="#DejaVuSans-105"/>
      <use x="2025.146484" xlink:href="#DejaVuSans-102"/>
      <use x="2058.601562" xlink:href="#DejaVuSans-121"/>
      <use x="2117.78125" xlink:href="#DejaVuSans-120"/>
      <use x="2176.960938" xlink:href="#DejaVuSans-97"/>
      <use x="2238.240234" xlink:href="#DejaVuSans-116"/>
      <use x="2277.449219" xlink:href="#DejaVuSans-116"/>
      <use x="2316.658203" xlink:href="#DejaVuSans-114"/>
      <use x="2348.646484" xlink:href="#DejaVuSans-46"/>
      <use x="2380.433594" xlink:href="#DejaVuSans-119"/>
      <use x="2462.220703" xlink:href="#DejaVuSans-97"/>
      <use x="2523.5" xlink:href="#DejaVuSans-114"/>
      <use x="2562.863281" xlink:href="#DejaVuSans-109"/>
      <use x="2660.275391" xlink:href="#DejaVuSans-117"/>
      <use x="2723.654297" xlink:href="#DejaVuSans-112"/>
      <use x="2787.130859" xlink:href="#DejaVuSans-43"/>
      <use x="2870.919922" xlink:href="#DejaVuSans-109"/>
      <use x="2968.332031" xlink:href="#DejaVuSans-97"/>
      <use x="3029.611328" xlink:href="#DejaVuSans-105"/>
      <use x="3057.394531" xlink:href="#DejaVuSans-110"/>
     </g>
    </g>
    <g id="line2d_28">
     <path d="M 65.646562 195.804563 
L 85.646562 195.804563 
" style="fill:none;stroke:#d62728;stroke-linecap:square;stroke-width:1.5;"/>
    </g>
    <g id="line2d_29"/>
    <g id="text_21">
     <!-- 5.5.13.ipstate-disable.cinnamon.verifyxattr.warmup+main -->
     <g transform="translate(93.646562 199.304563)scale(0.1 -0.1)">
      <use xlink:href="#DejaVuSans-53"/>
      <use x="63.623047" xlink:href="#DejaVuSans-46"/>
      <use x="95.410156" xlink:href="#DejaVuSans-53"/>
      <use x="159.033203" xlink:href="#DejaVuSans-46"/>
      <use x="190.820312" xlink:href="#DejaVuSans-49"/>
      <use x="254.443359" xlink:href="#DejaVuSans-51"/>
      <use x="318.066406" xlink:href="#DejaVuSans-46"/>
      <use x="349.853516" xlink:href="#DejaVuSans-105"/>
      <use x="377.636719" xlink:href="#DejaVuSans-112"/>
      <use x="441.113281" xlink:href="#DejaVuSans-115"/>
      <use x="493.212891" xlink:href="#DejaVuSans-116"/>
      <use x="532.421875" xlink:href="#DejaVuSans-97"/>
      <use x="593.701172" xlink:href="#DejaVuSans-116"/>
      <use x="632.910156" xlink:href="#DejaVuSans-101"/>
      <use x="694.433594" xlink:href="#DejaVuSans-45"/>
      <use x="730.517578" xlink:href="#DejaVuSans-100"/>
      <use x="793.994141" xlink:href="#DejaVuSans-105"/>
      <use x="821.777344" xlink:href="#DejaVuSans-115"/>
      <use x="873.876953" xlink:href="#DejaVuSans-97"/>
      <use x="935.15625" xlink:href="#DejaVuSans-98"/>
      <use x="998.632812" xlink:href="#DejaVuSans-108"/>
      <use x="1026.416016" xlink:href="#DejaVuSans-101"/>
      <use x="1087.939453" xlink:href="#DejaVuSans-46"/>
      <use x="1119.726562" xlink:href="#DejaVuSans-99"/>
      <use x="1174.707031" xlink:href="#DejaVuSans-105"/>
      <use x="1202.490234" xlink:href="#DejaVuSans-110"/>
      <use x="1265.869141" xlink:href="#DejaVuSans-110"/>
      <use x="1329.248047" xlink:href="#DejaVuSans-97"/>
      <use x="1390.527344" xlink:href="#DejaVuSans-109"/>
      <use x="1487.939453" xlink:href="#DejaVuSans-111"/>
      <use x="1549.121094" xlink:href="#DejaVuSans-110"/>
      <use x="1612.5" xlink:href="#DejaVuSans-46"/>
      <use x="1644.287109" xlink:href="#DejaVuSans-118"/>
      <use x="1703.466797" xlink:href="#DejaVuSans-101"/>
      <use x="1764.990234" xlink:href="#DejaVuSans-114"/>
      <use x="1806.103516" xlink:href="#DejaVuSans-105"/>
      <use x="1833.886719" xlink:href="#DejaVuSans-102"/>
      <use x="1867.341797" xlink:href="#DejaVuSans-121"/>
      <use x="1926.521484" xlink:href="#DejaVuSans-120"/>
      <use x="1985.701172" xlink:href="#DejaVuSans-97"/>
      <use x="2046.980469" xlink:href="#DejaVuSans-116"/>
      <use x="2086.189453" xlink:href="#DejaVuSans-116"/>
      <use x="2125.398438" xlink:href="#DejaVuSans-114"/>
      <use x="2157.386719" xlink:href="#DejaVuSans-46"/>
      <use x="2189.173828" xlink:href="#DejaVuSans-119"/>
      <use x="2270.960938" xlink:href="#DejaVuSans-97"/>
      <use x="2332.240234" xlink:href="#DejaVuSans-114"/>
      <use x="2371.603516" xlink:href="#DejaVuSans-109"/>
      <use x="2469.015625" xlink:href="#DejaVuSans-117"/>
      <use x="2532.394531" xlink:href="#DejaVuSans-112"/>
      <use x="2595.871094" xlink:href="#DejaVuSans-43"/>
      <use x="2679.660156" xlink:href="#DejaVuSans-109"/>
      <use x="2777.072266" xlink:href="#DejaVuSans-97"/>
      <use x="2838.351562" xlink:href="#DejaVuSans-105"/>
      <use x="2866.134766" xlink:href="#DejaVuSans-110"/>
     </g>
    </g>
   </g>
  </g>
 </g>
 <defs>
  <clipPath id="p99adb6d92c">
   <rect height="266.112" width="357.12" x="57.6" y="41.472"/>
  </clipPath>
 </defs>
</svg>
