<?xml version="1.0" encoding="utf-8" standalone="no"?>
<!DOCTYPE svg PUBLIC "-//W3C//DTD SVG 1.1//EN"
  "http://www.w3.org/Graphics/SVG/1.1/DTD/svg11.dtd">
<!-- Created with matplotlib (https://matplotlib.org/) -->
<svg height="345.6pt" version="1.1" viewBox="0 0 460.8 345.6" width="460.8pt" xmlns="http://www.w3.org/2000/svg" xmlns:xlink="http://www.w3.org/1999/xlink">
 <defs>
  <style type="text/css">
*{stroke-linecap:butt;stroke-linejoin:round;}
  </style>
 </defs>
 <g id="figure_1">
  <g id="patch_1">
   <path d="M 0 345.6 
L 460.8 345.6 
L 460.8 0 
L 0 0 
z
" style="fill:#ffffff;"/>
  </g>
  <g id="axes_1">
   <g id="patch_2">
    <path d="M 57.6 307.584 
L 414.72 307.584 
L 414.72 41.472 
L 57.6 41.472 
z
" style="fill:#ffffff;"/>
   </g>
   <g id="matplotlib.axis_1">
    <g id="xtick_1">
     <g id="line2d_1">
      <defs>
       <path d="M 0 0 
L 0 3.5 
" id="m9ae7327719" style="stroke:#000000;stroke-width:0.8;"/>
      </defs>
      <g>
       <use style="stroke:#000000;stroke-width:0.8;" x="57.6" xlink:href="#m9ae7327719" y="307.584"/>
      </g>
     </g>
     <g id="text_1">
      <!-- 0 -->
      <defs>
       <path d="M 31.78125 66.40625 
Q 24.171875 66.40625 20.328125 58.90625 
Q 16.5 51.421875 16.5 36.375 
Q 16.5 21.390625 20.328125 13.890625 
Q 24.171875 6.390625 31.78125 6.390625 
Q 39.453125 6.390625 43.28125 13.890625 
Q 47.125 21.390625 47.125 36.375 
Q 47.125 51.421875 43.28125 58.90625 
Q 39.453125 66.40625 31.78125 66.40625 
z
M 31.78125 74.21875 
Q 44.046875 74.21875 50.515625 64.515625 
Q 56.984375 54.828125 56.984375 36.375 
Q 56.984375 17.96875 50.515625 8.265625 
Q 44.046875 -1.421875 31.78125 -1.421875 
Q 19.53125 -1.421875 13.0625 8.265625 
Q 6.59375 17.96875 6.59375 36.375 
Q 6.59375 54.828125 13.0625 64.515625 
Q 19.53125 74.21875 31.78125 74.21875 
z
" id="DejaVuSans-48"/>
      </defs>
      <g transform="translate(54.41875 322.182437)scale(0.1 -0.1)">
       <use xlink:href="#DejaVuSans-48"/>
      </g>
     </g>
    </g>
    <g id="xtick_2">
     <g id="line2d_2">
      <g>
       <use style="stroke:#000000;stroke-width:0.8;" x="103.68" xlink:href="#m9ae7327719" y="307.584"/>
      </g>
     </g>
     <g id="text_2">
      <!-- 20 -->
      <defs>
       <path d="M 19.1875 8.296875 
L 53.609375 8.296875 
L 53.609375 0 
L 7.328125 0 
L 7.328125 8.296875 
Q 12.9375 14.109375 22.625 23.890625 
Q 32.328125 33.6875 34.8125 36.53125 
Q 39.546875 41.84375 41.421875 45.53125 
Q 43.3125 49.21875 43.3125 52.78125 
Q 43.3125 58.59375 39.234375 62.25 
Q 35.15625 65.921875 28.609375 65.921875 
Q 23.96875 65.921875 18.8125 64.3125 
Q 13.671875 62.703125 7.8125 59.421875 
L 7.8125 69.390625 
Q 13.765625 71.78125 18.9375 73 
Q 24.125 74.21875 28.421875 74.21875 
Q 39.75 74.21875 46.484375 68.546875 
Q 53.21875 62.890625 53.21875 53.421875 
Q 53.21875 48.921875 51.53125 44.890625 
Q 49.859375 40.875 45.40625 35.40625 
Q 44.1875 33.984375 37.640625 27.21875 
Q 31.109375 20.453125 19.1875 8.296875 
z
" id="DejaVuSans-50"/>
      </defs>
      <g transform="translate(97.3175 322.182437)scale(0.1 -0.1)">
       <use xlink:href="#DejaVuSans-50"/>
       <use x="63.623047" xlink:href="#DejaVuSans-48"/>
      </g>
     </g>
    </g>
    <g id="xtick_3">
     <g id="line2d_3">
      <g>
       <use style="stroke:#000000;stroke-width:0.8;" x="149.76" xlink:href="#m9ae7327719" y="307.584"/>
      </g>
     </g>
     <g id="text_3">
      <!-- 40 -->
      <defs>
       <path d="M 37.796875 64.3125 
L 12.890625 25.390625 
L 37.796875 25.390625 
z
M 35.203125 72.90625 
L 47.609375 72.90625 
L 47.609375 25.390625 
L 58.015625 25.390625 
L 58.015625 17.1875 
L 47.609375 17.1875 
L 47.609375 0 
L 37.796875 0 
L 37.796875 17.1875 
L 4.890625 17.1875 
L 4.890625 26.703125 
z
" id="DejaVuSans-52"/>
      </defs>
      <g transform="translate(143.3975 322.182437)scale(0.1 -0.1)">
       <use xlink:href="#DejaVuSans-52"/>
       <use x="63.623047" xlink:href="#DejaVuSans-48"/>
      </g>
     </g>
    </g>
    <g id="xtick_4">
     <g id="line2d_4">
      <g>
       <use style="stroke:#000000;stroke-width:0.8;" x="195.84" xlink:href="#m9ae7327719" y="307.584"/>
      </g>
     </g>
     <g id="text_4">
      <!-- 60 -->
      <defs>
       <path d="M 33.015625 40.375 
Q 26.375 40.375 22.484375 35.828125 
Q 18.609375 31.296875 18.609375 23.390625 
Q 18.609375 15.53125 22.484375 10.953125 
Q 26.375 6.390625 33.015625 6.390625 
Q 39.65625 6.390625 43.53125 10.953125 
Q 47.40625 15.53125 47.40625 23.390625 
Q 47.40625 31.296875 43.53125 35.828125 
Q 39.65625 40.375 33.015625 40.375 
z
M 52.59375 71.296875 
L 52.59375 62.3125 
Q 48.875 64.0625 45.09375 64.984375 
Q 41.3125 65.921875 37.59375 65.921875 
Q 27.828125 65.921875 22.671875 59.328125 
Q 17.53125 52.734375 16.796875 39.40625 
Q 19.671875 43.65625 24.015625 45.921875 
Q 28.375 48.1875 33.59375 48.1875 
Q 44.578125 48.1875 50.953125 41.515625 
Q 57.328125 34.859375 57.328125 23.390625 
Q 57.328125 12.15625 50.6875 5.359375 
Q 44.046875 -1.421875 33.015625 -1.421875 
Q 20.359375 -1.421875 13.671875 8.265625 
Q 6.984375 17.96875 6.984375 36.375 
Q 6.984375 53.65625 15.1875 63.9375 
Q 23.390625 74.21875 37.203125 74.21875 
Q 40.921875 74.21875 44.703125 73.484375 
Q 48.484375 72.75 52.59375 71.296875 
z
" id="DejaVuSans-54"/>
      </defs>
      <g transform="translate(189.4775 322.182437)scale(0.1 -0.1)">
       <use xlink:href="#DejaVuSans-54"/>
       <use x="63.623047" xlink:href="#DejaVuSans-48"/>
      </g>
     </g>
    </g>
    <g id="xtick_5">
     <g id="line2d_5">
      <g>
       <use style="stroke:#000000;stroke-width:0.8;" x="241.92" xlink:href="#m9ae7327719" y="307.584"/>
      </g>
     </g>
     <g id="text_5">
      <!-- 80 -->
      <defs>
       <path d="M 31.78125 34.625 
Q 24.75 34.625 20.71875 30.859375 
Q 16.703125 27.09375 16.703125 20.515625 
Q 16.703125 13.921875 20.71875 10.15625 
Q 24.75 6.390625 31.78125 6.390625 
Q 38.8125 6.390625 42.859375 10.171875 
Q 46.921875 13.96875 46.921875 20.515625 
Q 46.921875 27.09375 42.890625 30.859375 
Q 38.875 34.625 31.78125 34.625 
z
M 21.921875 38.8125 
Q 15.578125 40.375 12.03125 44.71875 
Q 8.5 49.078125 8.5 55.328125 
Q 8.5 64.0625 14.71875 69.140625 
Q 20.953125 74.21875 31.78125 74.21875 
Q 42.671875 74.21875 48.875 69.140625 
Q 55.078125 64.0625 55.078125 55.328125 
Q 55.078125 49.078125 51.53125 44.71875 
Q 48 40.375 41.703125 38.8125 
Q 48.828125 37.15625 52.796875 32.3125 
Q 56.78125 27.484375 56.78125 20.515625 
Q 56.78125 9.90625 50.3125 4.234375 
Q 43.84375 -1.421875 31.78125 -1.421875 
Q 19.734375 -1.421875 13.25 4.234375 
Q 6.78125 9.90625 6.78125 20.515625 
Q 6.78125 27.484375 10.78125 32.3125 
Q 14.796875 37.15625 21.921875 38.8125 
z
M 18.3125 54.390625 
Q 18.3125 48.734375 21.84375 45.5625 
Q 25.390625 42.390625 31.78125 42.390625 
Q 38.140625 42.390625 41.71875 45.5625 
Q 45.3125 48.734375 45.3125 54.390625 
Q 45.3125 60.0625 41.71875 63.234375 
Q 38.140625 66.40625 31.78125 66.40625 
Q 25.390625 66.40625 21.84375 63.234375 
Q 18.3125 60.0625 18.3125 54.390625 
z
" id="DejaVuSans-56"/>
      </defs>
      <g transform="translate(235.5575 322.182437)scale(0.1 -0.1)">
       <use xlink:href="#DejaVuSans-56"/>
       <use x="63.623047" xlink:href="#DejaVuSans-48"/>
      </g>
     </g>
    </g>
    <g id="xtick_6">
     <g id="line2d_6">
      <g>
       <use style="stroke:#000000;stroke-width:0.8;" x="288" xlink:href="#m9ae7327719" y="307.584"/>
      </g>
     </g>
     <g id="text_6">
      <!-- 100 -->
      <defs>
       <path d="M 12.40625 8.296875 
L 28.515625 8.296875 
L 28.515625 63.921875 
L 10.984375 60.40625 
L 10.984375 69.390625 
L 28.421875 72.90625 
L 38.28125 72.90625 
L 38.28125 8.296875 
L 54.390625 8.296875 
L 54.390625 0 
L 12.40625 0 
z
" id="DejaVuSans-49"/>
      </defs>
      <g transform="translate(278.45625 322.182437)scale(0.1 -0.1)">
       <use xlink:href="#DejaVuSans-49"/>
       <use x="63.623047" xlink:href="#DejaVuSans-48"/>
       <use x="127.246094" xlink:href="#DejaVuSans-48"/>
      </g>
     </g>
    </g>
    <g id="xtick_7">
     <g id="line2d_7">
      <g>
       <use style="stroke:#000000;stroke-width:0.8;" x="334.08" xlink:href="#m9ae7327719" y="307.584"/>
      </g>
     </g>
     <g id="text_7">
      <!-- 120 -->
      <g transform="translate(324.53625 322.182437)scale(0.1 -0.1)">
       <use xlink:href="#DejaVuSans-49"/>
       <use x="63.623047" xlink:href="#DejaVuSans-50"/>
       <use x="127.246094" xlink:href="#DejaVuSans-48"/>
      </g>
     </g>
    </g>
    <g id="xtick_8">
     <g id="line2d_8">
      <g>
       <use style="stroke:#000000;stroke-width:0.8;" x="380.16" xlink:href="#m9ae7327719" y="307.584"/>
      </g>
     </g>
     <g id="text_8">
      <!-- 140 -->
      <g transform="translate(370.61625 322.182437)scale(0.1 -0.1)">
       <use xlink:href="#DejaVuSans-49"/>
       <use x="63.623047" xlink:href="#DejaVuSans-52"/>
       <use x="127.246094" xlink:href="#DejaVuSans-48"/>
      </g>
     </g>
    </g>
   </g>
   <g id="matplotlib.axis_2">
    <g id="ytick_1">
     <g id="line2d_9">
      <defs>
       <path d="M 0 0 
L -3.5 0 
" id="m3ebccc6235" style="stroke:#000000;stroke-width:0.8;"/>
      </defs>
      <g>
       <use style="stroke:#000000;stroke-width:0.8;" x="57.6" xlink:href="#m3ebccc6235" y="306.568305"/>
      </g>
     </g>
     <g id="text_9">
      <!-- 55 -->
      <defs>
       <path d="M 10.796875 72.90625 
L 49.515625 72.90625 
L 49.515625 64.59375 
L 19.828125 64.59375 
L 19.828125 46.734375 
Q 21.96875 47.46875 24.109375 47.828125 
Q 26.265625 48.1875 28.421875 48.1875 
Q 40.625 48.1875 47.75 41.5 
Q 54.890625 34.8125 54.890625 23.390625 
Q 54.890625 11.625 47.5625 5.09375 
Q 40.234375 -1.421875 26.90625 -1.421875 
Q 22.3125 -1.421875 17.546875 -0.640625 
Q 12.796875 0.140625 7.71875 1.703125 
L 7.71875 11.625 
Q 12.109375 9.234375 16.796875 8.0625 
Q 21.484375 6.890625 26.703125 6.890625 
Q 35.15625 6.890625 40.078125 11.328125 
Q 45.015625 15.765625 45.015625 23.390625 
Q 45.015625 31 40.078125 35.4375 
Q 35.15625 39.890625 26.703125 39.890625 
Q 22.75 39.890625 18.8125 39.015625 
Q 14.890625 38.140625 10.796875 36.28125 
z
" id="DejaVuSans-53"/>
      </defs>
      <g transform="translate(37.875 310.367524)scale(0.1 -0.1)">
       <use xlink:href="#DejaVuSans-53"/>
       <use x="63.623047" xlink:href="#DejaVuSans-53"/>
      </g>
     </g>
    </g>
    <g id="ytick_2">
     <g id="line2d_10">
      <g>
       <use style="stroke:#000000;stroke-width:0.8;" x="57.6" xlink:href="#m3ebccc6235" y="260.400366"/>
      </g>
     </g>
     <g id="text_10">
      <!-- 60 -->
      <g transform="translate(37.875 264.199585)scale(0.1 -0.1)">
       <use xlink:href="#DejaVuSans-54"/>
       <use x="63.623047" xlink:href="#DejaVuSans-48"/>
      </g>
     </g>
    </g>
    <g id="ytick_3">
     <g id="line2d_11">
      <g>
       <use style="stroke:#000000;stroke-width:0.8;" x="57.6" xlink:href="#m3ebccc6235" y="214.232427"/>
      </g>
     </g>
     <g id="text_11">
      <!-- 65 -->
      <g transform="translate(37.875 218.031646)scale(0.1 -0.1)">
       <use xlink:href="#DejaVuSans-54"/>
       <use x="63.623047" xlink:href="#DejaVuSans-53"/>
      </g>
     </g>
    </g>
    <g id="ytick_4">
     <g id="line2d_12">
      <g>
       <use style="stroke:#000000;stroke-width:0.8;" x="57.6" xlink:href="#m3ebccc6235" y="168.064489"/>
      </g>
     </g>
     <g id="text_12">
      <!-- 70 -->
      <defs>
       <path d="M 8.203125 72.90625 
L 55.078125 72.90625 
L 55.078125 68.703125 
L 28.609375 0 
L 18.3125 0 
L 43.21875 64.59375 
L 8.203125 64.59375 
z
" id="DejaVuSans-55"/>
      </defs>
      <g transform="translate(37.875 171.863707)scale(0.1 -0.1)">
       <use xlink:href="#DejaVuSans-55"/>
       <use x="63.623047" xlink:href="#DejaVuSans-48"/>
      </g>
     </g>
    </g>
    <g id="ytick_5">
     <g id="line2d_13">
      <g>
       <use style="stroke:#000000;stroke-width:0.8;" x="57.6" xlink:href="#m3ebccc6235" y="121.89655"/>
      </g>
     </g>
     <g id="text_13">
      <!-- 75 -->
      <g transform="translate(37.875 125.695768)scale(0.1 -0.1)">
       <use xlink:href="#DejaVuSans-55"/>
       <use x="63.623047" xlink:href="#DejaVuSans-53"/>
      </g>
     </g>
    </g>
    <g id="ytick_6">
     <g id="line2d_14">
      <g>
       <use style="stroke:#000000;stroke-width:0.8;" x="57.6" xlink:href="#m3ebccc6235" y="75.728611"/>
      </g>
     </g>
     <g id="text_14">
      <!-- 80 -->
      <g transform="translate(37.875 79.527829)scale(0.1 -0.1)">
       <use xlink:href="#DejaVuSans-56"/>
       <use x="63.623047" xlink:href="#DejaVuSans-48"/>
      </g>
     </g>
    </g>
   </g>
   <g id="line2d_15">
    <path clip-path="url(#p23fdfa5bab)" d="M 66.816 247.473344 
L 69.12 240.086473 
L 71.424 249.320061 
L 73.728 247.473344 
L 76.032 253.013496 
L 78.336 241.933191 
L 80.64 241.933191 
L 82.944 236.393038 
L 85.248 240.086473 
L 87.552 238.239756 
L 89.856 232.699603 
L 92.16 217.925863 
L 94.464 216.079145 
L 96.768 208.692275 
L 99.072 204.99884 
L 101.376 214.232427 
L 103.68 221.619298 
L 105.984 217.925863 
L 108.288 219.77258 
L 110.592 208.692275 
L 112.896 192.071817 
L 115.2 192.071817 
L 117.504 190.225099 
L 119.808 175.451359 
L 122.112 173.604641 
L 124.416 184.684947 
L 126.72 177.298076 
L 129.024 164.371053 
L 131.328 162.524336 
L 133.632 156.984183 
L 135.936 149.597313 
L 138.24 147.750595 
L 140.544 147.750595 
L 142.848 149.597313 
L 145.152 158.830901 
L 147.456 156.984183 
L 149.76 156.984183 
L 152.064 155.137466 
L 154.368 162.524336 
L 156.672 149.597313 
L 158.976 155.137466 
L 161.28 155.137466 
L 163.584 164.371053 
L 165.888 151.444031 
L 168.192 162.524336 
L 172.8 158.830901 
L 175.104 145.903878 
L 177.408 155.137466 
L 179.712 155.137466 
L 182.016 140.363725 
L 186.624 136.67029 
L 191.232 136.67029 
L 193.536 149.597313 
L 195.84 149.597313 
L 198.144 147.750595 
L 200.448 149.597313 
L 202.752 132.976855 
L 205.056 121.89655 
L 207.36 121.89655 
L 209.664 140.363725 
L 211.968 138.517008 
L 214.272 145.903878 
L 216.576 155.137466 
L 218.88 147.750595 
L 221.184 142.210443 
L 223.488 132.976855 
L 225.792 125.589985 
L 228.096 125.589985 
L 230.4 131.130137 
L 232.704 129.28342 
L 235.008 121.89655 
L 237.312 134.823573 
L 239.616 134.823573 
L 241.92 121.89655 
L 244.224 120.049832 
L 246.528 132.976855 
L 248.832 131.130137 
L 251.136 127.436702 
L 253.44 127.436702 
L 255.744 118.203115 
L 258.048 118.203115 
L 260.352 103.429374 
L 262.656 105.276092 
L 264.96 116.356397 
L 267.264 112.662962 
L 269.568 110.816244 
L 271.872 110.816244 
L 274.176 97.889221 
L 276.48 86.808916 
L 278.784 88.655634 
L 281.088 92.349069 
L 283.392 105.276092 
L 285.696 116.356397 
L 288 116.356397 
L 290.304 112.662962 
L 292.608 107.122809 
L 294.912 97.889221 
L 297.216 96.042504 
L 299.52 103.429374 
L 301.824 103.429374 
L 304.128 92.349069 
L 306.432 99.735939 
L 311.04 99.735939 
L 313.344 103.429374 
L 315.648 114.509679 
L 317.952 103.429374 
L 320.256 103.429374 
L 322.56 101.582656 
L 324.864 110.816244 
L 329.472 107.122809 
L 331.776 94.195786 
L 334.08 83.115481 
L 336.384 70.188458 
L 340.992 73.881893 
L 343.296 84.962198 
L 347.904 103.429374 
L 350.208 99.735939 
L 352.512 99.735939 
L 354.816 88.655634 
L 357.12 83.115481 
L 359.424 83.115481 
L 361.728 73.881893 
L 364.032 72.035176 
L 366.336 83.115481 
L 368.64 90.502351 
L 370.944 90.502351 
L 373.248 99.735939 
L 375.552 99.735939 
L 382.464 66.495023 
L 384.768 66.495023 
L 387.072 64.648305 
L 391.68 64.648305 
L 393.984 72.035176 
L 396.288 72.035176 
L 398.592 83.115481 
L 400.896 81.268763 
L 403.2 83.115481 
L 405.504 75.728611 
L 407.808 72.035176 
L 410.112 72.035176 
L 412.416 73.881893 
L 414.72 79.422046 
L 414.72 79.422046 
" style="fill:none;stroke:#1f77b4;stroke-linecap:square;stroke-width:1.5;"/>
   </g>
   <g id="line2d_16">
    <path clip-path="url(#p23fdfa5bab)" d="M 66.816 295.488 
L 69.12 291.794565 
L 71.424 295.488 
L 73.728 288.10113 
L 76.032 289.947847 
L 80.64 289.947847 
L 85.248 286.254412 
L 87.552 286.254412 
L 89.856 284.407695 
L 92.16 277.020824 
L 94.464 275.174107 
L 96.768 278.867542 
L 99.072 273.327389 
L 101.376 265.940519 
L 103.68 269.633954 
L 105.984 264.093802 
L 108.288 264.093802 
L 110.592 267.787237 
L 112.896 273.327389 
L 115.2 271.480672 
L 117.504 275.174107 
L 119.808 271.480672 
L 122.112 269.633954 
L 124.416 262.247084 
L 129.024 251.166779 
L 133.632 251.166779 
L 135.936 256.706931 
L 138.24 260.400366 
L 140.544 260.400366 
L 142.848 256.706931 
L 145.152 254.860214 
L 147.456 247.473344 
L 149.76 241.933191 
L 154.368 245.626626 
L 156.672 240.086473 
L 158.976 241.933191 
L 161.28 245.626626 
L 163.584 245.626626 
L 165.888 243.779908 
L 175.104 243.779908 
L 177.408 245.626626 
L 179.712 243.779908 
L 182.016 240.086473 
L 184.32 238.239756 
L 186.624 232.699603 
L 188.928 234.546321 
L 191.232 234.546321 
L 193.536 238.239756 
L 195.84 234.546321 
L 198.144 234.546321 
L 200.448 227.15945 
L 202.752 230.852885 
L 205.056 232.699603 
L 209.664 232.699603 
L 211.968 234.546321 
L 214.272 232.699603 
L 216.576 227.15945 
L 221.184 234.546321 
L 223.488 236.393038 
L 225.792 234.546321 
L 228.096 234.546321 
L 232.704 227.15945 
L 235.008 227.15945 
L 237.312 230.852885 
L 241.92 227.15945 
L 244.224 230.852885 
L 246.528 225.312733 
L 248.832 223.466015 
L 253.44 234.546321 
L 255.744 236.393038 
L 258.048 243.779908 
L 260.352 245.626626 
L 262.656 245.626626 
L 264.96 240.086473 
L 267.264 238.239756 
L 269.568 230.852885 
L 274.176 219.77258 
L 276.48 223.466015 
L 278.784 223.466015 
L 281.088 229.006168 
L 283.392 229.006168 
L 285.696 232.699603 
L 288 234.546321 
L 290.304 234.546321 
L 292.608 229.006168 
L 294.912 229.006168 
L 297.216 225.312733 
L 299.52 217.925863 
L 301.824 212.38571 
L 304.128 212.38571 
L 308.736 208.692275 
L 311.04 208.692275 
L 315.648 216.079145 
L 317.952 216.079145 
L 322.56 227.15945 
L 324.864 221.619298 
L 334.08 221.619298 
L 336.384 225.312733 
L 338.688 225.312733 
L 340.992 230.852885 
L 343.296 230.852885 
L 345.6 229.006168 
L 347.904 225.312733 
L 352.512 214.232427 
L 354.816 214.232427 
L 357.12 210.538992 
L 359.424 210.538992 
L 361.728 216.079145 
L 364.032 214.232427 
L 366.336 208.692275 
L 368.64 214.232427 
L 370.944 214.232427 
L 373.248 208.692275 
L 375.552 210.538992 
L 377.856 214.232427 
L 380.16 214.232427 
L 387.072 225.312733 
L 389.376 227.15945 
L 391.68 225.312733 
L 396.288 214.232427 
L 398.592 210.538992 
L 400.896 203.152122 
L 403.2 199.458687 
L 405.504 203.152122 
L 407.808 204.99884 
L 410.112 208.692275 
L 412.416 210.538992 
L 414.72 214.232427 
L 414.72 214.232427 
" style="fill:none;stroke:#ff7f0e;stroke-linecap:square;stroke-width:1.5;"/>
   </g>
   <g id="line2d_17">
    <path clip-path="url(#p23fdfa5bab)" d="M 66.816 216.079145 
L 71.424 201.305405 
L 73.728 204.99884 
L 76.032 212.38571 
L 78.336 227.15945 
L 80.64 217.925863 
L 85.248 206.845557 
L 87.552 206.845557 
L 89.856 186.531664 
L 92.16 180.991511 
L 94.464 173.604641 
L 96.768 160.677618 
L 99.072 156.984183 
L 101.376 156.984183 
L 103.68 160.677618 
L 105.984 169.911206 
L 108.288 169.911206 
L 110.592 158.830901 
L 112.896 156.984183 
L 115.2 153.290748 
L 117.504 151.444031 
L 119.808 158.830901 
L 122.112 158.830901 
L 124.416 169.911206 
L 126.72 155.137466 
L 129.024 151.444031 
L 131.328 151.444031 
L 133.632 160.677618 
L 135.936 149.597313 
L 138.24 147.750595 
L 140.544 134.823573 
L 145.152 101.582656 
L 149.76 94.195786 
L 152.064 112.662962 
L 154.368 121.89655 
L 156.672 138.517008 
L 158.976 149.597313 
L 161.28 164.371053 
L 163.584 145.903878 
L 165.888 136.67029 
L 168.192 120.049832 
L 172.8 120.049832 
L 175.104 121.89655 
L 177.408 120.049832 
L 179.712 132.976855 
L 188.928 125.589985 
L 191.232 121.89655 
L 193.536 121.89655 
L 195.84 108.969527 
L 198.144 118.203115 
L 200.448 120.049832 
L 205.056 90.502351 
L 207.36 105.276092 
L 209.664 105.276092 
L 211.968 116.356397 
L 214.272 131.130137 
L 216.576 131.130137 
L 218.88 127.436702 
L 221.184 127.436702 
L 223.488 112.662962 
L 225.792 105.276092 
L 230.4 101.582656 
L 232.704 97.889221 
L 235.008 97.889221 
L 237.312 101.582656 
L 239.616 101.582656 
L 241.92 86.808916 
L 246.528 86.808916 
L 248.832 79.422046 
L 251.136 90.502351 
L 253.44 92.349069 
L 255.744 90.502351 
L 258.048 90.502351 
L 260.352 86.808916 
L 262.656 73.881893 
L 264.96 84.962198 
L 267.264 86.808916 
L 269.568 84.962198 
L 274.176 84.962198 
L 276.48 72.035176 
L 278.784 70.188458 
L 281.088 72.035176 
L 283.392 75.728611 
L 288 75.728611 
L 290.304 62.801588 
L 292.608 62.801588 
L 294.912 66.495023 
L 297.216 68.34174 
L 299.52 79.422046 
L 301.824 92.349069 
L 304.128 90.502351 
L 306.432 92.349069 
L 308.736 90.502351 
L 313.344 90.502351 
L 315.648 101.582656 
L 317.952 99.735939 
L 320.256 110.816244 
L 322.56 110.816244 
L 324.864 99.735939 
L 327.168 86.808916 
L 329.472 86.808916 
L 331.776 73.881893 
L 334.08 72.035176 
L 336.384 72.035176 
L 338.688 83.115481 
L 340.992 83.115481 
L 343.296 84.962198 
L 345.6 73.881893 
L 347.904 83.115481 
L 350.208 72.035176 
L 352.512 72.035176 
L 354.816 81.268763 
L 357.12 92.349069 
L 359.424 81.268763 
L 361.728 90.502351 
L 364.032 88.655634 
L 366.336 75.728611 
L 368.64 64.648305 
L 375.552 64.648305 
L 377.856 66.495023 
L 380.16 66.495023 
L 382.464 64.648305 
L 384.768 53.568 
L 387.072 55.414718 
L 389.376 55.414718 
L 391.68 53.568 
L 396.288 72.035176 
L 398.592 60.95487 
L 403.2 79.422046 
L 405.504 73.881893 
L 407.808 75.728611 
L 412.416 75.728611 
L 414.72 77.575328 
L 414.72 77.575328 
" style="fill:none;stroke:#2ca02c;stroke-linecap:square;stroke-width:1.5;"/>
   </g>
   <g id="line2d_18">
    <path clip-path="url(#p23fdfa5bab)" d="M 66.816 271.480672 
L 69.12 275.174107 
L 71.424 271.480672 
L 73.728 289.947847 
L 76.032 291.794565 
L 78.336 289.947847 
L 82.944 282.560977 
L 85.248 280.71426 
L 89.856 284.407695 
L 94.464 284.407695 
L 96.768 282.560977 
L 99.072 278.867542 
L 101.376 278.867542 
L 103.68 282.560977 
L 105.984 284.407695 
L 108.288 284.407695 
L 112.896 280.71426 
L 115.2 277.020824 
L 117.504 275.174107 
L 119.808 271.480672 
L 122.112 275.174107 
L 124.416 271.480672 
L 126.72 269.633954 
L 129.024 269.633954 
L 131.328 273.327389 
L 140.544 273.327389 
L 142.848 269.633954 
L 147.456 269.633954 
L 149.76 271.480672 
L 152.064 267.787237 
L 156.672 267.787237 
L 158.976 271.480672 
L 161.28 267.787237 
L 163.584 267.787237 
L 165.888 271.480672 
L 170.496 264.093802 
L 172.8 265.940519 
L 175.104 265.940519 
L 177.408 264.093802 
L 179.712 265.940519 
L 184.32 265.940519 
L 186.624 269.633954 
L 188.928 271.480672 
L 191.232 271.480672 
L 193.536 275.174107 
L 195.84 273.327389 
L 198.144 267.787237 
L 200.448 264.093802 
L 202.752 265.940519 
L 205.056 264.093802 
L 207.36 265.940519 
L 209.664 269.633954 
L 211.968 271.480672 
L 214.272 265.940519 
L 218.88 265.940519 
L 221.184 264.093802 
L 230.4 264.093802 
L 232.704 265.940519 
L 235.008 264.093802 
L 237.312 265.940519 
L 244.224 254.860214 
L 246.528 256.706931 
L 248.832 256.706931 
L 253.44 260.400366 
L 255.744 260.400366 
L 258.048 254.860214 
L 262.656 247.473344 
L 267.264 243.779908 
L 269.568 245.626626 
L 271.872 249.320061 
L 274.176 249.320061 
L 276.48 251.166779 
L 278.784 254.860214 
L 281.088 256.706931 
L 285.696 256.706931 
L 288 254.860214 
L 290.304 251.166779 
L 292.608 249.320061 
L 294.912 249.320061 
L 297.216 253.013496 
L 301.824 253.013496 
L 304.128 251.166779 
L 306.432 247.473344 
L 311.04 247.473344 
L 313.344 251.166779 
L 320.256 251.166779 
L 322.56 249.320061 
L 324.864 249.320061 
L 327.168 253.013496 
L 329.472 254.860214 
L 331.776 251.166779 
L 334.08 251.166779 
L 336.384 247.473344 
L 338.688 247.473344 
L 340.992 245.626626 
L 345.6 245.626626 
L 347.904 247.473344 
L 350.208 245.626626 
L 354.816 253.013496 
L 357.12 253.013496 
L 361.728 249.320061 
L 364.032 249.320061 
L 366.336 245.626626 
L 368.64 249.320061 
L 373.248 249.320061 
L 375.552 245.626626 
L 377.856 247.473344 
L 380.16 243.779908 
L 382.464 243.779908 
L 384.768 245.626626 
L 387.072 245.626626 
L 389.376 243.779908 
L 398.592 243.779908 
L 407.808 251.166779 
L 410.112 254.860214 
L 414.72 247.473344 
L 414.72 247.473344 
" style="fill:none;stroke:#d62728;stroke-linecap:square;stroke-width:1.5;"/>
   </g>
   <g id="patch_3">
    <path d="M 57.6 307.584 
L 57.6 41.472 
" style="fill:none;stroke:#000000;stroke-linecap:square;stroke-linejoin:miter;stroke-width:0.8;"/>
   </g>
   <g id="patch_4">
    <path d="M 414.72 307.584 
L 414.72 41.472 
" style="fill:none;stroke:#000000;stroke-linecap:square;stroke-linejoin:miter;stroke-width:0.8;"/>
   </g>
   <g id="patch_5">
    <path d="M 57.6 307.584 
L 414.72 307.584 
" style="fill:none;stroke:#000000;stroke-linecap:square;stroke-linejoin:miter;stroke-width:0.8;"/>
   </g>
   <g id="patch_6">
    <path d="M 57.6 41.472 
L 414.72 41.472 
" style="fill:none;stroke:#000000;stroke-linecap:square;stroke-linejoin:miter;stroke-width:0.8;"/>
   </g>
   <g id="legend_1">
    <g id="patch_7">
     <path d="M 37.23875 205.38425 
L 407.72 205.38425 
Q 409.72 205.38425 409.72 203.38425 
L 409.72 145.67175 
Q 409.72 143.67175 407.72 143.67175 
L 37.23875 143.67175 
Q 35.23875 143.67175 35.23875 145.67175 
L 35.23875 203.38425 
Q 35.23875 205.38425 37.23875 205.38425 
z
" style="fill:#ffffff;opacity:0.8;stroke:#cccccc;stroke-linejoin:miter;"/>
    </g>
    <g id="line2d_19">
     <path d="M 39.23875 151.770188 
L 59.23875 151.770188 
" style="fill:none;stroke:#1f77b4;stroke-linecap:square;stroke-width:1.5;"/>
    </g>
    <g id="line2d_20"/>
    <g id="text_15">
     <!-- 5.2.17.ipstate-active-hwp.cinnamon.verifyxattr-data.warmup+main -->
     <defs>
      <path d="M 10.6875 12.40625 
L 21 12.40625 
L 21 0 
L 10.6875 0 
z
" id="DejaVuSans-46"/>
      <path d="M 9.421875 54.6875 
L 18.40625 54.6875 
L 18.40625 0 
L 9.421875 0 
z
M 9.421875 75.984375 
L 18.40625 75.984375 
L 18.40625 64.59375 
L 9.421875 64.59375 
z
" id="DejaVuSans-105"/>
      <path d="M 18.109375 8.203125 
L 18.109375 -20.796875 
L 9.078125 -20.796875 
L 9.078125 54.6875 
L 18.109375 54.6875 
L 18.109375 46.390625 
Q 20.953125 51.265625 25.265625 53.625 
Q 29.59375 56 35.59375 56 
Q 45.5625 56 51.78125 48.09375 
Q 58.015625 40.1875 58.015625 27.296875 
Q 58.015625 14.40625 51.78125 6.484375 
Q 45.5625 -1.421875 35.59375 -1.421875 
Q 29.59375 -1.421875 25.265625 0.953125 
Q 20.953125 3.328125 18.109375 8.203125 
z
M 48.6875 27.296875 
Q 48.6875 37.203125 44.609375 42.84375 
Q 40.53125 48.484375 33.40625 48.484375 
Q 26.265625 48.484375 22.1875 42.84375 
Q 18.109375 37.203125 18.109375 27.296875 
Q 18.109375 17.390625 22.1875 11.75 
Q 26.265625 6.109375 33.40625 6.109375 
Q 40.53125 6.109375 44.609375 11.75 
Q 48.6875 17.390625 48.6875 27.296875 
z
" id="DejaVuSans-112"/>
      <path d="M 44.28125 53.078125 
L 44.28125 44.578125 
Q 40.484375 46.53125 36.375 47.5 
Q 32.28125 48.484375 27.875 48.484375 
Q 21.1875 48.484375 17.84375 46.4375 
Q 14.5 44.390625 14.5 40.28125 
Q 14.5 37.15625 16.890625 35.375 
Q 19.28125 33.59375 26.515625 31.984375 
L 29.59375 31.296875 
Q 39.15625 29.25 43.1875 25.515625 
Q 47.21875 21.78125 47.21875 15.09375 
Q 47.21875 7.46875 41.1875 3.015625 
Q 35.15625 -1.421875 24.609375 -1.421875 
Q 20.21875 -1.421875 15.453125 -0.5625 
Q 10.6875 0.296875 5.421875 2 
L 5.421875 11.28125 
Q 10.40625 8.6875 15.234375 7.390625 
Q 20.0625 6.109375 24.8125 6.109375 
Q 31.15625 6.109375 34.5625 8.28125 
Q 37.984375 10.453125 37.984375 14.40625 
Q 37.984375 18.0625 35.515625 20.015625 
Q 33.0625 21.96875 24.703125 23.78125 
L 21.578125 24.515625 
Q 13.234375 26.265625 9.515625 29.90625 
Q 5.8125 33.546875 5.8125 39.890625 
Q 5.8125 47.609375 11.28125 51.796875 
Q 16.75 56 26.8125 56 
Q 31.78125 56 36.171875 55.265625 
Q 40.578125 54.546875 44.28125 53.078125 
z
" id="DejaVuSans-115"/>
      <path d="M 18.3125 70.21875 
L 18.3125 54.6875 
L 36.8125 54.6875 
L 36.8125 47.703125 
L 18.3125 47.703125 
L 18.3125 18.015625 
Q 18.3125 11.328125 20.140625 9.421875 
Q 21.96875 7.515625 27.59375 7.515625 
L 36.8125 7.515625 
L 36.8125 0 
L 27.59375 0 
Q 17.1875 0 13.234375 3.875 
Q 9.28125 7.765625 9.28125 18.015625 
L 9.28125 47.703125 
L 2.6875 47.703125 
L 2.6875 54.6875 
L 9.28125 54.6875 
L 9.28125 70.21875 
z
" id="DejaVuSans-116"/>
      <path d="M 34.28125 27.484375 
Q 23.390625 27.484375 19.1875 25 
Q 14.984375 22.515625 14.984375 16.5 
Q 14.984375 11.71875 18.140625 8.90625 
Q 21.296875 6.109375 26.703125 6.109375 
Q 34.1875 6.109375 38.703125 11.40625 
Q 43.21875 16.703125 43.21875 25.484375 
L 43.21875 27.484375 
z
M 52.203125 31.203125 
L 52.203125 0 
L 43.21875 0 
L 43.21875 8.296875 
Q 40.140625 3.328125 35.546875 0.953125 
Q 30.953125 -1.421875 24.3125 -1.421875 
Q 15.921875 -1.421875 10.953125 3.296875 
Q 6 8.015625 6 15.921875 
Q 6 25.140625 12.171875 29.828125 
Q 18.359375 34.515625 30.609375 34.515625 
L 43.21875 34.515625 
L 43.21875 35.40625 
Q 43.21875 41.609375 39.140625 45 
Q 35.0625 48.390625 27.6875 48.390625 
Q 23 48.390625 18.546875 47.265625 
Q 14.109375 46.140625 10.015625 43.890625 
L 10.015625 52.203125 
Q 14.9375 54.109375 19.578125 55.046875 
Q 24.21875 56 28.609375 56 
Q 40.484375 56 46.34375 49.84375 
Q 52.203125 43.703125 52.203125 31.203125 
z
" id="DejaVuSans-97"/>
      <path d="M 56.203125 29.59375 
L 56.203125 25.203125 
L 14.890625 25.203125 
Q 15.484375 15.921875 20.484375 11.0625 
Q 25.484375 6.203125 34.421875 6.203125 
Q 39.59375 6.203125 44.453125 7.46875 
Q 49.3125 8.734375 54.109375 11.28125 
L 54.109375 2.78125 
Q 49.265625 0.734375 44.1875 -0.34375 
Q 39.109375 -1.421875 33.890625 -1.421875 
Q 20.796875 -1.421875 13.15625 6.1875 
Q 5.515625 13.8125 5.515625 26.8125 
Q 5.515625 40.234375 12.765625 48.109375 
Q 20.015625 56 32.328125 56 
Q 43.359375 56 49.78125 48.890625 
Q 56.203125 41.796875 56.203125 29.59375 
z
M 47.21875 32.234375 
Q 47.125 39.59375 43.09375 43.984375 
Q 39.0625 48.390625 32.421875 48.390625 
Q 24.90625 48.390625 20.390625 44.140625 
Q 15.875 39.890625 15.1875 32.171875 
z
" id="DejaVuSans-101"/>
      <path d="M 4.890625 31.390625 
L 31.203125 31.390625 
L 31.203125 23.390625 
L 4.890625 23.390625 
z
" id="DejaVuSans-45"/>
      <path d="M 48.78125 52.59375 
L 48.78125 44.1875 
Q 44.96875 46.296875 41.140625 47.34375 
Q 37.3125 48.390625 33.40625 48.390625 
Q 24.65625 48.390625 19.8125 42.84375 
Q 14.984375 37.3125 14.984375 27.296875 
Q 14.984375 17.28125 19.8125 11.734375 
Q 24.65625 6.203125 33.40625 6.203125 
Q 37.3125 6.203125 41.140625 7.25 
Q 44.96875 8.296875 48.78125 10.40625 
L 48.78125 2.09375 
Q 45.015625 0.34375 40.984375 -0.53125 
Q 36.96875 -1.421875 32.421875 -1.421875 
Q 20.0625 -1.421875 12.78125 6.34375 
Q 5.515625 14.109375 5.515625 27.296875 
Q 5.515625 40.671875 12.859375 48.328125 
Q 20.21875 56 33.015625 56 
Q 37.15625 56 41.109375 55.140625 
Q 45.0625 54.296875 48.78125 52.59375 
z
" id="DejaVuSans-99"/>
      <path d="M 2.984375 54.6875 
L 12.5 54.6875 
L 29.59375 8.796875 
L 46.6875 54.6875 
L 56.203125 54.6875 
L 35.6875 0 
L 23.484375 0 
z
" id="DejaVuSans-118"/>
      <path d="M 54.890625 33.015625 
L 54.890625 0 
L 45.90625 0 
L 45.90625 32.71875 
Q 45.90625 40.484375 42.875 44.328125 
Q 39.84375 48.1875 33.796875 48.1875 
Q 26.515625 48.1875 22.3125 43.546875 
Q 18.109375 38.921875 18.109375 30.90625 
L 18.109375 0 
L 9.078125 0 
L 9.078125 75.984375 
L 18.109375 75.984375 
L 18.109375 46.1875 
Q 21.34375 51.125 25.703125 53.5625 
Q 30.078125 56 35.796875 56 
Q 45.21875 56 50.046875 50.171875 
Q 54.890625 44.34375 54.890625 33.015625 
z
" id="DejaVuSans-104"/>
      <path d="M 4.203125 54.6875 
L 13.1875 54.6875 
L 24.421875 12.015625 
L 35.59375 54.6875 
L 46.1875 54.6875 
L 57.421875 12.015625 
L 68.609375 54.6875 
L 77.59375 54.6875 
L 63.28125 0 
L 52.6875 0 
L 40.921875 44.828125 
L 29.109375 0 
L 18.5 0 
z
" id="DejaVuSans-119"/>
      <path d="M 54.890625 33.015625 
L 54.890625 0 
L 45.90625 0 
L 45.90625 32.71875 
Q 45.90625 40.484375 42.875 44.328125 
Q 39.84375 48.1875 33.796875 48.1875 
Q 26.515625 48.1875 22.3125 43.546875 
Q 18.109375 38.921875 18.109375 30.90625 
L 18.109375 0 
L 9.078125 0 
L 9.078125 54.6875 
L 18.109375 54.6875 
L 18.109375 46.1875 
Q 21.34375 51.125 25.703125 53.5625 
Q 30.078125 56 35.796875 56 
Q 45.21875 56 50.046875 50.171875 
Q 54.890625 44.34375 54.890625 33.015625 
z
" id="DejaVuSans-110"/>
      <path d="M 52 44.1875 
Q 55.375 50.25 60.0625 53.125 
Q 64.75 56 71.09375 56 
Q 79.640625 56 84.28125 50.015625 
Q 88.921875 44.046875 88.921875 33.015625 
L 88.921875 0 
L 79.890625 0 
L 79.890625 32.71875 
Q 79.890625 40.578125 77.09375 44.375 
Q 74.3125 48.1875 68.609375 48.1875 
Q 61.625 48.1875 57.5625 43.546875 
Q 53.515625 38.921875 53.515625 30.90625 
L 53.515625 0 
L 44.484375 0 
L 44.484375 32.71875 
Q 44.484375 40.625 41.703125 44.40625 
Q 38.921875 48.1875 33.109375 48.1875 
Q 26.21875 48.1875 22.15625 43.53125 
Q 18.109375 38.875 18.109375 30.90625 
L 18.109375 0 
L 9.078125 0 
L 9.078125 54.6875 
L 18.109375 54.6875 
L 18.109375 46.1875 
Q 21.1875 51.21875 25.484375 53.609375 
Q 29.78125 56 35.6875 56 
Q 41.65625 56 45.828125 52.96875 
Q 50 49.953125 52 44.1875 
z
" id="DejaVuSans-109"/>
      <path d="M 30.609375 48.390625 
Q 23.390625 48.390625 19.1875 42.75 
Q 14.984375 37.109375 14.984375 27.296875 
Q 14.984375 17.484375 19.15625 11.84375 
Q 23.34375 6.203125 30.609375 6.203125 
Q 37.796875 6.203125 41.984375 11.859375 
Q 46.1875 17.53125 46.1875 27.296875 
Q 46.1875 37.015625 41.984375 42.703125 
Q 37.796875 48.390625 30.609375 48.390625 
z
M 30.609375 56 
Q 42.328125 56 49.015625 48.375 
Q 55.71875 40.765625 55.71875 27.296875 
Q 55.71875 13.875 49.015625 6.21875 
Q 42.328125 -1.421875 30.609375 -1.421875 
Q 18.84375 -1.421875 12.171875 6.21875 
Q 5.515625 13.875 5.515625 27.296875 
Q 5.515625 40.765625 12.171875 48.375 
Q 18.84375 56 30.609375 56 
z
" id="DejaVuSans-111"/>
      <path d="M 41.109375 46.296875 
Q 39.59375 47.171875 37.8125 47.578125 
Q 36.03125 48 33.890625 48 
Q 26.265625 48 22.1875 43.046875 
Q 18.109375 38.09375 18.109375 28.8125 
L 18.109375 0 
L 9.078125 0 
L 9.078125 54.6875 
L 18.109375 54.6875 
L 18.109375 46.1875 
Q 20.953125 51.171875 25.484375 53.578125 
Q 30.03125 56 36.53125 56 
Q 37.453125 56 38.578125 55.875 
Q 39.703125 55.765625 41.0625 55.515625 
z
" id="DejaVuSans-114"/>
      <path d="M 37.109375 75.984375 
L 37.109375 68.5 
L 28.515625 68.5 
Q 23.6875 68.5 21.796875 66.546875 
Q 19.921875 64.59375 19.921875 59.515625 
L 19.921875 54.6875 
L 34.71875 54.6875 
L 34.71875 47.703125 
L 19.921875 47.703125 
L 19.921875 0 
L 10.890625 0 
L 10.890625 47.703125 
L 2.296875 47.703125 
L 2.296875 54.6875 
L 10.890625 54.6875 
L 10.890625 58.5 
Q 10.890625 67.625 15.140625 71.796875 
Q 19.390625 75.984375 28.609375 75.984375 
z
" id="DejaVuSans-102"/>
      <path d="M 32.171875 -5.078125 
Q 28.375 -14.84375 24.75 -17.8125 
Q 21.140625 -20.796875 15.09375 -20.796875 
L 7.90625 -20.796875 
L 7.90625 -13.28125 
L 13.1875 -13.28125 
Q 16.890625 -13.28125 18.9375 -11.515625 
Q 21 -9.765625 23.484375 -3.21875 
L 25.09375 0.875 
L 2.984375 54.6875 
L 12.5 54.6875 
L 29.59375 11.921875 
L 46.6875 54.6875 
L 56.203125 54.6875 
z
" id="DejaVuSans-121"/>
      <path d="M 54.890625 54.6875 
L 35.109375 28.078125 
L 55.90625 0 
L 45.3125 0 
L 29.390625 21.484375 
L 13.484375 0 
L 2.875 0 
L 24.125 28.609375 
L 4.6875 54.6875 
L 15.28125 54.6875 
L 29.78125 35.203125 
L 44.28125 54.6875 
z
" id="DejaVuSans-120"/>
      <path d="M 45.40625 46.390625 
L 45.40625 75.984375 
L 54.390625 75.984375 
L 54.390625 0 
L 45.40625 0 
L 45.40625 8.203125 
Q 42.578125 3.328125 38.25 0.953125 
Q 33.9375 -1.421875 27.875 -1.421875 
Q 17.96875 -1.421875 11.734375 6.484375 
Q 5.515625 14.40625 5.515625 27.296875 
Q 5.515625 40.1875 11.734375 48.09375 
Q 17.96875 56 27.875 56 
Q 33.9375 56 38.25 53.625 
Q 42.578125 51.265625 45.40625 46.390625 
z
M 14.796875 27.296875 
Q 14.796875 17.390625 18.875 11.75 
Q 22.953125 6.109375 30.078125 6.109375 
Q 37.203125 6.109375 41.296875 11.75 
Q 45.40625 17.390625 45.40625 27.296875 
Q 45.40625 37.203125 41.296875 42.84375 
Q 37.203125 48.484375 30.078125 48.484375 
Q 22.953125 48.484375 18.875 42.84375 
Q 14.796875 37.203125 14.796875 27.296875 
z
" id="DejaVuSans-100"/>
      <path d="M 8.5 21.578125 
L 8.5 54.6875 
L 17.484375 54.6875 
L 17.484375 21.921875 
Q 17.484375 14.15625 20.5 10.265625 
Q 23.53125 6.390625 29.59375 6.390625 
Q 36.859375 6.390625 41.078125 11.03125 
Q 45.3125 15.671875 45.3125 23.6875 
L 45.3125 54.6875 
L 54.296875 54.6875 
L 54.296875 0 
L 45.3125 0 
L 45.3125 8.40625 
Q 42.046875 3.421875 37.71875 1 
Q 33.40625 -1.421875 27.6875 -1.421875 
Q 18.265625 -1.421875 13.375 4.4375 
Q 8.5 10.296875 8.5 21.578125 
z
M 31.109375 56 
z
" id="DejaVuSans-117"/>
      <path d="M 46 62.703125 
L 46 35.5 
L 73.1875 35.5 
L 73.1875 27.203125 
L 46 27.203125 
L 46 0 
L 37.796875 0 
L 37.796875 27.203125 
L 10.59375 27.203125 
L 10.59375 35.5 
L 37.796875 35.5 
L 37.796875 62.703125 
z
" id="DejaVuSans-43"/>
     </defs>
     <g transform="translate(67.23875 155.270188)scale(0.1 -0.1)">
      <use xlink:href="#DejaVuSans-53"/>
      <use x="63.623047" xlink:href="#DejaVuSans-46"/>
      <use x="95.410156" xlink:href="#DejaVuSans-50"/>
      <use x="159.033203" xlink:href="#DejaVuSans-46"/>
      <use x="190.820312" xlink:href="#DejaVuSans-49"/>
      <use x="254.443359" xlink:href="#DejaVuSans-55"/>
      <use x="318.066406" xlink:href="#DejaVuSans-46"/>
      <use x="349.853516" xlink:href="#DejaVuSans-105"/>
      <use x="377.636719" xlink:href="#DejaVuSans-112"/>
      <use x="441.113281" xlink:href="#DejaVuSans-115"/>
      <use x="493.212891" xlink:href="#DejaVuSans-116"/>
      <use x="532.421875" xlink:href="#DejaVuSans-97"/>
      <use x="593.701172" xlink:href="#DejaVuSans-116"/>
      <use x="632.910156" xlink:href="#DejaVuSans-101"/>
      <use x="694.433594" xlink:href="#DejaVuSans-45"/>
      <use x="730.517578" xlink:href="#DejaVuSans-97"/>
      <use x="791.796875" xlink:href="#DejaVuSans-99"/>
      <use x="846.777344" xlink:href="#DejaVuSans-116"/>
      <use x="885.986328" xlink:href="#DejaVuSans-105"/>
      <use x="913.769531" xlink:href="#DejaVuSans-118"/>
      <use x="972.949219" xlink:href="#DejaVuSans-101"/>
      <use x="1034.472656" xlink:href="#DejaVuSans-45"/>
      <use x="1070.556641" xlink:href="#DejaVuSans-104"/>
      <use x="1133.935547" xlink:href="#DejaVuSans-119"/>
      <use x="1215.722656" xlink:href="#DejaVuSans-112"/>
      <use x="1279.199219" xlink:href="#DejaVuSans-46"/>
      <use x="1310.986328" xlink:href="#DejaVuSans-99"/>
      <use x="1365.966797" xlink:href="#DejaVuSans-105"/>
      <use x="1393.75" xlink:href="#DejaVuSans-110"/>
      <use x="1457.128906" xlink:href="#DejaVuSans-110"/>
      <use x="1520.507812" xlink:href="#DejaVuSans-97"/>
      <use x="1581.787109" xlink:href="#DejaVuSans-109"/>
      <use x="1679.199219" xlink:href="#DejaVuSans-111"/>
      <use x="1740.380859" xlink:href="#DejaVuSans-110"/>
      <use x="1803.759766" xlink:href="#DejaVuSans-46"/>
      <use x="1835.546875" xlink:href="#DejaVuSans-118"/>
      <use x="1894.726562" xlink:href="#DejaVuSans-101"/>
      <use x="1956.25" xlink:href="#DejaVuSans-114"/>
      <use x="1997.363281" xlink:href="#DejaVuSans-105"/>
      <use x="2025.146484" xlink:href="#DejaVuSans-102"/>
      <use x="2058.601562" xlink:href="#DejaVuSans-121"/>
      <use x="2117.78125" xlink:href="#DejaVuSans-120"/>
      <use x="2176.960938" xlink:href="#DejaVuSans-97"/>
      <use x="2238.240234" xlink:href="#DejaVuSans-116"/>
      <use x="2277.449219" xlink:href="#DejaVuSans-116"/>
      <use x="2316.658203" xlink:href="#DejaVuSans-114"/>
      <use x="2351.396484" xlink:href="#DejaVuSans-45"/>
      <use x="2387.480469" xlink:href="#DejaVuSans-100"/>
      <use x="2450.957031" xlink:href="#DejaVuSans-97"/>
      <use x="2512.236328" xlink:href="#DejaVuSans-116"/>
      <use x="2551.445312" xlink:href="#DejaVuSans-97"/>
      <use x="2612.724609" xlink:href="#DejaVuSans-46"/>
      <use x="2644.511719" xlink:href="#DejaVuSans-119"/>
      <use x="2726.298828" xlink:href="#DejaVuSans-97"/>
      <use x="2787.578125" xlink:href="#DejaVuSans-114"/>
      <use x="2826.941406" xlink:href="#DejaVuSans-109"/>
      <use x="2924.353516" xlink:href="#DejaVuSans-117"/>
      <use x="2987.732422" xlink:href="#DejaVuSans-112"/>
      <use x="3051.208984" xlink:href="#DejaVuSans-43"/>
      <use x="3134.998047" xlink:href="#DejaVuSans-109"/>
      <use x="3232.410156" xlink:href="#DejaVuSans-97"/>
      <use x="3293.689453" xlink:href="#DejaVuSans-105"/>
      <use x="3321.472656" xlink:href="#DejaVuSans-110"/>
     </g>
    </g>
    <g id="line2d_21">
     <path d="M 39.23875 166.448313 
L 59.23875 166.448313 
" style="fill:none;stroke:#ff7f0e;stroke-linecap:square;stroke-width:1.5;"/>
    </g>
    <g id="line2d_22"/>
    <g id="text_16">
     <!-- 5.2.17.ipstate-disable.cinnamon.verifyxattr-data.warmup+main -->
     <defs>
      <path d="M 48.6875 27.296875 
Q 48.6875 37.203125 44.609375 42.84375 
Q 40.53125 48.484375 33.40625 48.484375 
Q 26.265625 48.484375 22.1875 42.84375 
Q 18.109375 37.203125 18.109375 27.296875 
Q 18.109375 17.390625 22.1875 11.75 
Q 26.265625 6.109375 33.40625 6.109375 
Q 40.53125 6.109375 44.609375 11.75 
Q 48.6875 17.390625 48.6875 27.296875 
z
M 18.109375 46.390625 
Q 20.953125 51.265625 25.265625 53.625 
Q 29.59375 56 35.59375 56 
Q 45.5625 56 51.78125 48.09375 
Q 58.015625 40.1875 58.015625 27.296875 
Q 58.015625 14.40625 51.78125 6.484375 
Q 45.5625 -1.421875 35.59375 -1.421875 
Q 29.59375 -1.421875 25.265625 0.953125 
Q 20.953125 3.328125 18.109375 8.203125 
L 18.109375 0 
L 9.078125 0 
L 9.078125 75.984375 
L 18.109375 75.984375 
z
" id="DejaVuSans-98"/>
      <path d="M 9.421875 75.984375 
L 18.40625 75.984375 
L 18.40625 0 
L 9.421875 0 
z
" id="DejaVuSans-108"/>
     </defs>
     <g transform="translate(67.23875 169.948313)scale(0.1 -0.1)">
      <use xlink:href="#DejaVuSans-53"/>
      <use x="63.623047" xlink:href="#DejaVuSans-46"/>
      <use x="95.410156" xlink:href="#DejaVuSans-50"/>
      <use x="159.033203" xlink:href="#DejaVuSans-46"/>
      <use x="190.820312" xlink:href="#DejaVuSans-49"/>
      <use x="254.443359" xlink:href="#DejaVuSans-55"/>
      <use x="318.066406" xlink:href="#DejaVuSans-46"/>
      <use x="349.853516" xlink:href="#DejaVuSans-105"/>
      <use x="377.636719" xlink:href="#DejaVuSans-112"/>
      <use x="441.113281" xlink:href="#DejaVuSans-115"/>
      <use x="493.212891" xlink:href="#DejaVuSans-116"/>
      <use x="532.421875" xlink:href="#DejaVuSans-97"/>
      <use x="593.701172" xlink:href="#DejaVuSans-116"/>
      <use x="632.910156" xlink:href="#DejaVuSans-101"/>
      <use x="694.433594" xlink:href="#DejaVuSans-45"/>
      <use x="730.517578" xlink:href="#DejaVuSans-100"/>
      <use x="793.994141" xlink:href="#DejaVuSans-105"/>
      <use x="821.777344" xlink:href="#DejaVuSans-115"/>
      <use x="873.876953" xlink:href="#DejaVuSans-97"/>
      <use x="935.15625" xlink:href="#DejaVuSans-98"/>
      <use x="998.632812" xlink:href="#DejaVuSans-108"/>
      <use x="1026.416016" xlink:href="#DejaVuSans-101"/>
      <use x="1087.939453" xlink:href="#DejaVuSans-46"/>
      <use x="1119.726562" xlink:href="#DejaVuSans-99"/>
      <use x="1174.707031" xlink:href="#DejaVuSans-105"/>
      <use x="1202.490234" xlink:href="#DejaVuSans-110"/>
      <use x="1265.869141" xlink:href="#DejaVuSans-110"/>
      <use x="1329.248047" xlink:href="#DejaVuSans-97"/>
      <use x="1390.527344" xlink:href="#DejaVuSans-109"/>
      <use x="1487.939453" xlink:href="#DejaVuSans-111"/>
      <use x="1549.121094" xlink:href="#DejaVuSans-110"/>
      <use x="1612.5" xlink:href="#DejaVuSans-46"/>
      <use x="1644.287109" xlink:href="#DejaVuSans-118"/>
      <use x="1703.466797" xlink:href="#DejaVuSans-101"/>
      <use x="1764.990234" xlink:href="#DejaVuSans-114"/>
      <use x="1806.103516" xlink:href="#DejaVuSans-105"/>
      <use x="1833.886719" xlink:href="#DejaVuSans-102"/>
      <use x="1867.341797" xlink:href="#DejaVuSans-121"/>
      <use x="1926.521484" xlink:href="#DejaVuSans-120"/>
      <use x="1985.701172" xlink:href="#DejaVuSans-97"/>
      <use x="2046.980469" xlink:href="#DejaVuSans-116"/>
      <use x="2086.189453" xlink:href="#DejaVuSans-116"/>
      <use x="2125.398438" xlink:href="#DejaVuSans-114"/>
      <use x="2160.136719" xlink:href="#DejaVuSans-45"/>
      <use x="2196.220703" xlink:href="#DejaVuSans-100"/>
      <use x="2259.697266" xlink:href="#DejaVuSans-97"/>
      <use x="2320.976562" xlink:href="#DejaVuSans-116"/>
      <use x="2360.185547" xlink:href="#DejaVuSans-97"/>
      <use x="2421.464844" xlink:href="#DejaVuSans-46"/>
      <use x="2453.251953" xlink:href="#DejaVuSans-119"/>
      <use x="2535.039062" xlink:href="#DejaVuSans-97"/>
      <use x="2596.318359" xlink:href="#DejaVuSans-114"/>
      <use x="2635.681641" xlink:href="#DejaVuSans-109"/>
      <use x="2733.09375" xlink:href="#DejaVuSans-117"/>
      <use x="2796.472656" xlink:href="#DejaVuSans-112"/>
      <use x="2859.949219" xlink:href="#DejaVuSans-43"/>
      <use x="2943.738281" xlink:href="#DejaVuSans-109"/>
      <use x="3041.150391" xlink:href="#DejaVuSans-97"/>
      <use x="3102.429688" xlink:href="#DejaVuSans-105"/>
      <use x="3130.212891" xlink:href="#DejaVuSans-110"/>
     </g>
    </g>
    <g id="line2d_23">
     <path d="M 39.23875 181.126438 
L 59.23875 181.126438 
" style="fill:none;stroke:#2ca02c;stroke-linecap:square;stroke-width:1.5;"/>
    </g>
    <g id="line2d_24"/>
    <g id="text_17">
     <!-- 5.5.13.ipstate-active-hwp.cinnamon.verifyxattr-data.warmup+main -->
     <defs>
      <path d="M 40.578125 39.3125 
Q 47.65625 37.796875 51.625 33 
Q 55.609375 28.21875 55.609375 21.1875 
Q 55.609375 10.40625 48.1875 4.484375 
Q 40.765625 -1.421875 27.09375 -1.421875 
Q 22.515625 -1.421875 17.65625 -0.515625 
Q 12.796875 0.390625 7.625 2.203125 
L 7.625 11.71875 
Q 11.71875 9.328125 16.59375 8.109375 
Q 21.484375 6.890625 26.8125 6.890625 
Q 36.078125 6.890625 40.9375 10.546875 
Q 45.796875 14.203125 45.796875 21.1875 
Q 45.796875 27.640625 41.28125 31.265625 
Q 36.765625 34.90625 28.71875 34.90625 
L 20.21875 34.90625 
L 20.21875 43.015625 
L 29.109375 43.015625 
Q 36.375 43.015625 40.234375 45.921875 
Q 44.09375 48.828125 44.09375 54.296875 
Q 44.09375 59.90625 40.109375 62.90625 
Q 36.140625 65.921875 28.71875 65.921875 
Q 24.65625 65.921875 20.015625 65.03125 
Q 15.375 64.15625 9.8125 62.3125 
L 9.8125 71.09375 
Q 15.4375 72.65625 20.34375 73.4375 
Q 25.25 74.21875 29.59375 74.21875 
Q 40.828125 74.21875 47.359375 69.109375 
Q 53.90625 64.015625 53.90625 55.328125 
Q 53.90625 49.265625 50.4375 45.09375 
Q 46.96875 40.921875 40.578125 39.3125 
z
" id="DejaVuSans-51"/>
     </defs>
     <g transform="translate(67.23875 184.626438)scale(0.1 -0.1)">
      <use xlink:href="#DejaVuSans-53"/>
      <use x="63.623047" xlink:href="#DejaVuSans-46"/>
      <use x="95.410156" xlink:href="#DejaVuSans-53"/>
      <use x="159.033203" xlink:href="#DejaVuSans-46"/>
      <use x="190.820312" xlink:href="#DejaVuSans-49"/>
      <use x="254.443359" xlink:href="#DejaVuSans-51"/>
      <use x="318.066406" xlink:href="#DejaVuSans-46"/>
      <use x="349.853516" xlink:href="#DejaVuSans-105"/>
      <use x="377.636719" xlink:href="#DejaVuSans-112"/>
      <use x="441.113281" xlink:href="#DejaVuSans-115"/>
      <use x="493.212891" xlink:href="#DejaVuSans-116"/>
      <use x="532.421875" xlink:href="#DejaVuSans-97"/>
      <use x="593.701172" xlink:href="#DejaVuSans-116"/>
      <use x="632.910156" xlink:href="#DejaVuSans-101"/>
      <use x="694.433594" xlink:href="#DejaVuSans-45"/>
      <use x="730.517578" xlink:href="#DejaVuSans-97"/>
      <use x="791.796875" xlink:href="#DejaVuSans-99"/>
      <use x="846.777344" xlink:href="#DejaVuSans-116"/>
      <use x="885.986328" xlink:href="#DejaVuSans-105"/>
      <use x="913.769531" xlink:href="#DejaVuSans-118"/>
      <use x="972.949219" xlink:href="#DejaVuSans-101"/>
      <use x="1034.472656" xlink:href="#DejaVuSans-45"/>
      <use x="1070.556641" xlink:href="#DejaVuSans-104"/>
      <use x="1133.935547" xlink:href="#DejaVuSans-119"/>
      <use x="1215.722656" xlink:href="#DejaVuSans-112"/>
      <use x="1279.199219" xlink:href="#DejaVuSans-46"/>
      <use x="1310.986328" xlink:href="#DejaVuSans-99"/>
      <use x="1365.966797" xlink:href="#DejaVuSans-105"/>
      <use x="1393.75" xlink:href="#DejaVuSans-110"/>
      <use x="1457.128906" xlink:href="#DejaVuSans-110"/>
      <use x="1520.507812" xlink:href="#DejaVuSans-97"/>
      <use x="1581.787109" xlink:href="#DejaVuSans-109"/>
      <use x="1679.199219" xlink:href="#DejaVuSans-111"/>
      <use x="1740.380859" xlink:href="#DejaVuSans-110"/>
      <use x="1803.759766" xlink:href="#DejaVuSans-46"/>
      <use x="1835.546875" xlink:href="#DejaVuSans-118"/>
      <use x="1894.726562" xlink:href="#DejaVuSans-101"/>
      <use x="1956.25" xlink:href="#DejaVuSans-114"/>
      <use x="1997.363281" xlink:href="#DejaVuSans-105"/>
      <use x="2025.146484" xlink:href="#DejaVuSans-102"/>
      <use x="2058.601562" xlink:href="#DejaVuSans-121"/>
      <use x="2117.78125" xlink:href="#DejaVuSans-120"/>
      <use x="2176.960938" xlink:href="#DejaVuSans-97"/>
      <use x="2238.240234" xlink:href="#DejaVuSans-116"/>
      <use x="2277.449219" xlink:href="#DejaVuSans-116"/>
      <use x="2316.658203" xlink:href="#DejaVuSans-114"/>
      <use x="2351.396484" xlink:href="#DejaVuSans-45"/>
      <use x="2387.480469" xlink:href="#DejaVuSans-100"/>
      <use x="2450.957031" xlink:href="#DejaVuSans-97"/>
      <use x="2512.236328" xlink:href="#DejaVuSans-116"/>
      <use x="2551.445312" xlink:href="#DejaVuSans-97"/>
      <use x="2612.724609" xlink:href="#DejaVuSans-46"/>
      <use x="2644.511719" xlink:href="#DejaVuSans-119"/>
      <use x="2726.298828" xlink:href="#DejaVuSans-97"/>
      <use x="2787.578125" xlink:href="#DejaVuSans-114"/>
      <use x="2826.941406" xlink:href="#DejaVuSans-109"/>
      <use x="2924.353516" xlink:href="#DejaVuSans-117"/>
      <use x="2987.732422" xlink:href="#DejaVuSans-112"/>
      <use x="3051.208984" xlink:href="#DejaVuSans-43"/>
      <use x="3134.998047" xlink:href="#DejaVuSans-109"/>
      <use x="3232.410156" xlink:href="#DejaVuSans-97"/>
      <use x="3293.689453" xlink:href="#DejaVuSans-105"/>
      <use x="3321.472656" xlink:href="#DejaVuSans-110"/>
     </g>
    </g>
    <g id="line2d_25">
     <path d="M 39.23875 195.804563 
L 59.23875 195.804563 
" style="fill:none;stroke:#d62728;stroke-linecap:square;stroke-width:1.5;"/>
    </g>
    <g id="line2d_26"/>
    <g id="text_18">
     <!-- 5.5.13.ipstate-disable.cinnamon.verifyxattr-data.warmup+main -->
     <g transform="translate(67.23875 199.304563)scale(0.1 -0.1)">
      <use xlink:href="#DejaVuSans-53"/>
      <use x="63.623047" xlink:href="#DejaVuSans-46"/>
      <use x="95.410156" xlink:href="#DejaVuSans-53"/>
      <use x="159.033203" xlink:href="#DejaVuSans-46"/>
      <use x="190.820312" xlink:href="#DejaVuSans-49"/>
      <use x="254.443359" xlink:href="#DejaVuSans-51"/>
      <use x="318.066406" xlink:href="#DejaVuSans-46"/>
      <use x="349.853516" xlink:href="#DejaVuSans-105"/>
      <use x="377.636719" xlink:href="#DejaVuSans-112"/>
      <use x="441.113281" xlink:href="#DejaVuSans-115"/>
      <use x="493.212891" xlink:href="#DejaVuSans-116"/>
      <use x="532.421875" xlink:href="#DejaVuSans-97"/>
      <use x="593.701172" xlink:href="#DejaVuSans-116"/>
      <use x="632.910156" xlink:href="#DejaVuSans-101"/>
      <use x="694.433594" xlink:href="#DejaVuSans-45"/>
      <use x="730.517578" xlink:href="#DejaVuSans-100"/>
      <use x="793.994141" xlink:href="#DejaVuSans-105"/>
      <use x="821.777344" xlink:href="#DejaVuSans-115"/>
      <use x="873.876953" xlink:href="#DejaVuSans-97"/>
      <use x="935.15625" xlink:href="#DejaVuSans-98"/>
      <use x="998.632812" xlink:href="#DejaVuSans-108"/>
      <use x="1026.416016" xlink:href="#DejaVuSans-101"/>
      <use x="1087.939453" xlink:href="#DejaVuSans-46"/>
      <use x="1119.726562" xlink:href="#DejaVuSans-99"/>
      <use x="1174.707031" xlink:href="#DejaVuSans-105"/>
      <use x="1202.490234" xlink:href="#DejaVuSans-110"/>
      <use x="1265.869141" xlink:href="#DejaVuSans-110"/>
      <use x="1329.248047" xlink:href="#DejaVuSans-97"/>
      <use x="1390.527344" xlink:href="#DejaVuSans-109"/>
      <use x="1487.939453" xlink:href="#DejaVuSans-111"/>
      <use x="1549.121094" xlink:href="#DejaVuSans-110"/>
      <use x="1612.5" xlink:href="#DejaVuSans-46"/>
      <use x="1644.287109" xlink:href="#DejaVuSans-118"/>
      <use x="1703.466797" xlink:href="#DejaVuSans-101"/>
      <use x="1764.990234" xlink:href="#DejaVuSans-114"/>
      <use x="1806.103516" xlink:href="#DejaVuSans-105"/>
      <use x="1833.886719" xlink:href="#DejaVuSans-102"/>
      <use x="1867.341797" xlink:href="#DejaVuSans-121"/>
      <use x="1926.521484" xlink:href="#DejaVuSans-120"/>
      <use x="1985.701172" xlink:href="#DejaVuSans-97"/>
      <use x="2046.980469" xlink:href="#DejaVuSans-116"/>
      <use x="2086.189453" xlink:href="#DejaVuSans-116"/>
      <use x="2125.398438" xlink:href="#DejaVuSans-114"/>
      <use x="2160.136719" xlink:href="#DejaVuSans-45"/>
      <use x="2196.220703" xlink:href="#DejaVuSans-100"/>
      <use x="2259.697266" xlink:href="#DejaVuSans-97"/>
      <use x="2320.976562" xlink:href="#DejaVuSans-116"/>
      <use x="2360.185547" xlink:href="#DejaVuSans-97"/>
      <use x="2421.464844" xlink:href="#DejaVuSans-46"/>
      <use x="2453.251953" xlink:href="#DejaVuSans-119"/>
      <use x="2535.039062" xlink:href="#DejaVuSans-97"/>
      <use x="2596.318359" xlink:href="#DejaVuSans-114"/>
      <use x="2635.681641" xlink:href="#DejaVuSans-109"/>
      <use x="2733.09375" xlink:href="#DejaVuSans-117"/>
      <use x="2796.472656" xlink:href="#DejaVuSans-112"/>
      <use x="2859.949219" xlink:href="#DejaVuSans-43"/>
      <use x="2943.738281" xlink:href="#DejaVuSans-109"/>
      <use x="3041.150391" xlink:href="#DejaVuSans-97"/>
      <use x="3102.429688" xlink:href="#DejaVuSans-105"/>
      <use x="3130.212891" xlink:href="#DejaVuSans-110"/>
     </g>
    </g>
   </g>
  </g>
 </g>
 <defs>
  <clipPath id="p23fdfa5bab">
   <rect height="266.112" width="357.12" x="57.6" y="41.472"/>
  </clipPath>
 </defs>
</svg>
