<?xml version="1.0" encoding="utf-8" standalone="no"?>
<!DOCTYPE svg PUBLIC "-//W3C//DTD SVG 1.1//EN"
  "http://www.w3.org/Graphics/SVG/1.1/DTD/svg11.dtd">
<!-- Created with matplotlib (https://matplotlib.org/) -->
<svg height="345.6pt" version="1.1" viewBox="0 0 460.8 345.6" width="460.8pt" xmlns="http://www.w3.org/2000/svg" xmlns:xlink="http://www.w3.org/1999/xlink">
 <defs>
  <style type="text/css">
*{stroke-linecap:butt;stroke-linejoin:round;}
  </style>
 </defs>
 <g id="figure_1">
  <g id="patch_1">
   <path d="M 0 345.6 
L 460.8 345.6 
L 460.8 0 
L 0 0 
z
" style="fill:#ffffff;"/>
  </g>
  <g id="axes_1">
   <g id="patch_2">
    <path d="M 57.6 307.584 
L 414.72 307.584 
L 414.72 41.472 
L 57.6 41.472 
z
" style="fill:#ffffff;"/>
   </g>
   <g id="matplotlib.axis_1">
    <g id="xtick_1">
     <g id="line2d_1">
      <defs>
       <path d="M 0 0 
L 0 3.5 
" id="mec59cdb08f" style="stroke:#000000;stroke-width:0.8;"/>
      </defs>
      <g>
       <use style="stroke:#000000;stroke-width:0.8;" x="57.6" xlink:href="#mec59cdb08f" y="307.584"/>
      </g>
     </g>
     <g id="text_1">
      <!-- 0 -->
      <defs>
       <path d="M 31.78125 66.40625 
Q 24.171875 66.40625 20.328125 58.90625 
Q 16.5 51.421875 16.5 36.375 
Q 16.5 21.390625 20.328125 13.890625 
Q 24.171875 6.390625 31.78125 6.390625 
Q 39.453125 6.390625 43.28125 13.890625 
Q 47.125 21.390625 47.125 36.375 
Q 47.125 51.421875 43.28125 58.90625 
Q 39.453125 66.40625 31.78125 66.40625 
z
M 31.78125 74.21875 
Q 44.046875 74.21875 50.515625 64.515625 
Q 56.984375 54.828125 56.984375 36.375 
Q 56.984375 17.96875 50.515625 8.265625 
Q 44.046875 -1.421875 31.78125 -1.421875 
Q 19.53125 -1.421875 13.0625 8.265625 
Q 6.59375 17.96875 6.59375 36.375 
Q 6.59375 54.828125 13.0625 64.515625 
Q 19.53125 74.21875 31.78125 74.21875 
z
" id="DejaVuSans-48"/>
      </defs>
      <g transform="translate(54.41875 322.182437)scale(0.1 -0.1)">
       <use xlink:href="#DejaVuSans-48"/>
      </g>
     </g>
    </g>
    <g id="xtick_2">
     <g id="line2d_2">
      <g>
       <use style="stroke:#000000;stroke-width:0.8;" x="103.979221" xlink:href="#mec59cdb08f" y="307.584"/>
      </g>
     </g>
     <g id="text_2">
      <!-- 10 -->
      <defs>
       <path d="M 12.40625 8.296875 
L 28.515625 8.296875 
L 28.515625 63.921875 
L 10.984375 60.40625 
L 10.984375 69.390625 
L 28.421875 72.90625 
L 38.28125 72.90625 
L 38.28125 8.296875 
L 54.390625 8.296875 
L 54.390625 0 
L 12.40625 0 
z
" id="DejaVuSans-49"/>
      </defs>
      <g transform="translate(97.616721 322.182437)scale(0.1 -0.1)">
       <use xlink:href="#DejaVuSans-49"/>
       <use x="63.623047" xlink:href="#DejaVuSans-48"/>
      </g>
     </g>
    </g>
    <g id="xtick_3">
     <g id="line2d_3">
      <g>
       <use style="stroke:#000000;stroke-width:0.8;" x="150.358442" xlink:href="#mec59cdb08f" y="307.584"/>
      </g>
     </g>
     <g id="text_3">
      <!-- 20 -->
      <defs>
       <path d="M 19.1875 8.296875 
L 53.609375 8.296875 
L 53.609375 0 
L 7.328125 0 
L 7.328125 8.296875 
Q 12.9375 14.109375 22.625 23.890625 
Q 32.328125 33.6875 34.8125 36.53125 
Q 39.546875 41.84375 41.421875 45.53125 
Q 43.3125 49.21875 43.3125 52.78125 
Q 43.3125 58.59375 39.234375 62.25 
Q 35.15625 65.921875 28.609375 65.921875 
Q 23.96875 65.921875 18.8125 64.3125 
Q 13.671875 62.703125 7.8125 59.421875 
L 7.8125 69.390625 
Q 13.765625 71.78125 18.9375 73 
Q 24.125 74.21875 28.421875 74.21875 
Q 39.75 74.21875 46.484375 68.546875 
Q 53.21875 62.890625 53.21875 53.421875 
Q 53.21875 48.921875 51.53125 44.890625 
Q 49.859375 40.875 45.40625 35.40625 
Q 44.1875 33.984375 37.640625 27.21875 
Q 31.109375 20.453125 19.1875 8.296875 
z
" id="DejaVuSans-50"/>
      </defs>
      <g transform="translate(143.995942 322.182437)scale(0.1 -0.1)">
       <use xlink:href="#DejaVuSans-50"/>
       <use x="63.623047" xlink:href="#DejaVuSans-48"/>
      </g>
     </g>
    </g>
    <g id="xtick_4">
     <g id="line2d_4">
      <g>
       <use style="stroke:#000000;stroke-width:0.8;" x="196.737662" xlink:href="#mec59cdb08f" y="307.584"/>
      </g>
     </g>
     <g id="text_4">
      <!-- 30 -->
      <defs>
       <path d="M 40.578125 39.3125 
Q 47.65625 37.796875 51.625 33 
Q 55.609375 28.21875 55.609375 21.1875 
Q 55.609375 10.40625 48.1875 4.484375 
Q 40.765625 -1.421875 27.09375 -1.421875 
Q 22.515625 -1.421875 17.65625 -0.515625 
Q 12.796875 0.390625 7.625 2.203125 
L 7.625 11.71875 
Q 11.71875 9.328125 16.59375 8.109375 
Q 21.484375 6.890625 26.8125 6.890625 
Q 36.078125 6.890625 40.9375 10.546875 
Q 45.796875 14.203125 45.796875 21.1875 
Q 45.796875 27.640625 41.28125 31.265625 
Q 36.765625 34.90625 28.71875 34.90625 
L 20.21875 34.90625 
L 20.21875 43.015625 
L 29.109375 43.015625 
Q 36.375 43.015625 40.234375 45.921875 
Q 44.09375 48.828125 44.09375 54.296875 
Q 44.09375 59.90625 40.109375 62.90625 
Q 36.140625 65.921875 28.71875 65.921875 
Q 24.65625 65.921875 20.015625 65.03125 
Q 15.375 64.15625 9.8125 62.3125 
L 9.8125 71.09375 
Q 15.4375 72.65625 20.34375 73.4375 
Q 25.25 74.21875 29.59375 74.21875 
Q 40.828125 74.21875 47.359375 69.109375 
Q 53.90625 64.015625 53.90625 55.328125 
Q 53.90625 49.265625 50.4375 45.09375 
Q 46.96875 40.921875 40.578125 39.3125 
z
" id="DejaVuSans-51"/>
      </defs>
      <g transform="translate(190.375162 322.182437)scale(0.1 -0.1)">
       <use xlink:href="#DejaVuSans-51"/>
       <use x="63.623047" xlink:href="#DejaVuSans-48"/>
      </g>
     </g>
    </g>
    <g id="xtick_5">
     <g id="line2d_5">
      <g>
       <use style="stroke:#000000;stroke-width:0.8;" x="243.116883" xlink:href="#mec59cdb08f" y="307.584"/>
      </g>
     </g>
     <g id="text_5">
      <!-- 40 -->
      <defs>
       <path d="M 37.796875 64.3125 
L 12.890625 25.390625 
L 37.796875 25.390625 
z
M 35.203125 72.90625 
L 47.609375 72.90625 
L 47.609375 25.390625 
L 58.015625 25.390625 
L 58.015625 17.1875 
L 47.609375 17.1875 
L 47.609375 0 
L 37.796875 0 
L 37.796875 17.1875 
L 4.890625 17.1875 
L 4.890625 26.703125 
z
" id="DejaVuSans-52"/>
      </defs>
      <g transform="translate(236.754383 322.182437)scale(0.1 -0.1)">
       <use xlink:href="#DejaVuSans-52"/>
       <use x="63.623047" xlink:href="#DejaVuSans-48"/>
      </g>
     </g>
    </g>
    <g id="xtick_6">
     <g id="line2d_6">
      <g>
       <use style="stroke:#000000;stroke-width:0.8;" x="289.496104" xlink:href="#mec59cdb08f" y="307.584"/>
      </g>
     </g>
     <g id="text_6">
      <!-- 50 -->
      <defs>
       <path d="M 10.796875 72.90625 
L 49.515625 72.90625 
L 49.515625 64.59375 
L 19.828125 64.59375 
L 19.828125 46.734375 
Q 21.96875 47.46875 24.109375 47.828125 
Q 26.265625 48.1875 28.421875 48.1875 
Q 40.625 48.1875 47.75 41.5 
Q 54.890625 34.8125 54.890625 23.390625 
Q 54.890625 11.625 47.5625 5.09375 
Q 40.234375 -1.421875 26.90625 -1.421875 
Q 22.3125 -1.421875 17.546875 -0.640625 
Q 12.796875 0.140625 7.71875 1.703125 
L 7.71875 11.625 
Q 12.109375 9.234375 16.796875 8.0625 
Q 21.484375 6.890625 26.703125 6.890625 
Q 35.15625 6.890625 40.078125 11.328125 
Q 45.015625 15.765625 45.015625 23.390625 
Q 45.015625 31 40.078125 35.4375 
Q 35.15625 39.890625 26.703125 39.890625 
Q 22.75 39.890625 18.8125 39.015625 
Q 14.890625 38.140625 10.796875 36.28125 
z
" id="DejaVuSans-53"/>
      </defs>
      <g transform="translate(283.133604 322.182437)scale(0.1 -0.1)">
       <use xlink:href="#DejaVuSans-53"/>
       <use x="63.623047" xlink:href="#DejaVuSans-48"/>
      </g>
     </g>
    </g>
    <g id="xtick_7">
     <g id="line2d_7">
      <g>
       <use style="stroke:#000000;stroke-width:0.8;" x="335.875325" xlink:href="#mec59cdb08f" y="307.584"/>
      </g>
     </g>
     <g id="text_7">
      <!-- 60 -->
      <defs>
       <path d="M 33.015625 40.375 
Q 26.375 40.375 22.484375 35.828125 
Q 18.609375 31.296875 18.609375 23.390625 
Q 18.609375 15.53125 22.484375 10.953125 
Q 26.375 6.390625 33.015625 6.390625 
Q 39.65625 6.390625 43.53125 10.953125 
Q 47.40625 15.53125 47.40625 23.390625 
Q 47.40625 31.296875 43.53125 35.828125 
Q 39.65625 40.375 33.015625 40.375 
z
M 52.59375 71.296875 
L 52.59375 62.3125 
Q 48.875 64.0625 45.09375 64.984375 
Q 41.3125 65.921875 37.59375 65.921875 
Q 27.828125 65.921875 22.671875 59.328125 
Q 17.53125 52.734375 16.796875 39.40625 
Q 19.671875 43.65625 24.015625 45.921875 
Q 28.375 48.1875 33.59375 48.1875 
Q 44.578125 48.1875 50.953125 41.515625 
Q 57.328125 34.859375 57.328125 23.390625 
Q 57.328125 12.15625 50.6875 5.359375 
Q 44.046875 -1.421875 33.015625 -1.421875 
Q 20.359375 -1.421875 13.671875 8.265625 
Q 6.984375 17.96875 6.984375 36.375 
Q 6.984375 53.65625 15.1875 63.9375 
Q 23.390625 74.21875 37.203125 74.21875 
Q 40.921875 74.21875 44.703125 73.484375 
Q 48.484375 72.75 52.59375 71.296875 
z
" id="DejaVuSans-54"/>
      </defs>
      <g transform="translate(329.512825 322.182437)scale(0.1 -0.1)">
       <use xlink:href="#DejaVuSans-54"/>
       <use x="63.623047" xlink:href="#DejaVuSans-48"/>
      </g>
     </g>
    </g>
    <g id="xtick_8">
     <g id="line2d_8">
      <g>
       <use style="stroke:#000000;stroke-width:0.8;" x="382.254545" xlink:href="#mec59cdb08f" y="307.584"/>
      </g>
     </g>
     <g id="text_8">
      <!-- 70 -->
      <defs>
       <path d="M 8.203125 72.90625 
L 55.078125 72.90625 
L 55.078125 68.703125 
L 28.609375 0 
L 18.3125 0 
L 43.21875 64.59375 
L 8.203125 64.59375 
z
" id="DejaVuSans-55"/>
      </defs>
      <g transform="translate(375.892045 322.182437)scale(0.1 -0.1)">
       <use xlink:href="#DejaVuSans-55"/>
       <use x="63.623047" xlink:href="#DejaVuSans-48"/>
      </g>
     </g>
    </g>
   </g>
   <g id="matplotlib.axis_2">
    <g id="ytick_1">
     <g id="line2d_9">
      <defs>
       <path d="M 0 0 
L -3.5 0 
" id="m484de3d21b" style="stroke:#000000;stroke-width:0.8;"/>
      </defs>
      <g>
       <use style="stroke:#000000;stroke-width:0.8;" x="57.6" xlink:href="#m484de3d21b" y="295.488"/>
      </g>
     </g>
     <g id="text_9">
      <!-- 52 -->
      <g transform="translate(37.875 299.287219)scale(0.1 -0.1)">
       <use xlink:href="#DejaVuSans-53"/>
       <use x="63.623047" xlink:href="#DejaVuSans-50"/>
      </g>
     </g>
    </g>
    <g id="ytick_2">
     <g id="line2d_10">
      <g>
       <use style="stroke:#000000;stroke-width:0.8;" x="57.6" xlink:href="#m484de3d21b" y="240.506182"/>
      </g>
     </g>
     <g id="text_10">
      <!-- 53 -->
      <g transform="translate(37.875 244.305401)scale(0.1 -0.1)">
       <use xlink:href="#DejaVuSans-53"/>
       <use x="63.623047" xlink:href="#DejaVuSans-51"/>
      </g>
     </g>
    </g>
    <g id="ytick_3">
     <g id="line2d_11">
      <g>
       <use style="stroke:#000000;stroke-width:0.8;" x="57.6" xlink:href="#m484de3d21b" y="185.524364"/>
      </g>
     </g>
     <g id="text_11">
      <!-- 54 -->
      <g transform="translate(37.875 189.323582)scale(0.1 -0.1)">
       <use xlink:href="#DejaVuSans-53"/>
       <use x="63.623047" xlink:href="#DejaVuSans-52"/>
      </g>
     </g>
    </g>
    <g id="ytick_4">
     <g id="line2d_12">
      <g>
       <use style="stroke:#000000;stroke-width:0.8;" x="57.6" xlink:href="#m484de3d21b" y="130.542545"/>
      </g>
     </g>
     <g id="text_12">
      <!-- 55 -->
      <g transform="translate(37.875 134.341764)scale(0.1 -0.1)">
       <use xlink:href="#DejaVuSans-53"/>
       <use x="63.623047" xlink:href="#DejaVuSans-53"/>
      </g>
     </g>
    </g>
    <g id="ytick_5">
     <g id="line2d_13">
      <g>
       <use style="stroke:#000000;stroke-width:0.8;" x="57.6" xlink:href="#m484de3d21b" y="75.560727"/>
      </g>
     </g>
     <g id="text_13">
      <!-- 56 -->
      <g transform="translate(37.875 79.359946)scale(0.1 -0.1)">
       <use xlink:href="#DejaVuSans-53"/>
       <use x="63.623047" xlink:href="#DejaVuSans-54"/>
      </g>
     </g>
    </g>
   </g>
   <g id="line2d_14">
    <path clip-path="url(#pa1808f0996)" d="M 76.151688 273.495273 
L 80.78961 251.502545 
L 85.427532 240.506182 
L 90.065455 229.509818 
L 94.703377 229.509818 
L 99.341299 229.509818 
L 103.979221 240.506182 
L 108.617143 240.506182 
L 113.255065 240.506182 
L 117.892987 229.509818 
L 122.530909 240.506182 
L 127.168831 240.506182 
L 131.806753 251.502545 
L 136.444675 251.502545 
L 141.082597 251.502545 
L 145.720519 262.498909 
L 150.358442 262.498909 
L 154.996364 251.502545 
L 159.634286 251.502545 
L 164.272208 251.502545 
L 168.91013 240.506182 
L 173.548052 207.517091 
L 178.185974 207.517091 
L 182.823896 207.517091 
L 187.461818 207.517091 
L 192.09974 207.517091 
L 196.737662 240.506182 
L 201.375584 240.506182 
L 206.013506 251.502545 
L 210.651429 251.502545 
L 215.289351 251.502545 
L 219.927273 251.502545 
L 224.565195 251.502545 
L 229.203117 240.506182 
L 233.841039 240.506182 
L 238.478961 240.506182 
L 243.116883 240.506182 
L 247.754805 240.506182 
L 252.392727 240.506182 
L 257.030649 251.502545 
L 261.668571 262.498909 
L 266.306494 262.498909 
L 270.944416 262.498909 
L 275.582338 262.498909 
L 280.22026 251.502545 
L 284.858182 240.506182 
L 289.496104 240.506182 
L 294.134026 240.506182 
L 298.771948 240.506182 
L 303.40987 240.506182 
L 308.047792 240.506182 
L 312.685714 240.506182 
L 317.323636 240.506182 
L 321.961558 240.506182 
L 326.599481 240.506182 
L 331.237403 240.506182 
L 335.875325 240.506182 
L 340.513247 240.506182 
L 345.151169 240.506182 
L 349.789091 240.506182 
L 354.427013 240.506182 
L 359.064935 240.506182 
L 363.702857 240.506182 
L 368.340779 240.506182 
L 372.978701 240.506182 
L 377.616623 240.506182 
L 382.254545 240.506182 
L 386.892468 240.506182 
L 391.53039 240.506182 
L 396.168312 240.506182 
L 400.806234 240.506182 
L 405.444156 240.506182 
L 410.082078 240.506182 
L 414.72 240.506182 
" style="fill:none;stroke:#1f77b4;stroke-linecap:square;stroke-width:1.5;"/>
   </g>
   <g id="line2d_15">
    <path clip-path="url(#pa1808f0996)" d="M 76.151688 174.528 
L 80.78961 163.531636 
L 85.427532 152.535273 
L 90.065455 218.513455 
L 94.703377 229.509818 
L 99.341299 218.513455 
L 103.979221 218.513455 
L 108.617143 229.509818 
L 113.255065 229.509818 
L 117.892987 229.509818 
L 122.530909 240.506182 
L 127.168831 229.509818 
L 131.806753 229.509818 
L 136.444675 218.513455 
L 141.082597 218.513455 
L 145.720519 218.513455 
L 150.358442 229.509818 
L 154.996364 218.513455 
L 159.634286 218.513455 
L 164.272208 207.517091 
L 168.91013 196.520727 
L 173.548052 185.524364 
L 178.185974 185.524364 
L 182.823896 185.524364 
L 187.461818 185.524364 
L 192.09974 185.524364 
L 196.737662 185.524364 
L 201.375584 196.520727 
L 206.013506 207.517091 
L 210.651429 218.513455 
L 215.289351 218.513455 
L 219.927273 218.513455 
L 224.565195 207.517091 
L 229.203117 196.520727 
L 233.841039 185.524364 
L 238.478961 185.524364 
L 243.116883 185.524364 
L 247.754805 185.524364 
L 252.392727 196.520727 
L 257.030649 196.520727 
L 261.668571 196.520727 
L 266.306494 196.520727 
L 270.944416 196.520727 
L 275.582338 185.524364 
L 280.22026 185.524364 
L 284.858182 185.524364 
L 289.496104 185.524364 
L 294.134026 185.524364 
L 298.771948 185.524364 
L 303.40987 185.524364 
L 308.047792 185.524364 
L 312.685714 185.524364 
L 317.323636 185.524364 
L 321.961558 185.524364 
L 326.599481 185.524364 
L 331.237403 185.524364 
L 335.875325 185.524364 
L 340.513247 185.524364 
L 345.151169 185.524364 
L 349.789091 185.524364 
L 354.427013 185.524364 
L 359.064935 185.524364 
L 363.702857 174.528 
L 368.340779 174.528 
L 372.978701 174.528 
L 377.616623 174.528 
L 382.254545 174.528 
L 386.892468 185.524364 
L 391.53039 185.524364 
L 396.168312 185.524364 
L 400.806234 185.524364 
L 405.444156 185.524364 
L 410.082078 185.524364 
L 414.72 185.524364 
" style="fill:none;stroke:#ff7f0e;stroke-linecap:square;stroke-width:1.5;"/>
   </g>
   <g id="line2d_16">
    <path clip-path="url(#pa1808f0996)" d="M 76.151688 229.509818 
L 80.78961 152.535273 
L 85.427532 174.528 
L 90.065455 174.528 
L 94.703377 185.524364 
L 99.341299 185.524364 
L 103.979221 273.495273 
L 108.617143 273.495273 
L 113.255065 284.491636 
L 117.892987 284.491636 
L 122.530909 295.488 
L 127.168831 295.488 
L 131.806753 295.488 
L 136.444675 295.488 
L 141.082597 295.488 
L 145.720519 295.488 
L 150.358442 295.488 
L 154.996364 295.488 
L 159.634286 295.488 
L 164.272208 295.488 
L 168.91013 295.488 
L 173.548052 284.491636 
L 178.185974 273.495273 
L 182.823896 273.495273 
L 187.461818 273.495273 
L 192.09974 273.495273 
L 196.737662 284.491636 
L 201.375584 295.488 
L 206.013506 295.488 
L 210.651429 295.488 
L 215.289351 295.488 
L 219.927273 295.488 
L 224.565195 295.488 
L 229.203117 295.488 
L 233.841039 295.488 
L 238.478961 295.488 
L 243.116883 295.488 
L 247.754805 284.491636 
L 252.392727 284.491636 
L 257.030649 284.491636 
L 261.668571 284.491636 
L 266.306494 284.491636 
L 270.944416 284.491636 
L 275.582338 284.491636 
L 280.22026 284.491636 
L 284.858182 273.495273 
L 289.496104 262.498909 
L 294.134026 262.498909 
L 298.771948 251.502545 
L 303.40987 240.506182 
L 308.047792 240.506182 
L 312.685714 251.502545 
L 317.323636 251.502545 
L 321.961558 251.502545 
L 326.599481 251.502545 
L 331.237403 251.502545 
L 335.875325 251.502545 
L 340.513247 251.502545 
L 345.151169 262.498909 
L 349.789091 273.495273 
L 354.427013 273.495273 
L 359.064935 262.498909 
L 363.702857 262.498909 
L 368.340779 262.498909 
L 372.978701 251.502545 
L 377.616623 251.502545 
L 382.254545 251.502545 
L 386.892468 251.502545 
L 391.53039 251.502545 
L 396.168312 251.502545 
L 400.806234 251.502545 
L 405.444156 262.498909 
L 410.082078 262.498909 
L 414.72 251.502545 
" style="fill:none;stroke:#2ca02c;stroke-linecap:square;stroke-width:1.5;"/>
   </g>
   <g id="line2d_17">
    <path clip-path="url(#pa1808f0996)" d="M 76.151688 207.517091 
L 80.78961 196.520727 
L 85.427532 185.524364 
L 90.065455 185.524364 
L 94.703377 185.524364 
L 99.341299 185.524364 
L 103.979221 185.524364 
L 108.617143 185.524364 
L 113.255065 185.524364 
L 117.892987 196.520727 
L 122.530909 196.520727 
L 127.168831 196.520727 
L 131.806753 196.520727 
L 136.444675 196.520727 
L 141.082597 185.524364 
L 145.720519 185.524364 
L 150.358442 185.524364 
L 154.996364 185.524364 
L 159.634286 185.524364 
L 164.272208 185.524364 
L 168.91013 185.524364 
L 173.548052 185.524364 
L 178.185974 185.524364 
L 182.823896 152.535273 
L 187.461818 119.546182 
L 192.09974 97.553455 
L 196.737662 75.560727 
L 201.375584 53.568 
L 206.013506 75.560727 
L 210.651429 97.553455 
L 215.289351 108.549818 
L 219.927273 119.546182 
L 224.565195 130.542545 
L 229.203117 130.542545 
L 233.841039 130.542545 
L 238.478961 130.542545 
L 243.116883 141.538909 
L 247.754805 152.535273 
L 252.392727 152.535273 
L 257.030649 163.531636 
L 261.668571 174.528 
L 266.306494 174.528 
L 270.944416 174.528 
L 275.582338 163.531636 
L 280.22026 152.535273 
L 284.858182 152.535273 
L 289.496104 152.535273 
L 294.134026 152.535273 
L 298.771948 174.528 
L 303.40987 185.524364 
L 308.047792 174.528 
L 312.685714 163.531636 
L 317.323636 152.535273 
L 321.961558 141.538909 
L 326.599481 141.538909 
L 331.237403 152.535273 
L 335.875325 152.535273 
L 340.513247 152.535273 
L 345.151169 152.535273 
L 349.789091 152.535273 
L 354.427013 141.538909 
L 359.064935 152.535273 
L 363.702857 163.531636 
L 368.340779 163.531636 
L 372.978701 152.535273 
L 377.616623 130.542545 
L 382.254545 108.549818 
L 386.892468 86.557091 
L 391.53039 75.560727 
L 396.168312 75.560727 
L 400.806234 97.553455 
L 405.444156 108.549818 
L 410.082078 119.546182 
L 414.72 130.542545 
" style="fill:none;stroke:#d62728;stroke-linecap:square;stroke-width:1.5;"/>
   </g>
   <g id="patch_3">
    <path d="M 57.6 307.584 
L 57.6 41.472 
" style="fill:none;stroke:#000000;stroke-linecap:square;stroke-linejoin:miter;stroke-width:0.8;"/>
   </g>
   <g id="patch_4">
    <path d="M 414.72 307.584 
L 414.72 41.472 
" style="fill:none;stroke:#000000;stroke-linecap:square;stroke-linejoin:miter;stroke-width:0.8;"/>
   </g>
   <g id="patch_5">
    <path d="M 57.6 307.584 
L 414.72 307.584 
" style="fill:none;stroke:#000000;stroke-linecap:square;stroke-linejoin:miter;stroke-width:0.8;"/>
   </g>
   <g id="patch_6">
    <path d="M 57.6 41.472 
L 414.72 41.472 
" style="fill:none;stroke:#000000;stroke-linecap:square;stroke-linejoin:miter;stroke-width:0.8;"/>
   </g>
   <g id="legend_1">
    <g id="patch_7">
     <path d="M 69.787187 108.1845 
L 407.72 108.1845 
Q 409.72 108.1845 409.72 106.1845 
L 409.72 48.472 
Q 409.72 46.472 407.72 46.472 
L 69.787187 46.472 
Q 67.787187 46.472 67.787187 48.472 
L 67.787187 106.1845 
Q 67.787187 108.1845 69.787187 108.1845 
z
" style="fill:#ffffff;opacity:0.8;stroke:#cccccc;stroke-linejoin:miter;"/>
    </g>
    <g id="line2d_18">
     <path d="M 71.787187 54.570438 
L 91.787187 54.570438 
" style="fill:none;stroke:#1f77b4;stroke-linecap:square;stroke-width:1.5;"/>
    </g>
    <g id="line2d_19"/>
    <g id="text_14">
     <!-- 5.2.17.ipstate-active-hwp.gnome-shell-classic.winmove.main -->
     <defs>
      <path d="M 10.6875 12.40625 
L 21 12.40625 
L 21 0 
L 10.6875 0 
z
" id="DejaVuSans-46"/>
      <path d="M 9.421875 54.6875 
L 18.40625 54.6875 
L 18.40625 0 
L 9.421875 0 
z
M 9.421875 75.984375 
L 18.40625 75.984375 
L 18.40625 64.59375 
L 9.421875 64.59375 
z
" id="DejaVuSans-105"/>
      <path d="M 18.109375 8.203125 
L 18.109375 -20.796875 
L 9.078125 -20.796875 
L 9.078125 54.6875 
L 18.109375 54.6875 
L 18.109375 46.390625 
Q 20.953125 51.265625 25.265625 53.625 
Q 29.59375 56 35.59375 56 
Q 45.5625 56 51.78125 48.09375 
Q 58.015625 40.1875 58.015625 27.296875 
Q 58.015625 14.40625 51.78125 6.484375 
Q 45.5625 -1.421875 35.59375 -1.421875 
Q 29.59375 -1.421875 25.265625 0.953125 
Q 20.953125 3.328125 18.109375 8.203125 
z
M 48.6875 27.296875 
Q 48.6875 37.203125 44.609375 42.84375 
Q 40.53125 48.484375 33.40625 48.484375 
Q 26.265625 48.484375 22.1875 42.84375 
Q 18.109375 37.203125 18.109375 27.296875 
Q 18.109375 17.390625 22.1875 11.75 
Q 26.265625 6.109375 33.40625 6.109375 
Q 40.53125 6.109375 44.609375 11.75 
Q 48.6875 17.390625 48.6875 27.296875 
z
" id="DejaVuSans-112"/>
      <path d="M 44.28125 53.078125 
L 44.28125 44.578125 
Q 40.484375 46.53125 36.375 47.5 
Q 32.28125 48.484375 27.875 48.484375 
Q 21.1875 48.484375 17.84375 46.4375 
Q 14.5 44.390625 14.5 40.28125 
Q 14.5 37.15625 16.890625 35.375 
Q 19.28125 33.59375 26.515625 31.984375 
L 29.59375 31.296875 
Q 39.15625 29.25 43.1875 25.515625 
Q 47.21875 21.78125 47.21875 15.09375 
Q 47.21875 7.46875 41.1875 3.015625 
Q 35.15625 -1.421875 24.609375 -1.421875 
Q 20.21875 -1.421875 15.453125 -0.5625 
Q 10.6875 0.296875 5.421875 2 
L 5.421875 11.28125 
Q 10.40625 8.6875 15.234375 7.390625 
Q 20.0625 6.109375 24.8125 6.109375 
Q 31.15625 6.109375 34.5625 8.28125 
Q 37.984375 10.453125 37.984375 14.40625 
Q 37.984375 18.0625 35.515625 20.015625 
Q 33.0625 21.96875 24.703125 23.78125 
L 21.578125 24.515625 
Q 13.234375 26.265625 9.515625 29.90625 
Q 5.8125 33.546875 5.8125 39.890625 
Q 5.8125 47.609375 11.28125 51.796875 
Q 16.75 56 26.8125 56 
Q 31.78125 56 36.171875 55.265625 
Q 40.578125 54.546875 44.28125 53.078125 
z
" id="DejaVuSans-115"/>
      <path d="M 18.3125 70.21875 
L 18.3125 54.6875 
L 36.8125 54.6875 
L 36.8125 47.703125 
L 18.3125 47.703125 
L 18.3125 18.015625 
Q 18.3125 11.328125 20.140625 9.421875 
Q 21.96875 7.515625 27.59375 7.515625 
L 36.8125 7.515625 
L 36.8125 0 
L 27.59375 0 
Q 17.1875 0 13.234375 3.875 
Q 9.28125 7.765625 9.28125 18.015625 
L 9.28125 47.703125 
L 2.6875 47.703125 
L 2.6875 54.6875 
L 9.28125 54.6875 
L 9.28125 70.21875 
z
" id="DejaVuSans-116"/>
      <path d="M 34.28125 27.484375 
Q 23.390625 27.484375 19.1875 25 
Q 14.984375 22.515625 14.984375 16.5 
Q 14.984375 11.71875 18.140625 8.90625 
Q 21.296875 6.109375 26.703125 6.109375 
Q 34.1875 6.109375 38.703125 11.40625 
Q 43.21875 16.703125 43.21875 25.484375 
L 43.21875 27.484375 
z
M 52.203125 31.203125 
L 52.203125 0 
L 43.21875 0 
L 43.21875 8.296875 
Q 40.140625 3.328125 35.546875 0.953125 
Q 30.953125 -1.421875 24.3125 -1.421875 
Q 15.921875 -1.421875 10.953125 3.296875 
Q 6 8.015625 6 15.921875 
Q 6 25.140625 12.171875 29.828125 
Q 18.359375 34.515625 30.609375 34.515625 
L 43.21875 34.515625 
L 43.21875 35.40625 
Q 43.21875 41.609375 39.140625 45 
Q 35.0625 48.390625 27.6875 48.390625 
Q 23 48.390625 18.546875 47.265625 
Q 14.109375 46.140625 10.015625 43.890625 
L 10.015625 52.203125 
Q 14.9375 54.109375 19.578125 55.046875 
Q 24.21875 56 28.609375 56 
Q 40.484375 56 46.34375 49.84375 
Q 52.203125 43.703125 52.203125 31.203125 
z
" id="DejaVuSans-97"/>
      <path d="M 56.203125 29.59375 
L 56.203125 25.203125 
L 14.890625 25.203125 
Q 15.484375 15.921875 20.484375 11.0625 
Q 25.484375 6.203125 34.421875 6.203125 
Q 39.59375 6.203125 44.453125 7.46875 
Q 49.3125 8.734375 54.109375 11.28125 
L 54.109375 2.78125 
Q 49.265625 0.734375 44.1875 -0.34375 
Q 39.109375 -1.421875 33.890625 -1.421875 
Q 20.796875 -1.421875 13.15625 6.1875 
Q 5.515625 13.8125 5.515625 26.8125 
Q 5.515625 40.234375 12.765625 48.109375 
Q 20.015625 56 32.328125 56 
Q 43.359375 56 49.78125 48.890625 
Q 56.203125 41.796875 56.203125 29.59375 
z
M 47.21875 32.234375 
Q 47.125 39.59375 43.09375 43.984375 
Q 39.0625 48.390625 32.421875 48.390625 
Q 24.90625 48.390625 20.390625 44.140625 
Q 15.875 39.890625 15.1875 32.171875 
z
" id="DejaVuSans-101"/>
      <path d="M 4.890625 31.390625 
L 31.203125 31.390625 
L 31.203125 23.390625 
L 4.890625 23.390625 
z
" id="DejaVuSans-45"/>
      <path d="M 48.78125 52.59375 
L 48.78125 44.1875 
Q 44.96875 46.296875 41.140625 47.34375 
Q 37.3125 48.390625 33.40625 48.390625 
Q 24.65625 48.390625 19.8125 42.84375 
Q 14.984375 37.3125 14.984375 27.296875 
Q 14.984375 17.28125 19.8125 11.734375 
Q 24.65625 6.203125 33.40625 6.203125 
Q 37.3125 6.203125 41.140625 7.25 
Q 44.96875 8.296875 48.78125 10.40625 
L 48.78125 2.09375 
Q 45.015625 0.34375 40.984375 -0.53125 
Q 36.96875 -1.421875 32.421875 -1.421875 
Q 20.0625 -1.421875 12.78125 6.34375 
Q 5.515625 14.109375 5.515625 27.296875 
Q 5.515625 40.671875 12.859375 48.328125 
Q 20.21875 56 33.015625 56 
Q 37.15625 56 41.109375 55.140625 
Q 45.0625 54.296875 48.78125 52.59375 
z
" id="DejaVuSans-99"/>
      <path d="M 2.984375 54.6875 
L 12.5 54.6875 
L 29.59375 8.796875 
L 46.6875 54.6875 
L 56.203125 54.6875 
L 35.6875 0 
L 23.484375 0 
z
" id="DejaVuSans-118"/>
      <path d="M 54.890625 33.015625 
L 54.890625 0 
L 45.90625 0 
L 45.90625 32.71875 
Q 45.90625 40.484375 42.875 44.328125 
Q 39.84375 48.1875 33.796875 48.1875 
Q 26.515625 48.1875 22.3125 43.546875 
Q 18.109375 38.921875 18.109375 30.90625 
L 18.109375 0 
L 9.078125 0 
L 9.078125 75.984375 
L 18.109375 75.984375 
L 18.109375 46.1875 
Q 21.34375 51.125 25.703125 53.5625 
Q 30.078125 56 35.796875 56 
Q 45.21875 56 50.046875 50.171875 
Q 54.890625 44.34375 54.890625 33.015625 
z
" id="DejaVuSans-104"/>
      <path d="M 4.203125 54.6875 
L 13.1875 54.6875 
L 24.421875 12.015625 
L 35.59375 54.6875 
L 46.1875 54.6875 
L 57.421875 12.015625 
L 68.609375 54.6875 
L 77.59375 54.6875 
L 63.28125 0 
L 52.6875 0 
L 40.921875 44.828125 
L 29.109375 0 
L 18.5 0 
z
" id="DejaVuSans-119"/>
      <path d="M 45.40625 27.984375 
Q 45.40625 37.75 41.375 43.109375 
Q 37.359375 48.484375 30.078125 48.484375 
Q 22.859375 48.484375 18.828125 43.109375 
Q 14.796875 37.75 14.796875 27.984375 
Q 14.796875 18.265625 18.828125 12.890625 
Q 22.859375 7.515625 30.078125 7.515625 
Q 37.359375 7.515625 41.375 12.890625 
Q 45.40625 18.265625 45.40625 27.984375 
z
M 54.390625 6.78125 
Q 54.390625 -7.171875 48.1875 -13.984375 
Q 42 -20.796875 29.203125 -20.796875 
Q 24.46875 -20.796875 20.265625 -20.09375 
Q 16.0625 -19.390625 12.109375 -17.921875 
L 12.109375 -9.1875 
Q 16.0625 -11.328125 19.921875 -12.34375 
Q 23.78125 -13.375 27.78125 -13.375 
Q 36.625 -13.375 41.015625 -8.765625 
Q 45.40625 -4.15625 45.40625 5.171875 
L 45.40625 9.625 
Q 42.625 4.78125 38.28125 2.390625 
Q 33.9375 0 27.875 0 
Q 17.828125 0 11.671875 7.65625 
Q 5.515625 15.328125 5.515625 27.984375 
Q 5.515625 40.671875 11.671875 48.328125 
Q 17.828125 56 27.875 56 
Q 33.9375 56 38.28125 53.609375 
Q 42.625 51.21875 45.40625 46.390625 
L 45.40625 54.6875 
L 54.390625 54.6875 
z
" id="DejaVuSans-103"/>
      <path d="M 54.890625 33.015625 
L 54.890625 0 
L 45.90625 0 
L 45.90625 32.71875 
Q 45.90625 40.484375 42.875 44.328125 
Q 39.84375 48.1875 33.796875 48.1875 
Q 26.515625 48.1875 22.3125 43.546875 
Q 18.109375 38.921875 18.109375 30.90625 
L 18.109375 0 
L 9.078125 0 
L 9.078125 54.6875 
L 18.109375 54.6875 
L 18.109375 46.1875 
Q 21.34375 51.125 25.703125 53.5625 
Q 30.078125 56 35.796875 56 
Q 45.21875 56 50.046875 50.171875 
Q 54.890625 44.34375 54.890625 33.015625 
z
" id="DejaVuSans-110"/>
      <path d="M 30.609375 48.390625 
Q 23.390625 48.390625 19.1875 42.75 
Q 14.984375 37.109375 14.984375 27.296875 
Q 14.984375 17.484375 19.15625 11.84375 
Q 23.34375 6.203125 30.609375 6.203125 
Q 37.796875 6.203125 41.984375 11.859375 
Q 46.1875 17.53125 46.1875 27.296875 
Q 46.1875 37.015625 41.984375 42.703125 
Q 37.796875 48.390625 30.609375 48.390625 
z
M 30.609375 56 
Q 42.328125 56 49.015625 48.375 
Q 55.71875 40.765625 55.71875 27.296875 
Q 55.71875 13.875 49.015625 6.21875 
Q 42.328125 -1.421875 30.609375 -1.421875 
Q 18.84375 -1.421875 12.171875 6.21875 
Q 5.515625 13.875 5.515625 27.296875 
Q 5.515625 40.765625 12.171875 48.375 
Q 18.84375 56 30.609375 56 
z
" id="DejaVuSans-111"/>
      <path d="M 52 44.1875 
Q 55.375 50.25 60.0625 53.125 
Q 64.75 56 71.09375 56 
Q 79.640625 56 84.28125 50.015625 
Q 88.921875 44.046875 88.921875 33.015625 
L 88.921875 0 
L 79.890625 0 
L 79.890625 32.71875 
Q 79.890625 40.578125 77.09375 44.375 
Q 74.3125 48.1875 68.609375 48.1875 
Q 61.625 48.1875 57.5625 43.546875 
Q 53.515625 38.921875 53.515625 30.90625 
L 53.515625 0 
L 44.484375 0 
L 44.484375 32.71875 
Q 44.484375 40.625 41.703125 44.40625 
Q 38.921875 48.1875 33.109375 48.1875 
Q 26.21875 48.1875 22.15625 43.53125 
Q 18.109375 38.875 18.109375 30.90625 
L 18.109375 0 
L 9.078125 0 
L 9.078125 54.6875 
L 18.109375 54.6875 
L 18.109375 46.1875 
Q 21.1875 51.21875 25.484375 53.609375 
Q 29.78125 56 35.6875 56 
Q 41.65625 56 45.828125 52.96875 
Q 50 49.953125 52 44.1875 
z
" id="DejaVuSans-109"/>
      <path d="M 9.421875 75.984375 
L 18.40625 75.984375 
L 18.40625 0 
L 9.421875 0 
z
" id="DejaVuSans-108"/>
     </defs>
     <g transform="translate(99.787187 58.070438)scale(0.1 -0.1)">
      <use xlink:href="#DejaVuSans-53"/>
      <use x="63.623047" xlink:href="#DejaVuSans-46"/>
      <use x="95.410156" xlink:href="#DejaVuSans-50"/>
      <use x="159.033203" xlink:href="#DejaVuSans-46"/>
      <use x="190.820312" xlink:href="#DejaVuSans-49"/>
      <use x="254.443359" xlink:href="#DejaVuSans-55"/>
      <use x="318.066406" xlink:href="#DejaVuSans-46"/>
      <use x="349.853516" xlink:href="#DejaVuSans-105"/>
      <use x="377.636719" xlink:href="#DejaVuSans-112"/>
      <use x="441.113281" xlink:href="#DejaVuSans-115"/>
      <use x="493.212891" xlink:href="#DejaVuSans-116"/>
      <use x="532.421875" xlink:href="#DejaVuSans-97"/>
      <use x="593.701172" xlink:href="#DejaVuSans-116"/>
      <use x="632.910156" xlink:href="#DejaVuSans-101"/>
      <use x="694.433594" xlink:href="#DejaVuSans-45"/>
      <use x="730.517578" xlink:href="#DejaVuSans-97"/>
      <use x="791.796875" xlink:href="#DejaVuSans-99"/>
      <use x="846.777344" xlink:href="#DejaVuSans-116"/>
      <use x="885.986328" xlink:href="#DejaVuSans-105"/>
      <use x="913.769531" xlink:href="#DejaVuSans-118"/>
      <use x="972.949219" xlink:href="#DejaVuSans-101"/>
      <use x="1034.472656" xlink:href="#DejaVuSans-45"/>
      <use x="1070.556641" xlink:href="#DejaVuSans-104"/>
      <use x="1133.935547" xlink:href="#DejaVuSans-119"/>
      <use x="1215.722656" xlink:href="#DejaVuSans-112"/>
      <use x="1279.199219" xlink:href="#DejaVuSans-46"/>
      <use x="1310.986328" xlink:href="#DejaVuSans-103"/>
      <use x="1374.462891" xlink:href="#DejaVuSans-110"/>
      <use x="1437.841797" xlink:href="#DejaVuSans-111"/>
      <use x="1499.023438" xlink:href="#DejaVuSans-109"/>
      <use x="1596.435547" xlink:href="#DejaVuSans-101"/>
      <use x="1657.958984" xlink:href="#DejaVuSans-45"/>
      <use x="1694.042969" xlink:href="#DejaVuSans-115"/>
      <use x="1746.142578" xlink:href="#DejaVuSans-104"/>
      <use x="1809.521484" xlink:href="#DejaVuSans-101"/>
      <use x="1871.044922" xlink:href="#DejaVuSans-108"/>
      <use x="1898.828125" xlink:href="#DejaVuSans-108"/>
      <use x="1926.611328" xlink:href="#DejaVuSans-45"/>
      <use x="1962.695312" xlink:href="#DejaVuSans-99"/>
      <use x="2017.675781" xlink:href="#DejaVuSans-108"/>
      <use x="2045.458984" xlink:href="#DejaVuSans-97"/>
      <use x="2106.738281" xlink:href="#DejaVuSans-115"/>
      <use x="2158.837891" xlink:href="#DejaVuSans-115"/>
      <use x="2210.9375" xlink:href="#DejaVuSans-105"/>
      <use x="2238.720703" xlink:href="#DejaVuSans-99"/>
      <use x="2293.701172" xlink:href="#DejaVuSans-46"/>
      <use x="2325.488281" xlink:href="#DejaVuSans-119"/>
      <use x="2407.275391" xlink:href="#DejaVuSans-105"/>
      <use x="2435.058594" xlink:href="#DejaVuSans-110"/>
      <use x="2498.4375" xlink:href="#DejaVuSans-109"/>
      <use x="2595.849609" xlink:href="#DejaVuSans-111"/>
      <use x="2657.03125" xlink:href="#DejaVuSans-118"/>
      <use x="2716.210938" xlink:href="#DejaVuSans-101"/>
      <use x="2777.734375" xlink:href="#DejaVuSans-46"/>
      <use x="2809.521484" xlink:href="#DejaVuSans-109"/>
      <use x="2906.933594" xlink:href="#DejaVuSans-97"/>
      <use x="2968.212891" xlink:href="#DejaVuSans-105"/>
      <use x="2995.996094" xlink:href="#DejaVuSans-110"/>
     </g>
    </g>
    <g id="line2d_20">
     <path d="M 71.787187 69.248563 
L 91.787187 69.248563 
" style="fill:none;stroke:#ff7f0e;stroke-linecap:square;stroke-width:1.5;"/>
    </g>
    <g id="line2d_21"/>
    <g id="text_15">
     <!-- 5.2.17.ipstate-disable.gnome-shell-classic.winmove.main -->
     <defs>
      <path d="M 45.40625 46.390625 
L 45.40625 75.984375 
L 54.390625 75.984375 
L 54.390625 0 
L 45.40625 0 
L 45.40625 8.203125 
Q 42.578125 3.328125 38.25 0.953125 
Q 33.9375 -1.421875 27.875 -1.421875 
Q 17.96875 -1.421875 11.734375 6.484375 
Q 5.515625 14.40625 5.515625 27.296875 
Q 5.515625 40.1875 11.734375 48.09375 
Q 17.96875 56 27.875 56 
Q 33.9375 56 38.25 53.625 
Q 42.578125 51.265625 45.40625 46.390625 
z
M 14.796875 27.296875 
Q 14.796875 17.390625 18.875 11.75 
Q 22.953125 6.109375 30.078125 6.109375 
Q 37.203125 6.109375 41.296875 11.75 
Q 45.40625 17.390625 45.40625 27.296875 
Q 45.40625 37.203125 41.296875 42.84375 
Q 37.203125 48.484375 30.078125 48.484375 
Q 22.953125 48.484375 18.875 42.84375 
Q 14.796875 37.203125 14.796875 27.296875 
z
" id="DejaVuSans-100"/>
      <path d="M 48.6875 27.296875 
Q 48.6875 37.203125 44.609375 42.84375 
Q 40.53125 48.484375 33.40625 48.484375 
Q 26.265625 48.484375 22.1875 42.84375 
Q 18.109375 37.203125 18.109375 27.296875 
Q 18.109375 17.390625 22.1875 11.75 
Q 26.265625 6.109375 33.40625 6.109375 
Q 40.53125 6.109375 44.609375 11.75 
Q 48.6875 17.390625 48.6875 27.296875 
z
M 18.109375 46.390625 
Q 20.953125 51.265625 25.265625 53.625 
Q 29.59375 56 35.59375 56 
Q 45.5625 56 51.78125 48.09375 
Q 58.015625 40.1875 58.015625 27.296875 
Q 58.015625 14.40625 51.78125 6.484375 
Q 45.5625 -1.421875 35.59375 -1.421875 
Q 29.59375 -1.421875 25.265625 0.953125 
Q 20.953125 3.328125 18.109375 8.203125 
L 18.109375 0 
L 9.078125 0 
L 9.078125 75.984375 
L 18.109375 75.984375 
z
" id="DejaVuSans-98"/>
     </defs>
     <g transform="translate(99.787187 72.748563)scale(0.1 -0.1)">
      <use xlink:href="#DejaVuSans-53"/>
      <use x="63.623047" xlink:href="#DejaVuSans-46"/>
      <use x="95.410156" xlink:href="#DejaVuSans-50"/>
      <use x="159.033203" xlink:href="#DejaVuSans-46"/>
      <use x="190.820312" xlink:href="#DejaVuSans-49"/>
      <use x="254.443359" xlink:href="#DejaVuSans-55"/>
      <use x="318.066406" xlink:href="#DejaVuSans-46"/>
      <use x="349.853516" xlink:href="#DejaVuSans-105"/>
      <use x="377.636719" xlink:href="#DejaVuSans-112"/>
      <use x="441.113281" xlink:href="#DejaVuSans-115"/>
      <use x="493.212891" xlink:href="#DejaVuSans-116"/>
      <use x="532.421875" xlink:href="#DejaVuSans-97"/>
      <use x="593.701172" xlink:href="#DejaVuSans-116"/>
      <use x="632.910156" xlink:href="#DejaVuSans-101"/>
      <use x="694.433594" xlink:href="#DejaVuSans-45"/>
      <use x="730.517578" xlink:href="#DejaVuSans-100"/>
      <use x="793.994141" xlink:href="#DejaVuSans-105"/>
      <use x="821.777344" xlink:href="#DejaVuSans-115"/>
      <use x="873.876953" xlink:href="#DejaVuSans-97"/>
      <use x="935.15625" xlink:href="#DejaVuSans-98"/>
      <use x="998.632812" xlink:href="#DejaVuSans-108"/>
      <use x="1026.416016" xlink:href="#DejaVuSans-101"/>
      <use x="1087.939453" xlink:href="#DejaVuSans-46"/>
      <use x="1119.726562" xlink:href="#DejaVuSans-103"/>
      <use x="1183.203125" xlink:href="#DejaVuSans-110"/>
      <use x="1246.582031" xlink:href="#DejaVuSans-111"/>
      <use x="1307.763672" xlink:href="#DejaVuSans-109"/>
      <use x="1405.175781" xlink:href="#DejaVuSans-101"/>
      <use x="1466.699219" xlink:href="#DejaVuSans-45"/>
      <use x="1502.783203" xlink:href="#DejaVuSans-115"/>
      <use x="1554.882812" xlink:href="#DejaVuSans-104"/>
      <use x="1618.261719" xlink:href="#DejaVuSans-101"/>
      <use x="1679.785156" xlink:href="#DejaVuSans-108"/>
      <use x="1707.568359" xlink:href="#DejaVuSans-108"/>
      <use x="1735.351562" xlink:href="#DejaVuSans-45"/>
      <use x="1771.435547" xlink:href="#DejaVuSans-99"/>
      <use x="1826.416016" xlink:href="#DejaVuSans-108"/>
      <use x="1854.199219" xlink:href="#DejaVuSans-97"/>
      <use x="1915.478516" xlink:href="#DejaVuSans-115"/>
      <use x="1967.578125" xlink:href="#DejaVuSans-115"/>
      <use x="2019.677734" xlink:href="#DejaVuSans-105"/>
      <use x="2047.460938" xlink:href="#DejaVuSans-99"/>
      <use x="2102.441406" xlink:href="#DejaVuSans-46"/>
      <use x="2134.228516" xlink:href="#DejaVuSans-119"/>
      <use x="2216.015625" xlink:href="#DejaVuSans-105"/>
      <use x="2243.798828" xlink:href="#DejaVuSans-110"/>
      <use x="2307.177734" xlink:href="#DejaVuSans-109"/>
      <use x="2404.589844" xlink:href="#DejaVuSans-111"/>
      <use x="2465.771484" xlink:href="#DejaVuSans-118"/>
      <use x="2524.951172" xlink:href="#DejaVuSans-101"/>
      <use x="2586.474609" xlink:href="#DejaVuSans-46"/>
      <use x="2618.261719" xlink:href="#DejaVuSans-109"/>
      <use x="2715.673828" xlink:href="#DejaVuSans-97"/>
      <use x="2776.953125" xlink:href="#DejaVuSans-105"/>
      <use x="2804.736328" xlink:href="#DejaVuSans-110"/>
     </g>
    </g>
    <g id="line2d_22">
     <path d="M 71.787187 83.926688 
L 91.787187 83.926688 
" style="fill:none;stroke:#2ca02c;stroke-linecap:square;stroke-width:1.5;"/>
    </g>
    <g id="line2d_23"/>
    <g id="text_16">
     <!-- 5.5.13.ipstate-active-hwp.gnome-shell-classic.winmove.main -->
     <g transform="translate(99.787187 87.426688)scale(0.1 -0.1)">
      <use xlink:href="#DejaVuSans-53"/>
      <use x="63.623047" xlink:href="#DejaVuSans-46"/>
      <use x="95.410156" xlink:href="#DejaVuSans-53"/>
      <use x="159.033203" xlink:href="#DejaVuSans-46"/>
      <use x="190.820312" xlink:href="#DejaVuSans-49"/>
      <use x="254.443359" xlink:href="#DejaVuSans-51"/>
      <use x="318.066406" xlink:href="#DejaVuSans-46"/>
      <use x="349.853516" xlink:href="#DejaVuSans-105"/>
      <use x="377.636719" xlink:href="#DejaVuSans-112"/>
      <use x="441.113281" xlink:href="#DejaVuSans-115"/>
      <use x="493.212891" xlink:href="#DejaVuSans-116"/>
      <use x="532.421875" xlink:href="#DejaVuSans-97"/>
      <use x="593.701172" xlink:href="#DejaVuSans-116"/>
      <use x="632.910156" xlink:href="#DejaVuSans-101"/>
      <use x="694.433594" xlink:href="#DejaVuSans-45"/>
      <use x="730.517578" xlink:href="#DejaVuSans-97"/>
      <use x="791.796875" xlink:href="#DejaVuSans-99"/>
      <use x="846.777344" xlink:href="#DejaVuSans-116"/>
      <use x="885.986328" xlink:href="#DejaVuSans-105"/>
      <use x="913.769531" xlink:href="#DejaVuSans-118"/>
      <use x="972.949219" xlink:href="#DejaVuSans-101"/>
      <use x="1034.472656" xlink:href="#DejaVuSans-45"/>
      <use x="1070.556641" xlink:href="#DejaVuSans-104"/>
      <use x="1133.935547" xlink:href="#DejaVuSans-119"/>
      <use x="1215.722656" xlink:href="#DejaVuSans-112"/>
      <use x="1279.199219" xlink:href="#DejaVuSans-46"/>
      <use x="1310.986328" xlink:href="#DejaVuSans-103"/>
      <use x="1374.462891" xlink:href="#DejaVuSans-110"/>
      <use x="1437.841797" xlink:href="#DejaVuSans-111"/>
      <use x="1499.023438" xlink:href="#DejaVuSans-109"/>
      <use x="1596.435547" xlink:href="#DejaVuSans-101"/>
      <use x="1657.958984" xlink:href="#DejaVuSans-45"/>
      <use x="1694.042969" xlink:href="#DejaVuSans-115"/>
      <use x="1746.142578" xlink:href="#DejaVuSans-104"/>
      <use x="1809.521484" xlink:href="#DejaVuSans-101"/>
      <use x="1871.044922" xlink:href="#DejaVuSans-108"/>
      <use x="1898.828125" xlink:href="#DejaVuSans-108"/>
      <use x="1926.611328" xlink:href="#DejaVuSans-45"/>
      <use x="1962.695312" xlink:href="#DejaVuSans-99"/>
      <use x="2017.675781" xlink:href="#DejaVuSans-108"/>
      <use x="2045.458984" xlink:href="#DejaVuSans-97"/>
      <use x="2106.738281" xlink:href="#DejaVuSans-115"/>
      <use x="2158.837891" xlink:href="#DejaVuSans-115"/>
      <use x="2210.9375" xlink:href="#DejaVuSans-105"/>
      <use x="2238.720703" xlink:href="#DejaVuSans-99"/>
      <use x="2293.701172" xlink:href="#DejaVuSans-46"/>
      <use x="2325.488281" xlink:href="#DejaVuSans-119"/>
      <use x="2407.275391" xlink:href="#DejaVuSans-105"/>
      <use x="2435.058594" xlink:href="#DejaVuSans-110"/>
      <use x="2498.4375" xlink:href="#DejaVuSans-109"/>
      <use x="2595.849609" xlink:href="#DejaVuSans-111"/>
      <use x="2657.03125" xlink:href="#DejaVuSans-118"/>
      <use x="2716.210938" xlink:href="#DejaVuSans-101"/>
      <use x="2777.734375" xlink:href="#DejaVuSans-46"/>
      <use x="2809.521484" xlink:href="#DejaVuSans-109"/>
      <use x="2906.933594" xlink:href="#DejaVuSans-97"/>
      <use x="2968.212891" xlink:href="#DejaVuSans-105"/>
      <use x="2995.996094" xlink:href="#DejaVuSans-110"/>
     </g>
    </g>
    <g id="line2d_24">
     <path d="M 71.787187 98.604813 
L 91.787187 98.604813 
" style="fill:none;stroke:#d62728;stroke-linecap:square;stroke-width:1.5;"/>
    </g>
    <g id="line2d_25"/>
    <g id="text_17">
     <!-- 5.5.13.ipstate-disable.gnome-shell-classic.winmove.main -->
     <g transform="translate(99.787187 102.104813)scale(0.1 -0.1)">
      <use xlink:href="#DejaVuSans-53"/>
      <use x="63.623047" xlink:href="#DejaVuSans-46"/>
      <use x="95.410156" xlink:href="#DejaVuSans-53"/>
      <use x="159.033203" xlink:href="#DejaVuSans-46"/>
      <use x="190.820312" xlink:href="#DejaVuSans-49"/>
      <use x="254.443359" xlink:href="#DejaVuSans-51"/>
      <use x="318.066406" xlink:href="#DejaVuSans-46"/>
      <use x="349.853516" xlink:href="#DejaVuSans-105"/>
      <use x="377.636719" xlink:href="#DejaVuSans-112"/>
      <use x="441.113281" xlink:href="#DejaVuSans-115"/>
      <use x="493.212891" xlink:href="#DejaVuSans-116"/>
      <use x="532.421875" xlink:href="#DejaVuSans-97"/>
      <use x="593.701172" xlink:href="#DejaVuSans-116"/>
      <use x="632.910156" xlink:href="#DejaVuSans-101"/>
      <use x="694.433594" xlink:href="#DejaVuSans-45"/>
      <use x="730.517578" xlink:href="#DejaVuSans-100"/>
      <use x="793.994141" xlink:href="#DejaVuSans-105"/>
      <use x="821.777344" xlink:href="#DejaVuSans-115"/>
      <use x="873.876953" xlink:href="#DejaVuSans-97"/>
      <use x="935.15625" xlink:href="#DejaVuSans-98"/>
      <use x="998.632812" xlink:href="#DejaVuSans-108"/>
      <use x="1026.416016" xlink:href="#DejaVuSans-101"/>
      <use x="1087.939453" xlink:href="#DejaVuSans-46"/>
      <use x="1119.726562" xlink:href="#DejaVuSans-103"/>
      <use x="1183.203125" xlink:href="#DejaVuSans-110"/>
      <use x="1246.582031" xlink:href="#DejaVuSans-111"/>
      <use x="1307.763672" xlink:href="#DejaVuSans-109"/>
      <use x="1405.175781" xlink:href="#DejaVuSans-101"/>
      <use x="1466.699219" xlink:href="#DejaVuSans-45"/>
      <use x="1502.783203" xlink:href="#DejaVuSans-115"/>
      <use x="1554.882812" xlink:href="#DejaVuSans-104"/>
      <use x="1618.261719" xlink:href="#DejaVuSans-101"/>
      <use x="1679.785156" xlink:href="#DejaVuSans-108"/>
      <use x="1707.568359" xlink:href="#DejaVuSans-108"/>
      <use x="1735.351562" xlink:href="#DejaVuSans-45"/>
      <use x="1771.435547" xlink:href="#DejaVuSans-99"/>
      <use x="1826.416016" xlink:href="#DejaVuSans-108"/>
      <use x="1854.199219" xlink:href="#DejaVuSans-97"/>
      <use x="1915.478516" xlink:href="#DejaVuSans-115"/>
      <use x="1967.578125" xlink:href="#DejaVuSans-115"/>
      <use x="2019.677734" xlink:href="#DejaVuSans-105"/>
      <use x="2047.460938" xlink:href="#DejaVuSans-99"/>
      <use x="2102.441406" xlink:href="#DejaVuSans-46"/>
      <use x="2134.228516" xlink:href="#DejaVuSans-119"/>
      <use x="2216.015625" xlink:href="#DejaVuSans-105"/>
      <use x="2243.798828" xlink:href="#DejaVuSans-110"/>
      <use x="2307.177734" xlink:href="#DejaVuSans-109"/>
      <use x="2404.589844" xlink:href="#DejaVuSans-111"/>
      <use x="2465.771484" xlink:href="#DejaVuSans-118"/>
      <use x="2524.951172" xlink:href="#DejaVuSans-101"/>
      <use x="2586.474609" xlink:href="#DejaVuSans-46"/>
      <use x="2618.261719" xlink:href="#DejaVuSans-109"/>
      <use x="2715.673828" xlink:href="#DejaVuSans-97"/>
      <use x="2776.953125" xlink:href="#DejaVuSans-105"/>
      <use x="2804.736328" xlink:href="#DejaVuSans-110"/>
     </g>
    </g>
   </g>
  </g>
 </g>
 <defs>
  <clipPath id="pa1808f0996">
   <rect height="266.112" width="357.12" x="57.6" y="41.472"/>
  </clipPath>
 </defs>
</svg>
