<?xml version="1.0" encoding="utf-8" standalone="no"?>
<!DOCTYPE svg PUBLIC "-//W3C//DTD SVG 1.1//EN"
  "http://www.w3.org/Graphics/SVG/1.1/DTD/svg11.dtd">
<!-- Created with matplotlib (https://matplotlib.org/) -->
<svg height="345.6pt" version="1.1" viewBox="0 0 460.8 345.6" width="460.8pt" xmlns="http://www.w3.org/2000/svg" xmlns:xlink="http://www.w3.org/1999/xlink">
 <defs>
  <style type="text/css">
*{stroke-linecap:butt;stroke-linejoin:round;}
  </style>
 </defs>
 <g id="figure_1">
  <g id="patch_1">
   <path d="M 0 345.6 
L 460.8 345.6 
L 460.8 0 
L 0 0 
z
" style="fill:#ffffff;"/>
  </g>
  <g id="axes_1">
   <g id="patch_2">
    <path d="M 57.6 307.584 
L 414.72 307.584 
L 414.72 41.472 
L 57.6 41.472 
z
" style="fill:#ffffff;"/>
   </g>
   <g id="matplotlib.axis_1">
    <g id="xtick_1">
     <g id="line2d_1">
      <defs>
       <path d="M 0 0 
L 0 3.5 
" id="m559e19a1c0" style="stroke:#000000;stroke-width:0.8;"/>
      </defs>
      <g>
       <use style="stroke:#000000;stroke-width:0.8;" x="57.6" xlink:href="#m559e19a1c0" y="307.584"/>
      </g>
     </g>
     <g id="text_1">
      <!-- 0 -->
      <defs>
       <path d="M 31.78125 66.40625 
Q 24.171875 66.40625 20.328125 58.90625 
Q 16.5 51.421875 16.5 36.375 
Q 16.5 21.390625 20.328125 13.890625 
Q 24.171875 6.390625 31.78125 6.390625 
Q 39.453125 6.390625 43.28125 13.890625 
Q 47.125 21.390625 47.125 36.375 
Q 47.125 51.421875 43.28125 58.90625 
Q 39.453125 66.40625 31.78125 66.40625 
z
M 31.78125 74.21875 
Q 44.046875 74.21875 50.515625 64.515625 
Q 56.984375 54.828125 56.984375 36.375 
Q 56.984375 17.96875 50.515625 8.265625 
Q 44.046875 -1.421875 31.78125 -1.421875 
Q 19.53125 -1.421875 13.0625 8.265625 
Q 6.59375 17.96875 6.59375 36.375 
Q 6.59375 54.828125 13.0625 64.515625 
Q 19.53125 74.21875 31.78125 74.21875 
z
" id="DejaVuSans-48"/>
      </defs>
      <g transform="translate(54.41875 322.182437)scale(0.1 -0.1)">
       <use xlink:href="#DejaVuSans-48"/>
      </g>
     </g>
    </g>
    <g id="xtick_2">
     <g id="line2d_2">
      <g>
       <use style="stroke:#000000;stroke-width:0.8;" x="103.68" xlink:href="#m559e19a1c0" y="307.584"/>
      </g>
     </g>
     <g id="text_2">
      <!-- 20 -->
      <defs>
       <path d="M 19.1875 8.296875 
L 53.609375 8.296875 
L 53.609375 0 
L 7.328125 0 
L 7.328125 8.296875 
Q 12.9375 14.109375 22.625 23.890625 
Q 32.328125 33.6875 34.8125 36.53125 
Q 39.546875 41.84375 41.421875 45.53125 
Q 43.3125 49.21875 43.3125 52.78125 
Q 43.3125 58.59375 39.234375 62.25 
Q 35.15625 65.921875 28.609375 65.921875 
Q 23.96875 65.921875 18.8125 64.3125 
Q 13.671875 62.703125 7.8125 59.421875 
L 7.8125 69.390625 
Q 13.765625 71.78125 18.9375 73 
Q 24.125 74.21875 28.421875 74.21875 
Q 39.75 74.21875 46.484375 68.546875 
Q 53.21875 62.890625 53.21875 53.421875 
Q 53.21875 48.921875 51.53125 44.890625 
Q 49.859375 40.875 45.40625 35.40625 
Q 44.1875 33.984375 37.640625 27.21875 
Q 31.109375 20.453125 19.1875 8.296875 
z
" id="DejaVuSans-50"/>
      </defs>
      <g transform="translate(97.3175 322.182437)scale(0.1 -0.1)">
       <use xlink:href="#DejaVuSans-50"/>
       <use x="63.623047" xlink:href="#DejaVuSans-48"/>
      </g>
     </g>
    </g>
    <g id="xtick_3">
     <g id="line2d_3">
      <g>
       <use style="stroke:#000000;stroke-width:0.8;" x="149.76" xlink:href="#m559e19a1c0" y="307.584"/>
      </g>
     </g>
     <g id="text_3">
      <!-- 40 -->
      <defs>
       <path d="M 37.796875 64.3125 
L 12.890625 25.390625 
L 37.796875 25.390625 
z
M 35.203125 72.90625 
L 47.609375 72.90625 
L 47.609375 25.390625 
L 58.015625 25.390625 
L 58.015625 17.1875 
L 47.609375 17.1875 
L 47.609375 0 
L 37.796875 0 
L 37.796875 17.1875 
L 4.890625 17.1875 
L 4.890625 26.703125 
z
" id="DejaVuSans-52"/>
      </defs>
      <g transform="translate(143.3975 322.182437)scale(0.1 -0.1)">
       <use xlink:href="#DejaVuSans-52"/>
       <use x="63.623047" xlink:href="#DejaVuSans-48"/>
      </g>
     </g>
    </g>
    <g id="xtick_4">
     <g id="line2d_4">
      <g>
       <use style="stroke:#000000;stroke-width:0.8;" x="195.84" xlink:href="#m559e19a1c0" y="307.584"/>
      </g>
     </g>
     <g id="text_4">
      <!-- 60 -->
      <defs>
       <path d="M 33.015625 40.375 
Q 26.375 40.375 22.484375 35.828125 
Q 18.609375 31.296875 18.609375 23.390625 
Q 18.609375 15.53125 22.484375 10.953125 
Q 26.375 6.390625 33.015625 6.390625 
Q 39.65625 6.390625 43.53125 10.953125 
Q 47.40625 15.53125 47.40625 23.390625 
Q 47.40625 31.296875 43.53125 35.828125 
Q 39.65625 40.375 33.015625 40.375 
z
M 52.59375 71.296875 
L 52.59375 62.3125 
Q 48.875 64.0625 45.09375 64.984375 
Q 41.3125 65.921875 37.59375 65.921875 
Q 27.828125 65.921875 22.671875 59.328125 
Q 17.53125 52.734375 16.796875 39.40625 
Q 19.671875 43.65625 24.015625 45.921875 
Q 28.375 48.1875 33.59375 48.1875 
Q 44.578125 48.1875 50.953125 41.515625 
Q 57.328125 34.859375 57.328125 23.390625 
Q 57.328125 12.15625 50.6875 5.359375 
Q 44.046875 -1.421875 33.015625 -1.421875 
Q 20.359375 -1.421875 13.671875 8.265625 
Q 6.984375 17.96875 6.984375 36.375 
Q 6.984375 53.65625 15.1875 63.9375 
Q 23.390625 74.21875 37.203125 74.21875 
Q 40.921875 74.21875 44.703125 73.484375 
Q 48.484375 72.75 52.59375 71.296875 
z
" id="DejaVuSans-54"/>
      </defs>
      <g transform="translate(189.4775 322.182437)scale(0.1 -0.1)">
       <use xlink:href="#DejaVuSans-54"/>
       <use x="63.623047" xlink:href="#DejaVuSans-48"/>
      </g>
     </g>
    </g>
    <g id="xtick_5">
     <g id="line2d_5">
      <g>
       <use style="stroke:#000000;stroke-width:0.8;" x="241.92" xlink:href="#m559e19a1c0" y="307.584"/>
      </g>
     </g>
     <g id="text_5">
      <!-- 80 -->
      <defs>
       <path d="M 31.78125 34.625 
Q 24.75 34.625 20.71875 30.859375 
Q 16.703125 27.09375 16.703125 20.515625 
Q 16.703125 13.921875 20.71875 10.15625 
Q 24.75 6.390625 31.78125 6.390625 
Q 38.8125 6.390625 42.859375 10.171875 
Q 46.921875 13.96875 46.921875 20.515625 
Q 46.921875 27.09375 42.890625 30.859375 
Q 38.875 34.625 31.78125 34.625 
z
M 21.921875 38.8125 
Q 15.578125 40.375 12.03125 44.71875 
Q 8.5 49.078125 8.5 55.328125 
Q 8.5 64.0625 14.71875 69.140625 
Q 20.953125 74.21875 31.78125 74.21875 
Q 42.671875 74.21875 48.875 69.140625 
Q 55.078125 64.0625 55.078125 55.328125 
Q 55.078125 49.078125 51.53125 44.71875 
Q 48 40.375 41.703125 38.8125 
Q 48.828125 37.15625 52.796875 32.3125 
Q 56.78125 27.484375 56.78125 20.515625 
Q 56.78125 9.90625 50.3125 4.234375 
Q 43.84375 -1.421875 31.78125 -1.421875 
Q 19.734375 -1.421875 13.25 4.234375 
Q 6.78125 9.90625 6.78125 20.515625 
Q 6.78125 27.484375 10.78125 32.3125 
Q 14.796875 37.15625 21.921875 38.8125 
z
M 18.3125 54.390625 
Q 18.3125 48.734375 21.84375 45.5625 
Q 25.390625 42.390625 31.78125 42.390625 
Q 38.140625 42.390625 41.71875 45.5625 
Q 45.3125 48.734375 45.3125 54.390625 
Q 45.3125 60.0625 41.71875 63.234375 
Q 38.140625 66.40625 31.78125 66.40625 
Q 25.390625 66.40625 21.84375 63.234375 
Q 18.3125 60.0625 18.3125 54.390625 
z
" id="DejaVuSans-56"/>
      </defs>
      <g transform="translate(235.5575 322.182437)scale(0.1 -0.1)">
       <use xlink:href="#DejaVuSans-56"/>
       <use x="63.623047" xlink:href="#DejaVuSans-48"/>
      </g>
     </g>
    </g>
    <g id="xtick_6">
     <g id="line2d_6">
      <g>
       <use style="stroke:#000000;stroke-width:0.8;" x="288" xlink:href="#m559e19a1c0" y="307.584"/>
      </g>
     </g>
     <g id="text_6">
      <!-- 100 -->
      <defs>
       <path d="M 12.40625 8.296875 
L 28.515625 8.296875 
L 28.515625 63.921875 
L 10.984375 60.40625 
L 10.984375 69.390625 
L 28.421875 72.90625 
L 38.28125 72.90625 
L 38.28125 8.296875 
L 54.390625 8.296875 
L 54.390625 0 
L 12.40625 0 
z
" id="DejaVuSans-49"/>
      </defs>
      <g transform="translate(278.45625 322.182437)scale(0.1 -0.1)">
       <use xlink:href="#DejaVuSans-49"/>
       <use x="63.623047" xlink:href="#DejaVuSans-48"/>
       <use x="127.246094" xlink:href="#DejaVuSans-48"/>
      </g>
     </g>
    </g>
    <g id="xtick_7">
     <g id="line2d_7">
      <g>
       <use style="stroke:#000000;stroke-width:0.8;" x="334.08" xlink:href="#m559e19a1c0" y="307.584"/>
      </g>
     </g>
     <g id="text_7">
      <!-- 120 -->
      <g transform="translate(324.53625 322.182437)scale(0.1 -0.1)">
       <use xlink:href="#DejaVuSans-49"/>
       <use x="63.623047" xlink:href="#DejaVuSans-50"/>
       <use x="127.246094" xlink:href="#DejaVuSans-48"/>
      </g>
     </g>
    </g>
    <g id="xtick_8">
     <g id="line2d_8">
      <g>
       <use style="stroke:#000000;stroke-width:0.8;" x="380.16" xlink:href="#m559e19a1c0" y="307.584"/>
      </g>
     </g>
     <g id="text_8">
      <!-- 140 -->
      <g transform="translate(370.61625 322.182437)scale(0.1 -0.1)">
       <use xlink:href="#DejaVuSans-49"/>
       <use x="63.623047" xlink:href="#DejaVuSans-52"/>
       <use x="127.246094" xlink:href="#DejaVuSans-48"/>
      </g>
     </g>
    </g>
   </g>
   <g id="matplotlib.axis_2">
    <g id="ytick_1">
     <g id="line2d_9">
      <defs>
       <path d="M 0 0 
L -3.5 0 
" id="me89355d3e4" style="stroke:#000000;stroke-width:0.8;"/>
      </defs>
      <g>
       <use style="stroke:#000000;stroke-width:0.8;" x="57.6" xlink:href="#me89355d3e4" y="265.778526"/>
      </g>
     </g>
     <g id="text_9">
      <!-- 60 -->
      <g transform="translate(37.875 269.577745)scale(0.1 -0.1)">
       <use xlink:href="#DejaVuSans-54"/>
       <use x="63.623047" xlink:href="#DejaVuSans-48"/>
      </g>
     </g>
    </g>
    <g id="ytick_2">
     <g id="line2d_10">
      <g>
       <use style="stroke:#000000;stroke-width:0.8;" x="57.6" xlink:href="#me89355d3e4" y="212.725895"/>
      </g>
     </g>
     <g id="text_10">
      <!-- 70 -->
      <defs>
       <path d="M 8.203125 72.90625 
L 55.078125 72.90625 
L 55.078125 68.703125 
L 28.609375 0 
L 18.3125 0 
L 43.21875 64.59375 
L 8.203125 64.59375 
z
" id="DejaVuSans-55"/>
      </defs>
      <g transform="translate(37.875 216.525113)scale(0.1 -0.1)">
       <use xlink:href="#DejaVuSans-55"/>
       <use x="63.623047" xlink:href="#DejaVuSans-48"/>
      </g>
     </g>
    </g>
    <g id="ytick_3">
     <g id="line2d_11">
      <g>
       <use style="stroke:#000000;stroke-width:0.8;" x="57.6" xlink:href="#me89355d3e4" y="159.673263"/>
      </g>
     </g>
     <g id="text_11">
      <!-- 80 -->
      <g transform="translate(37.875 163.472482)scale(0.1 -0.1)">
       <use xlink:href="#DejaVuSans-56"/>
       <use x="63.623047" xlink:href="#DejaVuSans-48"/>
      </g>
     </g>
    </g>
    <g id="ytick_4">
     <g id="line2d_12">
      <g>
       <use style="stroke:#000000;stroke-width:0.8;" x="57.6" xlink:href="#me89355d3e4" y="106.620632"/>
      </g>
     </g>
     <g id="text_12">
      <!-- 90 -->
      <defs>
       <path d="M 10.984375 1.515625 
L 10.984375 10.5 
Q 14.703125 8.734375 18.5 7.8125 
Q 22.3125 6.890625 25.984375 6.890625 
Q 35.75 6.890625 40.890625 13.453125 
Q 46.046875 20.015625 46.78125 33.40625 
Q 43.953125 29.203125 39.59375 26.953125 
Q 35.25 24.703125 29.984375 24.703125 
Q 19.046875 24.703125 12.671875 31.3125 
Q 6.296875 37.9375 6.296875 49.421875 
Q 6.296875 60.640625 12.9375 67.421875 
Q 19.578125 74.21875 30.609375 74.21875 
Q 43.265625 74.21875 49.921875 64.515625 
Q 56.59375 54.828125 56.59375 36.375 
Q 56.59375 19.140625 48.40625 8.859375 
Q 40.234375 -1.421875 26.421875 -1.421875 
Q 22.703125 -1.421875 18.890625 -0.6875 
Q 15.09375 0.046875 10.984375 1.515625 
z
M 30.609375 32.421875 
Q 37.25 32.421875 41.125 36.953125 
Q 45.015625 41.5 45.015625 49.421875 
Q 45.015625 57.28125 41.125 61.84375 
Q 37.25 66.40625 30.609375 66.40625 
Q 23.96875 66.40625 20.09375 61.84375 
Q 16.21875 57.28125 16.21875 49.421875 
Q 16.21875 41.5 20.09375 36.953125 
Q 23.96875 32.421875 30.609375 32.421875 
z
" id="DejaVuSans-57"/>
      </defs>
      <g transform="translate(37.875 110.41985)scale(0.1 -0.1)">
       <use xlink:href="#DejaVuSans-57"/>
       <use x="63.623047" xlink:href="#DejaVuSans-48"/>
      </g>
     </g>
    </g>
    <g id="ytick_5">
     <g id="line2d_13">
      <g>
       <use style="stroke:#000000;stroke-width:0.8;" x="57.6" xlink:href="#me89355d3e4" y="53.568"/>
      </g>
     </g>
     <g id="text_13">
      <!-- 100 -->
      <g transform="translate(31.5125 57.367219)scale(0.1 -0.1)">
       <use xlink:href="#DejaVuSans-49"/>
       <use x="63.623047" xlink:href="#DejaVuSans-48"/>
       <use x="127.246094" xlink:href="#DejaVuSans-48"/>
      </g>
     </g>
    </g>
   </g>
   <g id="line2d_14">
    <path clip-path="url(#p30578ca13a)" d="M 66.816 241.374316 
L 69.12 221.214316 
L 71.424 207.420632 
L 73.728 197.871158 
L 76.032 190.443789 
L 78.336 183.016421 
L 80.64 175.589053 
L 82.944 170.283789 
L 85.248 163.917474 
L 87.552 158.612211 
L 89.856 153.306947 
L 92.16 146.940632 
L 94.464 140.574316 
L 96.768 135.269053 
L 99.072 128.902737 
L 101.376 122.536421 
L 103.68 118.292211 
L 105.984 114.048 
L 108.288 114.048 
L 110.592 109.803789 
L 112.896 105.559579 
L 115.2 103.437474 
L 117.504 99.193263 
L 119.808 90.704842 
L 122.112 86.460632 
L 124.416 83.277474 
L 126.72 76.911158 
L 129.024 71.605895 
L 131.328 69.483789 
L 133.632 66.300632 
L 135.936 62.056421 
L 138.24 58.873263 
L 140.544 57.812211 
L 142.848 56.751158 
L 145.152 55.690105 
L 147.456 55.690105 
L 149.76 55.690105 
L 152.064 55.690105 
L 154.368 53.568 
L 156.672 53.568 
L 158.976 53.568 
L 161.28 53.568 
L 163.584 53.568 
L 165.888 53.568 
L 168.192 53.568 
L 170.496 54.629053 
L 172.8 55.690105 
L 175.104 56.751158 
L 177.408 57.812211 
L 179.712 58.873263 
L 182.016 58.873263 
L 184.32 58.873263 
L 186.624 57.812211 
L 188.928 57.812211 
L 191.232 56.751158 
L 193.536 55.690105 
L 195.84 54.629053 
L 198.144 54.629053 
L 200.448 54.629053 
L 202.752 55.690105 
L 205.056 55.690105 
L 207.36 55.690105 
L 209.664 55.690105 
L 211.968 54.629053 
L 214.272 53.568 
L 216.576 53.568 
L 218.88 53.568 
L 221.184 53.568 
L 223.488 53.568 
L 225.792 53.568 
L 228.096 53.568 
L 230.4 53.568 
L 232.704 53.568 
L 235.008 53.568 
" style="fill:none;stroke:#1f77b4;stroke-linecap:square;stroke-width:1.5;"/>
   </g>
   <g id="line2d_15">
    <path clip-path="url(#p30578ca13a)" d="M 66.816 276.389053 
L 69.12 255.168 
L 71.424 243.496421 
L 73.728 229.702737 
L 76.032 224.397474 
L 78.336 218.031158 
L 80.64 212.725895 
L 82.944 202.115368 
L 85.248 193.626947 
L 87.552 186.199579 
L 89.856 178.772211 
L 92.16 173.466947 
L 94.464 169.222737 
L 96.768 167.100632 
L 99.072 162.856421 
L 101.376 159.673263 
L 103.68 158.612211 
L 105.984 155.429053 
L 108.288 150.123789 
L 110.592 145.879579 
L 112.896 141.635368 
L 115.2 133.146947 
L 117.504 127.841684 
L 119.808 123.597474 
L 122.112 119.353263 
L 124.416 116.170105 
L 126.72 112.986947 
L 129.024 109.803789 
L 131.328 107.681684 
L 133.632 105.559579 
L 135.936 102.376421 
L 138.24 103.437474 
L 140.544 100.254316 
L 142.848 96.010105 
L 145.152 90.704842 
L 147.456 87.521684 
L 149.76 83.277474 
L 152.064 77.972211 
L 154.368 76.911158 
L 156.672 75.850105 
L 158.976 72.666947 
L 161.28 67.361684 
L 163.584 66.300632 
L 165.888 62.056421 
L 168.192 60.995368 
L 170.496 59.934316 
L 172.8 59.934316 
L 175.104 59.934316 
L 177.408 58.873263 
L 179.712 57.812211 
L 182.016 56.751158 
L 184.32 55.690105 
L 186.624 54.629053 
L 188.928 54.629053 
L 191.232 55.690105 
L 193.536 57.812211 
L 195.84 59.934316 
L 198.144 62.056421 
L 200.448 64.178526 
L 202.752 65.239579 
L 205.056 64.178526 
L 207.36 63.117474 
L 209.664 60.995368 
L 211.968 58.873263 
L 214.272 56.751158 
L 216.576 55.690105 
L 218.88 56.751158 
L 221.184 57.812211 
L 223.488 59.934316 
L 225.792 58.873263 
L 228.096 58.873263 
L 230.4 57.812211 
L 232.704 57.812211 
L 235.008 55.690105 
" style="fill:none;stroke:#ff7f0e;stroke-linecap:square;stroke-width:1.5;"/>
   </g>
   <g id="line2d_16">
    <path clip-path="url(#p30578ca13a)" d="M 66.816 295.488 
L 69.12 290.182737 
L 73.728 288.060632 
L 76.032 285.938526 
L 78.336 285.938526 
L 80.64 288.060632 
L 82.944 291.243789 
L 85.248 291.243789 
L 87.552 292.304842 
L 112.896 292.304842 
L 117.504 290.182737 
L 119.808 290.182737 
L 124.416 288.060632 
L 129.024 288.060632 
L 131.328 286.999579 
L 161.28 286.999579 
L 163.584 285.938526 
L 165.888 285.938526 
L 168.192 284.877474 
L 170.496 284.877474 
L 172.8 283.816421 
L 175.104 283.816421 
L 177.408 282.755368 
L 179.712 282.755368 
L 182.016 281.694316 
L 184.32 281.694316 
L 186.624 282.755368 
L 195.84 282.755368 
L 198.144 281.694316 
L 207.36 281.694316 
L 209.664 279.572211 
L 218.88 279.572211 
L 223.488 277.450105 
L 225.792 277.450105 
L 228.096 275.328 
L 230.4 275.328 
L 232.704 278.511158 
L 235.008 277.450105 
L 244.224 277.450105 
L 246.528 278.511158 
L 248.832 278.511158 
L 251.136 280.633263 
L 253.44 279.572211 
L 255.744 279.572211 
L 264.96 275.328 
L 267.264 275.328 
L 269.568 277.450105 
L 274.176 277.450105 
L 276.48 278.511158 
L 281.088 276.389053 
L 301.824 276.389053 
L 304.128 273.205895 
L 306.432 273.205895 
L 313.344 266.839579 
L 315.648 267.900632 
L 317.952 266.839579 
L 327.168 271.083789 
L 329.472 271.083789 
L 340.992 276.389053 
L 350.208 276.389053 
L 352.512 275.328 
L 359.424 275.328 
L 361.728 274.266947 
L 364.032 275.328 
L 366.336 274.266947 
L 375.552 274.266947 
L 377.856 275.328 
L 382.464 273.205895 
L 391.68 273.205895 
L 396.288 275.328 
L 398.592 275.328 
L 400.896 273.205895 
L 403.2 274.266947 
L 407.808 274.266947 
L 410.112 273.205895 
L 412.416 275.328 
L 414.72 274.266947 
L 414.72 274.266947 
" style="fill:none;stroke:#2ca02c;stroke-linecap:square;stroke-width:1.5;"/>
   </g>
   <g id="line2d_17">
    <path clip-path="url(#p30578ca13a)" d="M 66.816 270.022737 
L 69.12 247.740632 
L 71.424 238.191158 
L 73.728 231.824842 
L 76.032 226.519579 
L 78.336 223.336421 
L 80.64 218.031158 
L 82.944 212.725895 
L 85.248 207.420632 
L 87.552 201.054316 
L 89.856 194.688 
L 92.16 188.321684 
L 94.464 181.955368 
L 96.768 176.650105 
L 99.072 172.405895 
L 101.376 167.100632 
L 103.68 162.856421 
L 105.984 159.673263 
L 108.288 156.490105 
L 110.592 152.245895 
L 112.896 149.062737 
L 115.2 145.879579 
L 117.504 141.635368 
L 119.808 137.391158 
L 122.112 135.269053 
L 124.416 131.024842 
L 126.72 126.780632 
L 129.024 123.597474 
L 131.328 120.414316 
L 133.632 115.109053 
L 135.936 111.925895 
L 138.24 108.742737 
L 140.544 104.498526 
L 142.848 102.376421 
L 145.152 101.315368 
L 147.456 99.193263 
L 149.76 96.010105 
L 152.064 94.949053 
L 154.368 96.010105 
L 156.672 91.765895 
L 158.976 88.582737 
L 161.28 86.460632 
L 163.584 82.216421 
L 165.888 73.728 
L 168.192 71.605895 
L 170.496 68.422737 
L 172.8 66.300632 
L 175.104 64.178526 
L 177.408 64.178526 
L 179.712 60.995368 
L 182.016 58.873263 
L 184.32 57.812211 
L 186.624 58.873263 
L 188.928 59.934316 
L 191.232 63.117474 
L 193.536 67.361684 
L 195.84 68.422737 
L 198.144 69.483789 
L 200.448 68.422737 
L 202.752 69.483789 
L 205.056 68.422737 
L 207.36 68.422737 
L 209.664 67.361684 
L 211.968 67.361684 
L 214.272 66.300632 
L 216.576 66.300632 
L 218.88 67.361684 
L 221.184 69.483789 
L 223.488 69.483789 
L 225.792 68.422737 
L 228.096 68.422737 
L 230.4 67.361684 
L 232.704 65.239579 
L 235.008 65.239579 
" style="fill:none;stroke:#d62728;stroke-linecap:square;stroke-width:1.5;"/>
   </g>
   <g id="line2d_18">
    <path clip-path="url(#p30578ca13a)" d="M 66.816 243.496421 
L 69.12 221.214316 
L 71.424 201.054316 
L 73.728 193.626947 
L 76.032 184.077474 
L 78.336 177.711158 
L 80.64 173.466947 
L 82.944 172.405895 
L 85.248 164.978526 
L 87.552 161.795368 
L 89.856 155.429053 
L 92.16 146.940632 
L 94.464 136.330105 
L 96.768 132.085895 
L 99.072 125.719579 
L 101.376 121.475368 
L 103.68 120.414316 
L 105.984 119.353263 
L 108.288 112.986947 
L 110.592 108.742737 
L 112.896 102.376421 
L 115.2 94.949053 
L 117.504 87.521684 
L 119.808 83.277474 
L 122.112 79.033263 
L 124.416 75.850105 
L 126.72 70.544842 
L 129.024 66.300632 
L 131.328 64.178526 
L 133.632 62.056421 
L 135.936 60.995368 
L 138.24 60.995368 
L 140.544 59.934316 
L 142.848 58.873263 
L 145.152 56.751158 
L 147.456 55.690105 
L 149.76 57.812211 
L 152.064 56.751158 
L 154.368 56.751158 
L 156.672 56.751158 
L 158.976 58.873263 
L 161.28 57.812211 
L 163.584 59.934316 
L 165.888 63.117474 
L 168.192 66.300632 
L 170.496 66.300632 
L 172.8 66.300632 
L 175.104 66.300632 
L 177.408 66.300632 
L 179.712 65.239579 
L 182.016 65.239579 
L 184.32 64.178526 
L 186.624 64.178526 
L 188.928 63.117474 
L 191.232 62.056421 
L 193.536 60.995368 
L 195.84 60.995368 
L 198.144 59.934316 
L 200.448 59.934316 
L 202.752 59.934316 
L 205.056 59.934316 
L 207.36 59.934316 
L 209.664 58.873263 
L 211.968 57.812211 
L 214.272 57.812211 
L 216.576 56.751158 
L 218.88 55.690105 
L 221.184 55.690105 
L 223.488 54.629053 
L 225.792 54.629053 
L 228.096 54.629053 
L 230.4 54.629053 
L 232.704 55.690105 
L 235.008 55.690105 
" style="fill:none;stroke:#9467bd;stroke-linecap:square;stroke-width:1.5;"/>
   </g>
   <g id="line2d_19">
    <path clip-path="url(#p30578ca13a)" d="M 66.816 270.022737 
L 69.12 248.801684 
L 71.424 237.130105 
L 73.728 228.641684 
L 76.032 223.336421 
L 78.336 216.970105 
L 80.64 211.664842 
L 82.944 203.176421 
L 85.248 196.810105 
L 87.552 191.504842 
L 89.856 186.199579 
L 92.16 180.894316 
L 94.464 175.589053 
L 96.768 170.283789 
L 99.072 163.917474 
L 101.376 159.673263 
L 103.68 154.368 
L 105.984 149.062737 
L 108.288 146.940632 
L 110.592 143.757474 
L 112.896 137.391158 
L 115.2 134.208 
L 117.504 132.085895 
L 119.808 126.780632 
L 122.112 124.658526 
L 124.416 123.597474 
L 126.72 120.414316 
L 129.024 121.475368 
L 131.328 119.353263 
L 133.632 116.170105 
L 135.936 111.925895 
L 138.24 108.742737 
L 140.544 100.254316 
L 142.848 96.010105 
L 145.152 91.765895 
L 147.456 88.582737 
L 149.76 85.399579 
L 152.064 83.277474 
L 154.368 80.094316 
L 156.672 76.911158 
L 158.976 74.789053 
L 161.28 72.666947 
L 163.584 69.483789 
L 165.888 67.361684 
L 168.192 64.178526 
L 170.496 60.995368 
L 172.8 57.812211 
L 175.104 59.934316 
L 177.408 62.056421 
L 179.712 65.239579 
L 182.016 69.483789 
L 184.32 73.728 
L 186.624 73.728 
L 188.928 73.728 
L 191.232 73.728 
L 193.536 73.728 
L 195.84 73.728 
L 198.144 73.728 
L 200.448 73.728 
L 202.752 74.789053 
L 205.056 74.789053 
L 207.36 74.789053 
L 209.664 74.789053 
L 211.968 73.728 
L 214.272 73.728 
L 216.576 72.666947 
L 218.88 70.544842 
L 221.184 68.422737 
L 223.488 68.422737 
L 225.792 67.361684 
L 228.096 67.361684 
L 230.4 68.422737 
L 232.704 69.483789 
L 235.008 69.483789 
" style="fill:none;stroke:#8c564b;stroke-linecap:square;stroke-width:1.5;"/>
   </g>
   <g id="line2d_20">
    <path clip-path="url(#p30578ca13a)" d="M 66.816 245.618526 
L 69.12 226.519579 
L 71.424 207.420632 
L 73.728 193.626947 
L 76.032 183.016421 
L 78.336 176.650105 
L 80.64 170.283789 
L 82.944 164.978526 
L 85.248 160.734316 
L 87.552 155.429053 
L 89.856 148.001684 
L 92.16 141.635368 
L 94.464 134.208 
L 96.768 126.780632 
L 99.072 122.536421 
L 101.376 121.475368 
L 103.68 118.292211 
L 105.984 114.048 
L 108.288 114.048 
L 110.592 112.986947 
L 112.896 108.742737 
L 115.2 104.498526 
L 117.504 101.315368 
L 119.808 93.888 
L 122.112 87.521684 
L 124.416 82.216421 
L 126.72 77.972211 
L 129.024 73.728 
L 131.328 71.605895 
L 133.632 68.422737 
L 135.936 65.239579 
L 138.24 63.117474 
L 140.544 60.995368 
L 142.848 57.812211 
L 145.152 55.690105 
L 147.456 55.690105 
L 149.76 54.629053 
L 152.064 54.629053 
L 154.368 54.629053 
L 156.672 54.629053 
L 158.976 53.568 
L 161.28 53.568 
L 163.584 53.568 
L 165.888 54.629053 
L 168.192 54.629053 
L 170.496 54.629053 
L 172.8 54.629053 
L 175.104 54.629053 
L 177.408 53.568 
L 179.712 53.568 
L 182.016 53.568 
L 184.32 54.629053 
L 186.624 54.629053 
L 188.928 54.629053 
L 191.232 54.629053 
L 193.536 54.629053 
L 195.84 53.568 
L 198.144 56.751158 
L 200.448 56.751158 
L 202.752 56.751158 
L 205.056 56.751158 
L 207.36 56.751158 
L 209.664 53.568 
L 211.968 53.568 
L 214.272 53.568 
L 216.576 53.568 
L 218.88 53.568 
L 221.184 53.568 
L 223.488 53.568 
L 225.792 53.568 
L 228.096 53.568 
L 230.4 53.568 
L 232.704 53.568 
L 235.008 53.568 
" style="fill:none;stroke:#e377c2;stroke-linecap:square;stroke-width:1.5;"/>
   </g>
   <g id="line2d_21">
    <path clip-path="url(#p30578ca13a)" d="M 66.816 268.961684 
L 69.12 248.801684 
L 71.424 230.763789 
L 73.728 219.092211 
L 76.032 213.786947 
L 78.336 208.481684 
L 80.64 203.176421 
L 82.944 197.871158 
L 85.248 191.504842 
L 87.552 186.199579 
L 89.856 180.894316 
L 92.16 175.589053 
L 94.464 170.283789 
L 96.768 164.978526 
L 99.072 160.734316 
L 101.376 156.490105 
L 103.68 152.245895 
L 105.984 146.940632 
L 108.288 142.696421 
L 110.592 137.391158 
L 112.896 132.085895 
L 115.2 126.780632 
L 117.504 124.658526 
L 119.808 122.536421 
L 122.112 119.353263 
L 124.416 117.231158 
L 126.72 116.170105 
L 129.024 112.986947 
L 131.328 108.742737 
L 133.632 106.620632 
L 135.936 103.437474 
L 138.24 99.193263 
L 140.544 96.010105 
L 142.848 92.826947 
L 145.152 89.643789 
L 147.456 88.582737 
L 149.76 85.399579 
L 152.064 82.216421 
L 154.368 82.216421 
L 156.672 80.094316 
L 158.976 75.850105 
L 161.28 74.789053 
L 163.584 73.728 
L 165.888 68.422737 
L 168.192 65.239579 
L 170.496 63.117474 
L 172.8 60.995368 
L 175.104 58.873263 
L 177.408 57.812211 
L 179.712 58.873263 
L 182.016 60.995368 
L 184.32 64.178526 
L 186.624 65.239579 
L 188.928 68.422737 
L 191.232 70.544842 
L 193.536 71.605895 
L 195.84 71.605895 
L 198.144 72.666947 
L 200.448 72.666947 
L 202.752 71.605895 
L 205.056 71.605895 
L 207.36 70.544842 
L 209.664 69.483789 
L 211.968 68.422737 
L 214.272 68.422737 
L 216.576 66.300632 
L 218.88 66.300632 
L 221.184 65.239579 
L 223.488 67.361684 
L 225.792 67.361684 
L 228.096 68.422737 
L 230.4 67.361684 
L 232.704 68.422737 
L 235.008 66.300632 
" style="fill:none;stroke:#7f7f7f;stroke-linecap:square;stroke-width:1.5;"/>
   </g>
   <g id="patch_3">
    <path d="M 57.6 307.584 
L 57.6 41.472 
" style="fill:none;stroke:#000000;stroke-linecap:square;stroke-linejoin:miter;stroke-width:0.8;"/>
   </g>
   <g id="patch_4">
    <path d="M 414.72 307.584 
L 414.72 41.472 
" style="fill:none;stroke:#000000;stroke-linecap:square;stroke-linejoin:miter;stroke-width:0.8;"/>
   </g>
   <g id="patch_5">
    <path d="M 57.6 307.584 
L 414.72 307.584 
" style="fill:none;stroke:#000000;stroke-linecap:square;stroke-linejoin:miter;stroke-width:0.8;"/>
   </g>
   <g id="patch_6">
    <path d="M 57.6 41.472 
L 414.72 41.472 
" style="fill:none;stroke:#000000;stroke-linecap:square;stroke-linejoin:miter;stroke-width:0.8;"/>
   </g>
   <g id="legend_1">
    <g id="patch_7">
     <path d="M -9.070625 234.7405 
L 407.72 234.7405 
Q 409.72 234.7405 409.72 232.7405 
L 409.72 116.3155 
Q 409.72 114.3155 407.72 114.3155 
L -9.070625 114.3155 
Q -11.070625 114.3155 -11.070625 116.3155 
L -11.070625 232.7405 
Q -11.070625 234.7405 -9.070625 234.7405 
z
" style="fill:#ffffff;opacity:0.8;stroke:#cccccc;stroke-linejoin:miter;"/>
    </g>
    <g id="line2d_22">
     <path d="M -1 122.413938 
L 12.929375 122.413938 
" style="fill:none;stroke:#1f77b4;stroke-linecap:square;stroke-width:1.5;"/>
    </g>
    <g id="line2d_23"/>
    <g id="text_14">
     <!-- 5.2.17.ipstate-active-hwp.cinnamon.mpv-gpu-vaapi.warmup+main -->
     <defs>
      <path d="M 10.796875 72.90625 
L 49.515625 72.90625 
L 49.515625 64.59375 
L 19.828125 64.59375 
L 19.828125 46.734375 
Q 21.96875 47.46875 24.109375 47.828125 
Q 26.265625 48.1875 28.421875 48.1875 
Q 40.625 48.1875 47.75 41.5 
Q 54.890625 34.8125 54.890625 23.390625 
Q 54.890625 11.625 47.5625 5.09375 
Q 40.234375 -1.421875 26.90625 -1.421875 
Q 22.3125 -1.421875 17.546875 -0.640625 
Q 12.796875 0.140625 7.71875 1.703125 
L 7.71875 11.625 
Q 12.109375 9.234375 16.796875 8.0625 
Q 21.484375 6.890625 26.703125 6.890625 
Q 35.15625 6.890625 40.078125 11.328125 
Q 45.015625 15.765625 45.015625 23.390625 
Q 45.015625 31 40.078125 35.4375 
Q 35.15625 39.890625 26.703125 39.890625 
Q 22.75 39.890625 18.8125 39.015625 
Q 14.890625 38.140625 10.796875 36.28125 
z
" id="DejaVuSans-53"/>
      <path d="M 10.6875 12.40625 
L 21 12.40625 
L 21 0 
L 10.6875 0 
z
" id="DejaVuSans-46"/>
      <path d="M 9.421875 54.6875 
L 18.40625 54.6875 
L 18.40625 0 
L 9.421875 0 
z
M 9.421875 75.984375 
L 18.40625 75.984375 
L 18.40625 64.59375 
L 9.421875 64.59375 
z
" id="DejaVuSans-105"/>
      <path d="M 18.109375 8.203125 
L 18.109375 -20.796875 
L 9.078125 -20.796875 
L 9.078125 54.6875 
L 18.109375 54.6875 
L 18.109375 46.390625 
Q 20.953125 51.265625 25.265625 53.625 
Q 29.59375 56 35.59375 56 
Q 45.5625 56 51.78125 48.09375 
Q 58.015625 40.1875 58.015625 27.296875 
Q 58.015625 14.40625 51.78125 6.484375 
Q 45.5625 -1.421875 35.59375 -1.421875 
Q 29.59375 -1.421875 25.265625 0.953125 
Q 20.953125 3.328125 18.109375 8.203125 
z
M 48.6875 27.296875 
Q 48.6875 37.203125 44.609375 42.84375 
Q 40.53125 48.484375 33.40625 48.484375 
Q 26.265625 48.484375 22.1875 42.84375 
Q 18.109375 37.203125 18.109375 27.296875 
Q 18.109375 17.390625 22.1875 11.75 
Q 26.265625 6.109375 33.40625 6.109375 
Q 40.53125 6.109375 44.609375 11.75 
Q 48.6875 17.390625 48.6875 27.296875 
z
" id="DejaVuSans-112"/>
      <path d="M 44.28125 53.078125 
L 44.28125 44.578125 
Q 40.484375 46.53125 36.375 47.5 
Q 32.28125 48.484375 27.875 48.484375 
Q 21.1875 48.484375 17.84375 46.4375 
Q 14.5 44.390625 14.5 40.28125 
Q 14.5 37.15625 16.890625 35.375 
Q 19.28125 33.59375 26.515625 31.984375 
L 29.59375 31.296875 
Q 39.15625 29.25 43.1875 25.515625 
Q 47.21875 21.78125 47.21875 15.09375 
Q 47.21875 7.46875 41.1875 3.015625 
Q 35.15625 -1.421875 24.609375 -1.421875 
Q 20.21875 -1.421875 15.453125 -0.5625 
Q 10.6875 0.296875 5.421875 2 
L 5.421875 11.28125 
Q 10.40625 8.6875 15.234375 7.390625 
Q 20.0625 6.109375 24.8125 6.109375 
Q 31.15625 6.109375 34.5625 8.28125 
Q 37.984375 10.453125 37.984375 14.40625 
Q 37.984375 18.0625 35.515625 20.015625 
Q 33.0625 21.96875 24.703125 23.78125 
L 21.578125 24.515625 
Q 13.234375 26.265625 9.515625 29.90625 
Q 5.8125 33.546875 5.8125 39.890625 
Q 5.8125 47.609375 11.28125 51.796875 
Q 16.75 56 26.8125 56 
Q 31.78125 56 36.171875 55.265625 
Q 40.578125 54.546875 44.28125 53.078125 
z
" id="DejaVuSans-115"/>
      <path d="M 18.3125 70.21875 
L 18.3125 54.6875 
L 36.8125 54.6875 
L 36.8125 47.703125 
L 18.3125 47.703125 
L 18.3125 18.015625 
Q 18.3125 11.328125 20.140625 9.421875 
Q 21.96875 7.515625 27.59375 7.515625 
L 36.8125 7.515625 
L 36.8125 0 
L 27.59375 0 
Q 17.1875 0 13.234375 3.875 
Q 9.28125 7.765625 9.28125 18.015625 
L 9.28125 47.703125 
L 2.6875 47.703125 
L 2.6875 54.6875 
L 9.28125 54.6875 
L 9.28125 70.21875 
z
" id="DejaVuSans-116"/>
      <path d="M 34.28125 27.484375 
Q 23.390625 27.484375 19.1875 25 
Q 14.984375 22.515625 14.984375 16.5 
Q 14.984375 11.71875 18.140625 8.90625 
Q 21.296875 6.109375 26.703125 6.109375 
Q 34.1875 6.109375 38.703125 11.40625 
Q 43.21875 16.703125 43.21875 25.484375 
L 43.21875 27.484375 
z
M 52.203125 31.203125 
L 52.203125 0 
L 43.21875 0 
L 43.21875 8.296875 
Q 40.140625 3.328125 35.546875 0.953125 
Q 30.953125 -1.421875 24.3125 -1.421875 
Q 15.921875 -1.421875 10.953125 3.296875 
Q 6 8.015625 6 15.921875 
Q 6 25.140625 12.171875 29.828125 
Q 18.359375 34.515625 30.609375 34.515625 
L 43.21875 34.515625 
L 43.21875 35.40625 
Q 43.21875 41.609375 39.140625 45 
Q 35.0625 48.390625 27.6875 48.390625 
Q 23 48.390625 18.546875 47.265625 
Q 14.109375 46.140625 10.015625 43.890625 
L 10.015625 52.203125 
Q 14.9375 54.109375 19.578125 55.046875 
Q 24.21875 56 28.609375 56 
Q 40.484375 56 46.34375 49.84375 
Q 52.203125 43.703125 52.203125 31.203125 
z
" id="DejaVuSans-97"/>
      <path d="M 56.203125 29.59375 
L 56.203125 25.203125 
L 14.890625 25.203125 
Q 15.484375 15.921875 20.484375 11.0625 
Q 25.484375 6.203125 34.421875 6.203125 
Q 39.59375 6.203125 44.453125 7.46875 
Q 49.3125 8.734375 54.109375 11.28125 
L 54.109375 2.78125 
Q 49.265625 0.734375 44.1875 -0.34375 
Q 39.109375 -1.421875 33.890625 -1.421875 
Q 20.796875 -1.421875 13.15625 6.1875 
Q 5.515625 13.8125 5.515625 26.8125 
Q 5.515625 40.234375 12.765625 48.109375 
Q 20.015625 56 32.328125 56 
Q 43.359375 56 49.78125 48.890625 
Q 56.203125 41.796875 56.203125 29.59375 
z
M 47.21875 32.234375 
Q 47.125 39.59375 43.09375 43.984375 
Q 39.0625 48.390625 32.421875 48.390625 
Q 24.90625 48.390625 20.390625 44.140625 
Q 15.875 39.890625 15.1875 32.171875 
z
" id="DejaVuSans-101"/>
      <path d="M 4.890625 31.390625 
L 31.203125 31.390625 
L 31.203125 23.390625 
L 4.890625 23.390625 
z
" id="DejaVuSans-45"/>
      <path d="M 48.78125 52.59375 
L 48.78125 44.1875 
Q 44.96875 46.296875 41.140625 47.34375 
Q 37.3125 48.390625 33.40625 48.390625 
Q 24.65625 48.390625 19.8125 42.84375 
Q 14.984375 37.3125 14.984375 27.296875 
Q 14.984375 17.28125 19.8125 11.734375 
Q 24.65625 6.203125 33.40625 6.203125 
Q 37.3125 6.203125 41.140625 7.25 
Q 44.96875 8.296875 48.78125 10.40625 
L 48.78125 2.09375 
Q 45.015625 0.34375 40.984375 -0.53125 
Q 36.96875 -1.421875 32.421875 -1.421875 
Q 20.0625 -1.421875 12.78125 6.34375 
Q 5.515625 14.109375 5.515625 27.296875 
Q 5.515625 40.671875 12.859375 48.328125 
Q 20.21875 56 33.015625 56 
Q 37.15625 56 41.109375 55.140625 
Q 45.0625 54.296875 48.78125 52.59375 
z
" id="DejaVuSans-99"/>
      <path d="M 2.984375 54.6875 
L 12.5 54.6875 
L 29.59375 8.796875 
L 46.6875 54.6875 
L 56.203125 54.6875 
L 35.6875 0 
L 23.484375 0 
z
" id="DejaVuSans-118"/>
      <path d="M 54.890625 33.015625 
L 54.890625 0 
L 45.90625 0 
L 45.90625 32.71875 
Q 45.90625 40.484375 42.875 44.328125 
Q 39.84375 48.1875 33.796875 48.1875 
Q 26.515625 48.1875 22.3125 43.546875 
Q 18.109375 38.921875 18.109375 30.90625 
L 18.109375 0 
L 9.078125 0 
L 9.078125 75.984375 
L 18.109375 75.984375 
L 18.109375 46.1875 
Q 21.34375 51.125 25.703125 53.5625 
Q 30.078125 56 35.796875 56 
Q 45.21875 56 50.046875 50.171875 
Q 54.890625 44.34375 54.890625 33.015625 
z
" id="DejaVuSans-104"/>
      <path d="M 4.203125 54.6875 
L 13.1875 54.6875 
L 24.421875 12.015625 
L 35.59375 54.6875 
L 46.1875 54.6875 
L 57.421875 12.015625 
L 68.609375 54.6875 
L 77.59375 54.6875 
L 63.28125 0 
L 52.6875 0 
L 40.921875 44.828125 
L 29.109375 0 
L 18.5 0 
z
" id="DejaVuSans-119"/>
      <path d="M 54.890625 33.015625 
L 54.890625 0 
L 45.90625 0 
L 45.90625 32.71875 
Q 45.90625 40.484375 42.875 44.328125 
Q 39.84375 48.1875 33.796875 48.1875 
Q 26.515625 48.1875 22.3125 43.546875 
Q 18.109375 38.921875 18.109375 30.90625 
L 18.109375 0 
L 9.078125 0 
L 9.078125 54.6875 
L 18.109375 54.6875 
L 18.109375 46.1875 
Q 21.34375 51.125 25.703125 53.5625 
Q 30.078125 56 35.796875 56 
Q 45.21875 56 50.046875 50.171875 
Q 54.890625 44.34375 54.890625 33.015625 
z
" id="DejaVuSans-110"/>
      <path d="M 52 44.1875 
Q 55.375 50.25 60.0625 53.125 
Q 64.75 56 71.09375 56 
Q 79.640625 56 84.28125 50.015625 
Q 88.921875 44.046875 88.921875 33.015625 
L 88.921875 0 
L 79.890625 0 
L 79.890625 32.71875 
Q 79.890625 40.578125 77.09375 44.375 
Q 74.3125 48.1875 68.609375 48.1875 
Q 61.625 48.1875 57.5625 43.546875 
Q 53.515625 38.921875 53.515625 30.90625 
L 53.515625 0 
L 44.484375 0 
L 44.484375 32.71875 
Q 44.484375 40.625 41.703125 44.40625 
Q 38.921875 48.1875 33.109375 48.1875 
Q 26.21875 48.1875 22.15625 43.53125 
Q 18.109375 38.875 18.109375 30.90625 
L 18.109375 0 
L 9.078125 0 
L 9.078125 54.6875 
L 18.109375 54.6875 
L 18.109375 46.1875 
Q 21.1875 51.21875 25.484375 53.609375 
Q 29.78125 56 35.6875 56 
Q 41.65625 56 45.828125 52.96875 
Q 50 49.953125 52 44.1875 
z
" id="DejaVuSans-109"/>
      <path d="M 30.609375 48.390625 
Q 23.390625 48.390625 19.1875 42.75 
Q 14.984375 37.109375 14.984375 27.296875 
Q 14.984375 17.484375 19.15625 11.84375 
Q 23.34375 6.203125 30.609375 6.203125 
Q 37.796875 6.203125 41.984375 11.859375 
Q 46.1875 17.53125 46.1875 27.296875 
Q 46.1875 37.015625 41.984375 42.703125 
Q 37.796875 48.390625 30.609375 48.390625 
z
M 30.609375 56 
Q 42.328125 56 49.015625 48.375 
Q 55.71875 40.765625 55.71875 27.296875 
Q 55.71875 13.875 49.015625 6.21875 
Q 42.328125 -1.421875 30.609375 -1.421875 
Q 18.84375 -1.421875 12.171875 6.21875 
Q 5.515625 13.875 5.515625 27.296875 
Q 5.515625 40.765625 12.171875 48.375 
Q 18.84375 56 30.609375 56 
z
" id="DejaVuSans-111"/>
      <path d="M 45.40625 27.984375 
Q 45.40625 37.75 41.375 43.109375 
Q 37.359375 48.484375 30.078125 48.484375 
Q 22.859375 48.484375 18.828125 43.109375 
Q 14.796875 37.75 14.796875 27.984375 
Q 14.796875 18.265625 18.828125 12.890625 
Q 22.859375 7.515625 30.078125 7.515625 
Q 37.359375 7.515625 41.375 12.890625 
Q 45.40625 18.265625 45.40625 27.984375 
z
M 54.390625 6.78125 
Q 54.390625 -7.171875 48.1875 -13.984375 
Q 42 -20.796875 29.203125 -20.796875 
Q 24.46875 -20.796875 20.265625 -20.09375 
Q 16.0625 -19.390625 12.109375 -17.921875 
L 12.109375 -9.1875 
Q 16.0625 -11.328125 19.921875 -12.34375 
Q 23.78125 -13.375 27.78125 -13.375 
Q 36.625 -13.375 41.015625 -8.765625 
Q 45.40625 -4.15625 45.40625 5.171875 
L 45.40625 9.625 
Q 42.625 4.78125 38.28125 2.390625 
Q 33.9375 0 27.875 0 
Q 17.828125 0 11.671875 7.65625 
Q 5.515625 15.328125 5.515625 27.984375 
Q 5.515625 40.671875 11.671875 48.328125 
Q 17.828125 56 27.875 56 
Q 33.9375 56 38.28125 53.609375 
Q 42.625 51.21875 45.40625 46.390625 
L 45.40625 54.6875 
L 54.390625 54.6875 
z
" id="DejaVuSans-103"/>
      <path d="M 8.5 21.578125 
L 8.5 54.6875 
L 17.484375 54.6875 
L 17.484375 21.921875 
Q 17.484375 14.15625 20.5 10.265625 
Q 23.53125 6.390625 29.59375 6.390625 
Q 36.859375 6.390625 41.078125 11.03125 
Q 45.3125 15.671875 45.3125 23.6875 
L 45.3125 54.6875 
L 54.296875 54.6875 
L 54.296875 0 
L 45.3125 0 
L 45.3125 8.40625 
Q 42.046875 3.421875 37.71875 1 
Q 33.40625 -1.421875 27.6875 -1.421875 
Q 18.265625 -1.421875 13.375 4.4375 
Q 8.5 10.296875 8.5 21.578125 
z
M 31.109375 56 
z
" id="DejaVuSans-117"/>
      <path d="M 41.109375 46.296875 
Q 39.59375 47.171875 37.8125 47.578125 
Q 36.03125 48 33.890625 48 
Q 26.265625 48 22.1875 43.046875 
Q 18.109375 38.09375 18.109375 28.8125 
L 18.109375 0 
L 9.078125 0 
L 9.078125 54.6875 
L 18.109375 54.6875 
L 18.109375 46.1875 
Q 20.953125 51.171875 25.484375 53.578125 
Q 30.03125 56 36.53125 56 
Q 37.453125 56 38.578125 55.875 
Q 39.703125 55.765625 41.0625 55.515625 
z
" id="DejaVuSans-114"/>
      <path d="M 46 62.703125 
L 46 35.5 
L 73.1875 35.5 
L 73.1875 27.203125 
L 46 27.203125 
L 46 0 
L 37.796875 0 
L 37.796875 27.203125 
L 10.59375 27.203125 
L 10.59375 35.5 
L 37.796875 35.5 
L 37.796875 62.703125 
z
" id="DejaVuSans-43"/>
     </defs>
     <g transform="translate(20.929375 125.913938)scale(0.1 -0.1)">
      <use xlink:href="#DejaVuSans-53"/>
      <use x="63.623047" xlink:href="#DejaVuSans-46"/>
      <use x="95.410156" xlink:href="#DejaVuSans-50"/>
      <use x="159.033203" xlink:href="#DejaVuSans-46"/>
      <use x="190.820312" xlink:href="#DejaVuSans-49"/>
      <use x="254.443359" xlink:href="#DejaVuSans-55"/>
      <use x="318.066406" xlink:href="#DejaVuSans-46"/>
      <use x="349.853516" xlink:href="#DejaVuSans-105"/>
      <use x="377.636719" xlink:href="#DejaVuSans-112"/>
      <use x="441.113281" xlink:href="#DejaVuSans-115"/>
      <use x="493.212891" xlink:href="#DejaVuSans-116"/>
      <use x="532.421875" xlink:href="#DejaVuSans-97"/>
      <use x="593.701172" xlink:href="#DejaVuSans-116"/>
      <use x="632.910156" xlink:href="#DejaVuSans-101"/>
      <use x="694.433594" xlink:href="#DejaVuSans-45"/>
      <use x="730.517578" xlink:href="#DejaVuSans-97"/>
      <use x="791.796875" xlink:href="#DejaVuSans-99"/>
      <use x="846.777344" xlink:href="#DejaVuSans-116"/>
      <use x="885.986328" xlink:href="#DejaVuSans-105"/>
      <use x="913.769531" xlink:href="#DejaVuSans-118"/>
      <use x="972.949219" xlink:href="#DejaVuSans-101"/>
      <use x="1034.472656" xlink:href="#DejaVuSans-45"/>
      <use x="1070.556641" xlink:href="#DejaVuSans-104"/>
      <use x="1133.935547" xlink:href="#DejaVuSans-119"/>
      <use x="1215.722656" xlink:href="#DejaVuSans-112"/>
      <use x="1279.199219" xlink:href="#DejaVuSans-46"/>
      <use x="1310.986328" xlink:href="#DejaVuSans-99"/>
      <use x="1365.966797" xlink:href="#DejaVuSans-105"/>
      <use x="1393.75" xlink:href="#DejaVuSans-110"/>
      <use x="1457.128906" xlink:href="#DejaVuSans-110"/>
      <use x="1520.507812" xlink:href="#DejaVuSans-97"/>
      <use x="1581.787109" xlink:href="#DejaVuSans-109"/>
      <use x="1679.199219" xlink:href="#DejaVuSans-111"/>
      <use x="1740.380859" xlink:href="#DejaVuSans-110"/>
      <use x="1803.759766" xlink:href="#DejaVuSans-46"/>
      <use x="1835.546875" xlink:href="#DejaVuSans-109"/>
      <use x="1932.958984" xlink:href="#DejaVuSans-112"/>
      <use x="1996.435547" xlink:href="#DejaVuSans-118"/>
      <use x="2052.990234" xlink:href="#DejaVuSans-45"/>
      <use x="2089.074219" xlink:href="#DejaVuSans-103"/>
      <use x="2152.550781" xlink:href="#DejaVuSans-112"/>
      <use x="2216.027344" xlink:href="#DejaVuSans-117"/>
      <use x="2279.40625" xlink:href="#DejaVuSans-45"/>
      <use x="2312.865234" xlink:href="#DejaVuSans-118"/>
      <use x="2372.044922" xlink:href="#DejaVuSans-97"/>
      <use x="2433.324219" xlink:href="#DejaVuSans-97"/>
      <use x="2494.603516" xlink:href="#DejaVuSans-112"/>
      <use x="2558.080078" xlink:href="#DejaVuSans-105"/>
      <use x="2585.863281" xlink:href="#DejaVuSans-46"/>
      <use x="2617.650391" xlink:href="#DejaVuSans-119"/>
      <use x="2699.4375" xlink:href="#DejaVuSans-97"/>
      <use x="2760.716797" xlink:href="#DejaVuSans-114"/>
      <use x="2800.080078" xlink:href="#DejaVuSans-109"/>
      <use x="2897.492188" xlink:href="#DejaVuSans-117"/>
      <use x="2960.871094" xlink:href="#DejaVuSans-112"/>
      <use x="3024.347656" xlink:href="#DejaVuSans-43"/>
      <use x="3108.136719" xlink:href="#DejaVuSans-109"/>
      <use x="3205.548828" xlink:href="#DejaVuSans-97"/>
      <use x="3266.828125" xlink:href="#DejaVuSans-105"/>
      <use x="3294.611328" xlink:href="#DejaVuSans-110"/>
     </g>
    </g>
    <g id="line2d_24">
     <path d="M -1 137.092062 
L 12.929375 137.092062 
" style="fill:none;stroke:#ff7f0e;stroke-linecap:square;stroke-width:1.5;"/>
    </g>
    <g id="line2d_25"/>
    <g id="text_15">
     <!-- 5.2.17.ipstate-active-hwp.gnome-shell-classic.mpv-gpu-vaapi.warmup+main -->
     <defs>
      <path d="M 9.421875 75.984375 
L 18.40625 75.984375 
L 18.40625 0 
L 9.421875 0 
z
" id="DejaVuSans-108"/>
     </defs>
     <g transform="translate(20.929375 140.592062)scale(0.1 -0.1)">
      <use xlink:href="#DejaVuSans-53"/>
      <use x="63.623047" xlink:href="#DejaVuSans-46"/>
      <use x="95.410156" xlink:href="#DejaVuSans-50"/>
      <use x="159.033203" xlink:href="#DejaVuSans-46"/>
      <use x="190.820312" xlink:href="#DejaVuSans-49"/>
      <use x="254.443359" xlink:href="#DejaVuSans-55"/>
      <use x="318.066406" xlink:href="#DejaVuSans-46"/>
      <use x="349.853516" xlink:href="#DejaVuSans-105"/>
      <use x="377.636719" xlink:href="#DejaVuSans-112"/>
      <use x="441.113281" xlink:href="#DejaVuSans-115"/>
      <use x="493.212891" xlink:href="#DejaVuSans-116"/>
      <use x="532.421875" xlink:href="#DejaVuSans-97"/>
      <use x="593.701172" xlink:href="#DejaVuSans-116"/>
      <use x="632.910156" xlink:href="#DejaVuSans-101"/>
      <use x="694.433594" xlink:href="#DejaVuSans-45"/>
      <use x="730.517578" xlink:href="#DejaVuSans-97"/>
      <use x="791.796875" xlink:href="#DejaVuSans-99"/>
      <use x="846.777344" xlink:href="#DejaVuSans-116"/>
      <use x="885.986328" xlink:href="#DejaVuSans-105"/>
      <use x="913.769531" xlink:href="#DejaVuSans-118"/>
      <use x="972.949219" xlink:href="#DejaVuSans-101"/>
      <use x="1034.472656" xlink:href="#DejaVuSans-45"/>
      <use x="1070.556641" xlink:href="#DejaVuSans-104"/>
      <use x="1133.935547" xlink:href="#DejaVuSans-119"/>
      <use x="1215.722656" xlink:href="#DejaVuSans-112"/>
      <use x="1279.199219" xlink:href="#DejaVuSans-46"/>
      <use x="1310.986328" xlink:href="#DejaVuSans-103"/>
      <use x="1374.462891" xlink:href="#DejaVuSans-110"/>
      <use x="1437.841797" xlink:href="#DejaVuSans-111"/>
      <use x="1499.023438" xlink:href="#DejaVuSans-109"/>
      <use x="1596.435547" xlink:href="#DejaVuSans-101"/>
      <use x="1657.958984" xlink:href="#DejaVuSans-45"/>
      <use x="1694.042969" xlink:href="#DejaVuSans-115"/>
      <use x="1746.142578" xlink:href="#DejaVuSans-104"/>
      <use x="1809.521484" xlink:href="#DejaVuSans-101"/>
      <use x="1871.044922" xlink:href="#DejaVuSans-108"/>
      <use x="1898.828125" xlink:href="#DejaVuSans-108"/>
      <use x="1926.611328" xlink:href="#DejaVuSans-45"/>
      <use x="1962.695312" xlink:href="#DejaVuSans-99"/>
      <use x="2017.675781" xlink:href="#DejaVuSans-108"/>
      <use x="2045.458984" xlink:href="#DejaVuSans-97"/>
      <use x="2106.738281" xlink:href="#DejaVuSans-115"/>
      <use x="2158.837891" xlink:href="#DejaVuSans-115"/>
      <use x="2210.9375" xlink:href="#DejaVuSans-105"/>
      <use x="2238.720703" xlink:href="#DejaVuSans-99"/>
      <use x="2293.701172" xlink:href="#DejaVuSans-46"/>
      <use x="2325.488281" xlink:href="#DejaVuSans-109"/>
      <use x="2422.900391" xlink:href="#DejaVuSans-112"/>
      <use x="2486.376953" xlink:href="#DejaVuSans-118"/>
      <use x="2542.931641" xlink:href="#DejaVuSans-45"/>
      <use x="2579.015625" xlink:href="#DejaVuSans-103"/>
      <use x="2642.492188" xlink:href="#DejaVuSans-112"/>
      <use x="2705.96875" xlink:href="#DejaVuSans-117"/>
      <use x="2769.347656" xlink:href="#DejaVuSans-45"/>
      <use x="2802.806641" xlink:href="#DejaVuSans-118"/>
      <use x="2861.986328" xlink:href="#DejaVuSans-97"/>
      <use x="2923.265625" xlink:href="#DejaVuSans-97"/>
      <use x="2984.544922" xlink:href="#DejaVuSans-112"/>
      <use x="3048.021484" xlink:href="#DejaVuSans-105"/>
      <use x="3075.804688" xlink:href="#DejaVuSans-46"/>
      <use x="3107.591797" xlink:href="#DejaVuSans-119"/>
      <use x="3189.378906" xlink:href="#DejaVuSans-97"/>
      <use x="3250.658203" xlink:href="#DejaVuSans-114"/>
      <use x="3290.021484" xlink:href="#DejaVuSans-109"/>
      <use x="3387.433594" xlink:href="#DejaVuSans-117"/>
      <use x="3450.8125" xlink:href="#DejaVuSans-112"/>
      <use x="3514.289062" xlink:href="#DejaVuSans-43"/>
      <use x="3598.078125" xlink:href="#DejaVuSans-109"/>
      <use x="3695.490234" xlink:href="#DejaVuSans-97"/>
      <use x="3756.769531" xlink:href="#DejaVuSans-105"/>
      <use x="3784.552734" xlink:href="#DejaVuSans-110"/>
     </g>
    </g>
    <g id="line2d_26">
     <path d="M -1 151.770188 
L 12.929375 151.770188 
" style="fill:none;stroke:#2ca02c;stroke-linecap:square;stroke-width:1.5;"/>
    </g>
    <g id="line2d_27"/>
    <g id="text_16">
     <!-- 5.2.17.ipstate-disable.cinnamon.mpv-gpu-vaapi.warmup+main -->
     <defs>
      <path d="M 45.40625 46.390625 
L 45.40625 75.984375 
L 54.390625 75.984375 
L 54.390625 0 
L 45.40625 0 
L 45.40625 8.203125 
Q 42.578125 3.328125 38.25 0.953125 
Q 33.9375 -1.421875 27.875 -1.421875 
Q 17.96875 -1.421875 11.734375 6.484375 
Q 5.515625 14.40625 5.515625 27.296875 
Q 5.515625 40.1875 11.734375 48.09375 
Q 17.96875 56 27.875 56 
Q 33.9375 56 38.25 53.625 
Q 42.578125 51.265625 45.40625 46.390625 
z
M 14.796875 27.296875 
Q 14.796875 17.390625 18.875 11.75 
Q 22.953125 6.109375 30.078125 6.109375 
Q 37.203125 6.109375 41.296875 11.75 
Q 45.40625 17.390625 45.40625 27.296875 
Q 45.40625 37.203125 41.296875 42.84375 
Q 37.203125 48.484375 30.078125 48.484375 
Q 22.953125 48.484375 18.875 42.84375 
Q 14.796875 37.203125 14.796875 27.296875 
z
" id="DejaVuSans-100"/>
      <path d="M 48.6875 27.296875 
Q 48.6875 37.203125 44.609375 42.84375 
Q 40.53125 48.484375 33.40625 48.484375 
Q 26.265625 48.484375 22.1875 42.84375 
Q 18.109375 37.203125 18.109375 27.296875 
Q 18.109375 17.390625 22.1875 11.75 
Q 26.265625 6.109375 33.40625 6.109375 
Q 40.53125 6.109375 44.609375 11.75 
Q 48.6875 17.390625 48.6875 27.296875 
z
M 18.109375 46.390625 
Q 20.953125 51.265625 25.265625 53.625 
Q 29.59375 56 35.59375 56 
Q 45.5625 56 51.78125 48.09375 
Q 58.015625 40.1875 58.015625 27.296875 
Q 58.015625 14.40625 51.78125 6.484375 
Q 45.5625 -1.421875 35.59375 -1.421875 
Q 29.59375 -1.421875 25.265625 0.953125 
Q 20.953125 3.328125 18.109375 8.203125 
L 18.109375 0 
L 9.078125 0 
L 9.078125 75.984375 
L 18.109375 75.984375 
z
" id="DejaVuSans-98"/>
     </defs>
     <g transform="translate(20.929375 155.270188)scale(0.1 -0.1)">
      <use xlink:href="#DejaVuSans-53"/>
      <use x="63.623047" xlink:href="#DejaVuSans-46"/>
      <use x="95.410156" xlink:href="#DejaVuSans-50"/>
      <use x="159.033203" xlink:href="#DejaVuSans-46"/>
      <use x="190.820312" xlink:href="#DejaVuSans-49"/>
      <use x="254.443359" xlink:href="#DejaVuSans-55"/>
      <use x="318.066406" xlink:href="#DejaVuSans-46"/>
      <use x="349.853516" xlink:href="#DejaVuSans-105"/>
      <use x="377.636719" xlink:href="#DejaVuSans-112"/>
      <use x="441.113281" xlink:href="#DejaVuSans-115"/>
      <use x="493.212891" xlink:href="#DejaVuSans-116"/>
      <use x="532.421875" xlink:href="#DejaVuSans-97"/>
      <use x="593.701172" xlink:href="#DejaVuSans-116"/>
      <use x="632.910156" xlink:href="#DejaVuSans-101"/>
      <use x="694.433594" xlink:href="#DejaVuSans-45"/>
      <use x="730.517578" xlink:href="#DejaVuSans-100"/>
      <use x="793.994141" xlink:href="#DejaVuSans-105"/>
      <use x="821.777344" xlink:href="#DejaVuSans-115"/>
      <use x="873.876953" xlink:href="#DejaVuSans-97"/>
      <use x="935.15625" xlink:href="#DejaVuSans-98"/>
      <use x="998.632812" xlink:href="#DejaVuSans-108"/>
      <use x="1026.416016" xlink:href="#DejaVuSans-101"/>
      <use x="1087.939453" xlink:href="#DejaVuSans-46"/>
      <use x="1119.726562" xlink:href="#DejaVuSans-99"/>
      <use x="1174.707031" xlink:href="#DejaVuSans-105"/>
      <use x="1202.490234" xlink:href="#DejaVuSans-110"/>
      <use x="1265.869141" xlink:href="#DejaVuSans-110"/>
      <use x="1329.248047" xlink:href="#DejaVuSans-97"/>
      <use x="1390.527344" xlink:href="#DejaVuSans-109"/>
      <use x="1487.939453" xlink:href="#DejaVuSans-111"/>
      <use x="1549.121094" xlink:href="#DejaVuSans-110"/>
      <use x="1612.5" xlink:href="#DejaVuSans-46"/>
      <use x="1644.287109" xlink:href="#DejaVuSans-109"/>
      <use x="1741.699219" xlink:href="#DejaVuSans-112"/>
      <use x="1805.175781" xlink:href="#DejaVuSans-118"/>
      <use x="1861.730469" xlink:href="#DejaVuSans-45"/>
      <use x="1897.814453" xlink:href="#DejaVuSans-103"/>
      <use x="1961.291016" xlink:href="#DejaVuSans-112"/>
      <use x="2024.767578" xlink:href="#DejaVuSans-117"/>
      <use x="2088.146484" xlink:href="#DejaVuSans-45"/>
      <use x="2121.605469" xlink:href="#DejaVuSans-118"/>
      <use x="2180.785156" xlink:href="#DejaVuSans-97"/>
      <use x="2242.064453" xlink:href="#DejaVuSans-97"/>
      <use x="2303.34375" xlink:href="#DejaVuSans-112"/>
      <use x="2366.820312" xlink:href="#DejaVuSans-105"/>
      <use x="2394.603516" xlink:href="#DejaVuSans-46"/>
      <use x="2426.390625" xlink:href="#DejaVuSans-119"/>
      <use x="2508.177734" xlink:href="#DejaVuSans-97"/>
      <use x="2569.457031" xlink:href="#DejaVuSans-114"/>
      <use x="2608.820312" xlink:href="#DejaVuSans-109"/>
      <use x="2706.232422" xlink:href="#DejaVuSans-117"/>
      <use x="2769.611328" xlink:href="#DejaVuSans-112"/>
      <use x="2833.087891" xlink:href="#DejaVuSans-43"/>
      <use x="2916.876953" xlink:href="#DejaVuSans-109"/>
      <use x="3014.289062" xlink:href="#DejaVuSans-97"/>
      <use x="3075.568359" xlink:href="#DejaVuSans-105"/>
      <use x="3103.351562" xlink:href="#DejaVuSans-110"/>
     </g>
    </g>
    <g id="line2d_28">
     <path d="M -1 166.448313 
L 12.929375 166.448313 
" style="fill:none;stroke:#d62728;stroke-linecap:square;stroke-width:1.5;"/>
    </g>
    <g id="line2d_29"/>
    <g id="text_17">
     <!-- 5.2.17.ipstate-disable.gnome-shell-classic.mpv-gpu-vaapi.warmup+main -->
     <g transform="translate(20.929375 169.948313)scale(0.1 -0.1)">
      <use xlink:href="#DejaVuSans-53"/>
      <use x="63.623047" xlink:href="#DejaVuSans-46"/>
      <use x="95.410156" xlink:href="#DejaVuSans-50"/>
      <use x="159.033203" xlink:href="#DejaVuSans-46"/>
      <use x="190.820312" xlink:href="#DejaVuSans-49"/>
      <use x="254.443359" xlink:href="#DejaVuSans-55"/>
      <use x="318.066406" xlink:href="#DejaVuSans-46"/>
      <use x="349.853516" xlink:href="#DejaVuSans-105"/>
      <use x="377.636719" xlink:href="#DejaVuSans-112"/>
      <use x="441.113281" xlink:href="#DejaVuSans-115"/>
      <use x="493.212891" xlink:href="#DejaVuSans-116"/>
      <use x="532.421875" xlink:href="#DejaVuSans-97"/>
      <use x="593.701172" xlink:href="#DejaVuSans-116"/>
      <use x="632.910156" xlink:href="#DejaVuSans-101"/>
      <use x="694.433594" xlink:href="#DejaVuSans-45"/>
      <use x="730.517578" xlink:href="#DejaVuSans-100"/>
      <use x="793.994141" xlink:href="#DejaVuSans-105"/>
      <use x="821.777344" xlink:href="#DejaVuSans-115"/>
      <use x="873.876953" xlink:href="#DejaVuSans-97"/>
      <use x="935.15625" xlink:href="#DejaVuSans-98"/>
      <use x="998.632812" xlink:href="#DejaVuSans-108"/>
      <use x="1026.416016" xlink:href="#DejaVuSans-101"/>
      <use x="1087.939453" xlink:href="#DejaVuSans-46"/>
      <use x="1119.726562" xlink:href="#DejaVuSans-103"/>
      <use x="1183.203125" xlink:href="#DejaVuSans-110"/>
      <use x="1246.582031" xlink:href="#DejaVuSans-111"/>
      <use x="1307.763672" xlink:href="#DejaVuSans-109"/>
      <use x="1405.175781" xlink:href="#DejaVuSans-101"/>
      <use x="1466.699219" xlink:href="#DejaVuSans-45"/>
      <use x="1502.783203" xlink:href="#DejaVuSans-115"/>
      <use x="1554.882812" xlink:href="#DejaVuSans-104"/>
      <use x="1618.261719" xlink:href="#DejaVuSans-101"/>
      <use x="1679.785156" xlink:href="#DejaVuSans-108"/>
      <use x="1707.568359" xlink:href="#DejaVuSans-108"/>
      <use x="1735.351562" xlink:href="#DejaVuSans-45"/>
      <use x="1771.435547" xlink:href="#DejaVuSans-99"/>
      <use x="1826.416016" xlink:href="#DejaVuSans-108"/>
      <use x="1854.199219" xlink:href="#DejaVuSans-97"/>
      <use x="1915.478516" xlink:href="#DejaVuSans-115"/>
      <use x="1967.578125" xlink:href="#DejaVuSans-115"/>
      <use x="2019.677734" xlink:href="#DejaVuSans-105"/>
      <use x="2047.460938" xlink:href="#DejaVuSans-99"/>
      <use x="2102.441406" xlink:href="#DejaVuSans-46"/>
      <use x="2134.228516" xlink:href="#DejaVuSans-109"/>
      <use x="2231.640625" xlink:href="#DejaVuSans-112"/>
      <use x="2295.117188" xlink:href="#DejaVuSans-118"/>
      <use x="2351.671875" xlink:href="#DejaVuSans-45"/>
      <use x="2387.755859" xlink:href="#DejaVuSans-103"/>
      <use x="2451.232422" xlink:href="#DejaVuSans-112"/>
      <use x="2514.708984" xlink:href="#DejaVuSans-117"/>
      <use x="2578.087891" xlink:href="#DejaVuSans-45"/>
      <use x="2611.546875" xlink:href="#DejaVuSans-118"/>
      <use x="2670.726562" xlink:href="#DejaVuSans-97"/>
      <use x="2732.005859" xlink:href="#DejaVuSans-97"/>
      <use x="2793.285156" xlink:href="#DejaVuSans-112"/>
      <use x="2856.761719" xlink:href="#DejaVuSans-105"/>
      <use x="2884.544922" xlink:href="#DejaVuSans-46"/>
      <use x="2916.332031" xlink:href="#DejaVuSans-119"/>
      <use x="2998.119141" xlink:href="#DejaVuSans-97"/>
      <use x="3059.398438" xlink:href="#DejaVuSans-114"/>
      <use x="3098.761719" xlink:href="#DejaVuSans-109"/>
      <use x="3196.173828" xlink:href="#DejaVuSans-117"/>
      <use x="3259.552734" xlink:href="#DejaVuSans-112"/>
      <use x="3323.029297" xlink:href="#DejaVuSans-43"/>
      <use x="3406.818359" xlink:href="#DejaVuSans-109"/>
      <use x="3504.230469" xlink:href="#DejaVuSans-97"/>
      <use x="3565.509766" xlink:href="#DejaVuSans-105"/>
      <use x="3593.292969" xlink:href="#DejaVuSans-110"/>
     </g>
    </g>
    <g id="line2d_30">
     <path d="M -1 181.126438 
L 12.929375 181.126438 
" style="fill:none;stroke:#9467bd;stroke-linecap:square;stroke-width:1.5;"/>
    </g>
    <g id="line2d_31"/>
    <g id="text_18">
     <!-- 5.5.13.ipstate-active-hwp.cinnamon.mpv-gpu-vaapi.warmup+main -->
     <defs>
      <path d="M 40.578125 39.3125 
Q 47.65625 37.796875 51.625 33 
Q 55.609375 28.21875 55.609375 21.1875 
Q 55.609375 10.40625 48.1875 4.484375 
Q 40.765625 -1.421875 27.09375 -1.421875 
Q 22.515625 -1.421875 17.65625 -0.515625 
Q 12.796875 0.390625 7.625 2.203125 
L 7.625 11.71875 
Q 11.71875 9.328125 16.59375 8.109375 
Q 21.484375 6.890625 26.8125 6.890625 
Q 36.078125 6.890625 40.9375 10.546875 
Q 45.796875 14.203125 45.796875 21.1875 
Q 45.796875 27.640625 41.28125 31.265625 
Q 36.765625 34.90625 28.71875 34.90625 
L 20.21875 34.90625 
L 20.21875 43.015625 
L 29.109375 43.015625 
Q 36.375 43.015625 40.234375 45.921875 
Q 44.09375 48.828125 44.09375 54.296875 
Q 44.09375 59.90625 40.109375 62.90625 
Q 36.140625 65.921875 28.71875 65.921875 
Q 24.65625 65.921875 20.015625 65.03125 
Q 15.375 64.15625 9.8125 62.3125 
L 9.8125 71.09375 
Q 15.4375 72.65625 20.34375 73.4375 
Q 25.25 74.21875 29.59375 74.21875 
Q 40.828125 74.21875 47.359375 69.109375 
Q 53.90625 64.015625 53.90625 55.328125 
Q 53.90625 49.265625 50.4375 45.09375 
Q 46.96875 40.921875 40.578125 39.3125 
z
" id="DejaVuSans-51"/>
     </defs>
     <g transform="translate(20.929375 184.626438)scale(0.1 -0.1)">
      <use xlink:href="#DejaVuSans-53"/>
      <use x="63.623047" xlink:href="#DejaVuSans-46"/>
      <use x="95.410156" xlink:href="#DejaVuSans-53"/>
      <use x="159.033203" xlink:href="#DejaVuSans-46"/>
      <use x="190.820312" xlink:href="#DejaVuSans-49"/>
      <use x="254.443359" xlink:href="#DejaVuSans-51"/>
      <use x="318.066406" xlink:href="#DejaVuSans-46"/>
      <use x="349.853516" xlink:href="#DejaVuSans-105"/>
      <use x="377.636719" xlink:href="#DejaVuSans-112"/>
      <use x="441.113281" xlink:href="#DejaVuSans-115"/>
      <use x="493.212891" xlink:href="#DejaVuSans-116"/>
      <use x="532.421875" xlink:href="#DejaVuSans-97"/>
      <use x="593.701172" xlink:href="#DejaVuSans-116"/>
      <use x="632.910156" xlink:href="#DejaVuSans-101"/>
      <use x="694.433594" xlink:href="#DejaVuSans-45"/>
      <use x="730.517578" xlink:href="#DejaVuSans-97"/>
      <use x="791.796875" xlink:href="#DejaVuSans-99"/>
      <use x="846.777344" xlink:href="#DejaVuSans-116"/>
      <use x="885.986328" xlink:href="#DejaVuSans-105"/>
      <use x="913.769531" xlink:href="#DejaVuSans-118"/>
      <use x="972.949219" xlink:href="#DejaVuSans-101"/>
      <use x="1034.472656" xlink:href="#DejaVuSans-45"/>
      <use x="1070.556641" xlink:href="#DejaVuSans-104"/>
      <use x="1133.935547" xlink:href="#DejaVuSans-119"/>
      <use x="1215.722656" xlink:href="#DejaVuSans-112"/>
      <use x="1279.199219" xlink:href="#DejaVuSans-46"/>
      <use x="1310.986328" xlink:href="#DejaVuSans-99"/>
      <use x="1365.966797" xlink:href="#DejaVuSans-105"/>
      <use x="1393.75" xlink:href="#DejaVuSans-110"/>
      <use x="1457.128906" xlink:href="#DejaVuSans-110"/>
      <use x="1520.507812" xlink:href="#DejaVuSans-97"/>
      <use x="1581.787109" xlink:href="#DejaVuSans-109"/>
      <use x="1679.199219" xlink:href="#DejaVuSans-111"/>
      <use x="1740.380859" xlink:href="#DejaVuSans-110"/>
      <use x="1803.759766" xlink:href="#DejaVuSans-46"/>
      <use x="1835.546875" xlink:href="#DejaVuSans-109"/>
      <use x="1932.958984" xlink:href="#DejaVuSans-112"/>
      <use x="1996.435547" xlink:href="#DejaVuSans-118"/>
      <use x="2052.990234" xlink:href="#DejaVuSans-45"/>
      <use x="2089.074219" xlink:href="#DejaVuSans-103"/>
      <use x="2152.550781" xlink:href="#DejaVuSans-112"/>
      <use x="2216.027344" xlink:href="#DejaVuSans-117"/>
      <use x="2279.40625" xlink:href="#DejaVuSans-45"/>
      <use x="2312.865234" xlink:href="#DejaVuSans-118"/>
      <use x="2372.044922" xlink:href="#DejaVuSans-97"/>
      <use x="2433.324219" xlink:href="#DejaVuSans-97"/>
      <use x="2494.603516" xlink:href="#DejaVuSans-112"/>
      <use x="2558.080078" xlink:href="#DejaVuSans-105"/>
      <use x="2585.863281" xlink:href="#DejaVuSans-46"/>
      <use x="2617.650391" xlink:href="#DejaVuSans-119"/>
      <use x="2699.4375" xlink:href="#DejaVuSans-97"/>
      <use x="2760.716797" xlink:href="#DejaVuSans-114"/>
      <use x="2800.080078" xlink:href="#DejaVuSans-109"/>
      <use x="2897.492188" xlink:href="#DejaVuSans-117"/>
      <use x="2960.871094" xlink:href="#DejaVuSans-112"/>
      <use x="3024.347656" xlink:href="#DejaVuSans-43"/>
      <use x="3108.136719" xlink:href="#DejaVuSans-109"/>
      <use x="3205.548828" xlink:href="#DejaVuSans-97"/>
      <use x="3266.828125" xlink:href="#DejaVuSans-105"/>
      <use x="3294.611328" xlink:href="#DejaVuSans-110"/>
     </g>
    </g>
    <g id="line2d_32">
     <path d="M -1 195.804563 
L 12.929375 195.804563 
" style="fill:none;stroke:#8c564b;stroke-linecap:square;stroke-width:1.5;"/>
    </g>
    <g id="line2d_33"/>
    <g id="text_19">
     <!-- 5.5.13.ipstate-active-hwp.gnome-shell-classic.mpv-gpu-vaapi.warmup+main -->
     <g transform="translate(20.929375 199.304563)scale(0.1 -0.1)">
      <use xlink:href="#DejaVuSans-53"/>
      <use x="63.623047" xlink:href="#DejaVuSans-46"/>
      <use x="95.410156" xlink:href="#DejaVuSans-53"/>
      <use x="159.033203" xlink:href="#DejaVuSans-46"/>
      <use x="190.820312" xlink:href="#DejaVuSans-49"/>
      <use x="254.443359" xlink:href="#DejaVuSans-51"/>
      <use x="318.066406" xlink:href="#DejaVuSans-46"/>
      <use x="349.853516" xlink:href="#DejaVuSans-105"/>
      <use x="377.636719" xlink:href="#DejaVuSans-112"/>
      <use x="441.113281" xlink:href="#DejaVuSans-115"/>
      <use x="493.212891" xlink:href="#DejaVuSans-116"/>
      <use x="532.421875" xlink:href="#DejaVuSans-97"/>
      <use x="593.701172" xlink:href="#DejaVuSans-116"/>
      <use x="632.910156" xlink:href="#DejaVuSans-101"/>
      <use x="694.433594" xlink:href="#DejaVuSans-45"/>
      <use x="730.517578" xlink:href="#DejaVuSans-97"/>
      <use x="791.796875" xlink:href="#DejaVuSans-99"/>
      <use x="846.777344" xlink:href="#DejaVuSans-116"/>
      <use x="885.986328" xlink:href="#DejaVuSans-105"/>
      <use x="913.769531" xlink:href="#DejaVuSans-118"/>
      <use x="972.949219" xlink:href="#DejaVuSans-101"/>
      <use x="1034.472656" xlink:href="#DejaVuSans-45"/>
      <use x="1070.556641" xlink:href="#DejaVuSans-104"/>
      <use x="1133.935547" xlink:href="#DejaVuSans-119"/>
      <use x="1215.722656" xlink:href="#DejaVuSans-112"/>
      <use x="1279.199219" xlink:href="#DejaVuSans-46"/>
      <use x="1310.986328" xlink:href="#DejaVuSans-103"/>
      <use x="1374.462891" xlink:href="#DejaVuSans-110"/>
      <use x="1437.841797" xlink:href="#DejaVuSans-111"/>
      <use x="1499.023438" xlink:href="#DejaVuSans-109"/>
      <use x="1596.435547" xlink:href="#DejaVuSans-101"/>
      <use x="1657.958984" xlink:href="#DejaVuSans-45"/>
      <use x="1694.042969" xlink:href="#DejaVuSans-115"/>
      <use x="1746.142578" xlink:href="#DejaVuSans-104"/>
      <use x="1809.521484" xlink:href="#DejaVuSans-101"/>
      <use x="1871.044922" xlink:href="#DejaVuSans-108"/>
      <use x="1898.828125" xlink:href="#DejaVuSans-108"/>
      <use x="1926.611328" xlink:href="#DejaVuSans-45"/>
      <use x="1962.695312" xlink:href="#DejaVuSans-99"/>
      <use x="2017.675781" xlink:href="#DejaVuSans-108"/>
      <use x="2045.458984" xlink:href="#DejaVuSans-97"/>
      <use x="2106.738281" xlink:href="#DejaVuSans-115"/>
      <use x="2158.837891" xlink:href="#DejaVuSans-115"/>
      <use x="2210.9375" xlink:href="#DejaVuSans-105"/>
      <use x="2238.720703" xlink:href="#DejaVuSans-99"/>
      <use x="2293.701172" xlink:href="#DejaVuSans-46"/>
      <use x="2325.488281" xlink:href="#DejaVuSans-109"/>
      <use x="2422.900391" xlink:href="#DejaVuSans-112"/>
      <use x="2486.376953" xlink:href="#DejaVuSans-118"/>
      <use x="2542.931641" xlink:href="#DejaVuSans-45"/>
      <use x="2579.015625" xlink:href="#DejaVuSans-103"/>
      <use x="2642.492188" xlink:href="#DejaVuSans-112"/>
      <use x="2705.96875" xlink:href="#DejaVuSans-117"/>
      <use x="2769.347656" xlink:href="#DejaVuSans-45"/>
      <use x="2802.806641" xlink:href="#DejaVuSans-118"/>
      <use x="2861.986328" xlink:href="#DejaVuSans-97"/>
      <use x="2923.265625" xlink:href="#DejaVuSans-97"/>
      <use x="2984.544922" xlink:href="#DejaVuSans-112"/>
      <use x="3048.021484" xlink:href="#DejaVuSans-105"/>
      <use x="3075.804688" xlink:href="#DejaVuSans-46"/>
      <use x="3107.591797" xlink:href="#DejaVuSans-119"/>
      <use x="3189.378906" xlink:href="#DejaVuSans-97"/>
      <use x="3250.658203" xlink:href="#DejaVuSans-114"/>
      <use x="3290.021484" xlink:href="#DejaVuSans-109"/>
      <use x="3387.433594" xlink:href="#DejaVuSans-117"/>
      <use x="3450.8125" xlink:href="#DejaVuSans-112"/>
      <use x="3514.289062" xlink:href="#DejaVuSans-43"/>
      <use x="3598.078125" xlink:href="#DejaVuSans-109"/>
      <use x="3695.490234" xlink:href="#DejaVuSans-97"/>
      <use x="3756.769531" xlink:href="#DejaVuSans-105"/>
      <use x="3784.552734" xlink:href="#DejaVuSans-110"/>
     </g>
    </g>
    <g id="line2d_34">
     <path d="M -1 210.482687 
L 12.929375 210.482687 
" style="fill:none;stroke:#e377c2;stroke-linecap:square;stroke-width:1.5;"/>
    </g>
    <g id="line2d_35"/>
    <g id="text_20">
     <!-- 5.5.13.ipstate-disable.cinnamon.mpv-gpu-vaapi.warmup+main -->
     <g transform="translate(20.929375 213.982687)scale(0.1 -0.1)">
      <use xlink:href="#DejaVuSans-53"/>
      <use x="63.623047" xlink:href="#DejaVuSans-46"/>
      <use x="95.410156" xlink:href="#DejaVuSans-53"/>
      <use x="159.033203" xlink:href="#DejaVuSans-46"/>
      <use x="190.820312" xlink:href="#DejaVuSans-49"/>
      <use x="254.443359" xlink:href="#DejaVuSans-51"/>
      <use x="318.066406" xlink:href="#DejaVuSans-46"/>
      <use x="349.853516" xlink:href="#DejaVuSans-105"/>
      <use x="377.636719" xlink:href="#DejaVuSans-112"/>
      <use x="441.113281" xlink:href="#DejaVuSans-115"/>
      <use x="493.212891" xlink:href="#DejaVuSans-116"/>
      <use x="532.421875" xlink:href="#DejaVuSans-97"/>
      <use x="593.701172" xlink:href="#DejaVuSans-116"/>
      <use x="632.910156" xlink:href="#DejaVuSans-101"/>
      <use x="694.433594" xlink:href="#DejaVuSans-45"/>
      <use x="730.517578" xlink:href="#DejaVuSans-100"/>
      <use x="793.994141" xlink:href="#DejaVuSans-105"/>
      <use x="821.777344" xlink:href="#DejaVuSans-115"/>
      <use x="873.876953" xlink:href="#DejaVuSans-97"/>
      <use x="935.15625" xlink:href="#DejaVuSans-98"/>
      <use x="998.632812" xlink:href="#DejaVuSans-108"/>
      <use x="1026.416016" xlink:href="#DejaVuSans-101"/>
      <use x="1087.939453" xlink:href="#DejaVuSans-46"/>
      <use x="1119.726562" xlink:href="#DejaVuSans-99"/>
      <use x="1174.707031" xlink:href="#DejaVuSans-105"/>
      <use x="1202.490234" xlink:href="#DejaVuSans-110"/>
      <use x="1265.869141" xlink:href="#DejaVuSans-110"/>
      <use x="1329.248047" xlink:href="#DejaVuSans-97"/>
      <use x="1390.527344" xlink:href="#DejaVuSans-109"/>
      <use x="1487.939453" xlink:href="#DejaVuSans-111"/>
      <use x="1549.121094" xlink:href="#DejaVuSans-110"/>
      <use x="1612.5" xlink:href="#DejaVuSans-46"/>
      <use x="1644.287109" xlink:href="#DejaVuSans-109"/>
      <use x="1741.699219" xlink:href="#DejaVuSans-112"/>
      <use x="1805.175781" xlink:href="#DejaVuSans-118"/>
      <use x="1861.730469" xlink:href="#DejaVuSans-45"/>
      <use x="1897.814453" xlink:href="#DejaVuSans-103"/>
      <use x="1961.291016" xlink:href="#DejaVuSans-112"/>
      <use x="2024.767578" xlink:href="#DejaVuSans-117"/>
      <use x="2088.146484" xlink:href="#DejaVuSans-45"/>
      <use x="2121.605469" xlink:href="#DejaVuSans-118"/>
      <use x="2180.785156" xlink:href="#DejaVuSans-97"/>
      <use x="2242.064453" xlink:href="#DejaVuSans-97"/>
      <use x="2303.34375" xlink:href="#DejaVuSans-112"/>
      <use x="2366.820312" xlink:href="#DejaVuSans-105"/>
      <use x="2394.603516" xlink:href="#DejaVuSans-46"/>
      <use x="2426.390625" xlink:href="#DejaVuSans-119"/>
      <use x="2508.177734" xlink:href="#DejaVuSans-97"/>
      <use x="2569.457031" xlink:href="#DejaVuSans-114"/>
      <use x="2608.820312" xlink:href="#DejaVuSans-109"/>
      <use x="2706.232422" xlink:href="#DejaVuSans-117"/>
      <use x="2769.611328" xlink:href="#DejaVuSans-112"/>
      <use x="2833.087891" xlink:href="#DejaVuSans-43"/>
      <use x="2916.876953" xlink:href="#DejaVuSans-109"/>
      <use x="3014.289062" xlink:href="#DejaVuSans-97"/>
      <use x="3075.568359" xlink:href="#DejaVuSans-105"/>
      <use x="3103.351562" xlink:href="#DejaVuSans-110"/>
     </g>
    </g>
    <g id="line2d_36">
     <path d="M -1 225.160812 
L 12.929375 225.160812 
" style="fill:none;stroke:#7f7f7f;stroke-linecap:square;stroke-width:1.5;"/>
    </g>
    <g id="line2d_37"/>
    <g id="text_21">
     <!-- 5.5.13.ipstate-disable.gnome-shell-classic.mpv-gpu-vaapi.warmup+main -->
     <g transform="translate(20.929375 228.660812)scale(0.1 -0.1)">
      <use xlink:href="#DejaVuSans-53"/>
      <use x="63.623047" xlink:href="#DejaVuSans-46"/>
      <use x="95.410156" xlink:href="#DejaVuSans-53"/>
      <use x="159.033203" xlink:href="#DejaVuSans-46"/>
      <use x="190.820312" xlink:href="#DejaVuSans-49"/>
      <use x="254.443359" xlink:href="#DejaVuSans-51"/>
      <use x="318.066406" xlink:href="#DejaVuSans-46"/>
      <use x="349.853516" xlink:href="#DejaVuSans-105"/>
      <use x="377.636719" xlink:href="#DejaVuSans-112"/>
      <use x="441.113281" xlink:href="#DejaVuSans-115"/>
      <use x="493.212891" xlink:href="#DejaVuSans-116"/>
      <use x="532.421875" xlink:href="#DejaVuSans-97"/>
      <use x="593.701172" xlink:href="#DejaVuSans-116"/>
      <use x="632.910156" xlink:href="#DejaVuSans-101"/>
      <use x="694.433594" xlink:href="#DejaVuSans-45"/>
      <use x="730.517578" xlink:href="#DejaVuSans-100"/>
      <use x="793.994141" xlink:href="#DejaVuSans-105"/>
      <use x="821.777344" xlink:href="#DejaVuSans-115"/>
      <use x="873.876953" xlink:href="#DejaVuSans-97"/>
      <use x="935.15625" xlink:href="#DejaVuSans-98"/>
      <use x="998.632812" xlink:href="#DejaVuSans-108"/>
      <use x="1026.416016" xlink:href="#DejaVuSans-101"/>
      <use x="1087.939453" xlink:href="#DejaVuSans-46"/>
      <use x="1119.726562" xlink:href="#DejaVuSans-103"/>
      <use x="1183.203125" xlink:href="#DejaVuSans-110"/>
      <use x="1246.582031" xlink:href="#DejaVuSans-111"/>
      <use x="1307.763672" xlink:href="#DejaVuSans-109"/>
      <use x="1405.175781" xlink:href="#DejaVuSans-101"/>
      <use x="1466.699219" xlink:href="#DejaVuSans-45"/>
      <use x="1502.783203" xlink:href="#DejaVuSans-115"/>
      <use x="1554.882812" xlink:href="#DejaVuSans-104"/>
      <use x="1618.261719" xlink:href="#DejaVuSans-101"/>
      <use x="1679.785156" xlink:href="#DejaVuSans-108"/>
      <use x="1707.568359" xlink:href="#DejaVuSans-108"/>
      <use x="1735.351562" xlink:href="#DejaVuSans-45"/>
      <use x="1771.435547" xlink:href="#DejaVuSans-99"/>
      <use x="1826.416016" xlink:href="#DejaVuSans-108"/>
      <use x="1854.199219" xlink:href="#DejaVuSans-97"/>
      <use x="1915.478516" xlink:href="#DejaVuSans-115"/>
      <use x="1967.578125" xlink:href="#DejaVuSans-115"/>
      <use x="2019.677734" xlink:href="#DejaVuSans-105"/>
      <use x="2047.460938" xlink:href="#DejaVuSans-99"/>
      <use x="2102.441406" xlink:href="#DejaVuSans-46"/>
      <use x="2134.228516" xlink:href="#DejaVuSans-109"/>
      <use x="2231.640625" xlink:href="#DejaVuSans-112"/>
      <use x="2295.117188" xlink:href="#DejaVuSans-118"/>
      <use x="2351.671875" xlink:href="#DejaVuSans-45"/>
      <use x="2387.755859" xlink:href="#DejaVuSans-103"/>
      <use x="2451.232422" xlink:href="#DejaVuSans-112"/>
      <use x="2514.708984" xlink:href="#DejaVuSans-117"/>
      <use x="2578.087891" xlink:href="#DejaVuSans-45"/>
      <use x="2611.546875" xlink:href="#DejaVuSans-118"/>
      <use x="2670.726562" xlink:href="#DejaVuSans-97"/>
      <use x="2732.005859" xlink:href="#DejaVuSans-97"/>
      <use x="2793.285156" xlink:href="#DejaVuSans-112"/>
      <use x="2856.761719" xlink:href="#DejaVuSans-105"/>
      <use x="2884.544922" xlink:href="#DejaVuSans-46"/>
      <use x="2916.332031" xlink:href="#DejaVuSans-119"/>
      <use x="2998.119141" xlink:href="#DejaVuSans-97"/>
      <use x="3059.398438" xlink:href="#DejaVuSans-114"/>
      <use x="3098.761719" xlink:href="#DejaVuSans-109"/>
      <use x="3196.173828" xlink:href="#DejaVuSans-117"/>
      <use x="3259.552734" xlink:href="#DejaVuSans-112"/>
      <use x="3323.029297" xlink:href="#DejaVuSans-43"/>
      <use x="3406.818359" xlink:href="#DejaVuSans-109"/>
      <use x="3504.230469" xlink:href="#DejaVuSans-97"/>
      <use x="3565.509766" xlink:href="#DejaVuSans-105"/>
      <use x="3593.292969" xlink:href="#DejaVuSans-110"/>
     </g>
    </g>
   </g>
  </g>
 </g>
 <defs>
  <clipPath id="p30578ca13a">
   <rect height="266.112" width="357.12" x="57.6" y="41.472"/>
  </clipPath>
 </defs>
</svg>
