<?xml version="1.0" encoding="utf-8" standalone="no"?>
<!DOCTYPE svg PUBLIC "-//W3C//DTD SVG 1.1//EN"
  "http://www.w3.org/Graphics/SVG/1.1/DTD/svg11.dtd">
<!-- Created with matplotlib (https://matplotlib.org/) -->
<svg height="345.6pt" version="1.1" viewBox="0 0 460.8 345.6" width="460.8pt" xmlns="http://www.w3.org/2000/svg" xmlns:xlink="http://www.w3.org/1999/xlink">
 <defs>
  <style type="text/css">
*{stroke-linecap:butt;stroke-linejoin:round;}
  </style>
 </defs>
 <g id="figure_1">
  <g id="patch_1">
   <path d="M 0 345.6 
L 460.8 345.6 
L 460.8 0 
L 0 0 
z
" style="fill:#ffffff;"/>
  </g>
  <g id="axes_1">
   <g id="patch_2">
    <path d="M 57.6 307.584 
L 414.72 307.584 
L 414.72 41.472 
L 57.6 41.472 
z
" style="fill:#ffffff;"/>
   </g>
   <g id="matplotlib.axis_1">
    <g id="xtick_1">
     <g id="line2d_1">
      <defs>
       <path d="M 0 0 
L 0 3.5 
" id="m766ce87cc2" style="stroke:#000000;stroke-width:0.8;"/>
      </defs>
      <g>
       <use style="stroke:#000000;stroke-width:0.8;" x="57.6" xlink:href="#m766ce87cc2" y="307.584"/>
      </g>
     </g>
     <g id="text_1">
      <!-- 0 -->
      <defs>
       <path d="M 31.78125 66.40625 
Q 24.171875 66.40625 20.328125 58.90625 
Q 16.5 51.421875 16.5 36.375 
Q 16.5 21.390625 20.328125 13.890625 
Q 24.171875 6.390625 31.78125 6.390625 
Q 39.453125 6.390625 43.28125 13.890625 
Q 47.125 21.390625 47.125 36.375 
Q 47.125 51.421875 43.28125 58.90625 
Q 39.453125 66.40625 31.78125 66.40625 
z
M 31.78125 74.21875 
Q 44.046875 74.21875 50.515625 64.515625 
Q 56.984375 54.828125 56.984375 36.375 
Q 56.984375 17.96875 50.515625 8.265625 
Q 44.046875 -1.421875 31.78125 -1.421875 
Q 19.53125 -1.421875 13.0625 8.265625 
Q 6.59375 17.96875 6.59375 36.375 
Q 6.59375 54.828125 13.0625 64.515625 
Q 19.53125 74.21875 31.78125 74.21875 
z
" id="DejaVuSans-48"/>
      </defs>
      <g transform="translate(54.41875 322.182437)scale(0.1 -0.1)">
       <use xlink:href="#DejaVuSans-48"/>
      </g>
     </g>
    </g>
    <g id="xtick_2">
     <g id="line2d_2">
      <g>
       <use style="stroke:#000000;stroke-width:0.8;" x="103.979221" xlink:href="#m766ce87cc2" y="307.584"/>
      </g>
     </g>
     <g id="text_2">
      <!-- 10 -->
      <defs>
       <path d="M 12.40625 8.296875 
L 28.515625 8.296875 
L 28.515625 63.921875 
L 10.984375 60.40625 
L 10.984375 69.390625 
L 28.421875 72.90625 
L 38.28125 72.90625 
L 38.28125 8.296875 
L 54.390625 8.296875 
L 54.390625 0 
L 12.40625 0 
z
" id="DejaVuSans-49"/>
      </defs>
      <g transform="translate(97.616721 322.182437)scale(0.1 -0.1)">
       <use xlink:href="#DejaVuSans-49"/>
       <use x="63.623047" xlink:href="#DejaVuSans-48"/>
      </g>
     </g>
    </g>
    <g id="xtick_3">
     <g id="line2d_3">
      <g>
       <use style="stroke:#000000;stroke-width:0.8;" x="150.358442" xlink:href="#m766ce87cc2" y="307.584"/>
      </g>
     </g>
     <g id="text_3">
      <!-- 20 -->
      <defs>
       <path d="M 19.1875 8.296875 
L 53.609375 8.296875 
L 53.609375 0 
L 7.328125 0 
L 7.328125 8.296875 
Q 12.9375 14.109375 22.625 23.890625 
Q 32.328125 33.6875 34.8125 36.53125 
Q 39.546875 41.84375 41.421875 45.53125 
Q 43.3125 49.21875 43.3125 52.78125 
Q 43.3125 58.59375 39.234375 62.25 
Q 35.15625 65.921875 28.609375 65.921875 
Q 23.96875 65.921875 18.8125 64.3125 
Q 13.671875 62.703125 7.8125 59.421875 
L 7.8125 69.390625 
Q 13.765625 71.78125 18.9375 73 
Q 24.125 74.21875 28.421875 74.21875 
Q 39.75 74.21875 46.484375 68.546875 
Q 53.21875 62.890625 53.21875 53.421875 
Q 53.21875 48.921875 51.53125 44.890625 
Q 49.859375 40.875 45.40625 35.40625 
Q 44.1875 33.984375 37.640625 27.21875 
Q 31.109375 20.453125 19.1875 8.296875 
z
" id="DejaVuSans-50"/>
      </defs>
      <g transform="translate(143.995942 322.182437)scale(0.1 -0.1)">
       <use xlink:href="#DejaVuSans-50"/>
       <use x="63.623047" xlink:href="#DejaVuSans-48"/>
      </g>
     </g>
    </g>
    <g id="xtick_4">
     <g id="line2d_4">
      <g>
       <use style="stroke:#000000;stroke-width:0.8;" x="196.737662" xlink:href="#m766ce87cc2" y="307.584"/>
      </g>
     </g>
     <g id="text_4">
      <!-- 30 -->
      <defs>
       <path d="M 40.578125 39.3125 
Q 47.65625 37.796875 51.625 33 
Q 55.609375 28.21875 55.609375 21.1875 
Q 55.609375 10.40625 48.1875 4.484375 
Q 40.765625 -1.421875 27.09375 -1.421875 
Q 22.515625 -1.421875 17.65625 -0.515625 
Q 12.796875 0.390625 7.625 2.203125 
L 7.625 11.71875 
Q 11.71875 9.328125 16.59375 8.109375 
Q 21.484375 6.890625 26.8125 6.890625 
Q 36.078125 6.890625 40.9375 10.546875 
Q 45.796875 14.203125 45.796875 21.1875 
Q 45.796875 27.640625 41.28125 31.265625 
Q 36.765625 34.90625 28.71875 34.90625 
L 20.21875 34.90625 
L 20.21875 43.015625 
L 29.109375 43.015625 
Q 36.375 43.015625 40.234375 45.921875 
Q 44.09375 48.828125 44.09375 54.296875 
Q 44.09375 59.90625 40.109375 62.90625 
Q 36.140625 65.921875 28.71875 65.921875 
Q 24.65625 65.921875 20.015625 65.03125 
Q 15.375 64.15625 9.8125 62.3125 
L 9.8125 71.09375 
Q 15.4375 72.65625 20.34375 73.4375 
Q 25.25 74.21875 29.59375 74.21875 
Q 40.828125 74.21875 47.359375 69.109375 
Q 53.90625 64.015625 53.90625 55.328125 
Q 53.90625 49.265625 50.4375 45.09375 
Q 46.96875 40.921875 40.578125 39.3125 
z
" id="DejaVuSans-51"/>
      </defs>
      <g transform="translate(190.375162 322.182437)scale(0.1 -0.1)">
       <use xlink:href="#DejaVuSans-51"/>
       <use x="63.623047" xlink:href="#DejaVuSans-48"/>
      </g>
     </g>
    </g>
    <g id="xtick_5">
     <g id="line2d_5">
      <g>
       <use style="stroke:#000000;stroke-width:0.8;" x="243.116883" xlink:href="#m766ce87cc2" y="307.584"/>
      </g>
     </g>
     <g id="text_5">
      <!-- 40 -->
      <defs>
       <path d="M 37.796875 64.3125 
L 12.890625 25.390625 
L 37.796875 25.390625 
z
M 35.203125 72.90625 
L 47.609375 72.90625 
L 47.609375 25.390625 
L 58.015625 25.390625 
L 58.015625 17.1875 
L 47.609375 17.1875 
L 47.609375 0 
L 37.796875 0 
L 37.796875 17.1875 
L 4.890625 17.1875 
L 4.890625 26.703125 
z
" id="DejaVuSans-52"/>
      </defs>
      <g transform="translate(236.754383 322.182437)scale(0.1 -0.1)">
       <use xlink:href="#DejaVuSans-52"/>
       <use x="63.623047" xlink:href="#DejaVuSans-48"/>
      </g>
     </g>
    </g>
    <g id="xtick_6">
     <g id="line2d_6">
      <g>
       <use style="stroke:#000000;stroke-width:0.8;" x="289.496104" xlink:href="#m766ce87cc2" y="307.584"/>
      </g>
     </g>
     <g id="text_6">
      <!-- 50 -->
      <defs>
       <path d="M 10.796875 72.90625 
L 49.515625 72.90625 
L 49.515625 64.59375 
L 19.828125 64.59375 
L 19.828125 46.734375 
Q 21.96875 47.46875 24.109375 47.828125 
Q 26.265625 48.1875 28.421875 48.1875 
Q 40.625 48.1875 47.75 41.5 
Q 54.890625 34.8125 54.890625 23.390625 
Q 54.890625 11.625 47.5625 5.09375 
Q 40.234375 -1.421875 26.90625 -1.421875 
Q 22.3125 -1.421875 17.546875 -0.640625 
Q 12.796875 0.140625 7.71875 1.703125 
L 7.71875 11.625 
Q 12.109375 9.234375 16.796875 8.0625 
Q 21.484375 6.890625 26.703125 6.890625 
Q 35.15625 6.890625 40.078125 11.328125 
Q 45.015625 15.765625 45.015625 23.390625 
Q 45.015625 31 40.078125 35.4375 
Q 35.15625 39.890625 26.703125 39.890625 
Q 22.75 39.890625 18.8125 39.015625 
Q 14.890625 38.140625 10.796875 36.28125 
z
" id="DejaVuSans-53"/>
      </defs>
      <g transform="translate(283.133604 322.182437)scale(0.1 -0.1)">
       <use xlink:href="#DejaVuSans-53"/>
       <use x="63.623047" xlink:href="#DejaVuSans-48"/>
      </g>
     </g>
    </g>
    <g id="xtick_7">
     <g id="line2d_7">
      <g>
       <use style="stroke:#000000;stroke-width:0.8;" x="335.875325" xlink:href="#m766ce87cc2" y="307.584"/>
      </g>
     </g>
     <g id="text_7">
      <!-- 60 -->
      <defs>
       <path d="M 33.015625 40.375 
Q 26.375 40.375 22.484375 35.828125 
Q 18.609375 31.296875 18.609375 23.390625 
Q 18.609375 15.53125 22.484375 10.953125 
Q 26.375 6.390625 33.015625 6.390625 
Q 39.65625 6.390625 43.53125 10.953125 
Q 47.40625 15.53125 47.40625 23.390625 
Q 47.40625 31.296875 43.53125 35.828125 
Q 39.65625 40.375 33.015625 40.375 
z
M 52.59375 71.296875 
L 52.59375 62.3125 
Q 48.875 64.0625 45.09375 64.984375 
Q 41.3125 65.921875 37.59375 65.921875 
Q 27.828125 65.921875 22.671875 59.328125 
Q 17.53125 52.734375 16.796875 39.40625 
Q 19.671875 43.65625 24.015625 45.921875 
Q 28.375 48.1875 33.59375 48.1875 
Q 44.578125 48.1875 50.953125 41.515625 
Q 57.328125 34.859375 57.328125 23.390625 
Q 57.328125 12.15625 50.6875 5.359375 
Q 44.046875 -1.421875 33.015625 -1.421875 
Q 20.359375 -1.421875 13.671875 8.265625 
Q 6.984375 17.96875 6.984375 36.375 
Q 6.984375 53.65625 15.1875 63.9375 
Q 23.390625 74.21875 37.203125 74.21875 
Q 40.921875 74.21875 44.703125 73.484375 
Q 48.484375 72.75 52.59375 71.296875 
z
" id="DejaVuSans-54"/>
      </defs>
      <g transform="translate(329.512825 322.182437)scale(0.1 -0.1)">
       <use xlink:href="#DejaVuSans-54"/>
       <use x="63.623047" xlink:href="#DejaVuSans-48"/>
      </g>
     </g>
    </g>
    <g id="xtick_8">
     <g id="line2d_8">
      <g>
       <use style="stroke:#000000;stroke-width:0.8;" x="382.254545" xlink:href="#m766ce87cc2" y="307.584"/>
      </g>
     </g>
     <g id="text_8">
      <!-- 70 -->
      <defs>
       <path d="M 8.203125 72.90625 
L 55.078125 72.90625 
L 55.078125 68.703125 
L 28.609375 0 
L 18.3125 0 
L 43.21875 64.59375 
L 8.203125 64.59375 
z
" id="DejaVuSans-55"/>
      </defs>
      <g transform="translate(375.892045 322.182437)scale(0.1 -0.1)">
       <use xlink:href="#DejaVuSans-55"/>
       <use x="63.623047" xlink:href="#DejaVuSans-48"/>
      </g>
     </g>
    </g>
   </g>
   <g id="matplotlib.axis_2">
    <g id="ytick_1">
     <g id="line2d_9">
      <defs>
       <path d="M 0 0 
L -3.5 0 
" id="mccf49ff286" style="stroke:#000000;stroke-width:0.8;"/>
      </defs>
      <g>
       <use style="stroke:#000000;stroke-width:0.8;" x="57.6" xlink:href="#mccf49ff286" y="283.968"/>
      </g>
     </g>
     <g id="text_9">
      <!-- 60 -->
      <g transform="translate(37.875 287.767219)scale(0.1 -0.1)">
       <use xlink:href="#DejaVuSans-54"/>
       <use x="63.623047" xlink:href="#DejaVuSans-48"/>
      </g>
     </g>
    </g>
    <g id="ytick_2">
     <g id="line2d_10">
      <g>
       <use style="stroke:#000000;stroke-width:0.8;" x="57.6" xlink:href="#mccf49ff286" y="226.368"/>
      </g>
     </g>
     <g id="text_10">
      <!-- 70 -->
      <g transform="translate(37.875 230.167219)scale(0.1 -0.1)">
       <use xlink:href="#DejaVuSans-55"/>
       <use x="63.623047" xlink:href="#DejaVuSans-48"/>
      </g>
     </g>
    </g>
    <g id="ytick_3">
     <g id="line2d_11">
      <g>
       <use style="stroke:#000000;stroke-width:0.8;" x="57.6" xlink:href="#mccf49ff286" y="168.768"/>
      </g>
     </g>
     <g id="text_11">
      <!-- 80 -->
      <defs>
       <path d="M 31.78125 34.625 
Q 24.75 34.625 20.71875 30.859375 
Q 16.703125 27.09375 16.703125 20.515625 
Q 16.703125 13.921875 20.71875 10.15625 
Q 24.75 6.390625 31.78125 6.390625 
Q 38.8125 6.390625 42.859375 10.171875 
Q 46.921875 13.96875 46.921875 20.515625 
Q 46.921875 27.09375 42.890625 30.859375 
Q 38.875 34.625 31.78125 34.625 
z
M 21.921875 38.8125 
Q 15.578125 40.375 12.03125 44.71875 
Q 8.5 49.078125 8.5 55.328125 
Q 8.5 64.0625 14.71875 69.140625 
Q 20.953125 74.21875 31.78125 74.21875 
Q 42.671875 74.21875 48.875 69.140625 
Q 55.078125 64.0625 55.078125 55.328125 
Q 55.078125 49.078125 51.53125 44.71875 
Q 48 40.375 41.703125 38.8125 
Q 48.828125 37.15625 52.796875 32.3125 
Q 56.78125 27.484375 56.78125 20.515625 
Q 56.78125 9.90625 50.3125 4.234375 
Q 43.84375 -1.421875 31.78125 -1.421875 
Q 19.734375 -1.421875 13.25 4.234375 
Q 6.78125 9.90625 6.78125 20.515625 
Q 6.78125 27.484375 10.78125 32.3125 
Q 14.796875 37.15625 21.921875 38.8125 
z
M 18.3125 54.390625 
Q 18.3125 48.734375 21.84375 45.5625 
Q 25.390625 42.390625 31.78125 42.390625 
Q 38.140625 42.390625 41.71875 45.5625 
Q 45.3125 48.734375 45.3125 54.390625 
Q 45.3125 60.0625 41.71875 63.234375 
Q 38.140625 66.40625 31.78125 66.40625 
Q 25.390625 66.40625 21.84375 63.234375 
Q 18.3125 60.0625 18.3125 54.390625 
z
" id="DejaVuSans-56"/>
      </defs>
      <g transform="translate(37.875 172.567219)scale(0.1 -0.1)">
       <use xlink:href="#DejaVuSans-56"/>
       <use x="63.623047" xlink:href="#DejaVuSans-48"/>
      </g>
     </g>
    </g>
    <g id="ytick_4">
     <g id="line2d_12">
      <g>
       <use style="stroke:#000000;stroke-width:0.8;" x="57.6" xlink:href="#mccf49ff286" y="111.168"/>
      </g>
     </g>
     <g id="text_12">
      <!-- 90 -->
      <defs>
       <path d="M 10.984375 1.515625 
L 10.984375 10.5 
Q 14.703125 8.734375 18.5 7.8125 
Q 22.3125 6.890625 25.984375 6.890625 
Q 35.75 6.890625 40.890625 13.453125 
Q 46.046875 20.015625 46.78125 33.40625 
Q 43.953125 29.203125 39.59375 26.953125 
Q 35.25 24.703125 29.984375 24.703125 
Q 19.046875 24.703125 12.671875 31.3125 
Q 6.296875 37.9375 6.296875 49.421875 
Q 6.296875 60.640625 12.9375 67.421875 
Q 19.578125 74.21875 30.609375 74.21875 
Q 43.265625 74.21875 49.921875 64.515625 
Q 56.59375 54.828125 56.59375 36.375 
Q 56.59375 19.140625 48.40625 8.859375 
Q 40.234375 -1.421875 26.421875 -1.421875 
Q 22.703125 -1.421875 18.890625 -0.6875 
Q 15.09375 0.046875 10.984375 1.515625 
z
M 30.609375 32.421875 
Q 37.25 32.421875 41.125 36.953125 
Q 45.015625 41.5 45.015625 49.421875 
Q 45.015625 57.28125 41.125 61.84375 
Q 37.25 66.40625 30.609375 66.40625 
Q 23.96875 66.40625 20.09375 61.84375 
Q 16.21875 57.28125 16.21875 49.421875 
Q 16.21875 41.5 20.09375 36.953125 
Q 23.96875 32.421875 30.609375 32.421875 
z
" id="DejaVuSans-57"/>
      </defs>
      <g transform="translate(37.875 114.967219)scale(0.1 -0.1)">
       <use xlink:href="#DejaVuSans-57"/>
       <use x="63.623047" xlink:href="#DejaVuSans-48"/>
      </g>
     </g>
    </g>
    <g id="ytick_5">
     <g id="line2d_13">
      <g>
       <use style="stroke:#000000;stroke-width:0.8;" x="57.6" xlink:href="#mccf49ff286" y="53.568"/>
      </g>
     </g>
     <g id="text_13">
      <!-- 100 -->
      <g transform="translate(31.5125 57.367219)scale(0.1 -0.1)">
       <use xlink:href="#DejaVuSans-49"/>
       <use x="63.623047" xlink:href="#DejaVuSans-48"/>
       <use x="127.246094" xlink:href="#DejaVuSans-48"/>
      </g>
     </g>
    </g>
   </g>
   <g id="line2d_14">
    <path clip-path="url(#p11bb70f4f7)" d="M 76.151688 53.568 
L 80.78961 53.568 
L 85.427532 60.48 
L 90.065455 72 
L 94.703377 84.672 
L 99.341299 99.648 
L 103.979221 115.776 
L 108.617143 126.144 
L 113.255065 133.056 
L 117.892987 139.968 
L 122.530909 145.728 
L 127.168831 150.336 
L 131.806753 154.944 
L 136.444675 159.552 
L 141.082597 164.16 
L 145.720519 168.768 
L 150.358442 173.376 
L 154.996364 177.984 
L 159.634286 181.44 
L 164.272208 184.896 
L 168.91013 188.352 
L 173.548052 191.808 
L 178.185974 195.264 
L 182.823896 198.72 
L 187.461818 201.024 
L 192.09974 203.328 
L 196.737662 206.784 
L 201.375584 209.088 
L 206.013506 211.392 
L 210.651429 214.848 
L 215.289351 217.152 
L 219.927273 219.456 
L 224.565195 221.76 
L 229.203117 224.064 
L 233.841039 225.216 
L 238.478961 227.52 
L 243.116883 228.672 
L 247.754805 229.824 
L 252.392727 230.976 
L 257.030649 233.28 
L 261.668571 234.432 
L 266.306494 235.584 
L 270.944416 237.888 
L 275.582338 240.192 
L 280.22026 242.496 
L 284.858182 244.8 
L 289.496104 247.104 
L 294.134026 248.256 
L 298.771948 249.408 
L 303.40987 249.408 
L 308.047792 250.56 
L 312.685714 252.864 
L 317.323636 254.016 
L 321.961558 256.32 
L 326.599481 258.624 
L 331.237403 259.776 
L 335.875325 259.776 
L 340.513247 260.928 
L 345.151169 260.928 
L 349.789091 260.928 
L 354.427013 262.08 
L 359.064935 263.232 
L 363.702857 264.384 
L 368.340779 265.536 
L 372.978701 267.84 
L 377.616623 266.688 
L 382.254545 266.688 
L 386.892468 267.84 
L 391.53039 268.992 
L 396.168312 267.84 
L 400.806234 268.992 
L 405.444156 270.144 
L 410.082078 271.296 
L 414.72 271.296 
" style="fill:none;stroke:#1f77b4;stroke-linecap:square;stroke-width:1.5;"/>
   </g>
   <g id="line2d_15">
    <path clip-path="url(#p11bb70f4f7)" d="M 76.151688 55.872 
L 80.78961 57.024 
L 85.427532 69.696 
L 90.065455 78.912 
L 94.703377 93.888 
L 99.341299 111.168 
L 103.979221 128.448 
L 108.617143 134.208 
L 113.255065 145.728 
L 117.892987 152.64 
L 122.530909 157.248 
L 127.168831 161.856 
L 131.806753 167.616 
L 136.444675 172.224 
L 141.082597 176.832 
L 145.720519 182.592 
L 150.358442 187.2 
L 154.996364 190.656 
L 159.634286 195.264 
L 164.272208 198.72 
L 168.91013 202.176 
L 173.548052 205.632 
L 178.185974 209.088 
L 182.823896 211.392 
L 187.461818 213.696 
L 192.09974 216 
L 196.737662 218.304 
L 201.375584 220.608 
L 206.013506 224.064 
L 210.651429 227.52 
L 215.289351 229.824 
L 219.927273 232.128 
L 224.565195 234.432 
L 229.203117 236.736 
L 233.841039 239.04 
L 238.478961 241.344 
L 243.116883 243.648 
L 247.754805 245.952 
L 252.392727 247.104 
L 257.030649 248.256 
L 261.668571 250.56 
L 266.306494 251.712 
L 270.944416 254.016 
L 275.582338 256.32 
L 280.22026 258.624 
L 284.858182 259.776 
L 289.496104 260.928 
L 294.134026 260.928 
L 298.771948 260.928 
L 303.40987 260.928 
L 308.047792 262.08 
L 312.685714 263.232 
L 317.323636 265.536 
L 321.961558 266.688 
L 326.599481 268.992 
L 331.237403 270.144 
L 335.875325 271.296 
L 340.513247 271.296 
L 345.151169 273.6 
L 349.789091 274.752 
L 354.427013 275.904 
L 359.064935 277.056 
L 363.702857 278.208 
L 368.340779 278.208 
L 372.978701 278.208 
L 377.616623 278.208 
L 382.254545 279.36 
L 386.892468 280.512 
L 391.53039 281.664 
L 396.168312 282.816 
L 400.806234 283.968 
L 405.444156 283.968 
L 410.082078 283.968 
L 414.72 283.968 
" style="fill:none;stroke:#ff7f0e;stroke-linecap:square;stroke-width:1.5;"/>
   </g>
   <g id="line2d_16">
    <path clip-path="url(#p11bb70f4f7)" d="M 76.151688 62.784 
L 80.78961 76.608 
L 85.427532 89.28 
L 90.065455 104.256 
L 94.703377 120.384 
L 99.341299 129.6 
L 103.979221 135.36 
L 108.617143 141.12 
L 113.255065 146.88 
L 117.892987 152.64 
L 122.530909 158.4 
L 127.168831 161.856 
L 131.806753 166.464 
L 136.444675 169.92 
L 141.082597 173.376 
L 145.720519 176.832 
L 150.358442 181.44 
L 154.996364 184.896 
L 159.634286 189.504 
L 164.272208 192.96 
L 168.91013 196.416 
L 173.548052 198.72 
L 178.185974 202.176 
L 182.823896 204.48 
L 187.461818 204.48 
L 192.09974 206.784 
L 196.737662 210.24 
L 201.375584 212.544 
L 206.013506 214.848 
L 210.651429 219.456 
L 215.289351 220.608 
L 219.927273 221.76 
L 224.565195 224.064 
L 229.203117 226.368 
L 233.841039 228.672 
L 238.478961 230.976 
L 243.116883 233.28 
L 247.754805 234.432 
L 252.392727 235.584 
L 257.030649 237.888 
L 261.668571 239.04 
L 266.306494 240.192 
L 270.944416 242.496 
L 275.582338 244.8 
L 280.22026 244.8 
L 284.858182 247.104 
L 289.496104 248.256 
L 294.134026 248.256 
L 298.771948 248.256 
L 303.40987 250.56 
L 308.047792 251.712 
L 312.685714 252.864 
L 317.323636 254.016 
L 321.961558 255.168 
L 326.599481 256.32 
L 331.237403 257.472 
L 335.875325 258.624 
L 340.513247 259.776 
L 345.151169 260.928 
L 349.789091 262.08 
L 354.427013 263.232 
L 359.064935 264.384 
L 363.702857 265.536 
L 368.340779 266.688 
L 372.978701 260.928 
L 377.616623 260.928 
L 382.254545 260.928 
L 386.892468 262.08 
L 391.53039 262.08 
L 396.168312 268.992 
L 400.806234 270.144 
L 405.444156 271.296 
L 410.082078 271.296 
L 414.72 273.6 
" style="fill:none;stroke:#2ca02c;stroke-linecap:square;stroke-width:1.5;"/>
   </g>
   <g id="line2d_17">
    <path clip-path="url(#p11bb70f4f7)" d="M 76.151688 61.632 
L 80.78961 65.088 
L 85.427532 77.76 
L 90.065455 91.584 
L 94.703377 108.864 
L 99.341299 124.992 
L 103.979221 139.968 
L 108.617143 145.728 
L 113.255065 151.488 
L 117.892987 156.096 
L 122.530909 161.856 
L 127.168831 167.616 
L 131.806753 173.376 
L 136.444675 179.136 
L 141.082597 184.896 
L 145.720519 189.504 
L 150.358442 194.112 
L 154.996364 197.568 
L 159.634286 201.024 
L 164.272208 205.632 
L 168.91013 210.24 
L 173.548052 213.696 
L 178.185974 217.152 
L 182.823896 220.608 
L 187.461818 222.912 
L 192.09974 224.064 
L 196.737662 226.368 
L 201.375584 229.824 
L 206.013506 232.128 
L 210.651429 235.584 
L 215.289351 239.04 
L 219.927273 241.344 
L 224.565195 243.648 
L 229.203117 245.952 
L 233.841039 247.104 
L 238.478961 248.256 
L 243.116883 250.56 
L 247.754805 251.712 
L 252.392727 252.864 
L 257.030649 255.168 
L 261.668571 257.472 
L 266.306494 258.624 
L 270.944416 259.776 
L 275.582338 262.08 
L 280.22026 262.08 
L 284.858182 263.232 
L 289.496104 264.384 
L 294.134026 265.536 
L 298.771948 265.536 
L 303.40987 267.84 
L 308.047792 268.992 
L 312.685714 270.144 
L 317.323636 272.448 
L 321.961558 274.752 
L 326.599481 275.904 
L 331.237403 278.208 
L 335.875325 279.36 
L 340.513247 280.512 
L 345.151169 281.664 
L 349.789091 282.816 
L 354.427013 282.816 
L 359.064935 283.968 
L 363.702857 283.968 
L 368.340779 283.968 
L 372.978701 283.968 
L 377.616623 285.12 
L 382.254545 286.272 
L 386.892468 287.424 
L 391.53039 289.728 
L 396.168312 290.88 
L 400.806234 292.032 
L 405.444156 293.184 
L 410.082078 294.336 
L 414.72 295.488 
" style="fill:none;stroke:#d62728;stroke-linecap:square;stroke-width:1.5;"/>
   </g>
   <g id="line2d_18">
    <path clip-path="url(#p11bb70f4f7)" d="M 76.151688 53.568 
L 80.78961 65.088 
L 85.427532 76.608 
L 90.065455 90.432 
L 94.703377 105.408 
L 99.341299 121.536 
L 103.979221 126.144 
L 108.617143 133.056 
L 113.255065 138.816 
L 117.892987 143.424 
L 122.530909 148.032 
L 127.168831 153.792 
L 131.806753 158.4 
L 136.444675 161.856 
L 141.082597 166.464 
L 145.720519 171.072 
L 150.358442 175.68 
L 154.996364 179.136 
L 159.634286 183.744 
L 164.272208 188.352 
L 168.91013 191.808 
L 173.548052 195.264 
L 178.185974 198.72 
L 182.823896 201.024 
L 187.461818 203.328 
L 192.09974 205.632 
L 196.737662 207.936 
L 201.375584 210.24 
L 206.013506 213.696 
L 210.651429 216 
L 215.289351 218.304 
L 219.927273 219.456 
L 224.565195 221.76 
L 229.203117 224.064 
L 233.841039 226.368 
L 238.478961 228.672 
L 243.116883 230.976 
L 247.754805 232.128 
L 252.392727 233.28 
L 257.030649 234.432 
L 261.668571 236.736 
L 266.306494 239.04 
L 270.944416 241.344 
L 275.582338 236.736 
L 280.22026 239.04 
L 284.858182 240.192 
L 289.496104 241.344 
L 294.134026 242.496 
L 298.771948 250.56 
L 303.40987 251.712 
L 308.047792 252.864 
L 312.685714 255.168 
L 317.323636 257.472 
L 321.961558 258.624 
L 326.599481 259.776 
L 331.237403 260.928 
L 335.875325 260.928 
L 340.513247 260.928 
L 345.151169 260.928 
L 349.789091 262.08 
L 354.427013 263.232 
L 359.064935 263.232 
L 363.702857 263.232 
L 368.340779 264.384 
L 372.978701 263.232 
L 377.616623 263.232 
L 382.254545 264.384 
L 386.892468 266.688 
L 391.53039 267.84 
L 396.168312 270.144 
L 400.806234 271.296 
L 405.444156 273.6 
L 410.082078 273.6 
L 414.72 274.752 
" style="fill:none;stroke:#9467bd;stroke-linecap:square;stroke-width:1.5;"/>
   </g>
   <g id="line2d_19">
    <path clip-path="url(#p11bb70f4f7)" d="M 76.151688 68.544 
L 80.78961 69.696 
L 85.427532 84.672 
L 90.065455 97.344 
L 94.703377 112.32 
L 99.341299 128.448 
L 103.979221 144.576 
L 108.617143 150.336 
L 113.255065 157.248 
L 117.892987 163.008 
L 122.530909 168.768 
L 127.168831 174.528 
L 131.806753 180.288 
L 136.444675 186.048 
L 141.082597 190.656 
L 145.720519 195.264 
L 150.358442 198.72 
L 154.996364 202.176 
L 159.634286 204.48 
L 164.272208 207.936 
L 168.91013 210.24 
L 173.548052 213.696 
L 178.185974 216 
L 182.823896 219.456 
L 187.461818 221.76 
L 192.09974 225.216 
L 196.737662 227.52 
L 201.375584 230.976 
L 206.013506 233.28 
L 210.651429 235.584 
L 215.289351 237.888 
L 219.927273 240.192 
L 224.565195 242.496 
L 229.203117 244.8 
L 233.841039 247.104 
L 238.478961 249.408 
L 243.116883 251.712 
L 247.754805 252.864 
L 252.392727 255.168 
L 257.030649 257.472 
L 261.668571 258.624 
L 266.306494 260.928 
L 270.944416 262.08 
L 275.582338 263.232 
L 280.22026 264.384 
L 284.858182 265.536 
L 289.496104 265.536 
L 294.134026 267.84 
L 298.771948 268.992 
L 303.40987 270.144 
L 308.047792 272.448 
L 312.685714 274.752 
L 317.323636 275.904 
L 321.961558 277.056 
L 326.599481 278.208 
L 331.237403 278.208 
L 335.875325 279.36 
L 340.513247 280.512 
L 345.151169 281.664 
L 349.789091 282.816 
L 354.427013 283.968 
L 359.064935 283.968 
L 363.702857 285.12 
L 368.340779 286.272 
L 372.978701 286.272 
L 377.616623 287.424 
L 382.254545 288.576 
L 386.892468 288.576 
L 391.53039 289.728 
L 396.168312 290.88 
L 400.806234 292.032 
L 405.444156 293.184 
L 410.082078 294.336 
L 414.72 294.336 
" style="fill:none;stroke:#8c564b;stroke-linecap:square;stroke-width:1.5;"/>
   </g>
   <g id="line2d_20">
    <path clip-path="url(#p11bb70f4f7)" d="M 76.151688 53.568 
L 80.78961 53.568 
L 85.427532 59.328 
L 90.065455 70.848 
L 94.703377 83.52 
L 99.341299 97.344 
L 103.979221 112.32 
L 108.617143 122.688 
L 113.255065 128.448 
L 117.892987 134.208 
L 122.530909 139.968 
L 127.168831 145.728 
L 131.806753 150.336 
L 136.444675 154.944 
L 141.082597 158.4 
L 145.720519 163.008 
L 150.358442 166.464 
L 154.996364 171.072 
L 159.634286 175.68 
L 164.272208 180.288 
L 168.91013 183.744 
L 173.548052 187.2 
L 178.185974 190.656 
L 182.823896 192.96 
L 187.461818 196.416 
L 192.09974 198.72 
L 196.737662 201.024 
L 201.375584 203.328 
L 206.013506 205.632 
L 210.651429 207.936 
L 215.289351 210.24 
L 219.927273 212.544 
L 224.565195 213.696 
L 229.203117 216 
L 233.841039 218.304 
L 238.478961 219.456 
L 243.116883 221.76 
L 247.754805 224.064 
L 252.392727 225.216 
L 257.030649 226.368 
L 261.668571 228.672 
L 266.306494 229.824 
L 270.944416 232.128 
L 275.582338 234.432 
L 280.22026 235.584 
L 284.858182 236.736 
L 289.496104 239.04 
L 294.134026 240.192 
L 298.771948 241.344 
L 303.40987 242.496 
L 308.047792 244.8 
L 312.685714 245.952 
L 317.323636 247.104 
L 321.961558 248.256 
L 326.599481 249.408 
L 331.237403 249.408 
L 335.875325 250.56 
L 340.513247 251.712 
L 345.151169 254.016 
L 349.789091 256.32 
L 354.427013 257.472 
L 359.064935 258.624 
L 363.702857 259.776 
L 368.340779 259.776 
L 372.978701 259.776 
L 377.616623 260.928 
L 382.254545 260.928 
L 386.892468 260.928 
L 391.53039 260.928 
L 396.168312 262.08 
L 400.806234 263.232 
L 405.444156 264.384 
L 410.082078 265.536 
L 414.72 266.688 
" style="fill:none;stroke:#e377c2;stroke-linecap:square;stroke-width:1.5;"/>
   </g>
   <g id="line2d_21">
    <path clip-path="url(#p11bb70f4f7)" d="M 76.151688 63.936 
L 80.78961 65.088 
L 85.427532 73.152 
L 90.065455 86.976 
L 94.703377 101.952 
L 99.341299 118.08 
L 103.979221 133.056 
L 108.617143 144.576 
L 113.255065 150.336 
L 117.892987 154.944 
L 122.530909 160.704 
L 127.168831 166.464 
L 131.806753 169.92 
L 136.444675 174.528 
L 141.082597 180.288 
L 145.720519 184.896 
L 150.358442 189.504 
L 154.996364 195.264 
L 159.634286 198.72 
L 164.272208 202.176 
L 168.91013 205.632 
L 173.548052 209.088 
L 178.185974 212.544 
L 182.823896 216 
L 187.461818 218.304 
L 192.09974 220.608 
L 196.737662 222.912 
L 201.375584 225.216 
L 206.013506 227.52 
L 210.651429 229.824 
L 215.289351 230.976 
L 219.927273 234.432 
L 224.565195 236.736 
L 229.203117 239.04 
L 233.841039 242.496 
L 238.478961 245.952 
L 243.116883 247.104 
L 247.754805 248.256 
L 252.392727 249.408 
L 257.030649 250.56 
L 261.668571 251.712 
L 266.306494 254.016 
L 270.944416 256.32 
L 275.582338 258.624 
L 280.22026 259.776 
L 284.858182 260.928 
L 289.496104 262.08 
L 294.134026 263.232 
L 298.771948 264.384 
L 303.40987 265.536 
L 308.047792 266.688 
L 312.685714 266.688 
L 317.323636 266.688 
L 321.961558 267.84 
L 326.599481 268.992 
L 331.237403 271.296 
L 335.875325 273.6 
L 340.513247 275.904 
L 345.151169 277.056 
L 349.789091 278.208 
L 354.427013 279.36 
L 359.064935 279.36 
L 363.702857 280.512 
L 368.340779 281.664 
L 372.978701 282.816 
L 377.616623 282.816 
L 382.254545 283.968 
L 386.892468 283.968 
L 391.53039 283.968 
L 396.168312 285.12 
L 400.806234 286.272 
L 405.444156 287.424 
L 410.082078 288.576 
L 414.72 290.88 
" style="fill:none;stroke:#7f7f7f;stroke-linecap:square;stroke-width:1.5;"/>
   </g>
   <g id="patch_3">
    <path d="M 57.6 307.584 
L 57.6 41.472 
" style="fill:none;stroke:#000000;stroke-linecap:square;stroke-linejoin:miter;stroke-width:0.8;"/>
   </g>
   <g id="patch_4">
    <path d="M 414.72 307.584 
L 414.72 41.472 
" style="fill:none;stroke:#000000;stroke-linecap:square;stroke-linejoin:miter;stroke-width:0.8;"/>
   </g>
   <g id="patch_5">
    <path d="M 57.6 307.584 
L 414.72 307.584 
" style="fill:none;stroke:#000000;stroke-linecap:square;stroke-linejoin:miter;stroke-width:0.8;"/>
   </g>
   <g id="patch_6">
    <path d="M 57.6 41.472 
L 414.72 41.472 
" style="fill:none;stroke:#000000;stroke-linecap:square;stroke-linejoin:miter;stroke-width:0.8;"/>
   </g>
   <g id="legend_1">
    <g id="patch_7">
     <path d="M 17.465312 166.897 
L 407.72 166.897 
Q 409.72 166.897 409.72 164.897 
L 409.72 48.472 
Q 409.72 46.472 407.72 46.472 
L 17.465312 46.472 
Q 15.465312 46.472 15.465312 48.472 
L 15.465312 164.897 
Q 15.465312 166.897 17.465312 166.897 
z
" style="fill:#ffffff;opacity:0.8;stroke:#cccccc;stroke-linejoin:miter;"/>
    </g>
    <g id="line2d_22">
     <path d="M 19.465312 54.570438 
L 39.465312 54.570438 
" style="fill:none;stroke:#1f77b4;stroke-linecap:square;stroke-width:1.5;"/>
    </g>
    <g id="line2d_23"/>
    <g id="text_14">
     <!-- 5.2.17.ipstate-active-hwp.cinnamon.mpv-gpu-vaapi.cooldown -->
     <defs>
      <path d="M 10.6875 12.40625 
L 21 12.40625 
L 21 0 
L 10.6875 0 
z
" id="DejaVuSans-46"/>
      <path d="M 9.421875 54.6875 
L 18.40625 54.6875 
L 18.40625 0 
L 9.421875 0 
z
M 9.421875 75.984375 
L 18.40625 75.984375 
L 18.40625 64.59375 
L 9.421875 64.59375 
z
" id="DejaVuSans-105"/>
      <path d="M 18.109375 8.203125 
L 18.109375 -20.796875 
L 9.078125 -20.796875 
L 9.078125 54.6875 
L 18.109375 54.6875 
L 18.109375 46.390625 
Q 20.953125 51.265625 25.265625 53.625 
Q 29.59375 56 35.59375 56 
Q 45.5625 56 51.78125 48.09375 
Q 58.015625 40.1875 58.015625 27.296875 
Q 58.015625 14.40625 51.78125 6.484375 
Q 45.5625 -1.421875 35.59375 -1.421875 
Q 29.59375 -1.421875 25.265625 0.953125 
Q 20.953125 3.328125 18.109375 8.203125 
z
M 48.6875 27.296875 
Q 48.6875 37.203125 44.609375 42.84375 
Q 40.53125 48.484375 33.40625 48.484375 
Q 26.265625 48.484375 22.1875 42.84375 
Q 18.109375 37.203125 18.109375 27.296875 
Q 18.109375 17.390625 22.1875 11.75 
Q 26.265625 6.109375 33.40625 6.109375 
Q 40.53125 6.109375 44.609375 11.75 
Q 48.6875 17.390625 48.6875 27.296875 
z
" id="DejaVuSans-112"/>
      <path d="M 44.28125 53.078125 
L 44.28125 44.578125 
Q 40.484375 46.53125 36.375 47.5 
Q 32.28125 48.484375 27.875 48.484375 
Q 21.1875 48.484375 17.84375 46.4375 
Q 14.5 44.390625 14.5 40.28125 
Q 14.5 37.15625 16.890625 35.375 
Q 19.28125 33.59375 26.515625 31.984375 
L 29.59375 31.296875 
Q 39.15625 29.25 43.1875 25.515625 
Q 47.21875 21.78125 47.21875 15.09375 
Q 47.21875 7.46875 41.1875 3.015625 
Q 35.15625 -1.421875 24.609375 -1.421875 
Q 20.21875 -1.421875 15.453125 -0.5625 
Q 10.6875 0.296875 5.421875 2 
L 5.421875 11.28125 
Q 10.40625 8.6875 15.234375 7.390625 
Q 20.0625 6.109375 24.8125 6.109375 
Q 31.15625 6.109375 34.5625 8.28125 
Q 37.984375 10.453125 37.984375 14.40625 
Q 37.984375 18.0625 35.515625 20.015625 
Q 33.0625 21.96875 24.703125 23.78125 
L 21.578125 24.515625 
Q 13.234375 26.265625 9.515625 29.90625 
Q 5.8125 33.546875 5.8125 39.890625 
Q 5.8125 47.609375 11.28125 51.796875 
Q 16.75 56 26.8125 56 
Q 31.78125 56 36.171875 55.265625 
Q 40.578125 54.546875 44.28125 53.078125 
z
" id="DejaVuSans-115"/>
      <path d="M 18.3125 70.21875 
L 18.3125 54.6875 
L 36.8125 54.6875 
L 36.8125 47.703125 
L 18.3125 47.703125 
L 18.3125 18.015625 
Q 18.3125 11.328125 20.140625 9.421875 
Q 21.96875 7.515625 27.59375 7.515625 
L 36.8125 7.515625 
L 36.8125 0 
L 27.59375 0 
Q 17.1875 0 13.234375 3.875 
Q 9.28125 7.765625 9.28125 18.015625 
L 9.28125 47.703125 
L 2.6875 47.703125 
L 2.6875 54.6875 
L 9.28125 54.6875 
L 9.28125 70.21875 
z
" id="DejaVuSans-116"/>
      <path d="M 34.28125 27.484375 
Q 23.390625 27.484375 19.1875 25 
Q 14.984375 22.515625 14.984375 16.5 
Q 14.984375 11.71875 18.140625 8.90625 
Q 21.296875 6.109375 26.703125 6.109375 
Q 34.1875 6.109375 38.703125 11.40625 
Q 43.21875 16.703125 43.21875 25.484375 
L 43.21875 27.484375 
z
M 52.203125 31.203125 
L 52.203125 0 
L 43.21875 0 
L 43.21875 8.296875 
Q 40.140625 3.328125 35.546875 0.953125 
Q 30.953125 -1.421875 24.3125 -1.421875 
Q 15.921875 -1.421875 10.953125 3.296875 
Q 6 8.015625 6 15.921875 
Q 6 25.140625 12.171875 29.828125 
Q 18.359375 34.515625 30.609375 34.515625 
L 43.21875 34.515625 
L 43.21875 35.40625 
Q 43.21875 41.609375 39.140625 45 
Q 35.0625 48.390625 27.6875 48.390625 
Q 23 48.390625 18.546875 47.265625 
Q 14.109375 46.140625 10.015625 43.890625 
L 10.015625 52.203125 
Q 14.9375 54.109375 19.578125 55.046875 
Q 24.21875 56 28.609375 56 
Q 40.484375 56 46.34375 49.84375 
Q 52.203125 43.703125 52.203125 31.203125 
z
" id="DejaVuSans-97"/>
      <path d="M 56.203125 29.59375 
L 56.203125 25.203125 
L 14.890625 25.203125 
Q 15.484375 15.921875 20.484375 11.0625 
Q 25.484375 6.203125 34.421875 6.203125 
Q 39.59375 6.203125 44.453125 7.46875 
Q 49.3125 8.734375 54.109375 11.28125 
L 54.109375 2.78125 
Q 49.265625 0.734375 44.1875 -0.34375 
Q 39.109375 -1.421875 33.890625 -1.421875 
Q 20.796875 -1.421875 13.15625 6.1875 
Q 5.515625 13.8125 5.515625 26.8125 
Q 5.515625 40.234375 12.765625 48.109375 
Q 20.015625 56 32.328125 56 
Q 43.359375 56 49.78125 48.890625 
Q 56.203125 41.796875 56.203125 29.59375 
z
M 47.21875 32.234375 
Q 47.125 39.59375 43.09375 43.984375 
Q 39.0625 48.390625 32.421875 48.390625 
Q 24.90625 48.390625 20.390625 44.140625 
Q 15.875 39.890625 15.1875 32.171875 
z
" id="DejaVuSans-101"/>
      <path d="M 4.890625 31.390625 
L 31.203125 31.390625 
L 31.203125 23.390625 
L 4.890625 23.390625 
z
" id="DejaVuSans-45"/>
      <path d="M 48.78125 52.59375 
L 48.78125 44.1875 
Q 44.96875 46.296875 41.140625 47.34375 
Q 37.3125 48.390625 33.40625 48.390625 
Q 24.65625 48.390625 19.8125 42.84375 
Q 14.984375 37.3125 14.984375 27.296875 
Q 14.984375 17.28125 19.8125 11.734375 
Q 24.65625 6.203125 33.40625 6.203125 
Q 37.3125 6.203125 41.140625 7.25 
Q 44.96875 8.296875 48.78125 10.40625 
L 48.78125 2.09375 
Q 45.015625 0.34375 40.984375 -0.53125 
Q 36.96875 -1.421875 32.421875 -1.421875 
Q 20.0625 -1.421875 12.78125 6.34375 
Q 5.515625 14.109375 5.515625 27.296875 
Q 5.515625 40.671875 12.859375 48.328125 
Q 20.21875 56 33.015625 56 
Q 37.15625 56 41.109375 55.140625 
Q 45.0625 54.296875 48.78125 52.59375 
z
" id="DejaVuSans-99"/>
      <path d="M 2.984375 54.6875 
L 12.5 54.6875 
L 29.59375 8.796875 
L 46.6875 54.6875 
L 56.203125 54.6875 
L 35.6875 0 
L 23.484375 0 
z
" id="DejaVuSans-118"/>
      <path d="M 54.890625 33.015625 
L 54.890625 0 
L 45.90625 0 
L 45.90625 32.71875 
Q 45.90625 40.484375 42.875 44.328125 
Q 39.84375 48.1875 33.796875 48.1875 
Q 26.515625 48.1875 22.3125 43.546875 
Q 18.109375 38.921875 18.109375 30.90625 
L 18.109375 0 
L 9.078125 0 
L 9.078125 75.984375 
L 18.109375 75.984375 
L 18.109375 46.1875 
Q 21.34375 51.125 25.703125 53.5625 
Q 30.078125 56 35.796875 56 
Q 45.21875 56 50.046875 50.171875 
Q 54.890625 44.34375 54.890625 33.015625 
z
" id="DejaVuSans-104"/>
      <path d="M 4.203125 54.6875 
L 13.1875 54.6875 
L 24.421875 12.015625 
L 35.59375 54.6875 
L 46.1875 54.6875 
L 57.421875 12.015625 
L 68.609375 54.6875 
L 77.59375 54.6875 
L 63.28125 0 
L 52.6875 0 
L 40.921875 44.828125 
L 29.109375 0 
L 18.5 0 
z
" id="DejaVuSans-119"/>
      <path d="M 54.890625 33.015625 
L 54.890625 0 
L 45.90625 0 
L 45.90625 32.71875 
Q 45.90625 40.484375 42.875 44.328125 
Q 39.84375 48.1875 33.796875 48.1875 
Q 26.515625 48.1875 22.3125 43.546875 
Q 18.109375 38.921875 18.109375 30.90625 
L 18.109375 0 
L 9.078125 0 
L 9.078125 54.6875 
L 18.109375 54.6875 
L 18.109375 46.1875 
Q 21.34375 51.125 25.703125 53.5625 
Q 30.078125 56 35.796875 56 
Q 45.21875 56 50.046875 50.171875 
Q 54.890625 44.34375 54.890625 33.015625 
z
" id="DejaVuSans-110"/>
      <path d="M 52 44.1875 
Q 55.375 50.25 60.0625 53.125 
Q 64.75 56 71.09375 56 
Q 79.640625 56 84.28125 50.015625 
Q 88.921875 44.046875 88.921875 33.015625 
L 88.921875 0 
L 79.890625 0 
L 79.890625 32.71875 
Q 79.890625 40.578125 77.09375 44.375 
Q 74.3125 48.1875 68.609375 48.1875 
Q 61.625 48.1875 57.5625 43.546875 
Q 53.515625 38.921875 53.515625 30.90625 
L 53.515625 0 
L 44.484375 0 
L 44.484375 32.71875 
Q 44.484375 40.625 41.703125 44.40625 
Q 38.921875 48.1875 33.109375 48.1875 
Q 26.21875 48.1875 22.15625 43.53125 
Q 18.109375 38.875 18.109375 30.90625 
L 18.109375 0 
L 9.078125 0 
L 9.078125 54.6875 
L 18.109375 54.6875 
L 18.109375 46.1875 
Q 21.1875 51.21875 25.484375 53.609375 
Q 29.78125 56 35.6875 56 
Q 41.65625 56 45.828125 52.96875 
Q 50 49.953125 52 44.1875 
z
" id="DejaVuSans-109"/>
      <path d="M 30.609375 48.390625 
Q 23.390625 48.390625 19.1875 42.75 
Q 14.984375 37.109375 14.984375 27.296875 
Q 14.984375 17.484375 19.15625 11.84375 
Q 23.34375 6.203125 30.609375 6.203125 
Q 37.796875 6.203125 41.984375 11.859375 
Q 46.1875 17.53125 46.1875 27.296875 
Q 46.1875 37.015625 41.984375 42.703125 
Q 37.796875 48.390625 30.609375 48.390625 
z
M 30.609375 56 
Q 42.328125 56 49.015625 48.375 
Q 55.71875 40.765625 55.71875 27.296875 
Q 55.71875 13.875 49.015625 6.21875 
Q 42.328125 -1.421875 30.609375 -1.421875 
Q 18.84375 -1.421875 12.171875 6.21875 
Q 5.515625 13.875 5.515625 27.296875 
Q 5.515625 40.765625 12.171875 48.375 
Q 18.84375 56 30.609375 56 
z
" id="DejaVuSans-111"/>
      <path d="M 45.40625 27.984375 
Q 45.40625 37.75 41.375 43.109375 
Q 37.359375 48.484375 30.078125 48.484375 
Q 22.859375 48.484375 18.828125 43.109375 
Q 14.796875 37.75 14.796875 27.984375 
Q 14.796875 18.265625 18.828125 12.890625 
Q 22.859375 7.515625 30.078125 7.515625 
Q 37.359375 7.515625 41.375 12.890625 
Q 45.40625 18.265625 45.40625 27.984375 
z
M 54.390625 6.78125 
Q 54.390625 -7.171875 48.1875 -13.984375 
Q 42 -20.796875 29.203125 -20.796875 
Q 24.46875 -20.796875 20.265625 -20.09375 
Q 16.0625 -19.390625 12.109375 -17.921875 
L 12.109375 -9.1875 
Q 16.0625 -11.328125 19.921875 -12.34375 
Q 23.78125 -13.375 27.78125 -13.375 
Q 36.625 -13.375 41.015625 -8.765625 
Q 45.40625 -4.15625 45.40625 5.171875 
L 45.40625 9.625 
Q 42.625 4.78125 38.28125 2.390625 
Q 33.9375 0 27.875 0 
Q 17.828125 0 11.671875 7.65625 
Q 5.515625 15.328125 5.515625 27.984375 
Q 5.515625 40.671875 11.671875 48.328125 
Q 17.828125 56 27.875 56 
Q 33.9375 56 38.28125 53.609375 
Q 42.625 51.21875 45.40625 46.390625 
L 45.40625 54.6875 
L 54.390625 54.6875 
z
" id="DejaVuSans-103"/>
      <path d="M 8.5 21.578125 
L 8.5 54.6875 
L 17.484375 54.6875 
L 17.484375 21.921875 
Q 17.484375 14.15625 20.5 10.265625 
Q 23.53125 6.390625 29.59375 6.390625 
Q 36.859375 6.390625 41.078125 11.03125 
Q 45.3125 15.671875 45.3125 23.6875 
L 45.3125 54.6875 
L 54.296875 54.6875 
L 54.296875 0 
L 45.3125 0 
L 45.3125 8.40625 
Q 42.046875 3.421875 37.71875 1 
Q 33.40625 -1.421875 27.6875 -1.421875 
Q 18.265625 -1.421875 13.375 4.4375 
Q 8.5 10.296875 8.5 21.578125 
z
M 31.109375 56 
z
" id="DejaVuSans-117"/>
      <path d="M 9.421875 75.984375 
L 18.40625 75.984375 
L 18.40625 0 
L 9.421875 0 
z
" id="DejaVuSans-108"/>
      <path d="M 45.40625 46.390625 
L 45.40625 75.984375 
L 54.390625 75.984375 
L 54.390625 0 
L 45.40625 0 
L 45.40625 8.203125 
Q 42.578125 3.328125 38.25 0.953125 
Q 33.9375 -1.421875 27.875 -1.421875 
Q 17.96875 -1.421875 11.734375 6.484375 
Q 5.515625 14.40625 5.515625 27.296875 
Q 5.515625 40.1875 11.734375 48.09375 
Q 17.96875 56 27.875 56 
Q 33.9375 56 38.25 53.625 
Q 42.578125 51.265625 45.40625 46.390625 
z
M 14.796875 27.296875 
Q 14.796875 17.390625 18.875 11.75 
Q 22.953125 6.109375 30.078125 6.109375 
Q 37.203125 6.109375 41.296875 11.75 
Q 45.40625 17.390625 45.40625 27.296875 
Q 45.40625 37.203125 41.296875 42.84375 
Q 37.203125 48.484375 30.078125 48.484375 
Q 22.953125 48.484375 18.875 42.84375 
Q 14.796875 37.203125 14.796875 27.296875 
z
" id="DejaVuSans-100"/>
     </defs>
     <g transform="translate(47.465312 58.070438)scale(0.1 -0.1)">
      <use xlink:href="#DejaVuSans-53"/>
      <use x="63.623047" xlink:href="#DejaVuSans-46"/>
      <use x="95.410156" xlink:href="#DejaVuSans-50"/>
      <use x="159.033203" xlink:href="#DejaVuSans-46"/>
      <use x="190.820312" xlink:href="#DejaVuSans-49"/>
      <use x="254.443359" xlink:href="#DejaVuSans-55"/>
      <use x="318.066406" xlink:href="#DejaVuSans-46"/>
      <use x="349.853516" xlink:href="#DejaVuSans-105"/>
      <use x="377.636719" xlink:href="#DejaVuSans-112"/>
      <use x="441.113281" xlink:href="#DejaVuSans-115"/>
      <use x="493.212891" xlink:href="#DejaVuSans-116"/>
      <use x="532.421875" xlink:href="#DejaVuSans-97"/>
      <use x="593.701172" xlink:href="#DejaVuSans-116"/>
      <use x="632.910156" xlink:href="#DejaVuSans-101"/>
      <use x="694.433594" xlink:href="#DejaVuSans-45"/>
      <use x="730.517578" xlink:href="#DejaVuSans-97"/>
      <use x="791.796875" xlink:href="#DejaVuSans-99"/>
      <use x="846.777344" xlink:href="#DejaVuSans-116"/>
      <use x="885.986328" xlink:href="#DejaVuSans-105"/>
      <use x="913.769531" xlink:href="#DejaVuSans-118"/>
      <use x="972.949219" xlink:href="#DejaVuSans-101"/>
      <use x="1034.472656" xlink:href="#DejaVuSans-45"/>
      <use x="1070.556641" xlink:href="#DejaVuSans-104"/>
      <use x="1133.935547" xlink:href="#DejaVuSans-119"/>
      <use x="1215.722656" xlink:href="#DejaVuSans-112"/>
      <use x="1279.199219" xlink:href="#DejaVuSans-46"/>
      <use x="1310.986328" xlink:href="#DejaVuSans-99"/>
      <use x="1365.966797" xlink:href="#DejaVuSans-105"/>
      <use x="1393.75" xlink:href="#DejaVuSans-110"/>
      <use x="1457.128906" xlink:href="#DejaVuSans-110"/>
      <use x="1520.507812" xlink:href="#DejaVuSans-97"/>
      <use x="1581.787109" xlink:href="#DejaVuSans-109"/>
      <use x="1679.199219" xlink:href="#DejaVuSans-111"/>
      <use x="1740.380859" xlink:href="#DejaVuSans-110"/>
      <use x="1803.759766" xlink:href="#DejaVuSans-46"/>
      <use x="1835.546875" xlink:href="#DejaVuSans-109"/>
      <use x="1932.958984" xlink:href="#DejaVuSans-112"/>
      <use x="1996.435547" xlink:href="#DejaVuSans-118"/>
      <use x="2052.990234" xlink:href="#DejaVuSans-45"/>
      <use x="2089.074219" xlink:href="#DejaVuSans-103"/>
      <use x="2152.550781" xlink:href="#DejaVuSans-112"/>
      <use x="2216.027344" xlink:href="#DejaVuSans-117"/>
      <use x="2279.40625" xlink:href="#DejaVuSans-45"/>
      <use x="2312.865234" xlink:href="#DejaVuSans-118"/>
      <use x="2372.044922" xlink:href="#DejaVuSans-97"/>
      <use x="2433.324219" xlink:href="#DejaVuSans-97"/>
      <use x="2494.603516" xlink:href="#DejaVuSans-112"/>
      <use x="2558.080078" xlink:href="#DejaVuSans-105"/>
      <use x="2585.863281" xlink:href="#DejaVuSans-46"/>
      <use x="2617.650391" xlink:href="#DejaVuSans-99"/>
      <use x="2672.630859" xlink:href="#DejaVuSans-111"/>
      <use x="2733.8125" xlink:href="#DejaVuSans-111"/>
      <use x="2794.994141" xlink:href="#DejaVuSans-108"/>
      <use x="2822.777344" xlink:href="#DejaVuSans-100"/>
      <use x="2886.253906" xlink:href="#DejaVuSans-111"/>
      <use x="2947.435547" xlink:href="#DejaVuSans-119"/>
      <use x="3029.222656" xlink:href="#DejaVuSans-110"/>
     </g>
    </g>
    <g id="line2d_24">
     <path d="M 19.465312 69.248563 
L 39.465312 69.248563 
" style="fill:none;stroke:#ff7f0e;stroke-linecap:square;stroke-width:1.5;"/>
    </g>
    <g id="line2d_25"/>
    <g id="text_15">
     <!-- 5.2.17.ipstate-active-hwp.gnome-shell-classic.mpv-gpu-vaapi.cooldown -->
     <g transform="translate(47.465312 72.748563)scale(0.1 -0.1)">
      <use xlink:href="#DejaVuSans-53"/>
      <use x="63.623047" xlink:href="#DejaVuSans-46"/>
      <use x="95.410156" xlink:href="#DejaVuSans-50"/>
      <use x="159.033203" xlink:href="#DejaVuSans-46"/>
      <use x="190.820312" xlink:href="#DejaVuSans-49"/>
      <use x="254.443359" xlink:href="#DejaVuSans-55"/>
      <use x="318.066406" xlink:href="#DejaVuSans-46"/>
      <use x="349.853516" xlink:href="#DejaVuSans-105"/>
      <use x="377.636719" xlink:href="#DejaVuSans-112"/>
      <use x="441.113281" xlink:href="#DejaVuSans-115"/>
      <use x="493.212891" xlink:href="#DejaVuSans-116"/>
      <use x="532.421875" xlink:href="#DejaVuSans-97"/>
      <use x="593.701172" xlink:href="#DejaVuSans-116"/>
      <use x="632.910156" xlink:href="#DejaVuSans-101"/>
      <use x="694.433594" xlink:href="#DejaVuSans-45"/>
      <use x="730.517578" xlink:href="#DejaVuSans-97"/>
      <use x="791.796875" xlink:href="#DejaVuSans-99"/>
      <use x="846.777344" xlink:href="#DejaVuSans-116"/>
      <use x="885.986328" xlink:href="#DejaVuSans-105"/>
      <use x="913.769531" xlink:href="#DejaVuSans-118"/>
      <use x="972.949219" xlink:href="#DejaVuSans-101"/>
      <use x="1034.472656" xlink:href="#DejaVuSans-45"/>
      <use x="1070.556641" xlink:href="#DejaVuSans-104"/>
      <use x="1133.935547" xlink:href="#DejaVuSans-119"/>
      <use x="1215.722656" xlink:href="#DejaVuSans-112"/>
      <use x="1279.199219" xlink:href="#DejaVuSans-46"/>
      <use x="1310.986328" xlink:href="#DejaVuSans-103"/>
      <use x="1374.462891" xlink:href="#DejaVuSans-110"/>
      <use x="1437.841797" xlink:href="#DejaVuSans-111"/>
      <use x="1499.023438" xlink:href="#DejaVuSans-109"/>
      <use x="1596.435547" xlink:href="#DejaVuSans-101"/>
      <use x="1657.958984" xlink:href="#DejaVuSans-45"/>
      <use x="1694.042969" xlink:href="#DejaVuSans-115"/>
      <use x="1746.142578" xlink:href="#DejaVuSans-104"/>
      <use x="1809.521484" xlink:href="#DejaVuSans-101"/>
      <use x="1871.044922" xlink:href="#DejaVuSans-108"/>
      <use x="1898.828125" xlink:href="#DejaVuSans-108"/>
      <use x="1926.611328" xlink:href="#DejaVuSans-45"/>
      <use x="1962.695312" xlink:href="#DejaVuSans-99"/>
      <use x="2017.675781" xlink:href="#DejaVuSans-108"/>
      <use x="2045.458984" xlink:href="#DejaVuSans-97"/>
      <use x="2106.738281" xlink:href="#DejaVuSans-115"/>
      <use x="2158.837891" xlink:href="#DejaVuSans-115"/>
      <use x="2210.9375" xlink:href="#DejaVuSans-105"/>
      <use x="2238.720703" xlink:href="#DejaVuSans-99"/>
      <use x="2293.701172" xlink:href="#DejaVuSans-46"/>
      <use x="2325.488281" xlink:href="#DejaVuSans-109"/>
      <use x="2422.900391" xlink:href="#DejaVuSans-112"/>
      <use x="2486.376953" xlink:href="#DejaVuSans-118"/>
      <use x="2542.931641" xlink:href="#DejaVuSans-45"/>
      <use x="2579.015625" xlink:href="#DejaVuSans-103"/>
      <use x="2642.492188" xlink:href="#DejaVuSans-112"/>
      <use x="2705.96875" xlink:href="#DejaVuSans-117"/>
      <use x="2769.347656" xlink:href="#DejaVuSans-45"/>
      <use x="2802.806641" xlink:href="#DejaVuSans-118"/>
      <use x="2861.986328" xlink:href="#DejaVuSans-97"/>
      <use x="2923.265625" xlink:href="#DejaVuSans-97"/>
      <use x="2984.544922" xlink:href="#DejaVuSans-112"/>
      <use x="3048.021484" xlink:href="#DejaVuSans-105"/>
      <use x="3075.804688" xlink:href="#DejaVuSans-46"/>
      <use x="3107.591797" xlink:href="#DejaVuSans-99"/>
      <use x="3162.572266" xlink:href="#DejaVuSans-111"/>
      <use x="3223.753906" xlink:href="#DejaVuSans-111"/>
      <use x="3284.935547" xlink:href="#DejaVuSans-108"/>
      <use x="3312.71875" xlink:href="#DejaVuSans-100"/>
      <use x="3376.195312" xlink:href="#DejaVuSans-111"/>
      <use x="3437.376953" xlink:href="#DejaVuSans-119"/>
      <use x="3519.164062" xlink:href="#DejaVuSans-110"/>
     </g>
    </g>
    <g id="line2d_26">
     <path d="M 19.465312 83.926688 
L 39.465312 83.926688 
" style="fill:none;stroke:#2ca02c;stroke-linecap:square;stroke-width:1.5;"/>
    </g>
    <g id="line2d_27"/>
    <g id="text_16">
     <!-- 5.2.17.ipstate-disable.cinnamon.mpv-gpu-vaapi.cooldown -->
     <defs>
      <path d="M 48.6875 27.296875 
Q 48.6875 37.203125 44.609375 42.84375 
Q 40.53125 48.484375 33.40625 48.484375 
Q 26.265625 48.484375 22.1875 42.84375 
Q 18.109375 37.203125 18.109375 27.296875 
Q 18.109375 17.390625 22.1875 11.75 
Q 26.265625 6.109375 33.40625 6.109375 
Q 40.53125 6.109375 44.609375 11.75 
Q 48.6875 17.390625 48.6875 27.296875 
z
M 18.109375 46.390625 
Q 20.953125 51.265625 25.265625 53.625 
Q 29.59375 56 35.59375 56 
Q 45.5625 56 51.78125 48.09375 
Q 58.015625 40.1875 58.015625 27.296875 
Q 58.015625 14.40625 51.78125 6.484375 
Q 45.5625 -1.421875 35.59375 -1.421875 
Q 29.59375 -1.421875 25.265625 0.953125 
Q 20.953125 3.328125 18.109375 8.203125 
L 18.109375 0 
L 9.078125 0 
L 9.078125 75.984375 
L 18.109375 75.984375 
z
" id="DejaVuSans-98"/>
     </defs>
     <g transform="translate(47.465312 87.426688)scale(0.1 -0.1)">
      <use xlink:href="#DejaVuSans-53"/>
      <use x="63.623047" xlink:href="#DejaVuSans-46"/>
      <use x="95.410156" xlink:href="#DejaVuSans-50"/>
      <use x="159.033203" xlink:href="#DejaVuSans-46"/>
      <use x="190.820312" xlink:href="#DejaVuSans-49"/>
      <use x="254.443359" xlink:href="#DejaVuSans-55"/>
      <use x="318.066406" xlink:href="#DejaVuSans-46"/>
      <use x="349.853516" xlink:href="#DejaVuSans-105"/>
      <use x="377.636719" xlink:href="#DejaVuSans-112"/>
      <use x="441.113281" xlink:href="#DejaVuSans-115"/>
      <use x="493.212891" xlink:href="#DejaVuSans-116"/>
      <use x="532.421875" xlink:href="#DejaVuSans-97"/>
      <use x="593.701172" xlink:href="#DejaVuSans-116"/>
      <use x="632.910156" xlink:href="#DejaVuSans-101"/>
      <use x="694.433594" xlink:href="#DejaVuSans-45"/>
      <use x="730.517578" xlink:href="#DejaVuSans-100"/>
      <use x="793.994141" xlink:href="#DejaVuSans-105"/>
      <use x="821.777344" xlink:href="#DejaVuSans-115"/>
      <use x="873.876953" xlink:href="#DejaVuSans-97"/>
      <use x="935.15625" xlink:href="#DejaVuSans-98"/>
      <use x="998.632812" xlink:href="#DejaVuSans-108"/>
      <use x="1026.416016" xlink:href="#DejaVuSans-101"/>
      <use x="1087.939453" xlink:href="#DejaVuSans-46"/>
      <use x="1119.726562" xlink:href="#DejaVuSans-99"/>
      <use x="1174.707031" xlink:href="#DejaVuSans-105"/>
      <use x="1202.490234" xlink:href="#DejaVuSans-110"/>
      <use x="1265.869141" xlink:href="#DejaVuSans-110"/>
      <use x="1329.248047" xlink:href="#DejaVuSans-97"/>
      <use x="1390.527344" xlink:href="#DejaVuSans-109"/>
      <use x="1487.939453" xlink:href="#DejaVuSans-111"/>
      <use x="1549.121094" xlink:href="#DejaVuSans-110"/>
      <use x="1612.5" xlink:href="#DejaVuSans-46"/>
      <use x="1644.287109" xlink:href="#DejaVuSans-109"/>
      <use x="1741.699219" xlink:href="#DejaVuSans-112"/>
      <use x="1805.175781" xlink:href="#DejaVuSans-118"/>
      <use x="1861.730469" xlink:href="#DejaVuSans-45"/>
      <use x="1897.814453" xlink:href="#DejaVuSans-103"/>
      <use x="1961.291016" xlink:href="#DejaVuSans-112"/>
      <use x="2024.767578" xlink:href="#DejaVuSans-117"/>
      <use x="2088.146484" xlink:href="#DejaVuSans-45"/>
      <use x="2121.605469" xlink:href="#DejaVuSans-118"/>
      <use x="2180.785156" xlink:href="#DejaVuSans-97"/>
      <use x="2242.064453" xlink:href="#DejaVuSans-97"/>
      <use x="2303.34375" xlink:href="#DejaVuSans-112"/>
      <use x="2366.820312" xlink:href="#DejaVuSans-105"/>
      <use x="2394.603516" xlink:href="#DejaVuSans-46"/>
      <use x="2426.390625" xlink:href="#DejaVuSans-99"/>
      <use x="2481.371094" xlink:href="#DejaVuSans-111"/>
      <use x="2542.552734" xlink:href="#DejaVuSans-111"/>
      <use x="2603.734375" xlink:href="#DejaVuSans-108"/>
      <use x="2631.517578" xlink:href="#DejaVuSans-100"/>
      <use x="2694.994141" xlink:href="#DejaVuSans-111"/>
      <use x="2756.175781" xlink:href="#DejaVuSans-119"/>
      <use x="2837.962891" xlink:href="#DejaVuSans-110"/>
     </g>
    </g>
    <g id="line2d_28">
     <path d="M 19.465312 98.604813 
L 39.465312 98.604813 
" style="fill:none;stroke:#d62728;stroke-linecap:square;stroke-width:1.5;"/>
    </g>
    <g id="line2d_29"/>
    <g id="text_17">
     <!-- 5.2.17.ipstate-disable.gnome-shell-classic.mpv-gpu-vaapi.cooldown -->
     <g transform="translate(47.465312 102.104813)scale(0.1 -0.1)">
      <use xlink:href="#DejaVuSans-53"/>
      <use x="63.623047" xlink:href="#DejaVuSans-46"/>
      <use x="95.410156" xlink:href="#DejaVuSans-50"/>
      <use x="159.033203" xlink:href="#DejaVuSans-46"/>
      <use x="190.820312" xlink:href="#DejaVuSans-49"/>
      <use x="254.443359" xlink:href="#DejaVuSans-55"/>
      <use x="318.066406" xlink:href="#DejaVuSans-46"/>
      <use x="349.853516" xlink:href="#DejaVuSans-105"/>
      <use x="377.636719" xlink:href="#DejaVuSans-112"/>
      <use x="441.113281" xlink:href="#DejaVuSans-115"/>
      <use x="493.212891" xlink:href="#DejaVuSans-116"/>
      <use x="532.421875" xlink:href="#DejaVuSans-97"/>
      <use x="593.701172" xlink:href="#DejaVuSans-116"/>
      <use x="632.910156" xlink:href="#DejaVuSans-101"/>
      <use x="694.433594" xlink:href="#DejaVuSans-45"/>
      <use x="730.517578" xlink:href="#DejaVuSans-100"/>
      <use x="793.994141" xlink:href="#DejaVuSans-105"/>
      <use x="821.777344" xlink:href="#DejaVuSans-115"/>
      <use x="873.876953" xlink:href="#DejaVuSans-97"/>
      <use x="935.15625" xlink:href="#DejaVuSans-98"/>
      <use x="998.632812" xlink:href="#DejaVuSans-108"/>
      <use x="1026.416016" xlink:href="#DejaVuSans-101"/>
      <use x="1087.939453" xlink:href="#DejaVuSans-46"/>
      <use x="1119.726562" xlink:href="#DejaVuSans-103"/>
      <use x="1183.203125" xlink:href="#DejaVuSans-110"/>
      <use x="1246.582031" xlink:href="#DejaVuSans-111"/>
      <use x="1307.763672" xlink:href="#DejaVuSans-109"/>
      <use x="1405.175781" xlink:href="#DejaVuSans-101"/>
      <use x="1466.699219" xlink:href="#DejaVuSans-45"/>
      <use x="1502.783203" xlink:href="#DejaVuSans-115"/>
      <use x="1554.882812" xlink:href="#DejaVuSans-104"/>
      <use x="1618.261719" xlink:href="#DejaVuSans-101"/>
      <use x="1679.785156" xlink:href="#DejaVuSans-108"/>
      <use x="1707.568359" xlink:href="#DejaVuSans-108"/>
      <use x="1735.351562" xlink:href="#DejaVuSans-45"/>
      <use x="1771.435547" xlink:href="#DejaVuSans-99"/>
      <use x="1826.416016" xlink:href="#DejaVuSans-108"/>
      <use x="1854.199219" xlink:href="#DejaVuSans-97"/>
      <use x="1915.478516" xlink:href="#DejaVuSans-115"/>
      <use x="1967.578125" xlink:href="#DejaVuSans-115"/>
      <use x="2019.677734" xlink:href="#DejaVuSans-105"/>
      <use x="2047.460938" xlink:href="#DejaVuSans-99"/>
      <use x="2102.441406" xlink:href="#DejaVuSans-46"/>
      <use x="2134.228516" xlink:href="#DejaVuSans-109"/>
      <use x="2231.640625" xlink:href="#DejaVuSans-112"/>
      <use x="2295.117188" xlink:href="#DejaVuSans-118"/>
      <use x="2351.671875" xlink:href="#DejaVuSans-45"/>
      <use x="2387.755859" xlink:href="#DejaVuSans-103"/>
      <use x="2451.232422" xlink:href="#DejaVuSans-112"/>
      <use x="2514.708984" xlink:href="#DejaVuSans-117"/>
      <use x="2578.087891" xlink:href="#DejaVuSans-45"/>
      <use x="2611.546875" xlink:href="#DejaVuSans-118"/>
      <use x="2670.726562" xlink:href="#DejaVuSans-97"/>
      <use x="2732.005859" xlink:href="#DejaVuSans-97"/>
      <use x="2793.285156" xlink:href="#DejaVuSans-112"/>
      <use x="2856.761719" xlink:href="#DejaVuSans-105"/>
      <use x="2884.544922" xlink:href="#DejaVuSans-46"/>
      <use x="2916.332031" xlink:href="#DejaVuSans-99"/>
      <use x="2971.3125" xlink:href="#DejaVuSans-111"/>
      <use x="3032.494141" xlink:href="#DejaVuSans-111"/>
      <use x="3093.675781" xlink:href="#DejaVuSans-108"/>
      <use x="3121.458984" xlink:href="#DejaVuSans-100"/>
      <use x="3184.935547" xlink:href="#DejaVuSans-111"/>
      <use x="3246.117188" xlink:href="#DejaVuSans-119"/>
      <use x="3327.904297" xlink:href="#DejaVuSans-110"/>
     </g>
    </g>
    <g id="line2d_30">
     <path d="M 19.465312 113.282938 
L 39.465312 113.282938 
" style="fill:none;stroke:#9467bd;stroke-linecap:square;stroke-width:1.5;"/>
    </g>
    <g id="line2d_31"/>
    <g id="text_18">
     <!-- 5.5.13.ipstate-active-hwp.cinnamon.mpv-gpu-vaapi.cooldown -->
     <g transform="translate(47.465312 116.782938)scale(0.1 -0.1)">
      <use xlink:href="#DejaVuSans-53"/>
      <use x="63.623047" xlink:href="#DejaVuSans-46"/>
      <use x="95.410156" xlink:href="#DejaVuSans-53"/>
      <use x="159.033203" xlink:href="#DejaVuSans-46"/>
      <use x="190.820312" xlink:href="#DejaVuSans-49"/>
      <use x="254.443359" xlink:href="#DejaVuSans-51"/>
      <use x="318.066406" xlink:href="#DejaVuSans-46"/>
      <use x="349.853516" xlink:href="#DejaVuSans-105"/>
      <use x="377.636719" xlink:href="#DejaVuSans-112"/>
      <use x="441.113281" xlink:href="#DejaVuSans-115"/>
      <use x="493.212891" xlink:href="#DejaVuSans-116"/>
      <use x="532.421875" xlink:href="#DejaVuSans-97"/>
      <use x="593.701172" xlink:href="#DejaVuSans-116"/>
      <use x="632.910156" xlink:href="#DejaVuSans-101"/>
      <use x="694.433594" xlink:href="#DejaVuSans-45"/>
      <use x="730.517578" xlink:href="#DejaVuSans-97"/>
      <use x="791.796875" xlink:href="#DejaVuSans-99"/>
      <use x="846.777344" xlink:href="#DejaVuSans-116"/>
      <use x="885.986328" xlink:href="#DejaVuSans-105"/>
      <use x="913.769531" xlink:href="#DejaVuSans-118"/>
      <use x="972.949219" xlink:href="#DejaVuSans-101"/>
      <use x="1034.472656" xlink:href="#DejaVuSans-45"/>
      <use x="1070.556641" xlink:href="#DejaVuSans-104"/>
      <use x="1133.935547" xlink:href="#DejaVuSans-119"/>
      <use x="1215.722656" xlink:href="#DejaVuSans-112"/>
      <use x="1279.199219" xlink:href="#DejaVuSans-46"/>
      <use x="1310.986328" xlink:href="#DejaVuSans-99"/>
      <use x="1365.966797" xlink:href="#DejaVuSans-105"/>
      <use x="1393.75" xlink:href="#DejaVuSans-110"/>
      <use x="1457.128906" xlink:href="#DejaVuSans-110"/>
      <use x="1520.507812" xlink:href="#DejaVuSans-97"/>
      <use x="1581.787109" xlink:href="#DejaVuSans-109"/>
      <use x="1679.199219" xlink:href="#DejaVuSans-111"/>
      <use x="1740.380859" xlink:href="#DejaVuSans-110"/>
      <use x="1803.759766" xlink:href="#DejaVuSans-46"/>
      <use x="1835.546875" xlink:href="#DejaVuSans-109"/>
      <use x="1932.958984" xlink:href="#DejaVuSans-112"/>
      <use x="1996.435547" xlink:href="#DejaVuSans-118"/>
      <use x="2052.990234" xlink:href="#DejaVuSans-45"/>
      <use x="2089.074219" xlink:href="#DejaVuSans-103"/>
      <use x="2152.550781" xlink:href="#DejaVuSans-112"/>
      <use x="2216.027344" xlink:href="#DejaVuSans-117"/>
      <use x="2279.40625" xlink:href="#DejaVuSans-45"/>
      <use x="2312.865234" xlink:href="#DejaVuSans-118"/>
      <use x="2372.044922" xlink:href="#DejaVuSans-97"/>
      <use x="2433.324219" xlink:href="#DejaVuSans-97"/>
      <use x="2494.603516" xlink:href="#DejaVuSans-112"/>
      <use x="2558.080078" xlink:href="#DejaVuSans-105"/>
      <use x="2585.863281" xlink:href="#DejaVuSans-46"/>
      <use x="2617.650391" xlink:href="#DejaVuSans-99"/>
      <use x="2672.630859" xlink:href="#DejaVuSans-111"/>
      <use x="2733.8125" xlink:href="#DejaVuSans-111"/>
      <use x="2794.994141" xlink:href="#DejaVuSans-108"/>
      <use x="2822.777344" xlink:href="#DejaVuSans-100"/>
      <use x="2886.253906" xlink:href="#DejaVuSans-111"/>
      <use x="2947.435547" xlink:href="#DejaVuSans-119"/>
      <use x="3029.222656" xlink:href="#DejaVuSans-110"/>
     </g>
    </g>
    <g id="line2d_32">
     <path d="M 19.465312 127.961063 
L 39.465312 127.961063 
" style="fill:none;stroke:#8c564b;stroke-linecap:square;stroke-width:1.5;"/>
    </g>
    <g id="line2d_33"/>
    <g id="text_19">
     <!-- 5.5.13.ipstate-active-hwp.gnome-shell-classic.mpv-gpu-vaapi.cooldown -->
     <g transform="translate(47.465312 131.461063)scale(0.1 -0.1)">
      <use xlink:href="#DejaVuSans-53"/>
      <use x="63.623047" xlink:href="#DejaVuSans-46"/>
      <use x="95.410156" xlink:href="#DejaVuSans-53"/>
      <use x="159.033203" xlink:href="#DejaVuSans-46"/>
      <use x="190.820312" xlink:href="#DejaVuSans-49"/>
      <use x="254.443359" xlink:href="#DejaVuSans-51"/>
      <use x="318.066406" xlink:href="#DejaVuSans-46"/>
      <use x="349.853516" xlink:href="#DejaVuSans-105"/>
      <use x="377.636719" xlink:href="#DejaVuSans-112"/>
      <use x="441.113281" xlink:href="#DejaVuSans-115"/>
      <use x="493.212891" xlink:href="#DejaVuSans-116"/>
      <use x="532.421875" xlink:href="#DejaVuSans-97"/>
      <use x="593.701172" xlink:href="#DejaVuSans-116"/>
      <use x="632.910156" xlink:href="#DejaVuSans-101"/>
      <use x="694.433594" xlink:href="#DejaVuSans-45"/>
      <use x="730.517578" xlink:href="#DejaVuSans-97"/>
      <use x="791.796875" xlink:href="#DejaVuSans-99"/>
      <use x="846.777344" xlink:href="#DejaVuSans-116"/>
      <use x="885.986328" xlink:href="#DejaVuSans-105"/>
      <use x="913.769531" xlink:href="#DejaVuSans-118"/>
      <use x="972.949219" xlink:href="#DejaVuSans-101"/>
      <use x="1034.472656" xlink:href="#DejaVuSans-45"/>
      <use x="1070.556641" xlink:href="#DejaVuSans-104"/>
      <use x="1133.935547" xlink:href="#DejaVuSans-119"/>
      <use x="1215.722656" xlink:href="#DejaVuSans-112"/>
      <use x="1279.199219" xlink:href="#DejaVuSans-46"/>
      <use x="1310.986328" xlink:href="#DejaVuSans-103"/>
      <use x="1374.462891" xlink:href="#DejaVuSans-110"/>
      <use x="1437.841797" xlink:href="#DejaVuSans-111"/>
      <use x="1499.023438" xlink:href="#DejaVuSans-109"/>
      <use x="1596.435547" xlink:href="#DejaVuSans-101"/>
      <use x="1657.958984" xlink:href="#DejaVuSans-45"/>
      <use x="1694.042969" xlink:href="#DejaVuSans-115"/>
      <use x="1746.142578" xlink:href="#DejaVuSans-104"/>
      <use x="1809.521484" xlink:href="#DejaVuSans-101"/>
      <use x="1871.044922" xlink:href="#DejaVuSans-108"/>
      <use x="1898.828125" xlink:href="#DejaVuSans-108"/>
      <use x="1926.611328" xlink:href="#DejaVuSans-45"/>
      <use x="1962.695312" xlink:href="#DejaVuSans-99"/>
      <use x="2017.675781" xlink:href="#DejaVuSans-108"/>
      <use x="2045.458984" xlink:href="#DejaVuSans-97"/>
      <use x="2106.738281" xlink:href="#DejaVuSans-115"/>
      <use x="2158.837891" xlink:href="#DejaVuSans-115"/>
      <use x="2210.9375" xlink:href="#DejaVuSans-105"/>
      <use x="2238.720703" xlink:href="#DejaVuSans-99"/>
      <use x="2293.701172" xlink:href="#DejaVuSans-46"/>
      <use x="2325.488281" xlink:href="#DejaVuSans-109"/>
      <use x="2422.900391" xlink:href="#DejaVuSans-112"/>
      <use x="2486.376953" xlink:href="#DejaVuSans-118"/>
      <use x="2542.931641" xlink:href="#DejaVuSans-45"/>
      <use x="2579.015625" xlink:href="#DejaVuSans-103"/>
      <use x="2642.492188" xlink:href="#DejaVuSans-112"/>
      <use x="2705.96875" xlink:href="#DejaVuSans-117"/>
      <use x="2769.347656" xlink:href="#DejaVuSans-45"/>
      <use x="2802.806641" xlink:href="#DejaVuSans-118"/>
      <use x="2861.986328" xlink:href="#DejaVuSans-97"/>
      <use x="2923.265625" xlink:href="#DejaVuSans-97"/>
      <use x="2984.544922" xlink:href="#DejaVuSans-112"/>
      <use x="3048.021484" xlink:href="#DejaVuSans-105"/>
      <use x="3075.804688" xlink:href="#DejaVuSans-46"/>
      <use x="3107.591797" xlink:href="#DejaVuSans-99"/>
      <use x="3162.572266" xlink:href="#DejaVuSans-111"/>
      <use x="3223.753906" xlink:href="#DejaVuSans-111"/>
      <use x="3284.935547" xlink:href="#DejaVuSans-108"/>
      <use x="3312.71875" xlink:href="#DejaVuSans-100"/>
      <use x="3376.195312" xlink:href="#DejaVuSans-111"/>
      <use x="3437.376953" xlink:href="#DejaVuSans-119"/>
      <use x="3519.164062" xlink:href="#DejaVuSans-110"/>
     </g>
    </g>
    <g id="line2d_34">
     <path d="M 19.465312 142.639188 
L 39.465312 142.639188 
" style="fill:none;stroke:#e377c2;stroke-linecap:square;stroke-width:1.5;"/>
    </g>
    <g id="line2d_35"/>
    <g id="text_20">
     <!-- 5.5.13.ipstate-disable.cinnamon.mpv-gpu-vaapi.cooldown -->
     <g transform="translate(47.465312 146.139188)scale(0.1 -0.1)">
      <use xlink:href="#DejaVuSans-53"/>
      <use x="63.623047" xlink:href="#DejaVuSans-46"/>
      <use x="95.410156" xlink:href="#DejaVuSans-53"/>
      <use x="159.033203" xlink:href="#DejaVuSans-46"/>
      <use x="190.820312" xlink:href="#DejaVuSans-49"/>
      <use x="254.443359" xlink:href="#DejaVuSans-51"/>
      <use x="318.066406" xlink:href="#DejaVuSans-46"/>
      <use x="349.853516" xlink:href="#DejaVuSans-105"/>
      <use x="377.636719" xlink:href="#DejaVuSans-112"/>
      <use x="441.113281" xlink:href="#DejaVuSans-115"/>
      <use x="493.212891" xlink:href="#DejaVuSans-116"/>
      <use x="532.421875" xlink:href="#DejaVuSans-97"/>
      <use x="593.701172" xlink:href="#DejaVuSans-116"/>
      <use x="632.910156" xlink:href="#DejaVuSans-101"/>
      <use x="694.433594" xlink:href="#DejaVuSans-45"/>
      <use x="730.517578" xlink:href="#DejaVuSans-100"/>
      <use x="793.994141" xlink:href="#DejaVuSans-105"/>
      <use x="821.777344" xlink:href="#DejaVuSans-115"/>
      <use x="873.876953" xlink:href="#DejaVuSans-97"/>
      <use x="935.15625" xlink:href="#DejaVuSans-98"/>
      <use x="998.632812" xlink:href="#DejaVuSans-108"/>
      <use x="1026.416016" xlink:href="#DejaVuSans-101"/>
      <use x="1087.939453" xlink:href="#DejaVuSans-46"/>
      <use x="1119.726562" xlink:href="#DejaVuSans-99"/>
      <use x="1174.707031" xlink:href="#DejaVuSans-105"/>
      <use x="1202.490234" xlink:href="#DejaVuSans-110"/>
      <use x="1265.869141" xlink:href="#DejaVuSans-110"/>
      <use x="1329.248047" xlink:href="#DejaVuSans-97"/>
      <use x="1390.527344" xlink:href="#DejaVuSans-109"/>
      <use x="1487.939453" xlink:href="#DejaVuSans-111"/>
      <use x="1549.121094" xlink:href="#DejaVuSans-110"/>
      <use x="1612.5" xlink:href="#DejaVuSans-46"/>
      <use x="1644.287109" xlink:href="#DejaVuSans-109"/>
      <use x="1741.699219" xlink:href="#DejaVuSans-112"/>
      <use x="1805.175781" xlink:href="#DejaVuSans-118"/>
      <use x="1861.730469" xlink:href="#DejaVuSans-45"/>
      <use x="1897.814453" xlink:href="#DejaVuSans-103"/>
      <use x="1961.291016" xlink:href="#DejaVuSans-112"/>
      <use x="2024.767578" xlink:href="#DejaVuSans-117"/>
      <use x="2088.146484" xlink:href="#DejaVuSans-45"/>
      <use x="2121.605469" xlink:href="#DejaVuSans-118"/>
      <use x="2180.785156" xlink:href="#DejaVuSans-97"/>
      <use x="2242.064453" xlink:href="#DejaVuSans-97"/>
      <use x="2303.34375" xlink:href="#DejaVuSans-112"/>
      <use x="2366.820312" xlink:href="#DejaVuSans-105"/>
      <use x="2394.603516" xlink:href="#DejaVuSans-46"/>
      <use x="2426.390625" xlink:href="#DejaVuSans-99"/>
      <use x="2481.371094" xlink:href="#DejaVuSans-111"/>
      <use x="2542.552734" xlink:href="#DejaVuSans-111"/>
      <use x="2603.734375" xlink:href="#DejaVuSans-108"/>
      <use x="2631.517578" xlink:href="#DejaVuSans-100"/>
      <use x="2694.994141" xlink:href="#DejaVuSans-111"/>
      <use x="2756.175781" xlink:href="#DejaVuSans-119"/>
      <use x="2837.962891" xlink:href="#DejaVuSans-110"/>
     </g>
    </g>
    <g id="line2d_36">
     <path d="M 19.465312 157.317313 
L 39.465312 157.317313 
" style="fill:none;stroke:#7f7f7f;stroke-linecap:square;stroke-width:1.5;"/>
    </g>
    <g id="line2d_37"/>
    <g id="text_21">
     <!-- 5.5.13.ipstate-disable.gnome-shell-classic.mpv-gpu-vaapi.cooldown -->
     <g transform="translate(47.465312 160.817313)scale(0.1 -0.1)">
      <use xlink:href="#DejaVuSans-53"/>
      <use x="63.623047" xlink:href="#DejaVuSans-46"/>
      <use x="95.410156" xlink:href="#DejaVuSans-53"/>
      <use x="159.033203" xlink:href="#DejaVuSans-46"/>
      <use x="190.820312" xlink:href="#DejaVuSans-49"/>
      <use x="254.443359" xlink:href="#DejaVuSans-51"/>
      <use x="318.066406" xlink:href="#DejaVuSans-46"/>
      <use x="349.853516" xlink:href="#DejaVuSans-105"/>
      <use x="377.636719" xlink:href="#DejaVuSans-112"/>
      <use x="441.113281" xlink:href="#DejaVuSans-115"/>
      <use x="493.212891" xlink:href="#DejaVuSans-116"/>
      <use x="532.421875" xlink:href="#DejaVuSans-97"/>
      <use x="593.701172" xlink:href="#DejaVuSans-116"/>
      <use x="632.910156" xlink:href="#DejaVuSans-101"/>
      <use x="694.433594" xlink:href="#DejaVuSans-45"/>
      <use x="730.517578" xlink:href="#DejaVuSans-100"/>
      <use x="793.994141" xlink:href="#DejaVuSans-105"/>
      <use x="821.777344" xlink:href="#DejaVuSans-115"/>
      <use x="873.876953" xlink:href="#DejaVuSans-97"/>
      <use x="935.15625" xlink:href="#DejaVuSans-98"/>
      <use x="998.632812" xlink:href="#DejaVuSans-108"/>
      <use x="1026.416016" xlink:href="#DejaVuSans-101"/>
      <use x="1087.939453" xlink:href="#DejaVuSans-46"/>
      <use x="1119.726562" xlink:href="#DejaVuSans-103"/>
      <use x="1183.203125" xlink:href="#DejaVuSans-110"/>
      <use x="1246.582031" xlink:href="#DejaVuSans-111"/>
      <use x="1307.763672" xlink:href="#DejaVuSans-109"/>
      <use x="1405.175781" xlink:href="#DejaVuSans-101"/>
      <use x="1466.699219" xlink:href="#DejaVuSans-45"/>
      <use x="1502.783203" xlink:href="#DejaVuSans-115"/>
      <use x="1554.882812" xlink:href="#DejaVuSans-104"/>
      <use x="1618.261719" xlink:href="#DejaVuSans-101"/>
      <use x="1679.785156" xlink:href="#DejaVuSans-108"/>
      <use x="1707.568359" xlink:href="#DejaVuSans-108"/>
      <use x="1735.351562" xlink:href="#DejaVuSans-45"/>
      <use x="1771.435547" xlink:href="#DejaVuSans-99"/>
      <use x="1826.416016" xlink:href="#DejaVuSans-108"/>
      <use x="1854.199219" xlink:href="#DejaVuSans-97"/>
      <use x="1915.478516" xlink:href="#DejaVuSans-115"/>
      <use x="1967.578125" xlink:href="#DejaVuSans-115"/>
      <use x="2019.677734" xlink:href="#DejaVuSans-105"/>
      <use x="2047.460938" xlink:href="#DejaVuSans-99"/>
      <use x="2102.441406" xlink:href="#DejaVuSans-46"/>
      <use x="2134.228516" xlink:href="#DejaVuSans-109"/>
      <use x="2231.640625" xlink:href="#DejaVuSans-112"/>
      <use x="2295.117188" xlink:href="#DejaVuSans-118"/>
      <use x="2351.671875" xlink:href="#DejaVuSans-45"/>
      <use x="2387.755859" xlink:href="#DejaVuSans-103"/>
      <use x="2451.232422" xlink:href="#DejaVuSans-112"/>
      <use x="2514.708984" xlink:href="#DejaVuSans-117"/>
      <use x="2578.087891" xlink:href="#DejaVuSans-45"/>
      <use x="2611.546875" xlink:href="#DejaVuSans-118"/>
      <use x="2670.726562" xlink:href="#DejaVuSans-97"/>
      <use x="2732.005859" xlink:href="#DejaVuSans-97"/>
      <use x="2793.285156" xlink:href="#DejaVuSans-112"/>
      <use x="2856.761719" xlink:href="#DejaVuSans-105"/>
      <use x="2884.544922" xlink:href="#DejaVuSans-46"/>
      <use x="2916.332031" xlink:href="#DejaVuSans-99"/>
      <use x="2971.3125" xlink:href="#DejaVuSans-111"/>
      <use x="3032.494141" xlink:href="#DejaVuSans-111"/>
      <use x="3093.675781" xlink:href="#DejaVuSans-108"/>
      <use x="3121.458984" xlink:href="#DejaVuSans-100"/>
      <use x="3184.935547" xlink:href="#DejaVuSans-111"/>
      <use x="3246.117188" xlink:href="#DejaVuSans-119"/>
      <use x="3327.904297" xlink:href="#DejaVuSans-110"/>
     </g>
    </g>
   </g>
  </g>
 </g>
 <defs>
  <clipPath id="p11bb70f4f7">
   <rect height="266.112" width="357.12" x="57.6" y="41.472"/>
  </clipPath>
 </defs>
</svg>
