<?xml version="1.0" encoding="utf-8" standalone="no"?>
<!DOCTYPE svg PUBLIC "-//W3C//DTD SVG 1.1//EN"
  "http://www.w3.org/Graphics/SVG/1.1/DTD/svg11.dtd">
<!-- Created with matplotlib (https://matplotlib.org/) -->
<svg height="345.6pt" version="1.1" viewBox="0 0 460.8 345.6" width="460.8pt" xmlns="http://www.w3.org/2000/svg" xmlns:xlink="http://www.w3.org/1999/xlink">
 <defs>
  <style type="text/css">
*{stroke-linecap:butt;stroke-linejoin:round;}
  </style>
 </defs>
 <g id="figure_1">
  <g id="patch_1">
   <path d="M 0 345.6 
L 460.8 345.6 
L 460.8 0 
L 0 0 
z
" style="fill:#ffffff;"/>
  </g>
  <g id="axes_1">
   <g id="patch_2">
    <path d="M 57.6 307.584 
L 414.72 307.584 
L 414.72 41.472 
L 57.6 41.472 
z
" style="fill:#ffffff;"/>
   </g>
   <g id="matplotlib.axis_1">
    <g id="xtick_1">
     <g id="line2d_1">
      <defs>
       <path d="M 0 0 
L 0 3.5 
" id="m0a9d7c1a64" style="stroke:#000000;stroke-width:0.8;"/>
      </defs>
      <g>
       <use style="stroke:#000000;stroke-width:0.8;" x="57.6" xlink:href="#m0a9d7c1a64" y="307.584"/>
      </g>
     </g>
     <g id="text_1">
      <!-- 0 -->
      <defs>
       <path d="M 31.78125 66.40625 
Q 24.171875 66.40625 20.328125 58.90625 
Q 16.5 51.421875 16.5 36.375 
Q 16.5 21.390625 20.328125 13.890625 
Q 24.171875 6.390625 31.78125 6.390625 
Q 39.453125 6.390625 43.28125 13.890625 
Q 47.125 21.390625 47.125 36.375 
Q 47.125 51.421875 43.28125 58.90625 
Q 39.453125 66.40625 31.78125 66.40625 
z
M 31.78125 74.21875 
Q 44.046875 74.21875 50.515625 64.515625 
Q 56.984375 54.828125 56.984375 36.375 
Q 56.984375 17.96875 50.515625 8.265625 
Q 44.046875 -1.421875 31.78125 -1.421875 
Q 19.53125 -1.421875 13.0625 8.265625 
Q 6.59375 17.96875 6.59375 36.375 
Q 6.59375 54.828125 13.0625 64.515625 
Q 19.53125 74.21875 31.78125 74.21875 
z
" id="DejaVuSans-48"/>
      </defs>
      <g transform="translate(54.41875 322.182437)scale(0.1 -0.1)">
       <use xlink:href="#DejaVuSans-48"/>
      </g>
     </g>
    </g>
    <g id="xtick_2">
     <g id="line2d_2">
      <g>
       <use style="stroke:#000000;stroke-width:0.8;" x="103.68" xlink:href="#m0a9d7c1a64" y="307.584"/>
      </g>
     </g>
     <g id="text_2">
      <!-- 20 -->
      <defs>
       <path d="M 19.1875 8.296875 
L 53.609375 8.296875 
L 53.609375 0 
L 7.328125 0 
L 7.328125 8.296875 
Q 12.9375 14.109375 22.625 23.890625 
Q 32.328125 33.6875 34.8125 36.53125 
Q 39.546875 41.84375 41.421875 45.53125 
Q 43.3125 49.21875 43.3125 52.78125 
Q 43.3125 58.59375 39.234375 62.25 
Q 35.15625 65.921875 28.609375 65.921875 
Q 23.96875 65.921875 18.8125 64.3125 
Q 13.671875 62.703125 7.8125 59.421875 
L 7.8125 69.390625 
Q 13.765625 71.78125 18.9375 73 
Q 24.125 74.21875 28.421875 74.21875 
Q 39.75 74.21875 46.484375 68.546875 
Q 53.21875 62.890625 53.21875 53.421875 
Q 53.21875 48.921875 51.53125 44.890625 
Q 49.859375 40.875 45.40625 35.40625 
Q 44.1875 33.984375 37.640625 27.21875 
Q 31.109375 20.453125 19.1875 8.296875 
z
" id="DejaVuSans-50"/>
      </defs>
      <g transform="translate(97.3175 322.182437)scale(0.1 -0.1)">
       <use xlink:href="#DejaVuSans-50"/>
       <use x="63.623047" xlink:href="#DejaVuSans-48"/>
      </g>
     </g>
    </g>
    <g id="xtick_3">
     <g id="line2d_3">
      <g>
       <use style="stroke:#000000;stroke-width:0.8;" x="149.76" xlink:href="#m0a9d7c1a64" y="307.584"/>
      </g>
     </g>
     <g id="text_3">
      <!-- 40 -->
      <defs>
       <path d="M 37.796875 64.3125 
L 12.890625 25.390625 
L 37.796875 25.390625 
z
M 35.203125 72.90625 
L 47.609375 72.90625 
L 47.609375 25.390625 
L 58.015625 25.390625 
L 58.015625 17.1875 
L 47.609375 17.1875 
L 47.609375 0 
L 37.796875 0 
L 37.796875 17.1875 
L 4.890625 17.1875 
L 4.890625 26.703125 
z
" id="DejaVuSans-52"/>
      </defs>
      <g transform="translate(143.3975 322.182437)scale(0.1 -0.1)">
       <use xlink:href="#DejaVuSans-52"/>
       <use x="63.623047" xlink:href="#DejaVuSans-48"/>
      </g>
     </g>
    </g>
    <g id="xtick_4">
     <g id="line2d_4">
      <g>
       <use style="stroke:#000000;stroke-width:0.8;" x="195.84" xlink:href="#m0a9d7c1a64" y="307.584"/>
      </g>
     </g>
     <g id="text_4">
      <!-- 60 -->
      <defs>
       <path d="M 33.015625 40.375 
Q 26.375 40.375 22.484375 35.828125 
Q 18.609375 31.296875 18.609375 23.390625 
Q 18.609375 15.53125 22.484375 10.953125 
Q 26.375 6.390625 33.015625 6.390625 
Q 39.65625 6.390625 43.53125 10.953125 
Q 47.40625 15.53125 47.40625 23.390625 
Q 47.40625 31.296875 43.53125 35.828125 
Q 39.65625 40.375 33.015625 40.375 
z
M 52.59375 71.296875 
L 52.59375 62.3125 
Q 48.875 64.0625 45.09375 64.984375 
Q 41.3125 65.921875 37.59375 65.921875 
Q 27.828125 65.921875 22.671875 59.328125 
Q 17.53125 52.734375 16.796875 39.40625 
Q 19.671875 43.65625 24.015625 45.921875 
Q 28.375 48.1875 33.59375 48.1875 
Q 44.578125 48.1875 50.953125 41.515625 
Q 57.328125 34.859375 57.328125 23.390625 
Q 57.328125 12.15625 50.6875 5.359375 
Q 44.046875 -1.421875 33.015625 -1.421875 
Q 20.359375 -1.421875 13.671875 8.265625 
Q 6.984375 17.96875 6.984375 36.375 
Q 6.984375 53.65625 15.1875 63.9375 
Q 23.390625 74.21875 37.203125 74.21875 
Q 40.921875 74.21875 44.703125 73.484375 
Q 48.484375 72.75 52.59375 71.296875 
z
" id="DejaVuSans-54"/>
      </defs>
      <g transform="translate(189.4775 322.182437)scale(0.1 -0.1)">
       <use xlink:href="#DejaVuSans-54"/>
       <use x="63.623047" xlink:href="#DejaVuSans-48"/>
      </g>
     </g>
    </g>
    <g id="xtick_5">
     <g id="line2d_5">
      <g>
       <use style="stroke:#000000;stroke-width:0.8;" x="241.92" xlink:href="#m0a9d7c1a64" y="307.584"/>
      </g>
     </g>
     <g id="text_5">
      <!-- 80 -->
      <defs>
       <path d="M 31.78125 34.625 
Q 24.75 34.625 20.71875 30.859375 
Q 16.703125 27.09375 16.703125 20.515625 
Q 16.703125 13.921875 20.71875 10.15625 
Q 24.75 6.390625 31.78125 6.390625 
Q 38.8125 6.390625 42.859375 10.171875 
Q 46.921875 13.96875 46.921875 20.515625 
Q 46.921875 27.09375 42.890625 30.859375 
Q 38.875 34.625 31.78125 34.625 
z
M 21.921875 38.8125 
Q 15.578125 40.375 12.03125 44.71875 
Q 8.5 49.078125 8.5 55.328125 
Q 8.5 64.0625 14.71875 69.140625 
Q 20.953125 74.21875 31.78125 74.21875 
Q 42.671875 74.21875 48.875 69.140625 
Q 55.078125 64.0625 55.078125 55.328125 
Q 55.078125 49.078125 51.53125 44.71875 
Q 48 40.375 41.703125 38.8125 
Q 48.828125 37.15625 52.796875 32.3125 
Q 56.78125 27.484375 56.78125 20.515625 
Q 56.78125 9.90625 50.3125 4.234375 
Q 43.84375 -1.421875 31.78125 -1.421875 
Q 19.734375 -1.421875 13.25 4.234375 
Q 6.78125 9.90625 6.78125 20.515625 
Q 6.78125 27.484375 10.78125 32.3125 
Q 14.796875 37.15625 21.921875 38.8125 
z
M 18.3125 54.390625 
Q 18.3125 48.734375 21.84375 45.5625 
Q 25.390625 42.390625 31.78125 42.390625 
Q 38.140625 42.390625 41.71875 45.5625 
Q 45.3125 48.734375 45.3125 54.390625 
Q 45.3125 60.0625 41.71875 63.234375 
Q 38.140625 66.40625 31.78125 66.40625 
Q 25.390625 66.40625 21.84375 63.234375 
Q 18.3125 60.0625 18.3125 54.390625 
z
" id="DejaVuSans-56"/>
      </defs>
      <g transform="translate(235.5575 322.182437)scale(0.1 -0.1)">
       <use xlink:href="#DejaVuSans-56"/>
       <use x="63.623047" xlink:href="#DejaVuSans-48"/>
      </g>
     </g>
    </g>
    <g id="xtick_6">
     <g id="line2d_6">
      <g>
       <use style="stroke:#000000;stroke-width:0.8;" x="288" xlink:href="#m0a9d7c1a64" y="307.584"/>
      </g>
     </g>
     <g id="text_6">
      <!-- 100 -->
      <defs>
       <path d="M 12.40625 8.296875 
L 28.515625 8.296875 
L 28.515625 63.921875 
L 10.984375 60.40625 
L 10.984375 69.390625 
L 28.421875 72.90625 
L 38.28125 72.90625 
L 38.28125 8.296875 
L 54.390625 8.296875 
L 54.390625 0 
L 12.40625 0 
z
" id="DejaVuSans-49"/>
      </defs>
      <g transform="translate(278.45625 322.182437)scale(0.1 -0.1)">
       <use xlink:href="#DejaVuSans-49"/>
       <use x="63.623047" xlink:href="#DejaVuSans-48"/>
       <use x="127.246094" xlink:href="#DejaVuSans-48"/>
      </g>
     </g>
    </g>
    <g id="xtick_7">
     <g id="line2d_7">
      <g>
       <use style="stroke:#000000;stroke-width:0.8;" x="334.08" xlink:href="#m0a9d7c1a64" y="307.584"/>
      </g>
     </g>
     <g id="text_7">
      <!-- 120 -->
      <g transform="translate(324.53625 322.182437)scale(0.1 -0.1)">
       <use xlink:href="#DejaVuSans-49"/>
       <use x="63.623047" xlink:href="#DejaVuSans-50"/>
       <use x="127.246094" xlink:href="#DejaVuSans-48"/>
      </g>
     </g>
    </g>
    <g id="xtick_8">
     <g id="line2d_8">
      <g>
       <use style="stroke:#000000;stroke-width:0.8;" x="380.16" xlink:href="#m0a9d7c1a64" y="307.584"/>
      </g>
     </g>
     <g id="text_8">
      <!-- 140 -->
      <g transform="translate(370.61625 322.182437)scale(0.1 -0.1)">
       <use xlink:href="#DejaVuSans-49"/>
       <use x="63.623047" xlink:href="#DejaVuSans-52"/>
       <use x="127.246094" xlink:href="#DejaVuSans-48"/>
      </g>
     </g>
    </g>
   </g>
   <g id="matplotlib.axis_2">
    <g id="ytick_1">
     <g id="line2d_9">
      <defs>
       <path d="M 0 0 
L -3.5 0 
" id="m024ab52c3c" style="stroke:#000000;stroke-width:0.8;"/>
      </defs>
      <g>
       <use style="stroke:#000000;stroke-width:0.8;" x="57.6" xlink:href="#m024ab52c3c" y="303.485355"/>
      </g>
     </g>
     <g id="text_9">
      <!-- 50 -->
      <defs>
       <path d="M 10.796875 72.90625 
L 49.515625 72.90625 
L 49.515625 64.59375 
L 19.828125 64.59375 
L 19.828125 46.734375 
Q 21.96875 47.46875 24.109375 47.828125 
Q 26.265625 48.1875 28.421875 48.1875 
Q 40.625 48.1875 47.75 41.5 
Q 54.890625 34.8125 54.890625 23.390625 
Q 54.890625 11.625 47.5625 5.09375 
Q 40.234375 -1.421875 26.90625 -1.421875 
Q 22.3125 -1.421875 17.546875 -0.640625 
Q 12.796875 0.140625 7.71875 1.703125 
L 7.71875 11.625 
Q 12.109375 9.234375 16.796875 8.0625 
Q 21.484375 6.890625 26.703125 6.890625 
Q 35.15625 6.890625 40.078125 11.328125 
Q 45.015625 15.765625 45.015625 23.390625 
Q 45.015625 31 40.078125 35.4375 
Q 35.15625 39.890625 26.703125 39.890625 
Q 22.75 39.890625 18.8125 39.015625 
Q 14.890625 38.140625 10.796875 36.28125 
z
" id="DejaVuSans-53"/>
      </defs>
      <g transform="translate(37.875 307.284574)scale(0.1 -0.1)">
       <use xlink:href="#DejaVuSans-53"/>
       <use x="63.623047" xlink:href="#DejaVuSans-48"/>
      </g>
     </g>
    </g>
    <g id="ytick_2">
     <g id="line2d_10">
      <g>
       <use style="stroke:#000000;stroke-width:0.8;" x="57.6" xlink:href="#m024ab52c3c" y="253.501884"/>
      </g>
     </g>
     <g id="text_10">
      <!-- 55 -->
      <g transform="translate(37.875 257.301103)scale(0.1 -0.1)">
       <use xlink:href="#DejaVuSans-53"/>
       <use x="63.623047" xlink:href="#DejaVuSans-53"/>
      </g>
     </g>
    </g>
    <g id="ytick_3">
     <g id="line2d_11">
      <g>
       <use style="stroke:#000000;stroke-width:0.8;" x="57.6" xlink:href="#m024ab52c3c" y="203.518413"/>
      </g>
     </g>
     <g id="text_11">
      <!-- 60 -->
      <g transform="translate(37.875 207.317632)scale(0.1 -0.1)">
       <use xlink:href="#DejaVuSans-54"/>
       <use x="63.623047" xlink:href="#DejaVuSans-48"/>
      </g>
     </g>
    </g>
    <g id="ytick_4">
     <g id="line2d_12">
      <g>
       <use style="stroke:#000000;stroke-width:0.8;" x="57.6" xlink:href="#m024ab52c3c" y="153.534942"/>
      </g>
     </g>
     <g id="text_12">
      <!-- 65 -->
      <g transform="translate(37.875 157.334161)scale(0.1 -0.1)">
       <use xlink:href="#DejaVuSans-54"/>
       <use x="63.623047" xlink:href="#DejaVuSans-53"/>
      </g>
     </g>
    </g>
    <g id="ytick_5">
     <g id="line2d_13">
      <g>
       <use style="stroke:#000000;stroke-width:0.8;" x="57.6" xlink:href="#m024ab52c3c" y="103.551471"/>
      </g>
     </g>
     <g id="text_13">
      <!-- 70 -->
      <defs>
       <path d="M 8.203125 72.90625 
L 55.078125 72.90625 
L 55.078125 68.703125 
L 28.609375 0 
L 18.3125 0 
L 43.21875 64.59375 
L 8.203125 64.59375 
z
" id="DejaVuSans-55"/>
      </defs>
      <g transform="translate(37.875 107.35069)scale(0.1 -0.1)">
       <use xlink:href="#DejaVuSans-55"/>
       <use x="63.623047" xlink:href="#DejaVuSans-48"/>
      </g>
     </g>
    </g>
    <g id="ytick_6">
     <g id="line2d_14">
      <g>
       <use style="stroke:#000000;stroke-width:0.8;" x="57.6" xlink:href="#m024ab52c3c" y="53.568"/>
      </g>
     </g>
     <g id="text_14">
      <!-- 75 -->
      <g transform="translate(37.875 57.367219)scale(0.1 -0.1)">
       <use xlink:href="#DejaVuSans-55"/>
       <use x="63.623047" xlink:href="#DejaVuSans-53"/>
      </g>
     </g>
    </g>
   </g>
   <g id="line2d_15">
    <path clip-path="url(#pcb54d44205)" d="M 66.816 205.517752 
L 69.12 193.521719 
L 71.424 195.521058 
L 73.728 191.52238 
L 76.032 193.521719 
L 78.336 205.517752 
L 80.64 203.518413 
L 82.944 203.518413 
L 85.248 199.519736 
L 87.552 197.520397 
L 89.856 199.519736 
L 92.16 203.518413 
L 99.072 203.518413 
L 101.376 195.521058 
L 103.68 185.524364 
L 105.984 185.524364 
L 108.288 175.527669 
L 110.592 169.529653 
L 112.896 175.527669 
L 115.2 175.527669 
L 117.504 173.528331 
L 119.808 177.527008 
L 122.112 175.527669 
L 124.416 167.530314 
L 126.72 167.530314 
L 129.024 163.531636 
L 131.328 163.531636 
L 133.632 161.532298 
L 135.936 157.53362 
L 138.24 151.535603 
L 140.544 149.536264 
L 142.848 145.537587 
L 145.152 143.538248 
L 147.456 147.536926 
L 149.76 145.537587 
L 154.368 145.537587 
L 156.672 143.538248 
L 158.976 135.540893 
L 161.28 135.540893 
L 163.584 133.541554 
L 168.192 125.544198 
L 170.496 135.540893 
L 175.104 131.542215 
L 177.408 135.540893 
L 179.712 137.540231 
L 182.016 131.542215 
L 186.624 131.542215 
L 188.928 127.543537 
L 191.232 125.544198 
L 193.536 119.546182 
L 195.84 117.546843 
L 200.448 109.549488 
L 207.36 103.551471 
L 209.664 103.551471 
L 211.968 111.548826 
L 216.576 111.548826 
L 218.88 119.546182 
L 221.184 117.546843 
L 223.488 109.549488 
L 225.792 109.549488 
L 228.096 117.546843 
L 230.4 107.550149 
L 232.704 117.546843 
L 237.312 117.546843 
L 239.616 109.549488 
L 241.92 111.548826 
L 244.224 103.551471 
L 246.528 107.550149 
L 248.832 107.550149 
L 251.136 93.554777 
L 253.44 93.554777 
L 255.744 91.555438 
L 258.048 85.557421 
L 260.352 83.558083 
L 262.656 95.554116 
L 267.264 95.554116 
L 269.568 97.553455 
L 274.176 97.553455 
L 276.48 95.554116 
L 278.784 95.554116 
L 281.088 89.556099 
L 285.696 89.556099 
L 288 83.558083 
L 292.608 83.558083 
L 294.912 89.556099 
L 299.52 105.55081 
L 301.824 109.549488 
L 304.128 119.546182 
L 306.432 115.547504 
L 308.736 115.547504 
L 311.04 111.548826 
L 313.344 105.55081 
L 315.648 101.552132 
L 317.952 107.550149 
L 320.256 101.552132 
L 322.56 109.549488 
L 324.864 119.546182 
L 327.168 117.546843 
L 329.472 111.548826 
L 331.776 107.550149 
L 334.08 109.549488 
L 336.384 101.552132 
L 338.688 111.548826 
L 340.992 117.546843 
L 343.296 127.543537 
L 345.6 129.542876 
L 347.904 127.543537 
L 350.208 123.54486 
L 352.512 113.548165 
L 357.12 97.553455 
L 359.424 95.554116 
L 361.728 89.556099 
L 364.032 89.556099 
L 366.336 87.55676 
L 368.64 87.55676 
L 370.944 99.552793 
L 373.248 101.552132 
L 375.552 107.550149 
L 380.16 115.547504 
L 384.768 119.546182 
L 387.072 125.544198 
L 389.376 127.543537 
L 391.68 131.542215 
L 393.984 131.542215 
L 396.288 125.544198 
L 405.504 125.544198 
L 407.808 131.542215 
L 410.112 123.54486 
L 414.72 119.546182 
L 414.72 119.546182 
" style="fill:none;stroke:#1f77b4;stroke-linecap:square;stroke-width:1.5;"/>
   </g>
   <g id="line2d_16">
    <path clip-path="url(#pcb54d44205)" d="M 66.816 295.488 
L 69.12 291.489322 
L 73.728 271.495934 
L 76.032 259.499901 
L 78.336 261.49924 
L 80.64 253.501884 
L 82.944 265.497917 
L 85.248 265.497917 
L 87.552 269.496595 
L 89.856 263.498579 
L 92.16 267.497256 
L 94.464 259.499901 
L 96.768 257.500562 
L 99.072 249.503207 
L 101.376 251.502545 
L 103.68 249.503207 
L 105.984 249.503207 
L 108.288 243.50519 
L 110.592 249.503207 
L 112.896 241.505851 
L 115.2 239.506512 
L 117.504 233.508496 
L 119.808 231.509157 
L 122.112 221.512463 
L 124.416 217.513785 
L 126.72 207.517091 
L 131.328 207.517091 
L 133.632 203.518413 
L 135.936 203.518413 
L 140.544 195.521058 
L 142.848 193.521719 
L 147.456 205.517752 
L 149.76 207.517091 
L 152.064 207.517091 
L 154.368 205.517752 
L 156.672 195.521058 
L 158.976 191.52238 
L 161.28 189.523041 
L 163.584 185.524364 
L 168.192 189.523041 
L 170.496 181.525686 
L 172.8 181.525686 
L 175.104 185.524364 
L 177.408 181.525686 
L 182.016 181.525686 
L 184.32 179.526347 
L 186.624 175.527669 
L 188.928 173.528331 
L 191.232 169.529653 
L 193.536 169.529653 
L 198.144 165.530975 
L 202.752 165.530975 
L 205.056 163.531636 
L 214.272 163.531636 
L 221.184 157.53362 
L 225.792 149.536264 
L 228.096 147.536926 
L 232.704 147.536926 
L 235.008 145.537587 
L 239.616 145.537587 
L 244.224 141.538909 
L 246.528 143.538248 
L 248.832 143.538248 
L 251.136 141.538909 
L 260.352 141.538909 
L 262.656 139.53957 
L 264.96 135.540893 
L 267.264 135.540893 
L 269.568 133.541554 
L 271.872 129.542876 
L 276.48 129.542876 
L 278.784 123.54486 
L 281.088 123.54486 
L 285.696 127.543537 
L 288 127.543537 
L 290.304 131.542215 
L 292.608 129.542876 
L 294.912 135.540893 
L 297.216 139.53957 
L 299.52 137.540231 
L 301.824 143.538248 
L 306.432 143.538248 
L 308.736 145.537587 
L 311.04 145.537587 
L 313.344 137.540231 
L 315.648 145.537587 
L 317.952 139.53957 
L 320.256 141.538909 
L 322.56 149.536264 
L 324.864 149.536264 
L 331.776 143.538248 
L 334.08 145.537587 
L 336.384 151.535603 
L 338.688 153.534942 
L 340.992 157.53362 
L 350.208 165.530975 
L 354.816 165.530975 
L 357.12 159.532959 
L 359.424 155.534281 
L 361.728 147.536926 
L 364.032 147.536926 
L 366.336 137.540231 
L 368.64 141.538909 
L 370.944 139.53957 
L 373.248 139.53957 
L 375.552 143.538248 
L 377.856 151.535603 
L 380.16 145.537587 
L 382.464 151.535603 
L 384.768 155.534281 
L 387.072 155.534281 
L 389.376 153.534942 
L 391.68 155.534281 
L 393.984 149.536264 
L 396.288 151.535603 
L 398.592 151.535603 
L 400.896 147.536926 
L 405.504 151.535603 
L 407.808 145.537587 
L 410.112 143.538248 
L 412.416 151.535603 
L 414.72 155.534281 
L 414.72 155.534281 
" style="fill:none;stroke:#ff7f0e;stroke-linecap:square;stroke-width:1.5;"/>
   </g>
   <g id="line2d_17">
    <path clip-path="url(#pcb54d44205)" d="M 66.816 247.503868 
L 69.12 243.50519 
L 71.424 251.502545 
L 73.728 249.503207 
L 76.032 255.501223 
L 78.336 253.501884 
L 108.288 253.501884 
L 110.592 243.50519 
L 117.504 243.50519 
L 119.808 241.505851 
L 122.112 249.503207 
L 126.72 249.503207 
L 129.024 247.503868 
L 133.632 251.502545 
L 138.24 251.502545 
L 140.544 253.501884 
L 152.064 253.501884 
L 154.368 251.502545 
L 156.672 243.50519 
L 163.584 237.507174 
L 165.888 239.506512 
L 168.192 245.504529 
L 170.496 247.503868 
L 172.8 247.503868 
L 175.104 249.503207 
L 177.408 247.503868 
L 179.712 247.503868 
L 182.016 245.504529 
L 195.84 245.504529 
L 200.448 241.505851 
L 202.752 241.505851 
L 209.664 235.507835 
L 211.968 237.507174 
L 214.272 237.507174 
L 221.184 243.50519 
L 248.832 243.50519 
L 251.136 241.505851 
L 253.44 237.507174 
L 255.744 235.507835 
L 258.048 235.507835 
L 260.352 233.508496 
L 262.656 235.507835 
L 264.96 239.506512 
L 269.568 239.506512 
L 271.872 241.505851 
L 274.176 239.506512 
L 276.48 239.506512 
L 278.784 241.505851 
L 283.392 241.505851 
L 285.696 243.50519 
L 297.216 243.50519 
L 299.52 237.507174 
L 301.824 235.507835 
L 308.736 235.507835 
L 311.04 241.505851 
L 313.344 243.50519 
L 315.648 241.505851 
L 317.952 241.505851 
L 320.256 239.506512 
L 324.864 239.506512 
L 327.168 241.505851 
L 329.472 239.506512 
L 331.776 241.505851 
L 334.08 239.506512 
L 336.384 239.506512 
L 338.688 237.507174 
L 340.992 239.506512 
L 343.296 237.507174 
L 345.6 237.507174 
L 347.904 235.507835 
L 352.512 235.507835 
L 354.816 237.507174 
L 361.728 237.507174 
L 366.336 233.508496 
L 368.64 233.508496 
L 373.248 237.507174 
L 375.552 237.507174 
L 380.16 241.505851 
L 382.464 239.506512 
L 387.072 239.506512 
L 389.376 237.507174 
L 391.68 233.508496 
L 393.984 233.508496 
L 396.288 223.511802 
L 400.896 223.511802 
L 403.2 227.510479 
L 405.504 227.510479 
L 407.808 235.507835 
L 412.416 235.507835 
L 414.72 233.508496 
L 414.72 233.508496 
" style="fill:none;stroke:#2ca02c;stroke-linecap:square;stroke-width:1.5;"/>
   </g>
   <g id="line2d_18">
    <path clip-path="url(#pcb54d44205)" d="M 66.816 255.501223 
L 71.424 251.502545 
L 73.728 255.501223 
L 76.032 255.501223 
L 80.64 251.502545 
L 82.944 255.501223 
L 87.552 255.501223 
L 89.856 257.500562 
L 92.16 257.500562 
L 94.464 255.501223 
L 99.072 255.501223 
L 101.376 253.501884 
L 108.288 253.501884 
L 110.592 249.503207 
L 119.808 249.503207 
L 122.112 253.501884 
L 154.368 253.501884 
L 156.672 249.503207 
L 158.976 247.503868 
L 161.28 247.503868 
L 165.888 243.50519 
L 168.192 247.503868 
L 170.496 247.503868 
L 172.8 245.504529 
L 177.408 245.504529 
L 179.712 243.50519 
L 182.016 245.504529 
L 184.32 245.504529 
L 186.624 247.503868 
L 191.232 247.503868 
L 193.536 245.504529 
L 195.84 245.504529 
L 198.144 243.50519 
L 221.184 243.50519 
L 223.488 245.504529 
L 232.704 245.504529 
L 235.008 243.50519 
L 246.528 243.50519 
L 251.136 247.503868 
L 253.44 243.50519 
L 258.048 243.50519 
L 262.656 239.506512 
L 264.96 243.50519 
L 297.216 243.50519 
L 301.824 239.506512 
L 308.736 239.506512 
L 313.344 243.50519 
L 345.6 243.50519 
L 347.904 241.505851 
L 357.12 241.505851 
L 359.424 243.50519 
L 393.984 243.50519 
L 396.288 239.506512 
L 405.504 239.506512 
L 407.808 243.50519 
L 414.72 243.50519 
L 414.72 243.50519 
" style="fill:none;stroke:#d62728;stroke-linecap:square;stroke-width:1.5;"/>
   </g>
   <g id="line2d_19">
    <path clip-path="url(#pcb54d44205)" d="M 66.816 253.501884 
L 69.12 229.509818 
L 71.424 209.51643 
L 73.728 205.517752 
L 76.032 199.519736 
L 78.336 203.518413 
L 80.64 213.515107 
L 82.944 215.514446 
L 87.552 195.521058 
L 89.856 187.523702 
L 92.16 181.525686 
L 94.464 177.527008 
L 96.768 183.525025 
L 101.376 179.526347 
L 103.68 173.528331 
L 105.984 175.527669 
L 108.288 163.531636 
L 110.592 165.530975 
L 112.896 157.53362 
L 115.2 161.532298 
L 119.808 153.534942 
L 122.112 147.536926 
L 124.416 153.534942 
L 126.72 151.535603 
L 129.024 151.535603 
L 131.328 155.534281 
L 133.632 151.535603 
L 135.936 149.536264 
L 138.24 141.538909 
L 140.544 139.53957 
L 142.848 135.540893 
L 145.152 141.538909 
L 147.456 141.538909 
L 149.76 147.536926 
L 152.064 141.538909 
L 154.368 137.540231 
L 156.672 127.543537 
L 161.28 123.54486 
L 163.584 127.543537 
L 165.888 127.543537 
L 168.192 131.542215 
L 170.496 131.542215 
L 175.104 111.548826 
L 177.408 115.547504 
L 179.712 109.549488 
L 182.016 97.553455 
L 184.32 103.551471 
L 186.624 105.55081 
L 188.928 105.55081 
L 191.232 111.548826 
L 193.536 119.546182 
L 195.84 111.548826 
L 198.144 111.548826 
L 200.448 107.550149 
L 205.056 91.555438 
L 207.36 95.554116 
L 209.664 89.556099 
L 211.968 87.55676 
L 214.272 91.555438 
L 216.576 89.556099 
L 218.88 91.555438 
L 221.184 91.555438 
L 228.096 97.553455 
L 230.4 89.556099 
L 235.008 93.554777 
L 237.312 85.557421 
L 239.616 85.557421 
L 241.92 91.555438 
L 244.224 91.555438 
L 246.528 85.557421 
L 248.832 87.55676 
L 251.136 93.554777 
L 253.44 85.557421 
L 255.744 85.557421 
L 258.048 87.55676 
L 260.352 87.55676 
L 262.656 83.558083 
L 264.96 89.556099 
L 267.264 87.55676 
L 269.568 81.558744 
L 271.872 83.558083 
L 274.176 83.558083 
L 276.48 77.560066 
L 278.784 83.558083 
L 281.088 83.558083 
L 283.392 79.559405 
L 285.696 73.561388 
L 288 79.559405 
L 290.304 75.560727 
L 292.608 79.559405 
L 294.912 75.560727 
L 297.216 77.560066 
L 299.52 71.56205 
L 304.128 79.559405 
L 306.432 85.557421 
L 308.736 89.556099 
L 311.04 95.554116 
L 313.344 93.554777 
L 315.648 85.557421 
L 317.952 91.555438 
L 320.256 85.557421 
L 324.864 81.558744 
L 327.168 89.556099 
L 329.472 85.557421 
L 336.384 79.559405 
L 338.688 67.563372 
L 340.992 61.565355 
L 343.296 63.564694 
L 345.6 61.565355 
L 347.904 65.564033 
L 350.208 75.560727 
L 357.12 93.554777 
L 359.424 93.554777 
L 361.728 85.557421 
L 364.032 83.558083 
L 366.336 77.560066 
L 370.944 77.560066 
L 373.248 85.557421 
L 375.552 81.558744 
L 377.856 83.558083 
L 380.16 77.560066 
L 382.464 73.561388 
L 384.768 67.563372 
L 387.072 69.562711 
L 389.376 73.561388 
L 391.68 71.56205 
L 393.984 55.567339 
L 396.288 61.565355 
L 398.592 55.567339 
L 400.896 53.568 
L 403.2 61.565355 
L 405.504 79.559405 
L 407.808 77.560066 
L 410.112 77.560066 
L 412.416 79.559405 
L 414.72 75.560727 
L 414.72 75.560727 
" style="fill:none;stroke:#9467bd;stroke-linecap:square;stroke-width:1.5;"/>
   </g>
   <g id="line2d_20">
    <path clip-path="url(#pcb54d44205)" d="M 66.816 281.492628 
L 69.12 261.49924 
L 71.424 275.494612 
L 73.728 271.495934 
L 76.032 269.496595 
L 78.336 261.49924 
L 80.64 259.499901 
L 82.944 247.503868 
L 85.248 247.503868 
L 87.552 237.507174 
L 89.856 229.509818 
L 92.16 235.507835 
L 94.464 237.507174 
L 96.768 241.505851 
L 99.072 247.503868 
L 101.376 255.501223 
L 103.68 255.501223 
L 105.984 249.503207 
L 108.288 237.507174 
L 110.592 231.509157 
L 112.896 221.512463 
L 115.2 207.517091 
L 117.504 213.515107 
L 119.808 213.515107 
L 122.112 211.515769 
L 124.416 207.517091 
L 126.72 209.51643 
L 129.024 207.517091 
L 131.328 207.517091 
L 133.632 201.519074 
L 138.24 201.519074 
L 140.544 197.520397 
L 142.848 201.519074 
L 145.152 199.519736 
L 147.456 207.517091 
L 152.064 207.517091 
L 154.368 205.517752 
L 156.672 209.51643 
L 158.976 207.517091 
L 161.28 207.517091 
L 163.584 203.518413 
L 165.888 193.521719 
L 168.192 197.520397 
L 170.496 195.521058 
L 172.8 195.521058 
L 175.104 197.520397 
L 177.408 203.518413 
L 179.712 191.52238 
L 182.016 185.524364 
L 184.32 183.525025 
L 188.928 171.528992 
L 191.232 179.526347 
L 193.536 173.528331 
L 198.144 173.528331 
L 200.448 169.529653 
L 202.752 159.532959 
L 205.056 167.530314 
L 207.36 157.53362 
L 209.664 159.532959 
L 211.968 167.530314 
L 214.272 169.529653 
L 216.576 169.529653 
L 218.88 173.528331 
L 221.184 173.528331 
L 223.488 165.530975 
L 225.792 171.528992 
L 228.096 167.530314 
L 230.4 167.530314 
L 232.704 161.532298 
L 237.312 161.532298 
L 241.92 153.534942 
L 244.224 157.53362 
L 246.528 163.531636 
L 248.832 151.535603 
L 251.136 147.536926 
L 253.44 153.534942 
L 255.744 153.534942 
L 258.048 143.538248 
L 260.352 151.535603 
L 262.656 153.534942 
L 264.96 145.537587 
L 267.264 145.537587 
L 269.568 155.534281 
L 271.872 157.53362 
L 274.176 165.530975 
L 276.48 175.527669 
L 278.784 167.530314 
L 281.088 167.530314 
L 283.392 165.530975 
L 285.696 159.532959 
L 288 157.53362 
L 290.304 161.532298 
L 292.608 159.532959 
L 294.912 151.535603 
L 297.216 139.53957 
L 299.52 135.540893 
L 301.824 137.540231 
L 304.128 135.540893 
L 306.432 135.540893 
L 308.736 151.535603 
L 311.04 153.534942 
L 313.344 151.535603 
L 315.648 151.535603 
L 317.952 159.532959 
L 320.256 155.534281 
L 322.56 153.534942 
L 324.864 153.534942 
L 327.168 155.534281 
L 329.472 143.538248 
L 331.776 145.537587 
L 334.08 139.53957 
L 336.384 141.538909 
L 338.688 133.541554 
L 340.992 145.537587 
L 345.6 149.536264 
L 347.904 139.53957 
L 350.208 137.540231 
L 352.512 129.542876 
L 354.816 127.543537 
L 357.12 129.542876 
L 359.424 137.540231 
L 361.728 139.53957 
L 364.032 145.537587 
L 366.336 135.540893 
L 368.64 129.542876 
L 370.944 119.546182 
L 373.248 119.546182 
L 375.552 109.549488 
L 377.856 117.546843 
L 380.16 123.54486 
L 382.464 125.544198 
L 384.768 131.542215 
L 387.072 139.53957 
L 389.376 135.540893 
L 391.68 133.541554 
L 393.984 139.53957 
L 396.288 129.542876 
L 398.592 131.542215 
L 403.2 139.53957 
L 405.504 133.541554 
L 407.808 133.541554 
L 410.112 127.543537 
L 412.416 125.544198 
L 414.72 121.545521 
L 414.72 121.545521 
" style="fill:none;stroke:#8c564b;stroke-linecap:square;stroke-width:1.5;"/>
   </g>
   <g id="line2d_21">
    <path clip-path="url(#pcb54d44205)" d="M 66.816 235.507835 
L 71.424 223.511802 
L 73.728 221.512463 
L 78.336 221.512463 
L 80.64 219.513124 
L 82.944 219.513124 
L 85.248 221.512463 
L 89.856 221.512463 
L 92.16 223.511802 
L 103.68 223.511802 
L 105.984 221.512463 
L 108.288 217.513785 
L 115.2 211.515769 
L 117.504 211.515769 
L 119.808 215.514446 
L 122.112 215.514446 
L 124.416 217.513785 
L 129.024 217.513785 
L 131.328 215.514446 
L 133.632 217.513785 
L 135.936 215.514446 
L 142.848 221.512463 
L 145.152 219.513124 
L 147.456 221.512463 
L 152.064 217.513785 
L 154.368 213.515107 
L 156.672 213.515107 
L 158.976 209.51643 
L 163.584 209.51643 
L 165.888 211.515769 
L 168.192 211.515769 
L 170.496 213.515107 
L 202.752 213.515107 
L 205.056 211.515769 
L 207.36 211.515769 
L 209.664 209.51643 
L 214.272 209.51643 
L 216.576 211.515769 
L 218.88 211.515769 
L 221.184 213.515107 
L 225.792 209.51643 
L 232.704 209.51643 
L 237.312 213.515107 
L 241.92 213.515107 
L 248.832 207.517091 
L 251.136 207.517091 
L 253.44 205.517752 
L 255.744 207.517091 
L 260.352 207.517091 
L 262.656 205.517752 
L 264.96 207.517091 
L 267.264 207.517091 
L 269.568 209.51643 
L 274.176 209.51643 
L 276.48 207.517091 
L 278.784 207.517091 
L 281.088 205.517752 
L 285.696 205.517752 
L 288 207.517091 
L 290.304 207.517091 
L 292.608 209.51643 
L 294.912 209.51643 
L 297.216 211.515769 
L 299.52 209.51643 
L 301.824 209.51643 
L 304.128 207.517091 
L 311.04 207.517091 
L 313.344 205.517752 
L 315.648 205.517752 
L 317.952 207.517091 
L 320.256 205.517752 
L 322.56 205.517752 
L 324.864 207.517091 
L 334.08 207.517091 
L 336.384 205.517752 
L 338.688 207.517091 
L 347.904 207.517091 
L 352.512 203.518413 
L 366.336 203.518413 
L 368.64 205.517752 
L 370.944 205.517752 
L 375.552 209.51643 
L 377.856 209.51643 
L 380.16 207.517091 
L 382.464 209.51643 
L 384.768 209.51643 
L 387.072 207.517091 
L 391.68 207.517091 
L 393.984 205.517752 
L 396.288 199.519736 
L 398.592 199.519736 
L 400.896 201.519074 
L 405.504 201.519074 
L 407.808 205.517752 
L 410.112 205.517752 
L 412.416 203.518413 
L 414.72 203.518413 
L 414.72 203.518413 
" style="fill:none;stroke:#e377c2;stroke-linecap:square;stroke-width:1.5;"/>
   </g>
   <g id="line2d_22">
    <path clip-path="url(#pcb54d44205)" d="M 66.816 279.493289 
L 71.424 271.495934 
L 73.728 275.494612 
L 76.032 273.495273 
L 78.336 275.494612 
L 80.64 275.494612 
L 85.248 271.495934 
L 87.552 271.495934 
L 89.856 269.496595 
L 99.072 269.496595 
L 101.376 271.495934 
L 103.68 269.496595 
L 105.984 269.496595 
L 112.896 263.498579 
L 138.24 263.498579 
L 140.544 261.49924 
L 142.848 261.49924 
L 154.368 251.502545 
L 156.672 253.501884 
L 158.976 251.502545 
L 161.28 251.502545 
L 163.584 255.501223 
L 165.888 255.501223 
L 168.192 253.501884 
L 170.496 255.501223 
L 172.8 255.501223 
L 175.104 253.501884 
L 179.712 253.501884 
L 182.016 255.501223 
L 188.928 255.501223 
L 193.536 251.502545 
L 200.448 251.502545 
L 202.752 253.501884 
L 205.056 251.502545 
L 214.272 251.502545 
L 216.576 253.501884 
L 218.88 253.501884 
L 223.488 249.503207 
L 230.4 249.503207 
L 235.008 253.501884 
L 241.92 253.501884 
L 244.224 251.502545 
L 255.744 251.502545 
L 260.352 247.503868 
L 262.656 247.503868 
L 264.96 245.504529 
L 267.264 245.504529 
L 269.568 247.503868 
L 278.784 247.503868 
L 281.088 245.504529 
L 283.392 247.503868 
L 285.696 245.504529 
L 304.128 245.504529 
L 306.432 243.50519 
L 308.736 245.504529 
L 311.04 243.50519 
L 315.648 243.50519 
L 320.256 239.506512 
L 322.56 241.505851 
L 327.168 241.505851 
L 329.472 243.50519 
L 343.296 243.50519 
L 345.6 241.505851 
L 347.904 241.505851 
L 350.208 239.506512 
L 352.512 239.506512 
L 354.816 237.507174 
L 357.12 239.506512 
L 359.424 237.507174 
L 361.728 239.506512 
L 364.032 239.506512 
L 366.336 241.505851 
L 368.64 241.505851 
L 370.944 243.50519 
L 382.464 243.50519 
L 391.68 235.507835 
L 396.288 235.507835 
L 403.2 241.505851 
L 405.504 241.505851 
L 407.808 243.50519 
L 412.416 239.506512 
L 414.72 239.506512 
L 414.72 239.506512 
" style="fill:none;stroke:#7f7f7f;stroke-linecap:square;stroke-width:1.5;"/>
   </g>
   <g id="patch_3">
    <path d="M 57.6 307.584 
L 57.6 41.472 
" style="fill:none;stroke:#000000;stroke-linecap:square;stroke-linejoin:miter;stroke-width:0.8;"/>
   </g>
   <g id="patch_4">
    <path d="M 414.72 307.584 
L 414.72 41.472 
" style="fill:none;stroke:#000000;stroke-linecap:square;stroke-linejoin:miter;stroke-width:0.8;"/>
   </g>
   <g id="patch_5">
    <path d="M 57.6 307.584 
L 414.72 307.584 
" style="fill:none;stroke:#000000;stroke-linecap:square;stroke-linejoin:miter;stroke-width:0.8;"/>
   </g>
   <g id="patch_6">
    <path d="M 57.6 41.472 
L 414.72 41.472 
" style="fill:none;stroke:#000000;stroke-linecap:square;stroke-linejoin:miter;stroke-width:0.8;"/>
   </g>
   <g id="legend_1">
    <g id="patch_7">
     <path d="M 14.652812 166.897 
L 407.72 166.897 
Q 409.72 166.897 409.72 164.897 
L 409.72 48.472 
Q 409.72 46.472 407.72 46.472 
L 14.652812 46.472 
Q 12.652812 46.472 12.652812 48.472 
L 12.652812 164.897 
Q 12.652812 166.897 14.652812 166.897 
z
" style="fill:#ffffff;opacity:0.8;stroke:#cccccc;stroke-linejoin:miter;"/>
    </g>
    <g id="line2d_23">
     <path d="M 16.652812 54.570438 
L 36.652812 54.570438 
" style="fill:none;stroke:#1f77b4;stroke-linecap:square;stroke-width:1.5;"/>
    </g>
    <g id="line2d_24"/>
    <g id="text_15">
     <!-- 5.2.17.ipstate-active-hwp.cinnamon.verifyxattr.warmup+main -->
     <defs>
      <path d="M 10.6875 12.40625 
L 21 12.40625 
L 21 0 
L 10.6875 0 
z
" id="DejaVuSans-46"/>
      <path d="M 9.421875 54.6875 
L 18.40625 54.6875 
L 18.40625 0 
L 9.421875 0 
z
M 9.421875 75.984375 
L 18.40625 75.984375 
L 18.40625 64.59375 
L 9.421875 64.59375 
z
" id="DejaVuSans-105"/>
      <path d="M 18.109375 8.203125 
L 18.109375 -20.796875 
L 9.078125 -20.796875 
L 9.078125 54.6875 
L 18.109375 54.6875 
L 18.109375 46.390625 
Q 20.953125 51.265625 25.265625 53.625 
Q 29.59375 56 35.59375 56 
Q 45.5625 56 51.78125 48.09375 
Q 58.015625 40.1875 58.015625 27.296875 
Q 58.015625 14.40625 51.78125 6.484375 
Q 45.5625 -1.421875 35.59375 -1.421875 
Q 29.59375 -1.421875 25.265625 0.953125 
Q 20.953125 3.328125 18.109375 8.203125 
z
M 48.6875 27.296875 
Q 48.6875 37.203125 44.609375 42.84375 
Q 40.53125 48.484375 33.40625 48.484375 
Q 26.265625 48.484375 22.1875 42.84375 
Q 18.109375 37.203125 18.109375 27.296875 
Q 18.109375 17.390625 22.1875 11.75 
Q 26.265625 6.109375 33.40625 6.109375 
Q 40.53125 6.109375 44.609375 11.75 
Q 48.6875 17.390625 48.6875 27.296875 
z
" id="DejaVuSans-112"/>
      <path d="M 44.28125 53.078125 
L 44.28125 44.578125 
Q 40.484375 46.53125 36.375 47.5 
Q 32.28125 48.484375 27.875 48.484375 
Q 21.1875 48.484375 17.84375 46.4375 
Q 14.5 44.390625 14.5 40.28125 
Q 14.5 37.15625 16.890625 35.375 
Q 19.28125 33.59375 26.515625 31.984375 
L 29.59375 31.296875 
Q 39.15625 29.25 43.1875 25.515625 
Q 47.21875 21.78125 47.21875 15.09375 
Q 47.21875 7.46875 41.1875 3.015625 
Q 35.15625 -1.421875 24.609375 -1.421875 
Q 20.21875 -1.421875 15.453125 -0.5625 
Q 10.6875 0.296875 5.421875 2 
L 5.421875 11.28125 
Q 10.40625 8.6875 15.234375 7.390625 
Q 20.0625 6.109375 24.8125 6.109375 
Q 31.15625 6.109375 34.5625 8.28125 
Q 37.984375 10.453125 37.984375 14.40625 
Q 37.984375 18.0625 35.515625 20.015625 
Q 33.0625 21.96875 24.703125 23.78125 
L 21.578125 24.515625 
Q 13.234375 26.265625 9.515625 29.90625 
Q 5.8125 33.546875 5.8125 39.890625 
Q 5.8125 47.609375 11.28125 51.796875 
Q 16.75 56 26.8125 56 
Q 31.78125 56 36.171875 55.265625 
Q 40.578125 54.546875 44.28125 53.078125 
z
" id="DejaVuSans-115"/>
      <path d="M 18.3125 70.21875 
L 18.3125 54.6875 
L 36.8125 54.6875 
L 36.8125 47.703125 
L 18.3125 47.703125 
L 18.3125 18.015625 
Q 18.3125 11.328125 20.140625 9.421875 
Q 21.96875 7.515625 27.59375 7.515625 
L 36.8125 7.515625 
L 36.8125 0 
L 27.59375 0 
Q 17.1875 0 13.234375 3.875 
Q 9.28125 7.765625 9.28125 18.015625 
L 9.28125 47.703125 
L 2.6875 47.703125 
L 2.6875 54.6875 
L 9.28125 54.6875 
L 9.28125 70.21875 
z
" id="DejaVuSans-116"/>
      <path d="M 34.28125 27.484375 
Q 23.390625 27.484375 19.1875 25 
Q 14.984375 22.515625 14.984375 16.5 
Q 14.984375 11.71875 18.140625 8.90625 
Q 21.296875 6.109375 26.703125 6.109375 
Q 34.1875 6.109375 38.703125 11.40625 
Q 43.21875 16.703125 43.21875 25.484375 
L 43.21875 27.484375 
z
M 52.203125 31.203125 
L 52.203125 0 
L 43.21875 0 
L 43.21875 8.296875 
Q 40.140625 3.328125 35.546875 0.953125 
Q 30.953125 -1.421875 24.3125 -1.421875 
Q 15.921875 -1.421875 10.953125 3.296875 
Q 6 8.015625 6 15.921875 
Q 6 25.140625 12.171875 29.828125 
Q 18.359375 34.515625 30.609375 34.515625 
L 43.21875 34.515625 
L 43.21875 35.40625 
Q 43.21875 41.609375 39.140625 45 
Q 35.0625 48.390625 27.6875 48.390625 
Q 23 48.390625 18.546875 47.265625 
Q 14.109375 46.140625 10.015625 43.890625 
L 10.015625 52.203125 
Q 14.9375 54.109375 19.578125 55.046875 
Q 24.21875 56 28.609375 56 
Q 40.484375 56 46.34375 49.84375 
Q 52.203125 43.703125 52.203125 31.203125 
z
" id="DejaVuSans-97"/>
      <path d="M 56.203125 29.59375 
L 56.203125 25.203125 
L 14.890625 25.203125 
Q 15.484375 15.921875 20.484375 11.0625 
Q 25.484375 6.203125 34.421875 6.203125 
Q 39.59375 6.203125 44.453125 7.46875 
Q 49.3125 8.734375 54.109375 11.28125 
L 54.109375 2.78125 
Q 49.265625 0.734375 44.1875 -0.34375 
Q 39.109375 -1.421875 33.890625 -1.421875 
Q 20.796875 -1.421875 13.15625 6.1875 
Q 5.515625 13.8125 5.515625 26.8125 
Q 5.515625 40.234375 12.765625 48.109375 
Q 20.015625 56 32.328125 56 
Q 43.359375 56 49.78125 48.890625 
Q 56.203125 41.796875 56.203125 29.59375 
z
M 47.21875 32.234375 
Q 47.125 39.59375 43.09375 43.984375 
Q 39.0625 48.390625 32.421875 48.390625 
Q 24.90625 48.390625 20.390625 44.140625 
Q 15.875 39.890625 15.1875 32.171875 
z
" id="DejaVuSans-101"/>
      <path d="M 4.890625 31.390625 
L 31.203125 31.390625 
L 31.203125 23.390625 
L 4.890625 23.390625 
z
" id="DejaVuSans-45"/>
      <path d="M 48.78125 52.59375 
L 48.78125 44.1875 
Q 44.96875 46.296875 41.140625 47.34375 
Q 37.3125 48.390625 33.40625 48.390625 
Q 24.65625 48.390625 19.8125 42.84375 
Q 14.984375 37.3125 14.984375 27.296875 
Q 14.984375 17.28125 19.8125 11.734375 
Q 24.65625 6.203125 33.40625 6.203125 
Q 37.3125 6.203125 41.140625 7.25 
Q 44.96875 8.296875 48.78125 10.40625 
L 48.78125 2.09375 
Q 45.015625 0.34375 40.984375 -0.53125 
Q 36.96875 -1.421875 32.421875 -1.421875 
Q 20.0625 -1.421875 12.78125 6.34375 
Q 5.515625 14.109375 5.515625 27.296875 
Q 5.515625 40.671875 12.859375 48.328125 
Q 20.21875 56 33.015625 56 
Q 37.15625 56 41.109375 55.140625 
Q 45.0625 54.296875 48.78125 52.59375 
z
" id="DejaVuSans-99"/>
      <path d="M 2.984375 54.6875 
L 12.5 54.6875 
L 29.59375 8.796875 
L 46.6875 54.6875 
L 56.203125 54.6875 
L 35.6875 0 
L 23.484375 0 
z
" id="DejaVuSans-118"/>
      <path d="M 54.890625 33.015625 
L 54.890625 0 
L 45.90625 0 
L 45.90625 32.71875 
Q 45.90625 40.484375 42.875 44.328125 
Q 39.84375 48.1875 33.796875 48.1875 
Q 26.515625 48.1875 22.3125 43.546875 
Q 18.109375 38.921875 18.109375 30.90625 
L 18.109375 0 
L 9.078125 0 
L 9.078125 75.984375 
L 18.109375 75.984375 
L 18.109375 46.1875 
Q 21.34375 51.125 25.703125 53.5625 
Q 30.078125 56 35.796875 56 
Q 45.21875 56 50.046875 50.171875 
Q 54.890625 44.34375 54.890625 33.015625 
z
" id="DejaVuSans-104"/>
      <path d="M 4.203125 54.6875 
L 13.1875 54.6875 
L 24.421875 12.015625 
L 35.59375 54.6875 
L 46.1875 54.6875 
L 57.421875 12.015625 
L 68.609375 54.6875 
L 77.59375 54.6875 
L 63.28125 0 
L 52.6875 0 
L 40.921875 44.828125 
L 29.109375 0 
L 18.5 0 
z
" id="DejaVuSans-119"/>
      <path d="M 54.890625 33.015625 
L 54.890625 0 
L 45.90625 0 
L 45.90625 32.71875 
Q 45.90625 40.484375 42.875 44.328125 
Q 39.84375 48.1875 33.796875 48.1875 
Q 26.515625 48.1875 22.3125 43.546875 
Q 18.109375 38.921875 18.109375 30.90625 
L 18.109375 0 
L 9.078125 0 
L 9.078125 54.6875 
L 18.109375 54.6875 
L 18.109375 46.1875 
Q 21.34375 51.125 25.703125 53.5625 
Q 30.078125 56 35.796875 56 
Q 45.21875 56 50.046875 50.171875 
Q 54.890625 44.34375 54.890625 33.015625 
z
" id="DejaVuSans-110"/>
      <path d="M 52 44.1875 
Q 55.375 50.25 60.0625 53.125 
Q 64.75 56 71.09375 56 
Q 79.640625 56 84.28125 50.015625 
Q 88.921875 44.046875 88.921875 33.015625 
L 88.921875 0 
L 79.890625 0 
L 79.890625 32.71875 
Q 79.890625 40.578125 77.09375 44.375 
Q 74.3125 48.1875 68.609375 48.1875 
Q 61.625 48.1875 57.5625 43.546875 
Q 53.515625 38.921875 53.515625 30.90625 
L 53.515625 0 
L 44.484375 0 
L 44.484375 32.71875 
Q 44.484375 40.625 41.703125 44.40625 
Q 38.921875 48.1875 33.109375 48.1875 
Q 26.21875 48.1875 22.15625 43.53125 
Q 18.109375 38.875 18.109375 30.90625 
L 18.109375 0 
L 9.078125 0 
L 9.078125 54.6875 
L 18.109375 54.6875 
L 18.109375 46.1875 
Q 21.1875 51.21875 25.484375 53.609375 
Q 29.78125 56 35.6875 56 
Q 41.65625 56 45.828125 52.96875 
Q 50 49.953125 52 44.1875 
z
" id="DejaVuSans-109"/>
      <path d="M 30.609375 48.390625 
Q 23.390625 48.390625 19.1875 42.75 
Q 14.984375 37.109375 14.984375 27.296875 
Q 14.984375 17.484375 19.15625 11.84375 
Q 23.34375 6.203125 30.609375 6.203125 
Q 37.796875 6.203125 41.984375 11.859375 
Q 46.1875 17.53125 46.1875 27.296875 
Q 46.1875 37.015625 41.984375 42.703125 
Q 37.796875 48.390625 30.609375 48.390625 
z
M 30.609375 56 
Q 42.328125 56 49.015625 48.375 
Q 55.71875 40.765625 55.71875 27.296875 
Q 55.71875 13.875 49.015625 6.21875 
Q 42.328125 -1.421875 30.609375 -1.421875 
Q 18.84375 -1.421875 12.171875 6.21875 
Q 5.515625 13.875 5.515625 27.296875 
Q 5.515625 40.765625 12.171875 48.375 
Q 18.84375 56 30.609375 56 
z
" id="DejaVuSans-111"/>
      <path d="M 41.109375 46.296875 
Q 39.59375 47.171875 37.8125 47.578125 
Q 36.03125 48 33.890625 48 
Q 26.265625 48 22.1875 43.046875 
Q 18.109375 38.09375 18.109375 28.8125 
L 18.109375 0 
L 9.078125 0 
L 9.078125 54.6875 
L 18.109375 54.6875 
L 18.109375 46.1875 
Q 20.953125 51.171875 25.484375 53.578125 
Q 30.03125 56 36.53125 56 
Q 37.453125 56 38.578125 55.875 
Q 39.703125 55.765625 41.0625 55.515625 
z
" id="DejaVuSans-114"/>
      <path d="M 37.109375 75.984375 
L 37.109375 68.5 
L 28.515625 68.5 
Q 23.6875 68.5 21.796875 66.546875 
Q 19.921875 64.59375 19.921875 59.515625 
L 19.921875 54.6875 
L 34.71875 54.6875 
L 34.71875 47.703125 
L 19.921875 47.703125 
L 19.921875 0 
L 10.890625 0 
L 10.890625 47.703125 
L 2.296875 47.703125 
L 2.296875 54.6875 
L 10.890625 54.6875 
L 10.890625 58.5 
Q 10.890625 67.625 15.140625 71.796875 
Q 19.390625 75.984375 28.609375 75.984375 
z
" id="DejaVuSans-102"/>
      <path d="M 32.171875 -5.078125 
Q 28.375 -14.84375 24.75 -17.8125 
Q 21.140625 -20.796875 15.09375 -20.796875 
L 7.90625 -20.796875 
L 7.90625 -13.28125 
L 13.1875 -13.28125 
Q 16.890625 -13.28125 18.9375 -11.515625 
Q 21 -9.765625 23.484375 -3.21875 
L 25.09375 0.875 
L 2.984375 54.6875 
L 12.5 54.6875 
L 29.59375 11.921875 
L 46.6875 54.6875 
L 56.203125 54.6875 
z
" id="DejaVuSans-121"/>
      <path d="M 54.890625 54.6875 
L 35.109375 28.078125 
L 55.90625 0 
L 45.3125 0 
L 29.390625 21.484375 
L 13.484375 0 
L 2.875 0 
L 24.125 28.609375 
L 4.6875 54.6875 
L 15.28125 54.6875 
L 29.78125 35.203125 
L 44.28125 54.6875 
z
" id="DejaVuSans-120"/>
      <path d="M 8.5 21.578125 
L 8.5 54.6875 
L 17.484375 54.6875 
L 17.484375 21.921875 
Q 17.484375 14.15625 20.5 10.265625 
Q 23.53125 6.390625 29.59375 6.390625 
Q 36.859375 6.390625 41.078125 11.03125 
Q 45.3125 15.671875 45.3125 23.6875 
L 45.3125 54.6875 
L 54.296875 54.6875 
L 54.296875 0 
L 45.3125 0 
L 45.3125 8.40625 
Q 42.046875 3.421875 37.71875 1 
Q 33.40625 -1.421875 27.6875 -1.421875 
Q 18.265625 -1.421875 13.375 4.4375 
Q 8.5 10.296875 8.5 21.578125 
z
M 31.109375 56 
z
" id="DejaVuSans-117"/>
      <path d="M 46 62.703125 
L 46 35.5 
L 73.1875 35.5 
L 73.1875 27.203125 
L 46 27.203125 
L 46 0 
L 37.796875 0 
L 37.796875 27.203125 
L 10.59375 27.203125 
L 10.59375 35.5 
L 37.796875 35.5 
L 37.796875 62.703125 
z
" id="DejaVuSans-43"/>
     </defs>
     <g transform="translate(44.652812 58.070438)scale(0.1 -0.1)">
      <use xlink:href="#DejaVuSans-53"/>
      <use x="63.623047" xlink:href="#DejaVuSans-46"/>
      <use x="95.410156" xlink:href="#DejaVuSans-50"/>
      <use x="159.033203" xlink:href="#DejaVuSans-46"/>
      <use x="190.820312" xlink:href="#DejaVuSans-49"/>
      <use x="254.443359" xlink:href="#DejaVuSans-55"/>
      <use x="318.066406" xlink:href="#DejaVuSans-46"/>
      <use x="349.853516" xlink:href="#DejaVuSans-105"/>
      <use x="377.636719" xlink:href="#DejaVuSans-112"/>
      <use x="441.113281" xlink:href="#DejaVuSans-115"/>
      <use x="493.212891" xlink:href="#DejaVuSans-116"/>
      <use x="532.421875" xlink:href="#DejaVuSans-97"/>
      <use x="593.701172" xlink:href="#DejaVuSans-116"/>
      <use x="632.910156" xlink:href="#DejaVuSans-101"/>
      <use x="694.433594" xlink:href="#DejaVuSans-45"/>
      <use x="730.517578" xlink:href="#DejaVuSans-97"/>
      <use x="791.796875" xlink:href="#DejaVuSans-99"/>
      <use x="846.777344" xlink:href="#DejaVuSans-116"/>
      <use x="885.986328" xlink:href="#DejaVuSans-105"/>
      <use x="913.769531" xlink:href="#DejaVuSans-118"/>
      <use x="972.949219" xlink:href="#DejaVuSans-101"/>
      <use x="1034.472656" xlink:href="#DejaVuSans-45"/>
      <use x="1070.556641" xlink:href="#DejaVuSans-104"/>
      <use x="1133.935547" xlink:href="#DejaVuSans-119"/>
      <use x="1215.722656" xlink:href="#DejaVuSans-112"/>
      <use x="1279.199219" xlink:href="#DejaVuSans-46"/>
      <use x="1310.986328" xlink:href="#DejaVuSans-99"/>
      <use x="1365.966797" xlink:href="#DejaVuSans-105"/>
      <use x="1393.75" xlink:href="#DejaVuSans-110"/>
      <use x="1457.128906" xlink:href="#DejaVuSans-110"/>
      <use x="1520.507812" xlink:href="#DejaVuSans-97"/>
      <use x="1581.787109" xlink:href="#DejaVuSans-109"/>
      <use x="1679.199219" xlink:href="#DejaVuSans-111"/>
      <use x="1740.380859" xlink:href="#DejaVuSans-110"/>
      <use x="1803.759766" xlink:href="#DejaVuSans-46"/>
      <use x="1835.546875" xlink:href="#DejaVuSans-118"/>
      <use x="1894.726562" xlink:href="#DejaVuSans-101"/>
      <use x="1956.25" xlink:href="#DejaVuSans-114"/>
      <use x="1997.363281" xlink:href="#DejaVuSans-105"/>
      <use x="2025.146484" xlink:href="#DejaVuSans-102"/>
      <use x="2058.601562" xlink:href="#DejaVuSans-121"/>
      <use x="2117.78125" xlink:href="#DejaVuSans-120"/>
      <use x="2176.960938" xlink:href="#DejaVuSans-97"/>
      <use x="2238.240234" xlink:href="#DejaVuSans-116"/>
      <use x="2277.449219" xlink:href="#DejaVuSans-116"/>
      <use x="2316.658203" xlink:href="#DejaVuSans-114"/>
      <use x="2348.646484" xlink:href="#DejaVuSans-46"/>
      <use x="2380.433594" xlink:href="#DejaVuSans-119"/>
      <use x="2462.220703" xlink:href="#DejaVuSans-97"/>
      <use x="2523.5" xlink:href="#DejaVuSans-114"/>
      <use x="2562.863281" xlink:href="#DejaVuSans-109"/>
      <use x="2660.275391" xlink:href="#DejaVuSans-117"/>
      <use x="2723.654297" xlink:href="#DejaVuSans-112"/>
      <use x="2787.130859" xlink:href="#DejaVuSans-43"/>
      <use x="2870.919922" xlink:href="#DejaVuSans-109"/>
      <use x="2968.332031" xlink:href="#DejaVuSans-97"/>
      <use x="3029.611328" xlink:href="#DejaVuSans-105"/>
      <use x="3057.394531" xlink:href="#DejaVuSans-110"/>
     </g>
    </g>
    <g id="line2d_25">
     <path d="M 16.652812 69.248563 
L 36.652812 69.248563 
" style="fill:none;stroke:#ff7f0e;stroke-linecap:square;stroke-width:1.5;"/>
    </g>
    <g id="line2d_26"/>
    <g id="text_16">
     <!-- 5.2.17.ipstate-active-hwp.gnome-shell-classic.verifyxattr.warmup+main -->
     <defs>
      <path d="M 45.40625 27.984375 
Q 45.40625 37.75 41.375 43.109375 
Q 37.359375 48.484375 30.078125 48.484375 
Q 22.859375 48.484375 18.828125 43.109375 
Q 14.796875 37.75 14.796875 27.984375 
Q 14.796875 18.265625 18.828125 12.890625 
Q 22.859375 7.515625 30.078125 7.515625 
Q 37.359375 7.515625 41.375 12.890625 
Q 45.40625 18.265625 45.40625 27.984375 
z
M 54.390625 6.78125 
Q 54.390625 -7.171875 48.1875 -13.984375 
Q 42 -20.796875 29.203125 -20.796875 
Q 24.46875 -20.796875 20.265625 -20.09375 
Q 16.0625 -19.390625 12.109375 -17.921875 
L 12.109375 -9.1875 
Q 16.0625 -11.328125 19.921875 -12.34375 
Q 23.78125 -13.375 27.78125 -13.375 
Q 36.625 -13.375 41.015625 -8.765625 
Q 45.40625 -4.15625 45.40625 5.171875 
L 45.40625 9.625 
Q 42.625 4.78125 38.28125 2.390625 
Q 33.9375 0 27.875 0 
Q 17.828125 0 11.671875 7.65625 
Q 5.515625 15.328125 5.515625 27.984375 
Q 5.515625 40.671875 11.671875 48.328125 
Q 17.828125 56 27.875 56 
Q 33.9375 56 38.28125 53.609375 
Q 42.625 51.21875 45.40625 46.390625 
L 45.40625 54.6875 
L 54.390625 54.6875 
z
" id="DejaVuSans-103"/>
      <path d="M 9.421875 75.984375 
L 18.40625 75.984375 
L 18.40625 0 
L 9.421875 0 
z
" id="DejaVuSans-108"/>
     </defs>
     <g transform="translate(44.652812 72.748563)scale(0.1 -0.1)">
      <use xlink:href="#DejaVuSans-53"/>
      <use x="63.623047" xlink:href="#DejaVuSans-46"/>
      <use x="95.410156" xlink:href="#DejaVuSans-50"/>
      <use x="159.033203" xlink:href="#DejaVuSans-46"/>
      <use x="190.820312" xlink:href="#DejaVuSans-49"/>
      <use x="254.443359" xlink:href="#DejaVuSans-55"/>
      <use x="318.066406" xlink:href="#DejaVuSans-46"/>
      <use x="349.853516" xlink:href="#DejaVuSans-105"/>
      <use x="377.636719" xlink:href="#DejaVuSans-112"/>
      <use x="441.113281" xlink:href="#DejaVuSans-115"/>
      <use x="493.212891" xlink:href="#DejaVuSans-116"/>
      <use x="532.421875" xlink:href="#DejaVuSans-97"/>
      <use x="593.701172" xlink:href="#DejaVuSans-116"/>
      <use x="632.910156" xlink:href="#DejaVuSans-101"/>
      <use x="694.433594" xlink:href="#DejaVuSans-45"/>
      <use x="730.517578" xlink:href="#DejaVuSans-97"/>
      <use x="791.796875" xlink:href="#DejaVuSans-99"/>
      <use x="846.777344" xlink:href="#DejaVuSans-116"/>
      <use x="885.986328" xlink:href="#DejaVuSans-105"/>
      <use x="913.769531" xlink:href="#DejaVuSans-118"/>
      <use x="972.949219" xlink:href="#DejaVuSans-101"/>
      <use x="1034.472656" xlink:href="#DejaVuSans-45"/>
      <use x="1070.556641" xlink:href="#DejaVuSans-104"/>
      <use x="1133.935547" xlink:href="#DejaVuSans-119"/>
      <use x="1215.722656" xlink:href="#DejaVuSans-112"/>
      <use x="1279.199219" xlink:href="#DejaVuSans-46"/>
      <use x="1310.986328" xlink:href="#DejaVuSans-103"/>
      <use x="1374.462891" xlink:href="#DejaVuSans-110"/>
      <use x="1437.841797" xlink:href="#DejaVuSans-111"/>
      <use x="1499.023438" xlink:href="#DejaVuSans-109"/>
      <use x="1596.435547" xlink:href="#DejaVuSans-101"/>
      <use x="1657.958984" xlink:href="#DejaVuSans-45"/>
      <use x="1694.042969" xlink:href="#DejaVuSans-115"/>
      <use x="1746.142578" xlink:href="#DejaVuSans-104"/>
      <use x="1809.521484" xlink:href="#DejaVuSans-101"/>
      <use x="1871.044922" xlink:href="#DejaVuSans-108"/>
      <use x="1898.828125" xlink:href="#DejaVuSans-108"/>
      <use x="1926.611328" xlink:href="#DejaVuSans-45"/>
      <use x="1962.695312" xlink:href="#DejaVuSans-99"/>
      <use x="2017.675781" xlink:href="#DejaVuSans-108"/>
      <use x="2045.458984" xlink:href="#DejaVuSans-97"/>
      <use x="2106.738281" xlink:href="#DejaVuSans-115"/>
      <use x="2158.837891" xlink:href="#DejaVuSans-115"/>
      <use x="2210.9375" xlink:href="#DejaVuSans-105"/>
      <use x="2238.720703" xlink:href="#DejaVuSans-99"/>
      <use x="2293.701172" xlink:href="#DejaVuSans-46"/>
      <use x="2325.488281" xlink:href="#DejaVuSans-118"/>
      <use x="2384.667969" xlink:href="#DejaVuSans-101"/>
      <use x="2446.191406" xlink:href="#DejaVuSans-114"/>
      <use x="2487.304688" xlink:href="#DejaVuSans-105"/>
      <use x="2515.087891" xlink:href="#DejaVuSans-102"/>
      <use x="2548.542969" xlink:href="#DejaVuSans-121"/>
      <use x="2607.722656" xlink:href="#DejaVuSans-120"/>
      <use x="2666.902344" xlink:href="#DejaVuSans-97"/>
      <use x="2728.181641" xlink:href="#DejaVuSans-116"/>
      <use x="2767.390625" xlink:href="#DejaVuSans-116"/>
      <use x="2806.599609" xlink:href="#DejaVuSans-114"/>
      <use x="2838.587891" xlink:href="#DejaVuSans-46"/>
      <use x="2870.375" xlink:href="#DejaVuSans-119"/>
      <use x="2952.162109" xlink:href="#DejaVuSans-97"/>
      <use x="3013.441406" xlink:href="#DejaVuSans-114"/>
      <use x="3052.804688" xlink:href="#DejaVuSans-109"/>
      <use x="3150.216797" xlink:href="#DejaVuSans-117"/>
      <use x="3213.595703" xlink:href="#DejaVuSans-112"/>
      <use x="3277.072266" xlink:href="#DejaVuSans-43"/>
      <use x="3360.861328" xlink:href="#DejaVuSans-109"/>
      <use x="3458.273438" xlink:href="#DejaVuSans-97"/>
      <use x="3519.552734" xlink:href="#DejaVuSans-105"/>
      <use x="3547.335938" xlink:href="#DejaVuSans-110"/>
     </g>
    </g>
    <g id="line2d_27">
     <path d="M 16.652812 83.926688 
L 36.652812 83.926688 
" style="fill:none;stroke:#2ca02c;stroke-linecap:square;stroke-width:1.5;"/>
    </g>
    <g id="line2d_28"/>
    <g id="text_17">
     <!-- 5.2.17.ipstate-disable.cinnamon.verifyxattr.warmup+main -->
     <defs>
      <path d="M 45.40625 46.390625 
L 45.40625 75.984375 
L 54.390625 75.984375 
L 54.390625 0 
L 45.40625 0 
L 45.40625 8.203125 
Q 42.578125 3.328125 38.25 0.953125 
Q 33.9375 -1.421875 27.875 -1.421875 
Q 17.96875 -1.421875 11.734375 6.484375 
Q 5.515625 14.40625 5.515625 27.296875 
Q 5.515625 40.1875 11.734375 48.09375 
Q 17.96875 56 27.875 56 
Q 33.9375 56 38.25 53.625 
Q 42.578125 51.265625 45.40625 46.390625 
z
M 14.796875 27.296875 
Q 14.796875 17.390625 18.875 11.75 
Q 22.953125 6.109375 30.078125 6.109375 
Q 37.203125 6.109375 41.296875 11.75 
Q 45.40625 17.390625 45.40625 27.296875 
Q 45.40625 37.203125 41.296875 42.84375 
Q 37.203125 48.484375 30.078125 48.484375 
Q 22.953125 48.484375 18.875 42.84375 
Q 14.796875 37.203125 14.796875 27.296875 
z
" id="DejaVuSans-100"/>
      <path d="M 48.6875 27.296875 
Q 48.6875 37.203125 44.609375 42.84375 
Q 40.53125 48.484375 33.40625 48.484375 
Q 26.265625 48.484375 22.1875 42.84375 
Q 18.109375 37.203125 18.109375 27.296875 
Q 18.109375 17.390625 22.1875 11.75 
Q 26.265625 6.109375 33.40625 6.109375 
Q 40.53125 6.109375 44.609375 11.75 
Q 48.6875 17.390625 48.6875 27.296875 
z
M 18.109375 46.390625 
Q 20.953125 51.265625 25.265625 53.625 
Q 29.59375 56 35.59375 56 
Q 45.5625 56 51.78125 48.09375 
Q 58.015625 40.1875 58.015625 27.296875 
Q 58.015625 14.40625 51.78125 6.484375 
Q 45.5625 -1.421875 35.59375 -1.421875 
Q 29.59375 -1.421875 25.265625 0.953125 
Q 20.953125 3.328125 18.109375 8.203125 
L 18.109375 0 
L 9.078125 0 
L 9.078125 75.984375 
L 18.109375 75.984375 
z
" id="DejaVuSans-98"/>
     </defs>
     <g transform="translate(44.652812 87.426688)scale(0.1 -0.1)">
      <use xlink:href="#DejaVuSans-53"/>
      <use x="63.623047" xlink:href="#DejaVuSans-46"/>
      <use x="95.410156" xlink:href="#DejaVuSans-50"/>
      <use x="159.033203" xlink:href="#DejaVuSans-46"/>
      <use x="190.820312" xlink:href="#DejaVuSans-49"/>
      <use x="254.443359" xlink:href="#DejaVuSans-55"/>
      <use x="318.066406" xlink:href="#DejaVuSans-46"/>
      <use x="349.853516" xlink:href="#DejaVuSans-105"/>
      <use x="377.636719" xlink:href="#DejaVuSans-112"/>
      <use x="441.113281" xlink:href="#DejaVuSans-115"/>
      <use x="493.212891" xlink:href="#DejaVuSans-116"/>
      <use x="532.421875" xlink:href="#DejaVuSans-97"/>
      <use x="593.701172" xlink:href="#DejaVuSans-116"/>
      <use x="632.910156" xlink:href="#DejaVuSans-101"/>
      <use x="694.433594" xlink:href="#DejaVuSans-45"/>
      <use x="730.517578" xlink:href="#DejaVuSans-100"/>
      <use x="793.994141" xlink:href="#DejaVuSans-105"/>
      <use x="821.777344" xlink:href="#DejaVuSans-115"/>
      <use x="873.876953" xlink:href="#DejaVuSans-97"/>
      <use x="935.15625" xlink:href="#DejaVuSans-98"/>
      <use x="998.632812" xlink:href="#DejaVuSans-108"/>
      <use x="1026.416016" xlink:href="#DejaVuSans-101"/>
      <use x="1087.939453" xlink:href="#DejaVuSans-46"/>
      <use x="1119.726562" xlink:href="#DejaVuSans-99"/>
      <use x="1174.707031" xlink:href="#DejaVuSans-105"/>
      <use x="1202.490234" xlink:href="#DejaVuSans-110"/>
      <use x="1265.869141" xlink:href="#DejaVuSans-110"/>
      <use x="1329.248047" xlink:href="#DejaVuSans-97"/>
      <use x="1390.527344" xlink:href="#DejaVuSans-109"/>
      <use x="1487.939453" xlink:href="#DejaVuSans-111"/>
      <use x="1549.121094" xlink:href="#DejaVuSans-110"/>
      <use x="1612.5" xlink:href="#DejaVuSans-46"/>
      <use x="1644.287109" xlink:href="#DejaVuSans-118"/>
      <use x="1703.466797" xlink:href="#DejaVuSans-101"/>
      <use x="1764.990234" xlink:href="#DejaVuSans-114"/>
      <use x="1806.103516" xlink:href="#DejaVuSans-105"/>
      <use x="1833.886719" xlink:href="#DejaVuSans-102"/>
      <use x="1867.341797" xlink:href="#DejaVuSans-121"/>
      <use x="1926.521484" xlink:href="#DejaVuSans-120"/>
      <use x="1985.701172" xlink:href="#DejaVuSans-97"/>
      <use x="2046.980469" xlink:href="#DejaVuSans-116"/>
      <use x="2086.189453" xlink:href="#DejaVuSans-116"/>
      <use x="2125.398438" xlink:href="#DejaVuSans-114"/>
      <use x="2157.386719" xlink:href="#DejaVuSans-46"/>
      <use x="2189.173828" xlink:href="#DejaVuSans-119"/>
      <use x="2270.960938" xlink:href="#DejaVuSans-97"/>
      <use x="2332.240234" xlink:href="#DejaVuSans-114"/>
      <use x="2371.603516" xlink:href="#DejaVuSans-109"/>
      <use x="2469.015625" xlink:href="#DejaVuSans-117"/>
      <use x="2532.394531" xlink:href="#DejaVuSans-112"/>
      <use x="2595.871094" xlink:href="#DejaVuSans-43"/>
      <use x="2679.660156" xlink:href="#DejaVuSans-109"/>
      <use x="2777.072266" xlink:href="#DejaVuSans-97"/>
      <use x="2838.351562" xlink:href="#DejaVuSans-105"/>
      <use x="2866.134766" xlink:href="#DejaVuSans-110"/>
     </g>
    </g>
    <g id="line2d_29">
     <path d="M 16.652812 98.604813 
L 36.652812 98.604813 
" style="fill:none;stroke:#d62728;stroke-linecap:square;stroke-width:1.5;"/>
    </g>
    <g id="line2d_30"/>
    <g id="text_18">
     <!-- 5.2.17.ipstate-disable.gnome-shell-classic.verifyxattr.warmup+main -->
     <g transform="translate(44.652812 102.104813)scale(0.1 -0.1)">
      <use xlink:href="#DejaVuSans-53"/>
      <use x="63.623047" xlink:href="#DejaVuSans-46"/>
      <use x="95.410156" xlink:href="#DejaVuSans-50"/>
      <use x="159.033203" xlink:href="#DejaVuSans-46"/>
      <use x="190.820312" xlink:href="#DejaVuSans-49"/>
      <use x="254.443359" xlink:href="#DejaVuSans-55"/>
      <use x="318.066406" xlink:href="#DejaVuSans-46"/>
      <use x="349.853516" xlink:href="#DejaVuSans-105"/>
      <use x="377.636719" xlink:href="#DejaVuSans-112"/>
      <use x="441.113281" xlink:href="#DejaVuSans-115"/>
      <use x="493.212891" xlink:href="#DejaVuSans-116"/>
      <use x="532.421875" xlink:href="#DejaVuSans-97"/>
      <use x="593.701172" xlink:href="#DejaVuSans-116"/>
      <use x="632.910156" xlink:href="#DejaVuSans-101"/>
      <use x="694.433594" xlink:href="#DejaVuSans-45"/>
      <use x="730.517578" xlink:href="#DejaVuSans-100"/>
      <use x="793.994141" xlink:href="#DejaVuSans-105"/>
      <use x="821.777344" xlink:href="#DejaVuSans-115"/>
      <use x="873.876953" xlink:href="#DejaVuSans-97"/>
      <use x="935.15625" xlink:href="#DejaVuSans-98"/>
      <use x="998.632812" xlink:href="#DejaVuSans-108"/>
      <use x="1026.416016" xlink:href="#DejaVuSans-101"/>
      <use x="1087.939453" xlink:href="#DejaVuSans-46"/>
      <use x="1119.726562" xlink:href="#DejaVuSans-103"/>
      <use x="1183.203125" xlink:href="#DejaVuSans-110"/>
      <use x="1246.582031" xlink:href="#DejaVuSans-111"/>
      <use x="1307.763672" xlink:href="#DejaVuSans-109"/>
      <use x="1405.175781" xlink:href="#DejaVuSans-101"/>
      <use x="1466.699219" xlink:href="#DejaVuSans-45"/>
      <use x="1502.783203" xlink:href="#DejaVuSans-115"/>
      <use x="1554.882812" xlink:href="#DejaVuSans-104"/>
      <use x="1618.261719" xlink:href="#DejaVuSans-101"/>
      <use x="1679.785156" xlink:href="#DejaVuSans-108"/>
      <use x="1707.568359" xlink:href="#DejaVuSans-108"/>
      <use x="1735.351562" xlink:href="#DejaVuSans-45"/>
      <use x="1771.435547" xlink:href="#DejaVuSans-99"/>
      <use x="1826.416016" xlink:href="#DejaVuSans-108"/>
      <use x="1854.199219" xlink:href="#DejaVuSans-97"/>
      <use x="1915.478516" xlink:href="#DejaVuSans-115"/>
      <use x="1967.578125" xlink:href="#DejaVuSans-115"/>
      <use x="2019.677734" xlink:href="#DejaVuSans-105"/>
      <use x="2047.460938" xlink:href="#DejaVuSans-99"/>
      <use x="2102.441406" xlink:href="#DejaVuSans-46"/>
      <use x="2134.228516" xlink:href="#DejaVuSans-118"/>
      <use x="2193.408203" xlink:href="#DejaVuSans-101"/>
      <use x="2254.931641" xlink:href="#DejaVuSans-114"/>
      <use x="2296.044922" xlink:href="#DejaVuSans-105"/>
      <use x="2323.828125" xlink:href="#DejaVuSans-102"/>
      <use x="2357.283203" xlink:href="#DejaVuSans-121"/>
      <use x="2416.462891" xlink:href="#DejaVuSans-120"/>
      <use x="2475.642578" xlink:href="#DejaVuSans-97"/>
      <use x="2536.921875" xlink:href="#DejaVuSans-116"/>
      <use x="2576.130859" xlink:href="#DejaVuSans-116"/>
      <use x="2615.339844" xlink:href="#DejaVuSans-114"/>
      <use x="2647.328125" xlink:href="#DejaVuSans-46"/>
      <use x="2679.115234" xlink:href="#DejaVuSans-119"/>
      <use x="2760.902344" xlink:href="#DejaVuSans-97"/>
      <use x="2822.181641" xlink:href="#DejaVuSans-114"/>
      <use x="2861.544922" xlink:href="#DejaVuSans-109"/>
      <use x="2958.957031" xlink:href="#DejaVuSans-117"/>
      <use x="3022.335938" xlink:href="#DejaVuSans-112"/>
      <use x="3085.8125" xlink:href="#DejaVuSans-43"/>
      <use x="3169.601562" xlink:href="#DejaVuSans-109"/>
      <use x="3267.013672" xlink:href="#DejaVuSans-97"/>
      <use x="3328.292969" xlink:href="#DejaVuSans-105"/>
      <use x="3356.076172" xlink:href="#DejaVuSans-110"/>
     </g>
    </g>
    <g id="line2d_31">
     <path d="M 16.652812 113.282938 
L 36.652812 113.282938 
" style="fill:none;stroke:#9467bd;stroke-linecap:square;stroke-width:1.5;"/>
    </g>
    <g id="line2d_32"/>
    <g id="text_19">
     <!-- 5.5.13.ipstate-active-hwp.cinnamon.verifyxattr.warmup+main -->
     <defs>
      <path d="M 40.578125 39.3125 
Q 47.65625 37.796875 51.625 33 
Q 55.609375 28.21875 55.609375 21.1875 
Q 55.609375 10.40625 48.1875 4.484375 
Q 40.765625 -1.421875 27.09375 -1.421875 
Q 22.515625 -1.421875 17.65625 -0.515625 
Q 12.796875 0.390625 7.625 2.203125 
L 7.625 11.71875 
Q 11.71875 9.328125 16.59375 8.109375 
Q 21.484375 6.890625 26.8125 6.890625 
Q 36.078125 6.890625 40.9375 10.546875 
Q 45.796875 14.203125 45.796875 21.1875 
Q 45.796875 27.640625 41.28125 31.265625 
Q 36.765625 34.90625 28.71875 34.90625 
L 20.21875 34.90625 
L 20.21875 43.015625 
L 29.109375 43.015625 
Q 36.375 43.015625 40.234375 45.921875 
Q 44.09375 48.828125 44.09375 54.296875 
Q 44.09375 59.90625 40.109375 62.90625 
Q 36.140625 65.921875 28.71875 65.921875 
Q 24.65625 65.921875 20.015625 65.03125 
Q 15.375 64.15625 9.8125 62.3125 
L 9.8125 71.09375 
Q 15.4375 72.65625 20.34375 73.4375 
Q 25.25 74.21875 29.59375 74.21875 
Q 40.828125 74.21875 47.359375 69.109375 
Q 53.90625 64.015625 53.90625 55.328125 
Q 53.90625 49.265625 50.4375 45.09375 
Q 46.96875 40.921875 40.578125 39.3125 
z
" id="DejaVuSans-51"/>
     </defs>
     <g transform="translate(44.652812 116.782938)scale(0.1 -0.1)">
      <use xlink:href="#DejaVuSans-53"/>
      <use x="63.623047" xlink:href="#DejaVuSans-46"/>
      <use x="95.410156" xlink:href="#DejaVuSans-53"/>
      <use x="159.033203" xlink:href="#DejaVuSans-46"/>
      <use x="190.820312" xlink:href="#DejaVuSans-49"/>
      <use x="254.443359" xlink:href="#DejaVuSans-51"/>
      <use x="318.066406" xlink:href="#DejaVuSans-46"/>
      <use x="349.853516" xlink:href="#DejaVuSans-105"/>
      <use x="377.636719" xlink:href="#DejaVuSans-112"/>
      <use x="441.113281" xlink:href="#DejaVuSans-115"/>
      <use x="493.212891" xlink:href="#DejaVuSans-116"/>
      <use x="532.421875" xlink:href="#DejaVuSans-97"/>
      <use x="593.701172" xlink:href="#DejaVuSans-116"/>
      <use x="632.910156" xlink:href="#DejaVuSans-101"/>
      <use x="694.433594" xlink:href="#DejaVuSans-45"/>
      <use x="730.517578" xlink:href="#DejaVuSans-97"/>
      <use x="791.796875" xlink:href="#DejaVuSans-99"/>
      <use x="846.777344" xlink:href="#DejaVuSans-116"/>
      <use x="885.986328" xlink:href="#DejaVuSans-105"/>
      <use x="913.769531" xlink:href="#DejaVuSans-118"/>
      <use x="972.949219" xlink:href="#DejaVuSans-101"/>
      <use x="1034.472656" xlink:href="#DejaVuSans-45"/>
      <use x="1070.556641" xlink:href="#DejaVuSans-104"/>
      <use x="1133.935547" xlink:href="#DejaVuSans-119"/>
      <use x="1215.722656" xlink:href="#DejaVuSans-112"/>
      <use x="1279.199219" xlink:href="#DejaVuSans-46"/>
      <use x="1310.986328" xlink:href="#DejaVuSans-99"/>
      <use x="1365.966797" xlink:href="#DejaVuSans-105"/>
      <use x="1393.75" xlink:href="#DejaVuSans-110"/>
      <use x="1457.128906" xlink:href="#DejaVuSans-110"/>
      <use x="1520.507812" xlink:href="#DejaVuSans-97"/>
      <use x="1581.787109" xlink:href="#DejaVuSans-109"/>
      <use x="1679.199219" xlink:href="#DejaVuSans-111"/>
      <use x="1740.380859" xlink:href="#DejaVuSans-110"/>
      <use x="1803.759766" xlink:href="#DejaVuSans-46"/>
      <use x="1835.546875" xlink:href="#DejaVuSans-118"/>
      <use x="1894.726562" xlink:href="#DejaVuSans-101"/>
      <use x="1956.25" xlink:href="#DejaVuSans-114"/>
      <use x="1997.363281" xlink:href="#DejaVuSans-105"/>
      <use x="2025.146484" xlink:href="#DejaVuSans-102"/>
      <use x="2058.601562" xlink:href="#DejaVuSans-121"/>
      <use x="2117.78125" xlink:href="#DejaVuSans-120"/>
      <use x="2176.960938" xlink:href="#DejaVuSans-97"/>
      <use x="2238.240234" xlink:href="#DejaVuSans-116"/>
      <use x="2277.449219" xlink:href="#DejaVuSans-116"/>
      <use x="2316.658203" xlink:href="#DejaVuSans-114"/>
      <use x="2348.646484" xlink:href="#DejaVuSans-46"/>
      <use x="2380.433594" xlink:href="#DejaVuSans-119"/>
      <use x="2462.220703" xlink:href="#DejaVuSans-97"/>
      <use x="2523.5" xlink:href="#DejaVuSans-114"/>
      <use x="2562.863281" xlink:href="#DejaVuSans-109"/>
      <use x="2660.275391" xlink:href="#DejaVuSans-117"/>
      <use x="2723.654297" xlink:href="#DejaVuSans-112"/>
      <use x="2787.130859" xlink:href="#DejaVuSans-43"/>
      <use x="2870.919922" xlink:href="#DejaVuSans-109"/>
      <use x="2968.332031" xlink:href="#DejaVuSans-97"/>
      <use x="3029.611328" xlink:href="#DejaVuSans-105"/>
      <use x="3057.394531" xlink:href="#DejaVuSans-110"/>
     </g>
    </g>
    <g id="line2d_33">
     <path d="M 16.652812 127.961063 
L 36.652812 127.961063 
" style="fill:none;stroke:#8c564b;stroke-linecap:square;stroke-width:1.5;"/>
    </g>
    <g id="line2d_34"/>
    <g id="text_20">
     <!-- 5.5.13.ipstate-active-hwp.gnome-shell-classic.verifyxattr.warmup+main -->
     <g transform="translate(44.652812 131.461063)scale(0.1 -0.1)">
      <use xlink:href="#DejaVuSans-53"/>
      <use x="63.623047" xlink:href="#DejaVuSans-46"/>
      <use x="95.410156" xlink:href="#DejaVuSans-53"/>
      <use x="159.033203" xlink:href="#DejaVuSans-46"/>
      <use x="190.820312" xlink:href="#DejaVuSans-49"/>
      <use x="254.443359" xlink:href="#DejaVuSans-51"/>
      <use x="318.066406" xlink:href="#DejaVuSans-46"/>
      <use x="349.853516" xlink:href="#DejaVuSans-105"/>
      <use x="377.636719" xlink:href="#DejaVuSans-112"/>
      <use x="441.113281" xlink:href="#DejaVuSans-115"/>
      <use x="493.212891" xlink:href="#DejaVuSans-116"/>
      <use x="532.421875" xlink:href="#DejaVuSans-97"/>
      <use x="593.701172" xlink:href="#DejaVuSans-116"/>
      <use x="632.910156" xlink:href="#DejaVuSans-101"/>
      <use x="694.433594" xlink:href="#DejaVuSans-45"/>
      <use x="730.517578" xlink:href="#DejaVuSans-97"/>
      <use x="791.796875" xlink:href="#DejaVuSans-99"/>
      <use x="846.777344" xlink:href="#DejaVuSans-116"/>
      <use x="885.986328" xlink:href="#DejaVuSans-105"/>
      <use x="913.769531" xlink:href="#DejaVuSans-118"/>
      <use x="972.949219" xlink:href="#DejaVuSans-101"/>
      <use x="1034.472656" xlink:href="#DejaVuSans-45"/>
      <use x="1070.556641" xlink:href="#DejaVuSans-104"/>
      <use x="1133.935547" xlink:href="#DejaVuSans-119"/>
      <use x="1215.722656" xlink:href="#DejaVuSans-112"/>
      <use x="1279.199219" xlink:href="#DejaVuSans-46"/>
      <use x="1310.986328" xlink:href="#DejaVuSans-103"/>
      <use x="1374.462891" xlink:href="#DejaVuSans-110"/>
      <use x="1437.841797" xlink:href="#DejaVuSans-111"/>
      <use x="1499.023438" xlink:href="#DejaVuSans-109"/>
      <use x="1596.435547" xlink:href="#DejaVuSans-101"/>
      <use x="1657.958984" xlink:href="#DejaVuSans-45"/>
      <use x="1694.042969" xlink:href="#DejaVuSans-115"/>
      <use x="1746.142578" xlink:href="#DejaVuSans-104"/>
      <use x="1809.521484" xlink:href="#DejaVuSans-101"/>
      <use x="1871.044922" xlink:href="#DejaVuSans-108"/>
      <use x="1898.828125" xlink:href="#DejaVuSans-108"/>
      <use x="1926.611328" xlink:href="#DejaVuSans-45"/>
      <use x="1962.695312" xlink:href="#DejaVuSans-99"/>
      <use x="2017.675781" xlink:href="#DejaVuSans-108"/>
      <use x="2045.458984" xlink:href="#DejaVuSans-97"/>
      <use x="2106.738281" xlink:href="#DejaVuSans-115"/>
      <use x="2158.837891" xlink:href="#DejaVuSans-115"/>
      <use x="2210.9375" xlink:href="#DejaVuSans-105"/>
      <use x="2238.720703" xlink:href="#DejaVuSans-99"/>
      <use x="2293.701172" xlink:href="#DejaVuSans-46"/>
      <use x="2325.488281" xlink:href="#DejaVuSans-118"/>
      <use x="2384.667969" xlink:href="#DejaVuSans-101"/>
      <use x="2446.191406" xlink:href="#DejaVuSans-114"/>
      <use x="2487.304688" xlink:href="#DejaVuSans-105"/>
      <use x="2515.087891" xlink:href="#DejaVuSans-102"/>
      <use x="2548.542969" xlink:href="#DejaVuSans-121"/>
      <use x="2607.722656" xlink:href="#DejaVuSans-120"/>
      <use x="2666.902344" xlink:href="#DejaVuSans-97"/>
      <use x="2728.181641" xlink:href="#DejaVuSans-116"/>
      <use x="2767.390625" xlink:href="#DejaVuSans-116"/>
      <use x="2806.599609" xlink:href="#DejaVuSans-114"/>
      <use x="2838.587891" xlink:href="#DejaVuSans-46"/>
      <use x="2870.375" xlink:href="#DejaVuSans-119"/>
      <use x="2952.162109" xlink:href="#DejaVuSans-97"/>
      <use x="3013.441406" xlink:href="#DejaVuSans-114"/>
      <use x="3052.804688" xlink:href="#DejaVuSans-109"/>
      <use x="3150.216797" xlink:href="#DejaVuSans-117"/>
      <use x="3213.595703" xlink:href="#DejaVuSans-112"/>
      <use x="3277.072266" xlink:href="#DejaVuSans-43"/>
      <use x="3360.861328" xlink:href="#DejaVuSans-109"/>
      <use x="3458.273438" xlink:href="#DejaVuSans-97"/>
      <use x="3519.552734" xlink:href="#DejaVuSans-105"/>
      <use x="3547.335938" xlink:href="#DejaVuSans-110"/>
     </g>
    </g>
    <g id="line2d_35">
     <path d="M 16.652812 142.639188 
L 36.652812 142.639188 
" style="fill:none;stroke:#e377c2;stroke-linecap:square;stroke-width:1.5;"/>
    </g>
    <g id="line2d_36"/>
    <g id="text_21">
     <!-- 5.5.13.ipstate-disable.cinnamon.verifyxattr.warmup+main -->
     <g transform="translate(44.652812 146.139188)scale(0.1 -0.1)">
      <use xlink:href="#DejaVuSans-53"/>
      <use x="63.623047" xlink:href="#DejaVuSans-46"/>
      <use x="95.410156" xlink:href="#DejaVuSans-53"/>
      <use x="159.033203" xlink:href="#DejaVuSans-46"/>
      <use x="190.820312" xlink:href="#DejaVuSans-49"/>
      <use x="254.443359" xlink:href="#DejaVuSans-51"/>
      <use x="318.066406" xlink:href="#DejaVuSans-46"/>
      <use x="349.853516" xlink:href="#DejaVuSans-105"/>
      <use x="377.636719" xlink:href="#DejaVuSans-112"/>
      <use x="441.113281" xlink:href="#DejaVuSans-115"/>
      <use x="493.212891" xlink:href="#DejaVuSans-116"/>
      <use x="532.421875" xlink:href="#DejaVuSans-97"/>
      <use x="593.701172" xlink:href="#DejaVuSans-116"/>
      <use x="632.910156" xlink:href="#DejaVuSans-101"/>
      <use x="694.433594" xlink:href="#DejaVuSans-45"/>
      <use x="730.517578" xlink:href="#DejaVuSans-100"/>
      <use x="793.994141" xlink:href="#DejaVuSans-105"/>
      <use x="821.777344" xlink:href="#DejaVuSans-115"/>
      <use x="873.876953" xlink:href="#DejaVuSans-97"/>
      <use x="935.15625" xlink:href="#DejaVuSans-98"/>
      <use x="998.632812" xlink:href="#DejaVuSans-108"/>
      <use x="1026.416016" xlink:href="#DejaVuSans-101"/>
      <use x="1087.939453" xlink:href="#DejaVuSans-46"/>
      <use x="1119.726562" xlink:href="#DejaVuSans-99"/>
      <use x="1174.707031" xlink:href="#DejaVuSans-105"/>
      <use x="1202.490234" xlink:href="#DejaVuSans-110"/>
      <use x="1265.869141" xlink:href="#DejaVuSans-110"/>
      <use x="1329.248047" xlink:href="#DejaVuSans-97"/>
      <use x="1390.527344" xlink:href="#DejaVuSans-109"/>
      <use x="1487.939453" xlink:href="#DejaVuSans-111"/>
      <use x="1549.121094" xlink:href="#DejaVuSans-110"/>
      <use x="1612.5" xlink:href="#DejaVuSans-46"/>
      <use x="1644.287109" xlink:href="#DejaVuSans-118"/>
      <use x="1703.466797" xlink:href="#DejaVuSans-101"/>
      <use x="1764.990234" xlink:href="#DejaVuSans-114"/>
      <use x="1806.103516" xlink:href="#DejaVuSans-105"/>
      <use x="1833.886719" xlink:href="#DejaVuSans-102"/>
      <use x="1867.341797" xlink:href="#DejaVuSans-121"/>
      <use x="1926.521484" xlink:href="#DejaVuSans-120"/>
      <use x="1985.701172" xlink:href="#DejaVuSans-97"/>
      <use x="2046.980469" xlink:href="#DejaVuSans-116"/>
      <use x="2086.189453" xlink:href="#DejaVuSans-116"/>
      <use x="2125.398438" xlink:href="#DejaVuSans-114"/>
      <use x="2157.386719" xlink:href="#DejaVuSans-46"/>
      <use x="2189.173828" xlink:href="#DejaVuSans-119"/>
      <use x="2270.960938" xlink:href="#DejaVuSans-97"/>
      <use x="2332.240234" xlink:href="#DejaVuSans-114"/>
      <use x="2371.603516" xlink:href="#DejaVuSans-109"/>
      <use x="2469.015625" xlink:href="#DejaVuSans-117"/>
      <use x="2532.394531" xlink:href="#DejaVuSans-112"/>
      <use x="2595.871094" xlink:href="#DejaVuSans-43"/>
      <use x="2679.660156" xlink:href="#DejaVuSans-109"/>
      <use x="2777.072266" xlink:href="#DejaVuSans-97"/>
      <use x="2838.351562" xlink:href="#DejaVuSans-105"/>
      <use x="2866.134766" xlink:href="#DejaVuSans-110"/>
     </g>
    </g>
    <g id="line2d_37">
     <path d="M 16.652812 157.317313 
L 36.652812 157.317313 
" style="fill:none;stroke:#7f7f7f;stroke-linecap:square;stroke-width:1.5;"/>
    </g>
    <g id="line2d_38"/>
    <g id="text_22">
     <!-- 5.5.13.ipstate-disable.gnome-shell-classic.verifyxattr.warmup+main -->
     <g transform="translate(44.652812 160.817313)scale(0.1 -0.1)">
      <use xlink:href="#DejaVuSans-53"/>
      <use x="63.623047" xlink:href="#DejaVuSans-46"/>
      <use x="95.410156" xlink:href="#DejaVuSans-53"/>
      <use x="159.033203" xlink:href="#DejaVuSans-46"/>
      <use x="190.820312" xlink:href="#DejaVuSans-49"/>
      <use x="254.443359" xlink:href="#DejaVuSans-51"/>
      <use x="318.066406" xlink:href="#DejaVuSans-46"/>
      <use x="349.853516" xlink:href="#DejaVuSans-105"/>
      <use x="377.636719" xlink:href="#DejaVuSans-112"/>
      <use x="441.113281" xlink:href="#DejaVuSans-115"/>
      <use x="493.212891" xlink:href="#DejaVuSans-116"/>
      <use x="532.421875" xlink:href="#DejaVuSans-97"/>
      <use x="593.701172" xlink:href="#DejaVuSans-116"/>
      <use x="632.910156" xlink:href="#DejaVuSans-101"/>
      <use x="694.433594" xlink:href="#DejaVuSans-45"/>
      <use x="730.517578" xlink:href="#DejaVuSans-100"/>
      <use x="793.994141" xlink:href="#DejaVuSans-105"/>
      <use x="821.777344" xlink:href="#DejaVuSans-115"/>
      <use x="873.876953" xlink:href="#DejaVuSans-97"/>
      <use x="935.15625" xlink:href="#DejaVuSans-98"/>
      <use x="998.632812" xlink:href="#DejaVuSans-108"/>
      <use x="1026.416016" xlink:href="#DejaVuSans-101"/>
      <use x="1087.939453" xlink:href="#DejaVuSans-46"/>
      <use x="1119.726562" xlink:href="#DejaVuSans-103"/>
      <use x="1183.203125" xlink:href="#DejaVuSans-110"/>
      <use x="1246.582031" xlink:href="#DejaVuSans-111"/>
      <use x="1307.763672" xlink:href="#DejaVuSans-109"/>
      <use x="1405.175781" xlink:href="#DejaVuSans-101"/>
      <use x="1466.699219" xlink:href="#DejaVuSans-45"/>
      <use x="1502.783203" xlink:href="#DejaVuSans-115"/>
      <use x="1554.882812" xlink:href="#DejaVuSans-104"/>
      <use x="1618.261719" xlink:href="#DejaVuSans-101"/>
      <use x="1679.785156" xlink:href="#DejaVuSans-108"/>
      <use x="1707.568359" xlink:href="#DejaVuSans-108"/>
      <use x="1735.351562" xlink:href="#DejaVuSans-45"/>
      <use x="1771.435547" xlink:href="#DejaVuSans-99"/>
      <use x="1826.416016" xlink:href="#DejaVuSans-108"/>
      <use x="1854.199219" xlink:href="#DejaVuSans-97"/>
      <use x="1915.478516" xlink:href="#DejaVuSans-115"/>
      <use x="1967.578125" xlink:href="#DejaVuSans-115"/>
      <use x="2019.677734" xlink:href="#DejaVuSans-105"/>
      <use x="2047.460938" xlink:href="#DejaVuSans-99"/>
      <use x="2102.441406" xlink:href="#DejaVuSans-46"/>
      <use x="2134.228516" xlink:href="#DejaVuSans-118"/>
      <use x="2193.408203" xlink:href="#DejaVuSans-101"/>
      <use x="2254.931641" xlink:href="#DejaVuSans-114"/>
      <use x="2296.044922" xlink:href="#DejaVuSans-105"/>
      <use x="2323.828125" xlink:href="#DejaVuSans-102"/>
      <use x="2357.283203" xlink:href="#DejaVuSans-121"/>
      <use x="2416.462891" xlink:href="#DejaVuSans-120"/>
      <use x="2475.642578" xlink:href="#DejaVuSans-97"/>
      <use x="2536.921875" xlink:href="#DejaVuSans-116"/>
      <use x="2576.130859" xlink:href="#DejaVuSans-116"/>
      <use x="2615.339844" xlink:href="#DejaVuSans-114"/>
      <use x="2647.328125" xlink:href="#DejaVuSans-46"/>
      <use x="2679.115234" xlink:href="#DejaVuSans-119"/>
      <use x="2760.902344" xlink:href="#DejaVuSans-97"/>
      <use x="2822.181641" xlink:href="#DejaVuSans-114"/>
      <use x="2861.544922" xlink:href="#DejaVuSans-109"/>
      <use x="2958.957031" xlink:href="#DejaVuSans-117"/>
      <use x="3022.335938" xlink:href="#DejaVuSans-112"/>
      <use x="3085.8125" xlink:href="#DejaVuSans-43"/>
      <use x="3169.601562" xlink:href="#DejaVuSans-109"/>
      <use x="3267.013672" xlink:href="#DejaVuSans-97"/>
      <use x="3328.292969" xlink:href="#DejaVuSans-105"/>
      <use x="3356.076172" xlink:href="#DejaVuSans-110"/>
     </g>
    </g>
   </g>
  </g>
 </g>
 <defs>
  <clipPath id="pcb54d44205">
   <rect height="266.112" width="357.12" x="57.6" y="41.472"/>
  </clipPath>
 </defs>
</svg>
